<?xml version="1.0" encoding="UTF-8"?>
<svg version="1.1" xmlns="http://www.w3.org/2000/svg" width="512" height="512">
<path d="M0 0 C1.43815567 0.0036557 1.43815567 0.0036557 2.90536499 0.00738525 C19.17700444 0.05510316 35.42868848 0.49696552 51.6875 1.125 C52.72626282 1.16411499 53.76502563 1.20322998 54.83526611 1.24353027 C61.85246775 1.51437012 68.86404939 1.84866414 75.875 2.25 C76.93297791 2.30982056 77.99095581 2.36964111 79.08099365 2.43127441 C82.28885297 2.62330412 85.49373864 2.84222429 88.69921875 3.0703125 C90.13803154 3.15646317 90.13803154 3.15646317 91.60591125 3.24435425 C100.84408835 3.96177583 109.12206695 6.39005629 116.375 12.3125 C119.0124191 14.2431165 119.0124191 14.2431165 121.875 15.25 C125.03696731 14.46607736 127.42517196 13.16734949 130.25390625 11.56640625 C133.67033289 9.85055561 135.88661616 9.78154278 139.59375 10.453125 C144.07562767 12.0187124 147.97283535 14.58610054 151.875 17.25 C152.638125 16.775625 153.40125 16.30125 154.1875 15.8125 C158.55418823 13.27372777 161.85910605 12.59217784 166.875 13.25 C171.85688281 16.21496384 174.87363048 19.61603924 176.8125 25.0625 C177.60156496 27.37494372 177.60156496 27.37494372 178.875 29.25 C181.14426982 30.19006361 183.19429981 30.49276264 185.625 30.80859375 C190.16628132 31.69950484 192.86489674 34.80557715 195.46484375 38.5234375 C197.04900537 41.58644252 197.57607048 44.15749335 198.0625 47.5625 C198.30033203 49.16544922 198.30033203 49.16544922 198.54296875 50.80078125 C198.65253906 51.60902344 198.76210938 52.41726562 198.875 53.25 C199.926875 53.1675 200.97875 53.085 202.0625 53 C206.69857412 53.30400486 207.81114986 53.78301168 210.875 57.25 C213.42731971 61.92555378 215.51552484 66.56437813 216.62890625 71.78515625 C218.16687608 76.06158019 220.50898544 77.89151796 224.125 80.375 C225.25609735 81.18887005 226.38630974 82.00397144 227.515625 82.8203125 C228.35661743 83.42286865 228.35661743 83.42286865 229.21459961 84.03759766 C245.89761198 96.21931203 253.68596969 113.58010188 258.9296875 132.9609375 C259.53679587 136.07321979 259.53679587 136.07321979 260.875 137.25 C260.97986334 139.38958069 261.01357004 141.53266626 261.02026367 143.67480469 C261.02530159 144.68245628 261.02530159 144.68245628 261.03044128 145.71046448 C261.03999232 147.94761985 261.04189764 150.18470046 261.04296875 152.421875 C261.04618271 153.98114045 261.04954689 155.54040559 261.05305481 157.09967041 C261.05905937 160.38172095 261.06089378 163.66374513 261.06030273 166.94580078 C261.060202 171.11805626 261.07375506 175.29013811 261.09107494 179.46235275 C261.10229874 182.69178005 261.10421865 185.92116709 261.10369301 189.15061188 C261.10486138 190.68613524 261.10921768 192.22166005 261.11702538 193.757164 C261.1600246 203.10198595 260.54905206 212.0298094 258.875 221.25 C258.5547896 223.52793388 258.23845884 225.80642489 257.9296875 228.0859375 C256.93913927 235.05839294 255.71364347 241.97770511 254.38037109 248.89160156 C253.99915946 250.87938288 253.63035486 252.86922825 253.26171875 254.859375 C250.21401287 270.96119505 244.98388976 291.1503034 231.29296875 301.68359375 C216.94906615 310.97584729 200.43966133 314.39401622 183.484375 314.41796875 C182.56718185 314.42211288 181.64998871 314.42625702 180.70500183 314.43052673 C177.67829463 314.44027212 174.65172066 314.44016377 171.625 314.4375 C170.58054718 314.43756042 169.53609436 314.43762085 168.45999146 314.43768311 C151.56381753 314.42392622 134.69526656 314.03498225 117.8125 313.375 C116.77532837 313.33579437 115.73815674 313.29658875 114.66955566 313.25619507 C103.51889696 312.82503065 92.39491282 312.21181735 81.2734375 311.2890625 C80.32158066 311.21277618 79.36972382 311.13648987 78.38902283 311.05789185 C68.12791033 310.15206591 60.57487701 307.16195334 52.1640625 301.2265625 C49.86275677 299.9615949 49.86275677 299.9615949 47.29296875 300.98046875 C46.49503906 301.39941406 45.69710937 301.81835938 44.875 302.25 C40.43685682 304.51094087 36.98268194 305.88153711 31.94140625 305.04296875 C27.85963346 303.47661738 24.89463261 300.32584917 21.875 297.25 C21.194375 297.889375 20.51375 298.52875 19.8125 299.1875 C15.31559072 302.34490439 11.73022478 302.54816113 6.375 301.6875 C-1.3318096 298.5222032 -4.88819608 293.75938509 -8.125 286.25 C-8.99125 286.476875 -9.8575 286.70375 -10.75 286.9375 C-14.93483433 287.32498466 -16.63059128 286.52896221 -20.125 284.25 C-25.82033046 278.71739327 -27.31254268 270.88709882 -28.125 263.25 C-29.15625 263.353125 -30.1875 263.45625 -31.25 263.5625 C-35.21661153 263.24261197 -36.95120693 262.52776388 -39.83984375 259.80859375 C-44.77562229 253.82264957 -45.27016123 246.65322259 -45.125 239.25 C-45.69992188 238.98316406 -46.27484375 238.71632813 -46.8671875 238.44140625 C-51.01061698 236.2549945 -54.50718081 233.20332178 -58.125 230.25 C-59.34123047 229.27546875 -59.34123047 229.27546875 -60.58203125 228.28125 C-71.2495957 219.27681765 -78.60954767 208.23382128 -83.41416931 195.15252686 C-84.06566196 193.4088173 -84.76353254 191.68261888 -85.46582031 189.95874023 C-90.51495162 175.77963389 -89.77077017 161.12926856 -89.5848999 146.29180908 C-89.55522612 143.42137632 -89.55138134 140.55116924 -89.5480566 137.68060398 C-89.51648742 116.19226707 -88.99811848 94.95841089 -84.125 73.94921875 C-83.19638916 69.81148941 -82.58498081 65.67279946 -82.03027344 61.47045898 C-80.83888809 52.44936378 -79.01527056 44.5532648 -75.125 36.25 C-74.82932129 35.59483398 -74.53364258 34.93966797 -74.22900391 34.26464844 C-66.98050251 18.2773685 -66.98050251 18.2773685 -60.125 13.25 C-59.444375 12.734375 -58.76375 12.21875 -58.0625 11.6875 C-52.96690924 8.24453327 -47.65658199 6.25073664 -41.8125 4.5 C-41.15008301 4.30132324 -40.48766602 4.10264648 -39.80517578 3.89794922 C-26.61445017 0.21967519 -13.58082786 -0.07538142 0 0 Z M-58.125 23.25 C-67.50464355 35.21311857 -71.9292236 51.45091718 -75.01611328 66.08935547 C-75.5023471 68.38608657 -76.0169616 70.67513514 -76.53515625 72.96484375 C-80.64343372 91.52776134 -80.28414473 109.99523201 -80.25195312 128.92791748 C-80.24872362 132.25077913 -80.25640054 135.57362707 -80.26171875 138.89648438 C-80.26548015 150.15282492 -80.23959487 161.4022669 -79.71875 172.6484375 C-79.68524445 173.41939255 -79.65173889 174.1903476 -79.61721802 174.98466492 C-78.59854076 193.62671954 -70.33552811 208.48761665 -57.125 221.25 C-55.47865602 222.60834717 -53.8184597 223.95086575 -52.125 225.25 C-51.67125 224.115625 -51.2175 222.98125 -50.75 221.8125 C-49.125 218.25 -49.125 218.25 -47.125 217.25 C-47.125 221.21 -47.125 225.17 -47.125 229.25 C-45.805 229.91 -44.485 230.57 -43.125 231.25 C-42.76148438 230.21101562 -42.39796875 229.17203125 -42.0234375 228.1015625 C-39.33900123 220.6060119 -36.69694676 213.80674889 -32.03125 207.265625 C-30.87900769 205.28667721 -30.87900769 205.28667721 -31.7109375 203.25 C-33.36224244 200.91445268 -35.22335369 199.01958483 -37.25 197 C-47.31688276 185.9296659 -52.09395258 171.68306986 -55.125 157.25 C-55.31263916 156.415896 -55.50027832 155.58179199 -55.69360352 154.72241211 C-57.77337759 143.82726334 -57.38980355 132.77089211 -57.33081055 121.72387695 C-57.312669 118.22013955 -57.31030077 114.71666996 -57.31054688 111.21289062 C-57.28896798 97.86333448 -56.94964395 84.57431036 -56.125 71.25 C-55.465 71.25 -54.805 71.25 -54.125 71.25 C-54.13388245 71.97931229 -54.14276489 72.70862457 -54.1519165 73.46003723 C-54.23342748 80.47117151 -54.29363615 87.48213085 -54.33224869 94.49361134 C-54.35276966 98.09483004 -54.38039856 101.69564474 -54.42675781 105.29663086 C-54.72550358 129.15574944 -54.5705607 153.91402705 -45.125 176.25 C-44.70734375 177.28640625 -44.2896875 178.3228125 -43.859375 179.390625 C-40.17964978 187.63828498 -34.72689305 194.16590248 -28.125 200.25 C-27.465 200.25 -26.805 200.25 -26.125 200.25 C-25.14348198 199.14163965 -24.21572098 197.98554396 -23.3125 196.8125 C-17.31469996 189.71615554 -9.06100161 184.92604556 -1.125 180.25 C-3.105 178.27 -3.105 178.27 -5.125 176.25 C-5.785 176.58 -6.445 176.91 -7.125 177.25 C-7.125 177.91 -7.125 178.57 -7.125 179.25 C-9.765 179.58 -12.405 179.91 -15.125 180.25 C-15.125 178.93 -15.125 177.61 -15.125 176.25 C-11.165 175.26 -11.165 175.26 -7.125 174.25 C-8.300625 172.7340625 -8.300625 172.7340625 -9.5 171.1875 C-31.68911441 141.46146549 -40.89604156 107.68471921 -36.8125 70.75 C-36.63557617 68.99236328 -36.63557617 68.99236328 -36.45507812 67.19921875 C-35.30910298 56.72676899 -33.56378924 47.54566321 -25.75 39.9375 C-20.67300198 36.67371556 -14.49432013 37.00687853 -8.6015625 36.71484375 C-7.34425072 36.65003815 -7.34425072 36.65003815 -6.0615387 36.58392334 C-3.29129956 36.44513396 -0.52079474 36.31470274 2.25 36.1875 C3.20441986 36.14364166 4.15883972 36.09978333 5.1421814 36.05459595 C19.94680788 35.39386269 34.74655849 35.01512073 49.565979 34.95144653 C51.62325776 34.94225489 53.6805215 34.92827022 55.73773193 34.90914917 C86.99698654 34.65085848 86.99698654 34.65085848 97.1328125 42.47265625 C102.02653621 47.46513223 103.10938623 52.84593332 103.375 59.6875 C103.11954248 67.21909255 101.2535036 73.1239667 96.6875 79.125 C91.43088243 83.09666661 85.76587038 86.01177912 78.9921875 85.64453125 C73.46985086 84.61546114 67.5215124 82.70435515 63.875 78.25 C62.64399275 74.55697824 62.28010097 71.08980283 62.875 67.25 C64.875 64.75 64.875 64.75 66.875 63.25 C65.616875 63.1675 64.35875 63.085 63.0625 63 C62.35480469 62.95359375 61.64710938 62.9071875 60.91796875 62.859375 C58.76182903 63.09500296 58.76182903 63.09500296 57.140625 64.75 C55.35371052 68.27970761 55.38438446 71.63051182 55.4375 75.5 C55.44994751 76.6451709 55.44994751 76.6451709 55.46264648 77.81347656 C55.66033697 84.38439872 56.66496668 88.96333458 61.34765625 93.7578125 C69.83479048 100.78026399 82.45722556 100.02805907 92.875 99.25 C103.70060478 97.83899565 113.75067437 94.06834227 120.6328125 85.22265625 C126.88880778 75.28782098 128.23389959 63.74569246 128.25 52.25 C128.27449219 51.32960937 128.29898438 50.40921875 128.32421875 49.4609375 C128.36087504 40.78561566 126.01704952 32.48971679 119.953125 26.04296875 C117.18653908 23.65600834 114.27574166 21.54012715 111.25 19.5 C110.70682129 19.12286865 110.16364258 18.7457373 109.60400391 18.35717773 C98.70176089 11.37980463 85.49104397 11.61008053 73 11.125 C71.20276488 11.04718183 69.40556449 10.96855742 67.60839844 10.88916016 C63.16461263 10.6961669 58.72036005 10.51869603 54.27575684 10.34570312 C52.11615136 10.25961319 49.95699325 10.16724971 47.79785156 10.0703125 C32.51440217 9.38616129 17.22709333 9.11138376 1.92956543 9.01983643 C0.00903409 9.00683229 -1.91147219 8.98905793 -3.83190918 8.96600342 C-22.16303989 8.76112085 -44.33893634 9.24609786 -58.125 23.25 Z M127.875 22.25 C128.28492188 22.8790625 128.69484375 23.508125 129.1171875 24.15625 C138.84252089 39.60510496 136.87769762 57.62237232 133.0625 74.9375 C130.94150489 82.43168273 127.93796534 90.34841413 122.203125 95.85546875 C120.58767957 97.25495665 120.58767957 97.25495665 120.6875 99.9375 C120.749375 100.700625 120.81125 101.46375 120.875 102.25 C123.56748812 103.09140254 125.12280523 103.51634143 127.875 103.25 C137.40252639 97.88958257 144.24174481 86.25101298 147.875 76.25 C148.2875 75.115625 148.7 73.98125 149.125 72.8125 C152.19486611 58.23063596 150.24524949 36.7612765 143.875 23.25 C142.25031338 21.11818576 141.33342316 20.38339016 138.75390625 19.6328125 C137.60728516 19.50519531 137.60728516 19.50519531 136.4375 19.375 C135.67566406 19.27445313 134.91382813 19.17390625 134.12890625 19.0703125 C131.26389153 19.29871922 129.99955438 20.3819408 127.875 22.25 Z M153.875 25.25 C153.96587891 25.8483667 154.05675781 26.4467334 154.15039062 27.06323242 C157.45022511 49.08962759 159.71638644 71.50781604 146.12890625 90.71875 C141.8150723 96.34322565 136.98633596 101.13208584 131.68359375 105.828125 C129.54303473 108.1702338 129.54303473 108.1702338 129.97265625 111.421875 C130.66843852 114.34924786 130.66843852 114.34924786 132.875 116.25 C137.78540125 117.17070023 140.3673603 116.26631094 144.5 113.5 C146.31790926 112.11716963 148.1071115 110.69623101 149.875 109.25 C150.66197266 108.61457275 150.66197266 108.61457275 151.46484375 107.96630859 C161.99882271 99.33154407 169.59290565 89.78084942 172.875 76.25 C173.1496432 73.44980854 173.17925106 70.67164269 173.17578125 67.859375 C173.18220894 66.68148407 173.18220894 66.68148407 173.18876648 65.47979736 C173.19447998 63.82589679 173.19503216 62.1719711 173.19067383 60.51806641 C173.1875261 58.02070953 173.21096699 55.52455358 173.23632812 53.02734375 C173.51077065 37.65162054 173.51077065 37.65162054 166.875 24.25 C164.76970455 23.23934329 164.76970455 23.23934329 162.4375 22.8125 C161.67566406 22.62816406 160.91382813 22.44382812 160.12890625 22.25390625 C157.17416761 22.24878539 156.12326746 23.43573821 153.875 25.25 Z M179.875 37.25 C179.89071045 38.62551025 179.89071045 38.62551025 179.90673828 40.02880859 C179.94110894 43.47675156 179.96603794 46.92450874 179.98486328 50.37255859 C179.99483431 51.85631204 180.00841605 53.34004629 180.02587891 54.82373047 C180.15975379 66.50234491 179.89662255 76.94633475 173.875 87.25 C173.43800781 88.05824219 173.00101562 88.86648437 172.55078125 89.69921875 C165.71289293 101.49759029 155.21907731 112.27705937 142.875 118.25 C143.205 119.9 143.535 121.55 143.875 123.25 C154.48418582 123.4211159 164.22959687 118.50687686 172.375 111.9375 C179.43060693 105.06165376 182.5707122 96.85189372 185.6875 87.6875 C185.98986572 86.8011084 186.29223145 85.9147168 186.60375977 85.00146484 C191.20723694 70.81037382 191.67659829 54.74965241 186.5625 40.625 C185.08701381 38.00248514 185.08701381 38.00248514 182.26953125 37.6015625 C181.47933594 37.48554688 180.68914062 37.36953125 179.875 37.25 Z M-21.21875 48.04296875 C-32.38591581 60.97216688 -30.20021225 88.32161117 -29.125 104.25 C-26.0182766 133.46833169 -15.10692868 158.46626419 6.875 178.25 C9.15878744 179.39189372 10.65163188 179.38066503 13.1875 179.5 C18.02411323 179.97674089 19.52614011 181.73369712 22.875 185.25 C25.08623124 186.1488798 25.08623124 186.1488798 27.5 186.8125 C31.36721175 187.93831658 32.57941261 188.9109638 34.875 192.25 C35.98875 192.70375 37.1025 193.1575 38.25 193.625 C42.6798746 195.61080586 44.10286683 197.33640024 46.875 201.25 C47.205 202.24 47.535 203.23 47.875 204.25 C51.64365248 206.52361255 51.64365248 206.52361255 55.875 207.25 C56.865 209.725 56.865 209.725 57.875 212.25 C58.52726562 212.04503906 59.17953125 211.84007812 59.8515625 211.62890625 C61.16253906 211.22478516 61.16253906 211.22478516 62.5 210.8125 C63.35851562 210.54566406 64.21703125 210.27882813 65.1015625 210.00390625 C79.48243321 206.09473999 99.66357868 207.11943025 112.890625 214.66796875 C118.22624523 218.92176047 121.09896092 224.77268101 122.875 231.25 C123.52903585 238.64824971 123.88540526 245.80470584 119.875 252.25 C116.32716343 255.68339023 113.22193946 256.10306115 108.4375 256.625 C104.875 256.25 104.875 256.25 102 253.875 C99.875 251.25 99.875 251.25 98.875 249.25 C99.803125 248.816875 99.803125 248.816875 100.75 248.375 C103.00825765 247.31279958 103.00825765 247.31279958 104.875 245.25 C105.18544613 241.82383927 105.18544613 241.82383927 103.875 238.25 C100.31228598 234.61494661 96.30598364 232.94709767 91.25 232.75 C85.60104529 233.11883209 82.17633077 234.97824492 78.125 238.9375 C73.74564312 244.68717177 73.41467428 250.9951489 74.33984375 257.91796875 C75.14260709 261.41614186 76.48020065 263.59630343 78.875 266.25 C93.33648374 274.61315918 113.95560058 271.52341173 130.12884521 271.44561768 C132.94753832 271.43483052 135.76618308 271.43519223 138.58489323 271.43562889 C153.03594472 271.4350631 167.45870648 271.35878608 181.875 270.25 C182.93952393 270.16838623 184.00404785 270.08677246 185.10083008 270.00268555 C188.57381682 269.66341785 190.89745541 269.16555396 193.4765625 266.75 C198.31712551 259.50330918 198.81559169 249.70506976 199.875 241.25 C200.01639404 240.14277588 200.01639404 240.14277588 200.16064453 239.01318359 C203.79985419 208.71725853 198.16839153 177.92717442 179.875 153.25 C179.16859375 152.28835937 178.4621875 151.32671875 177.734375 150.3359375 C169.82999964 139.85331687 169.82999964 139.85331687 158.125 135.125 C156.71541016 134.95097656 156.71541016 134.95097656 155.27734375 134.7734375 C151.84782792 134.0261934 150.87978636 132.01522257 148.875 129.25 C147.02093525 128.60624043 147.02093525 128.60624043 144.9375 128.25 C140.61627714 127.41286273 138.91230701 125.44306634 135.875 122.25 C134.740625 121.8375 133.60625 121.425 132.4375 121 C128.02319189 118.83156795 126.82596591 116.43278697 124.3515625 112.32421875 C122.36038792 109.52709256 119.93916642 108.67994433 116.875 107.25 C115 104.0625 115 104.0625 113.875 101.25 C113.21113281 101.52714844 112.54726563 101.80429688 111.86328125 102.08984375 C110.98027344 102.45207031 110.09726562 102.81429687 109.1875 103.1875 C107.88232422 103.72697266 107.88232422 103.72697266 106.55078125 104.27734375 C100.15896751 106.60079137 93.90783616 106.43340473 87.1875 106.4375 C86.14916016 106.44974609 85.11082031 106.46199219 84.04101562 106.47460938 C73.94920938 106.49359083 65.39688089 105.6925487 57.14453125 99.51953125 C51.12619017 93.50119017 47.78653504 84.95366699 47.625 76.5 C47.70715706 70.3108347 48.90645195 65.57646588 52.9375 60.8125 C57.1405464 58.57683702 61.13234086 58.01675447 65.875 58.25 C69 59.6875 69 59.6875 70.875 61.25 C70.24119718 65.94014085 70.24119718 65.94014085 68.25 67.625 C66.50492892 69.33257784 66.50492892 69.33257784 66.875 72.6875 C68.04746284 76.86439886 69.27276625 77.96565665 72.875 80.25 C77.03033669 82.32766834 82.53324277 81.95432162 86.9140625 80.63671875 C91.86100279 78.1632486 94.72072742 74.27070137 96.875 69.25 C98.68511297 62.94812523 97.94580946 57.04795433 94.875 51.25 C92.11775828 47.93410146 89.90973451 46.61152926 85.75 45.5625 C84.88117188 45.33175781 84.01234375 45.10101563 83.1171875 44.86328125 C74.11231065 43.15994912 65.10775444 43.10236534 55.96875 43.1171875 C54.64943481 43.11623077 53.33011963 43.11527405 51.9708252 43.11428833 C49.18724383 43.1128226 46.40369476 43.1149267 43.62011719 43.11962891 C40.10832943 43.12528168 36.59661817 43.12197449 33.08483315 43.116189 C4.63757322 40.74968456 4.63757322 40.74968456 -21.21875 48.04296875 Z M198.875 62.25 C197.73414815 66.11014255 196.6847373 69.96851706 195.76171875 73.88671875 C191.26157548 92.96492313 185.3138698 108.24665279 168.875 120.25 C164.7081398 122.61054826 160.31770837 124.47430935 155.875 126.25 C155.875 127.57 155.875 128.89 155.875 130.25 C161.67105127 131.88478369 165.52465954 130.47587353 170.875 128.25 C171.78378906 127.88132812 172.69257813 127.51265625 173.62890625 127.1328125 C184.80617673 122.10229662 197.87121366 112.85346466 202.875 101.25 C206.97128982 90.16394255 210.30348265 78.21002646 206.75 66.5625 C204.40467939 63.66993791 202.46269097 63.04726466 198.875 62.25 Z M214.875 83.25 C214.606875 84.01441406 214.33875 84.77882813 214.0625 85.56640625 C210.75624453 94.60422959 206.55250035 102.85835546 201.875 111.25 C202.62007812 111.82105469 203.36515625 112.39210938 204.1328125 112.98046875 C215.43250627 122.33249451 220.93102333 135.8304695 224.6875 149.625 C224.97983521 150.68255493 224.97983521 150.68255493 225.27807617 151.76147461 C228.63591604 165.09368235 229.1903978 178.78318884 229.08081055 192.46166992 C229.06248012 194.81505213 229.06030267 197.16803778 229.06054688 199.52148438 C229.03980099 208.25032828 228.73522882 216.91148041 228.09326172 225.61694336 C227.74013746 231.49484271 227.79221254 237.36289201 227.875 243.25 C226.885 243.25 225.895 243.25 224.875 243.25 C224.90529297 242.20360352 224.93558594 241.15720703 224.96679688 240.07910156 C229.59387475 176.1400347 229.59387475 176.1400347 204.6484375 119.8515625 C202.75610443 117.94585605 200.84157743 116.07866161 198.875 114.25 C198.215 114.930625 197.555 115.61125 196.875 116.3125 C195.87984867 117.29659409 194.87929702 118.27524113 193.875 119.25 C193.05515625 120.04664063 193.05515625 120.04664063 192.21875 120.859375 C186.34912276 126.2813188 179.7337478 130.22466783 172.875 134.25 C174.855 136.23 174.855 136.23 176.875 138.25 C177.596875 137.775625 178.31875 137.30125 179.0625 136.8125 C181.76975226 135.30847097 183.83694275 134.68400818 186.875 134.25 C186.875 135.57 186.875 136.89 186.875 138.25 C184.235 138.91 181.595 139.57 178.875 140.25 C179.68569914 141.48035517 180.49875185 142.70915929 181.3125 143.9375 C181.8590625 144.76378906 182.405625 145.59007812 182.96875 146.44140625 C184.29025437 148.3884588 185.64718471 150.31175397 187.03125 152.21484375 C203.36548336 174.84223209 213.45029815 208.19240409 209.20507812 236.06835938 C208.78616554 238.83714849 208.43802198 241.61355946 208.078125 244.390625 C207.76458856 246.63600317 207.44685163 248.88079864 207.125 251.125 C206.980625 252.18412598 206.83625 253.24325195 206.6875 254.33447266 C205.44522718 262.27274625 203.10300419 268.65308104 197.6875 274.6875 C189.18374609 279.41180773 178.53575541 278.68409162 169.0625 278.875 C168.29219452 278.89268433 167.52188904 278.91036865 166.72824097 278.92858887 C160.4442584 279.07137955 154.16004193 279.16791687 147.875 279.25 C146.79520874 279.2643811 145.71541748 279.27876221 144.60290527 279.2935791 C137.55650938 279.38306115 130.51040873 279.44499777 123.46353149 279.48016357 C121.1334008 279.49327221 118.80329145 279.51113056 116.47323608 279.53399658 C84.02544283 279.8296365 84.02544283 279.8296365 74.42578125 271.84765625 C68.75215805 266.00253814 68.57556708 261.11117548 68.55810547 253.11181641 C68.68752135 246.50841099 69.95581635 240.8169315 74.1953125 235.63671875 C78.72388933 231.44221726 84.25528205 229.58959307 90.25 228.8125 C96.47045169 229.56324417 102.0089323 231.33841845 106.4375 235.875 C108.72223996 239.64978777 109.31340838 241.77823451 108.875 246.25 C106.875 249.125 106.875 249.125 104.875 251.25 C105.205 251.58 105.535 251.91 105.875 252.25 C109.28636476 252.3115942 109.28636476 252.3115942 112.875 251.25 C116.95216764 246.31448128 118.23781329 242.04275547 118.15625 235.79296875 C117.51428945 229.98857543 115.13774456 225.04845438 111.8125 220.3125 C101.69532062 213.20894852 88.07258036 213.8254167 76.44140625 215.5859375 C65.34211201 217.65261879 59.69758268 221.46887096 53.19921875 230.89257812 C44.51407372 243.97839029 42.64190144 257.91497641 43.875 273.25 C45.24422041 279.94727376 47.45694754 284.91555804 52.875 289.25 C53.54789063 289.81332031 54.22078125 290.37664062 54.9140625 290.95703125 C67.4310523 301.17278753 79.53313885 302.48889886 95.3125 303.25 C96.45545029 303.30820419 96.45545029 303.30820419 97.62149048 303.36758423 C112.95338531 304.14666969 128.29493428 304.73686066 143.63626099 305.29418945 C146.22755736 305.38877363 148.81876838 305.48572948 151.40988159 305.58520508 C191.66356774 308.24266765 191.66356774 308.24266765 227.8125 293.41015625 C238.52866573 282.18659631 242.13140454 265.3263196 245.5625 250.6875 C245.85705078 249.47642578 246.15160156 248.26535156 246.45507812 247.01757812 C251.11261331 227.47686307 252.04492167 208.45857986 252.00537109 188.46728516 C252.00005698 185.28413017 252.00531996 182.1011192 252.01171875 178.91796875 C252.01568229 168.67990575 251.88725117 158.4597771 251.4453125 148.23046875 C251.40866486 147.35048218 251.37201721 146.47049561 251.33425903 145.56384277 C250.27460702 123.72211126 242.69092223 106.49426239 226.875 91.25 C225.885 90.92 224.895 90.59 223.875 90.25 C222.885 92.23 221.895 94.21 220.875 96.25 C220.215 96.25 219.555 96.25 218.875 96.25 C218.875 92.62 218.875 88.99 218.875 85.25 C216.895 84.26 216.895 84.26 214.875 83.25 Z M-29.125 209.25 C-34.29278352 219.02472232 -36.25889332 228.53853101 -36.375 239.5 C-36.38442627 240.17385742 -36.39385254 240.84771484 -36.40356445 241.54199219 C-36.37558152 245.81018155 -35.67772331 249.28192931 -34.125 253.25 C-32.145 253.25 -30.165 253.25 -28.125 253.25 C-26.8197097 249.14765905 -25.98340205 245.27123364 -25.4375 241 C-23.43567867 228.59809132 -19.02985488 215.34075999 -10.125 206.25 C-9.43535156 205.48558594 -8.74570313 204.72117187 -8.03515625 203.93359375 C-1.41666127 196.87309032 6.19799002 192.36016262 14.875 188.25 C14.875 186.93 14.875 185.61 14.875 184.25 C-1.99241172 181.33064028 -19.61822012 196.77839385 -29.125 209.25 Z M-0.125 203.25 C-0.93195313 203.91902344 -1.73890625 204.58804688 -2.5703125 205.27734375 C-12.85045601 214.63401675 -18.34428759 228.1726287 -19.40869141 241.91186523 C-19.52529237 245.8001352 -19.53474712 249.67275345 -19.5 253.5625 C-19.51160156 254.88056641 -19.52320313 256.19863281 -19.53515625 257.55664062 C-19.5301267 266.82982761 -19.5301267 266.82982761 -16.125 275.25 C-14.09553147 277.17336969 -14.09553147 277.17336969 -12.125 278.25 C-10.64 277.26 -10.64 277.26 -9.125 276.25 C-8.68018313 273.85027039 -8.68018313 273.85027039 -8.75390625 271.03515625 C-8.73932373 269.96507324 -8.72474121 268.89499023 -8.7097168 267.79248047 C-8.70238525 266.64408691 -8.69505371 265.49569336 -8.6875 264.3125 C-8.50084465 255.92745608 -8.07243254 247.83885539 -6.3125 239.625 C-6.08252319 238.51910522 -6.08252319 238.51910522 -5.84790039 237.39086914 C-2.26729534 221.99444496 8.87998008 208.93558742 21.80078125 200.29296875 C24.13208032 198.88495644 26.47254939 197.53200184 28.875 196.25 C28.38 193.775 28.38 193.775 27.875 191.25 C17.05059245 190.07979378 7.78970734 196.68572492 -0.125 203.25 Z M20.875 206.25 C19.96621094 206.99378906 19.05742187 207.73757813 18.12109375 208.50390625 C9.07632301 216.25464123 5.18714874 224.28049882 0.875 235.25 C0.51792969 236.07113281 0.16085938 236.89226562 -0.20703125 237.73828125 C-5.19272566 251.37998978 -3.20557177 272.86200682 1.875 286.25 C3.52768208 289.31052237 4.46732101 290.76529404 7.76953125 291.90234375 C11.30637529 292.59133934 13.20629477 292.63450551 16.375 290.8125 C18.98036465 286.36166872 18.13860042 281.93753182 17.375 277.04907227 C16.63165516 271.40103075 16.61268681 265.76843387 16.57983398 260.08154297 C16.56833676 258.70090467 16.54792026 257.32031004 16.51831055 255.93994141 C16.23453899 242.6581643 18.8590581 232.89502376 26.875 222.25 C27.84179688 220.96029297 27.84179688 220.96029297 28.828125 219.64453125 C31.76320624 215.8524511 34.46551709 212.37474596 38.375 209.5625 C41.25403052 207.39129521 41.25403052 207.39129521 41.375 203.5625 C41.19944564 200.17867967 41.19944564 200.17867967 38.875 198.25 C31.22359323 196.62204111 26.51000837 201.60440325 20.875 206.25 Z M32.3984375 222.21875 C26.90534998 229.38119698 24.027441 236.2400067 22.875 245.25 C22.71257812 246.39984375 22.55015625 247.5496875 22.3828125 248.734375 C21.28155078 259.20759874 22.81867988 268.9882779 24.875 279.25 C25.03403809 280.05791992 25.19307617 280.86583984 25.35693359 281.69824219 C25.5214502 282.49133789 25.6859668 283.28443359 25.85546875 284.1015625 C26.00266357 284.81393066 26.1498584 285.52629883 26.30151367 286.26025391 C27.22842341 289.47622427 28.79014829 291.64393536 30.875 294.25 C33.91800316 295.77150158 36.529085 295.48899393 39.875 295.25 C40.535 294.26 41.195 293.27 41.875 292.25 C41.53726563 291.693125 41.19953125 291.13625 40.8515625 290.5625 C40.40554687 289.799375 39.95953125 289.03625 39.5 288.25 C39.05914062 287.5075 38.61828125 286.765 38.1640625 286 C34.78690654 278.79540061 34.51757816 271.82859326 34.5625 264 C34.56813965 262.97656494 34.5737793 261.95312988 34.57958984 260.89868164 C34.80887728 246.64086261 38.73753013 232.4399469 47.875 221.25 C47.875 220.59 47.875 219.93 47.875 219.25 C48.865 218.92 49.855 218.59 50.875 218.25 C51.04187448 215.83354218 51.04187448 215.83354218 50.875 213.25 C49.06134764 211.03350794 49.06134764 211.03350794 46.515625 210.92578125 C40.35345368 211.68237921 36.16246709 217.70666406 32.3984375 222.21875 Z " fill="#000000" transform="translate(170.125,98.75)"/>
<path d="M0 0 C0.99 0.33 1.98 0.66 3 1 C3.88793945 2.79077148 3.88793945 2.79077148 4.61328125 5.12109375 C5.02562012 6.39339844 5.02562012 6.39339844 5.44628906 7.69140625 C5.73213867 8.59761719 6.01798828 9.50382813 6.3125 10.4375 C10.82216789 23.88622685 17.22364974 32.87147574 27 43 C27.64710938 43.71027344 28.29421875 44.42054688 28.9609375 45.15234375 C37.46873267 54.23599406 50.3072112 64.53948559 62 69 C64.99302221 68.08075369 66.88632092 66.31930747 69.125 64.1875 C77.41098146 57.02504145 85.21091665 55.21783185 96 55 C97.00289063 54.92652344 98.00578125 54.85304687 99.0390625 54.77734375 C110.21650866 54.20225087 121.64060987 58.49393136 130 66 C138.24979214 75.32270008 141.55452148 83.46056551 141.30859375 95.84375 C140.94734859 99.53851064 140.04700292 102.61304225 138.55859375 106 C137.79617682 108.72977252 138.11044331 110.31470269 139 113 C140.71826847 115.23400015 140.71826847 115.23400015 142.9375 117.375 C161.67966114 137.54287229 174.3096045 166.32429653 174.0625 194 C174.05798828 194.67933594 174.05347656 195.35867188 174.04882812 196.05859375 C174.0372283 197.70576874 174.01930199 199.35289726 174 201 C173.01 201 172.02 201 171 201 C168.51332781 193.32835174 166.12624616 185.66523041 164.16577148 177.84008789 C158.69991446 156.07177588 149.85557754 138.90319188 134 123 C133.38898438 122.38640625 132.77796875 121.7728125 132.1484375 121.140625 C131.76945313 120.76421875 131.39046875 120.3878125 131 120 C128.05836204 121.3881887 125.47104274 123.0057878 122.8125 124.875 C110.8162375 132.93160323 98.20122141 134.65259423 83.9375 132.375 C72.71952403 129.73440501 62.82894933 123.60559519 56.59375 113.78515625 C51.81054683 104.61165588 51.51663458 93.97573489 54.5 84.125 C54.97996488 82.74287891 55.47183405 81.36442872 56 80 C54.83597656 79.23429687 54.83597656 79.23429687 53.6484375 78.453125 C44.8798525 72.55159524 36.8201107 66.10834572 29 59 C28.49694336 58.54367188 27.99388672 58.08734375 27.47558594 57.6171875 C12.1293924 43.49910225 2.62740763 27.76292857 0 7 C-0.04345651 4.66707137 -0.05740921 2.33262698 0 0 Z M76 77 C76.66829834 77.25579834 77.33659668 77.51159668 78.02514648 77.77514648 C100.59287461 86.46576427 100.59287461 86.46576427 110.75 91.875 C111.42087646 92.23134521 112.09175293 92.58769043 112.78295898 92.95483398 C115.66024959 94.53498233 118.2193751 96.17909436 120.765625 98.2578125 C122.9220862 100.30744732 122.9220862 100.30744732 126 100 C126.47861317 92.76762327 126.46502352 86.95336469 122 81 C115.30257755 73.46925771 106.58270312 69.7658028 96.640625 68.76171875 C87.97137573 68.49257539 82.04629743 70.80408073 76 77 Z M69 87 C67.59946494 89.80107012 67.7924496 92.18891681 67.75 95.3125 C67.72421875 96.44300781 67.6984375 97.57351563 67.671875 98.73828125 C68.27671731 104.75070182 71.63388165 107.97801679 76.1015625 111.64453125 C84.13033137 117.37700614 93.4763553 117.61757423 103 117 C108.59969413 115.99385917 113.68124281 114.87989965 118 111 C118 110.34 118 109.68 118 109 C108.98187495 102.45743869 98.19700347 98.32001631 88 94 C87.1961084 93.65839844 86.3922168 93.31679688 85.56396484 92.96484375 C83.21221067 91.96945232 80.85728212 90.98222194 78.5 90 C77.77594971 89.69707031 77.05189941 89.39414063 76.3059082 89.08203125 C72.77042008 87.53247092 72.77042008 87.53247092 69 87 Z " fill="#000000" transform="translate(163,163)"/>
<path d="M0 0 C0.99 0.33 1.98 0.66 3 1 C3.51332816 6.03061594 3.59992032 9.80513602 0.625 14.0625 C-0.674375 15.5165625 -0.674375 15.5165625 -2 17 C-2.66 17 -3.32 17 -4 17 C-4.32623167 10.88617681 -4.42194939 6.33824104 -1 1 C-0.67 0.67 -0.34 0.34 0 0 Z " fill="#000000" transform="translate(394,356)"/>
<path d="M0 0 C1.31677734 0.00966797 1.31677734 0.00966797 2.66015625 0.01953125 C4.9375 0.1875 4.9375 0.1875 6.9375 1.1875 C6.375 3.0625 6.375 3.0625 4.9375 5.1875 C0.86643763 6.72374995 -2.71840962 7.4507782 -7.0625 7.1875 C-7.3925 5.5375 -7.7225 3.8875 -8.0625 2.1875 C-4.79122414 0.00664943 -3.78873277 -0.06137859 0 0 Z " fill="#000000" transform="translate(156.0625,116.8125)"/>
<path d="M0 0 C3.01861375 0.24475247 4.7940397 0.86083764 7.3125 2.5625 C9.78719807 6.13706388 9.28590207 8.71146895 9 13 C5.16980938 12.45282991 3.38187612 11.01704309 1 8 C-0.25 4.25 -0.25 4.25 -1 1 C-0.67 0.67 -0.34 0.34 0 0 Z " fill="#000000" transform="translate(276,129)"/>
<path d="M0 0 C0.33 1.32 0.66 2.64 1 4 C-2.42094242 6.28062828 -3.68187222 6.21925007 -7.6875 6.125 C-9.17830078 6.09792969 -9.17830078 6.09792969 -10.69921875 6.0703125 C-11.45847656 6.04710937 -12.21773438 6.02390625 -13 6 C-13.33 4.68 -13.66 3.36 -14 2 C-4.58997722 -1.62870159 -4.58997722 -1.62870159 0 0 Z " fill="#000000" transform="translate(363,389)"/>
<path d="M0 0 C3 0 3 0 4.60546875 1.57421875 C5.12753906 2.27160156 5.64960938 2.96898437 6.1875 3.6875 C6.71730469 4.37199219 7.24710938 5.05648438 7.79296875 5.76171875 C9.20203314 8.37464398 9.2305617 10.07442819 9 13 C5.89156165 13.34538204 4.37484955 13.23301458 1.6875 11.5625 C-0.78519805 7.80766223 -0.33634519 4.37248747 0 0 Z " fill="#000000" transform="translate(227,370)"/>
<path d="M0 0 C1.60577252 4.01443129 0.36580696 7.04634827 -1 11 C-1.99 12.485 -1.99 12.485 -3 14 C-3.66 14 -4.32 14 -5 14 C-6.04976964 10.85069107 -6.10131595 8.61185544 -6.0625 5.3125 C-6.05347656 4.31863281 -6.04445313 3.32476562 -6.03515625 2.30078125 C-6.02355469 1.54152344 -6.01195312 0.78226563 -6 0 C-3.50907189 -1.24546405 -2.58919267 -0.7767578 0 0 Z " fill="#000000" transform="translate(290,152)"/>
<path d="M0 0 C2.25483415 3.38225122 3.15092729 5.02088931 3.1875 9 C3.20167969 9.70125 3.21585938 10.4025 3.23046875 11.125 C3 13 3 13 1 15 C-2.53571429 14.46428571 -2.53571429 14.46428571 -4 13 C-3.95969788 8.03276399 -3.65587458 3.65587458 0 0 Z " fill="#000000" transform="translate(225,346)"/>
<path d="M0 0 C0.66 0 1.32 0 2 0 C1.91227545 1.89666526 1.80408699 3.79238993 1.6875 5.6875 C1.62949219 6.74324219 1.57148437 7.79898438 1.51171875 8.88671875 C0.96217936 12.23009964 -0.08674018 14.23526262 -2 17 C-3.32 16.34 -4.64 15.68 -6 15 C-5.65237973 8.39521488 -4.3156059 5.05241666 0 0 Z " fill="#000000" transform="translate(120,139)"/>
<path d="M0 0 C1.32 0.33 2.64 0.66 4 1 C4.33 2.32 4.66 3.64 5 5 C3.58833114 5.98635837 2.17043816 6.96381255 0.75 7.9375 C-0.03890625 8.48277344 -0.8278125 9.02804687 -1.640625 9.58984375 C-3.82636993 10.89622441 -5.5153801 11.54980511 -8 12 C-7.41463247 8.33939179 -5.916761 6.45464836 -3.4375 3.75 C-2.79683594 3.04359375 -2.15617187 2.3371875 -1.49609375 1.609375 C-0.75552734 0.81273437 -0.75552734 0.81273437 0 0 Z " fill="#000000" transform="translate(382,379)"/>
<path d="M0 0 C0.38218767 1.65614657 0.71395102 3.32457024 1 5 C0 6 0 6 -3.8125 6.1875 C-7.03540201 6.1585691 -9.25544723 5.82970185 -12 4 C-11.67 3.01 -11.34 2.02 -11 1 C-6.95637513 -0.8380113 -4.26550147 -1.25455926 0 0 Z " fill="#000000" transform="translate(257,386)"/>
<path d="M0 0 C2.3828125 0.0234375 2.3828125 0.0234375 5.125 0.375 C6.03507812 0.48585938 6.94515625 0.59671875 7.8828125 0.7109375 C8.93082031 0.85402344 8.93082031 0.85402344 10 1 C10.33 2.32 10.66 3.64 11 5 C6.53763531 6.80619523 3.68965706 7.11658501 -1 6 C-1.625 4.125 -1.625 4.125 -2 2 C-1.34 1.34 -0.68 0.68 0 0 Z " fill="#000000" transform="translate(255,120)"/>
<path d="M0 0 C-1.4859916 4.59306496 -3.85014682 7.43569245 -7 11 C-8.65 10.67 -10.3 10.34 -12 10 C-12 7.8125 -12 7.8125 -11 5 C-7.59825374 2.17792351 -4.47899726 0 0 0 Z " fill="#000000" transform="translate(137,122)"/>
<path d="M0 0 C4.51617599 -0.07654536 8.59085217 -0.10228696 13 1 C13 1.66 13 2.32 13 3 C5.31506849 6.61643836 5.31506849 6.61643836 1 6 C0.34 5.34 -0.32 4.68 -1 4 C-0.625 1.875 -0.625 1.875 0 0 Z " fill="#000000" transform="translate(177,116)"/>
<path d="M0 0 C0.79921875 0.01804687 1.5984375 0.03609375 2.421875 0.0546875 C3.02515625 0.07789063 3.6284375 0.10109375 4.25 0.125 C4.8125 2.0625 4.8125 2.0625 5.25 4.125 C4.25 5.125 4.25 5.125 0.5 5.25 C-2.69588316 5.21551205 -5.63691725 4.90327069 -8.75 4.125 C-8.75 3.465 -8.75 2.805 -8.75 2.125 C-5.68753253 0.34090198 -3.52920727 -0.10380021 0 0 Z " fill="#000000" transform="translate(330.75,390.875)"/>
<path d="M0 0 C1.36511719 0.29197266 1.36511719 0.29197266 2.7578125 0.58984375 C3.45648438 0.74582031 4.15515625 0.90179688 4.875 1.0625 C4.875 2.0525 4.875 3.0425 4.875 4.0625 C3.44166979 4.45313507 2.00307321 4.82448474 0.5625 5.1875 C-0.63826172 5.50074219 -0.63826172 5.50074219 -1.86328125 5.8203125 C-4.125 6.0625 -4.125 6.0625 -7.125 4.0625 C-7.125 2.7425 -7.125 1.4225 -7.125 0.0625 C-4.4030754 -1.2984623 -2.9418043 -0.64116248 0 0 Z " fill="#000000" transform="translate(234.125,116.9375)"/>
<path d="M0 0 C-0.61538462 6.52307692 -0.61538462 6.52307692 -2.5625 8.9375 C-3.036875 9.288125 -3.51125 9.63875 -4 10 C-5.32 9.34 -6.64 8.68 -8 8 C-7.63487253 5.2980567 -7.30130763 3.41609148 -5.6875 1.1875 C-4 0 -4 0 0 0 Z " fill="#000000" transform="translate(234,328)"/>
<path d="M0 0 C0.33 1.32 0.66 2.64 1 4 C-0.5 5.125 -0.5 5.125 -3 6 C-5.7773082 5.57598348 -8.29639783 4.81108065 -11 4 C-11 3.01 -11 2.02 -11 1 C-7.32589215 -0.17571451 -3.83070817 -0.07366746 0 0 Z " fill="#000000" transform="translate(284,390)"/>
<path d="M0 0 C0.99 0.33 1.98 0.66 3 1 C3.36190476 6.42857143 3.36190476 6.42857143 1.8125 8.875 C-0.56036279 10.34781139 -2.25913944 10.22223194 -5 10 C-3.14285714 2.42857143 -3.14285714 2.42857143 0 0 Z " fill="#000000" transform="translate(282,174)"/>
<path d="M0 0 C1.52519276 0.08937803 3.04681929 0.24537146 4.5625 0.4375 C5.80193359 0.59025391 5.80193359 0.59025391 7.06640625 0.74609375 C7.70449219 0.82988281 8.34257812 0.91367188 9 1 C9.33 1.99 9.66 2.98 10 4 C6.5980513 6.09350689 3.94727588 6.17942163 0 6 C-0.38218767 4.34385343 -0.71395102 2.67542976 -1 1 C-0.67 0.67 -0.34 0.34 0 0 Z " fill="#000000" transform="translate(203,116)"/>
<path d="M0 0 C0 1.32 0 2.64 0 4 C-6.4 5.23076923 -6.4 5.23076923 -9.4375 4.0625 C-9.953125 3.711875 -10.46875 3.36125 -11 3 C-11 2.34 -11 1.68 -11 1 C-6.92630576 -1.03684712 -4.41062136 -1.0257259 0 0 Z " fill="#000000" transform="translate(310,391)"/>
<path d="M0 0 C-1.45652174 5.58333333 -1.45652174 5.58333333 -3.875 7.4375 C-6.31555804 8.08353007 -7.64656559 7.84051229 -10 7 C-9.375 4.625 -9.375 4.625 -8 2 C-5.23085693 0.78849991 -3.03028259 0 0 0 Z " fill="#000000" transform="translate(148,283)"/>
<path d="M0 0 C-0.75 7.75 -0.75 7.75 -3 10 C-3.99 10 -4.98 10 -6 10 C-6.6875 8.3125 -6.6875 8.3125 -7 6 C-4.06976744 0 -4.06976744 0 0 0 Z " fill="#000000" transform="translate(131,300)"/>
<path d="M0 0 C1.9375 0.3125 1.9375 0.3125 4 1 C5 4 5 4 3.8125 6.625 C2 9 2 9 -0.1875 9.8125 C-0.785625 9.874375 -1.38375 9.93625 -2 10 C-2.17942163 6.05272412 -2.09350689 3.4019487 0 0 Z " fill="#000000" transform="translate(383,202)"/>
<path d="M0 0 C-0.1875 1.8125 -0.1875 1.8125 -1 4 C-3.90696599 6.14197494 -5.35521088 7 -9 7 C-7.53913043 1.4 -7.53913043 1.4 -5.0625 -0.4375 C-3 -1 -3 -1 0 0 Z " fill="#000000" transform="translate(373,222)"/>
<path d="M0 0 C-1 3 -1 3 -3.8125 4.6875 C-7 6 -7 6 -11 6 C-10.875 4.125 -10.875 4.125 -10 2 C-6.40349908 0.40155515 -3.96602757 0 0 0 Z " fill="#000000" transform="translate(251,319)"/>
<path d="M0 0 C0 0.99 0 1.98 0 3 C-3.61973402 4.31626692 -6.09567131 5 -10 5 C-9 2 -9 2 -6.125 0.25 C-3 -1 -3 -1 0 0 Z " fill="#000000" transform="translate(271,188)"/>
<path d="M0 0 C2.05078125 0.03255208 4.1015625 0.06510417 6.15234375 0.09765625 C6.48234375 1.08765625 6.81234375 2.07765625 7.15234375 3.09765625 C3.83984375 3.78515625 3.83984375 3.78515625 0.15234375 4.09765625 C-1.78515625 2.66015625 -1.78515625 2.66015625 -2.84765625 1.09765625 C-1.84765625 0.09765625 -1.84765625 0.09765625 0 0 Z " fill="#000000" transform="translate(249.84765625,188.90234375)"/>
<path d="M0 0 C0.33 0.99 0.66 1.98 1 3 C-1.97 3 -4.94 3 -8 3 C-8 2.01 -8 1.02 -8 0 C-4.71023192 -1.09658936 -3.28696233 -0.79953138 0 0 Z " fill="#000000" transform="translate(263,320)"/>
<path d="M0 0 C2.97 0.495 2.97 0.495 6 1 C6.33 2.32 6.66 3.64 7 5 C5.35 5 3.7 5 2 5 C1.34 3.35 0.68 1.7 0 0 Z " fill="#000000" transform="translate(270,321)"/>
<path d="M0 0 C2.475 0.495 2.475 0.495 5 1 C5.33 2.32 5.66 3.64 6 5 C4.35 4.67 2.7 4.34 1 4 C0.67 2.68 0.34 1.36 0 0 Z " fill="#000000" transform="translate(235,186)"/>
<path d="M0 0 C1.32 0 2.64 0 4 0 C4.33 1.65 4.66 3.3 5 5 C3.68 4.67 2.36 4.34 1 4 C0.67 2.68 0.34 1.36 0 0 Z " fill="#000000" transform="translate(227,178)"/>
<path d="M0 0 C0.99 0.33 1.98 0.66 3 1 C2.67 2.65 2.34 4.3 2 6 C1.01 6 0.02 6 -1 6 C-1.042721 4.33388095 -1.04063832 2.66617115 -1 1 C-0.67 0.67 -0.34 0.34 0 0 Z " fill="#000000" transform="translate(282,340)"/>
<path d="M0 0 C0.99 0.33 1.98 0.66 3 1 C2.67 2.65 2.34 4.3 2 6 C1.01 5.67 0.02 5.34 -1 5 C-0.67 3.35 -0.34 1.7 0 0 Z " fill="#000000" transform="translate(228,166)"/>
<path d="M0 0 C1.32 0.33 2.64 0.66 4 1 C4 2.32 4 3.64 4 5 C3.01 4.67 2.02 4.34 1 4 C0.3125 1.9375 0.3125 1.9375 0 0 Z " fill="#000000" transform="translate(280,330)"/>
<path d="M0 0 C0.66 0.66 1.32 1.32 2 2 C1.01 1.67 0.02 1.34 -1 1 C-0.67 0.67 -0.34 0.34 0 0 Z " fill="#000000" transform="translate(150,309)"/>
<path d="M0 0 C0.66 0 1.32 0 2 0 C2 0.66 2 1.32 2 2 C1.34 2 0.68 2 0 2 C0 1.34 0 0.68 0 0 Z " fill="#000000" transform="translate(360,201)"/>
<path d="M0 0 C0.99 0.495 0.99 0.495 2 1 C1.01 1.495 1.01 1.495 0 2 C0 1.34 0 0.68 0 0 Z " fill="#000000" transform="translate(132,366)"/>
<path d="M0 0 C2 1 2 1 2 1 Z " fill="#000000" transform="translate(378,145)"/>
</svg>
