<?xml version="1.0" encoding="UTF-8"?>
<svg version="1.1" xmlns="http://www.w3.org/2000/svg" width="512" height="512">
<path d="M0 0 C12.87 0 25.74 0 39 0 C39 0.66 39 1.32 39 2 C39.85271484 2.07347656 39.85271484 2.07347656 40.72265625 2.1484375 C44.56559149 2.52054141 47.97493567 2.99235326 51.6875 4.125 C56.2111453 5.31992517 59.28938342 4.70928004 63.5625 2.9375 C66.21261187 1.9182262 68.18631755 1.83921815 71 2 C71 1.34 71 0.68 71 0 C74.47914941 -0.02887814 77.95826831 -0.04675687 81.4375 -0.0625 C82.92733398 -0.07506836 82.92733398 -0.07506836 84.44726562 -0.08789062 C85.86362305 -0.09272461 85.86362305 -0.09272461 87.30859375 -0.09765625 C88.62041626 -0.10551147 88.62041626 -0.10551147 89.95874023 -0.11352539 C92 0 92 0 93 1 C95.4720125 1.32595242 97.9291603 1.59553709 100.41015625 1.83203125 C101.97465231 1.99242033 103.53910393 2.15324324 105.10351562 2.31445312 C107.55758167 2.5626933 110.01182155 2.80761688 112.46704102 3.04418945 C126.30768596 4.3894723 140.7546798 5.99484624 153.25 12.5625 C153.90419922 12.90128174 154.55839844 13.24006348 155.23242188 13.58911133 C172.12933514 22.79380786 180.19022929 38.69242219 188.5625 55.3125 C189.04882904 56.27372269 189.04882904 56.27372269 189.54498291 57.25436401 C195.63606263 69.3909276 200.00379564 81.72887615 203 95 C203.18353027 95.75482666 203.36706055 96.50965332 203.55615234 97.28735352 C204.14511619 100.88690095 204.18177423 104.44851234 204.203125 108.0859375 C204.21004868 108.88308167 204.21697235 109.68022583 204.22410583 110.50152588 C204.24155498 113.12606654 204.24771898 115.75040369 204.25 118.375 C204.25133942 119.27804871 204.25267883 120.18109741 204.25405884 121.11151123 C204.2479859 140.16503879 203.05966481 159.04032499 201.19598389 177.99597168 C201.01696634 179.82651107 200.84618593 181.65785121 200.67626953 183.48925781 C198.68782008 204.30104235 195.23357759 234.72434596 181 251 C182.20381448 253.49361571 183.45428722 255.68143083 185 258 C186.20484779 264.11482903 186.81425882 270.37104266 184.234375 276.17578125 C181.79886872 279.77508957 178.43365759 282.390094 175 285 C175.48597656 285.60070312 175.97195313 286.20140625 176.47265625 286.8203125 C178.55664238 289.79438989 178.50028362 291.42654558 178 295 C174.32503029 302.05594185 168.47193699 306.93791491 161.00219727 309.50878906 C160.27959717 309.73276367 159.55699707 309.95673828 158.8125 310.1875 C158.03640381 310.4359668 157.26030762 310.68443359 156.46069336 310.94042969 C143.30187129 314.93997581 129.4690647 316.09512955 115.82641602 317.35449219 C112.10203509 317.38486911 112.10203509 317.38486911 109 319 C107.65985714 319.09784502 106.31465651 319.12797977 104.97094727 319.12939453 C104.11658585 319.13254669 103.26222443 319.13569885 102.38197327 319.13894653 C101.45283615 319.1369223 100.52369904 319.13489807 99.56640625 319.1328125 C98.14399879 319.13424759 98.14399879 319.13424759 96.69285583 319.13571167 C94.68285048 319.13639363 92.67284294 319.13453823 90.6628418 319.13037109 C87.5792141 319.12502896 84.49573247 319.1303125 81.41210938 319.13671875 C79.46354134 319.13605786 77.5149734 319.13477646 75.56640625 319.1328125 C74.17573692 319.13584885 74.17573692 319.13584885 72.75697327 319.13894653 C71.89945969 319.13579437 71.04194611 319.13264221 70.15844727 319.12939453 C69.40201431 319.12859894 68.64558136 319.12780334 67.8662262 319.12698364 C66 319 66 319 64 318 C62.66710119 317.8595484 61.32814043 317.7742965 59.98901367 317.71875 C59.15170715 317.68197647 58.31440063 317.64520294 57.45172119 317.60731506 C56.07376373 317.55419411 56.07376373 317.55419411 54.66796875 317.5 C53.70509949 317.45971176 52.74223022 317.41942352 51.75018311 317.37791443 C48.56281126 317.24666504 45.3752018 317.12295755 42.1875 317 C41.09688263 316.95642365 40.00626526 316.91284729 38.88259888 316.86795044 C22.90359619 316.23070397 6.92570873 315.76301274 -9.0625 315.4375 C-10.95841556 315.39831557 -12.85433028 315.35909083 -14.75024414 315.31982422 C-15.66192856 315.30099182 -16.57361298 315.28215942 -17.51292419 315.26275635 C-42.13670528 314.75343635 -66.57420949 314.10793924 -90.6875 308.5625 C-91.54239014 308.36946289 -92.39728027 308.17642578 -93.27807617 307.97753906 C-99.06833717 306.54588433 -103.76462097 304.66310532 -107.71484375 299.95703125 C-110.94919957 294.28399181 -111.51926638 290.36286811 -110 284 C-110.61488281 283.64808594 -111.22976562 283.29617188 -111.86328125 282.93359375 C-115.84306963 280.50255874 -118.57659397 278.66001528 -121.125 274.6875 C-122.19581746 270.17476928 -122.41447947 266.45268094 -121 262 C-118.4375 259.125 -118.4375 259.125 -116 257 C-116 253.10480289 -117.22717981 252.27532248 -119.75 249.375 C-127.86828774 239.47814745 -130.58547483 228.60696124 -130.30859375 215.88671875 C-129.44824147 207.8386132 -124.92541757 201.35622721 -119 196 C-118.34 196 -117.68 196 -117 196 C-117.65355469 195.29037109 -117.65355469 195.29037109 -118.3203125 194.56640625 C-133.21641866 178.02592473 -136.35661059 163.00757666 -135.21728516 141.08105469 C-134.31983522 128.35541627 -129.57251062 118.43312974 -123.41699219 107.41699219 C-117.67173577 97.07261981 -114.11645995 86.87809906 -113.76074219 74.98754883 C-113.24304972 59.17204387 -110.41589799 33.95951218 -99 22 C-95.84418077 19.60593024 -92.53278075 17.77906175 -89 16 C-88.15308594 15.55785156 -87.30617187 15.11570312 -86.43359375 14.66015625 C-73.58696924 8.36128968 -59.84012035 5.83122926 -45.625 5.75 C-44.28308594 5.7190625 -44.28308594 5.7190625 -42.9140625 5.6875 C-37.41508879 5.65552922 -32.97828339 6.35597287 -27.84545898 8.35864258 C-25.14671534 9.29654436 -23.65396324 9.02075509 -21 8 C-19.00246472 7.02039848 -17.02324243 6.00989975 -15.046875 4.98828125 C-10.08088782 2.59058133 -5.47773226 1.73279355 0 2 C0 1.34 0 0.68 0 0 Z M19 11 C20.65 12.65 22.3 14.3 24 16 C26.31 14.68 28.62 13.36 31 12 C31 11.34 31 10.68 31 10 C24.71148966 8.70383728 24.71148966 8.70383728 19 11 Z M3 10 C3.99 11.65 4.98 13.3 6 15 C8.96175123 14.38722388 10.38058783 13.74627478 13 12 C13 11.34 13 10.68 13 10 C9.7 10 6.4 10 3 10 Z M38 11 C38 14.51716303 38.82445585 15.37121748 41 18 C43.46800047 16.84826645 45.04783565 15.95216435 47 14 C44.64031256 11.90250005 43.45383006 11.03094296 40.25 10.8125 C39.5075 10.874375 38.765 10.93625 38 11 Z M58.6015625 15.8671875 C50.11306837 27.17137725 48.43660361 45.41134031 50.29711914 59.20239258 C50.70434948 61.42250262 51.17489375 63.61437895 51.6875 65.8125 C51.95759888 66.98643311 51.95759888 66.98643311 52.2331543 68.18408203 C55.65971542 82.42019204 62.37666587 94.91429403 71.69140625 106.171875 C85.07517447 122.56755721 97.1148666 138.05885835 96.375 160.32421875 C95.26983136 171.15717385 92.04050729 178.61786458 84 186 C80.1716703 188.687904 76.16699888 190.95030577 72.0625 193.1875 C57.66081411 200.77203226 57.66081411 200.77203226 45.9375 211.75 C45.18339844 212.69359375 44.42929687 213.6371875 43.65234375 214.609375 C41.81047309 216.78986172 41.81047309 216.78986172 42 219 C41.01 219.33 40.02 219.66 39 220 C36.72638745 223.76865248 36.72638745 223.76865248 36 228 C34.68 228 33.36 228 32 228 C32.00797607 227.34370605 32.01595215 226.68741211 32.02416992 226.01123047 C32.24169387 202.2618707 32.24169387 202.2618707 25 180 C24.66484375 179.3090625 24.3296875 178.618125 23.984375 177.90625 C20.66566708 171.8632296 15.5570525 167.01038219 10.83984375 162.05078125 C3.41251718 154.10960671 3.41251718 154.10960671 3.3125 148.5625 C3.67180592 138.77740201 9.0807449 130.77418587 14.40844727 122.89624023 C23.26479318 109.78315265 27.14745761 96.21478092 27.16796875 80.41015625 C27.17129715 79.50680038 27.17462555 78.60344452 27.17805481 77.67271423 C27.18309513 75.77082831 27.18546403 73.86893362 27.18530273 71.96704102 C27.18749063 69.07488314 27.20568112 66.18310626 27.22460938 63.29101562 C27.22754372 61.43489713 27.22952824 59.57877683 27.23046875 57.72265625 C27.24124702 56.43948265 27.24124702 56.43948265 27.25224304 55.13038635 C27.22769015 48.60498227 26.97974841 42.40780212 22.6875 37.1875 C17.85393825 33.25320555 14.35841782 31.20185453 8 31 C-1.63781227 32.31297732 -11.53206164 36.1387572 -18.21875 43.4140625 C-21.41592452 48.05557463 -22.24641589 51.79911221 -22.30859375 57.41015625 C-22.33373047 58.64830078 -22.35886719 59.88644531 -22.38476562 61.16210938 C-22.41955157 63.73498066 -22.45087771 66.30790137 -22.47851562 68.88085938 C-22.74513882 81.46417361 -25.40461437 91.53901499 -30.875 102.8125 C-42.72789893 128.11156798 -45.50548122 150.94007714 -39 178.25 C-34.04895555 200.13570512 -34.09227495 223.27448568 -35.73144531 245.54541016 C-36.10961491 249.39176499 -36.10961491 249.39176499 -35 253 C-18.17 252.34 -1.34 251.68 16 251 C20.91839839 231.32640644 17.93703198 219.42721236 9 202 C14.64127269 202.96314412 16.93757268 205.84516323 20.2890625 210.125 C25.55176244 218.96825835 26.54637823 226.39995122 26.25 236.625 C26.23195313 237.81996094 26.21390625 239.01492188 26.1953125 240.24609375 C26.1486112 243.16492527 26.0831334 246.08201761 26 249 C29.48376769 247.8387441 30.01509389 246.9623468 32.125 244.0625 C41.77381787 231.33254702 50.51052037 224.15285367 65.34375 218.42578125 C78.10490854 213.44947477 87.35233727 206.2933589 94 194 C94.71999318 190.81179612 94.71999318 190.81179612 95 188 C95.99 188 96.98 188 98 188 C94.6533223 200.0966507 90.9661447 209.91673317 81 218 C77.33129845 219.9925195 73.52445487 221.45945778 69.625 222.9375 C55.5470867 228.69800539 47.6935081 235.76200841 40 249 C40 249.33 40 249.66 40 250 C54.9249471 250.1167903 69.8498588 250.20496694 84.77516556 250.25906086 C91.70524621 250.28484509 98.63504297 250.31999908 105.56494141 250.37719727 C112.24985417 250.43234709 118.93441075 250.46140312 125.61956024 250.47438622 C128.172937 250.48364112 130.7262972 250.5017133 133.27954865 250.52865028 C136.84980983 250.56482652 140.41884353 250.56994987 143.98925781 250.56762695 C145.05021164 250.58560333 146.11116547 250.60357971 147.20426941 250.62210083 C152.96182976 250.69972543 152.96182976 250.69972543 157.60064697 247.62104797 C158.06243347 246.75610214 158.52421997 245.89115631 159 245 C159.46212891 244.1735498 159.92425781 243.34709961 160.40039062 242.49560547 C161.02204102 241.19453857 161.02204102 241.19453857 161.65625 239.8671875 C162.12160156 238.89523437 162.58695313 237.92328125 163.06640625 236.921875 C163.53949219 235.91640625 164.01257813 234.9109375 164.5 233.875 C165.20962891 232.40160156 165.20962891 232.40160156 165.93359375 230.8984375 C176.49963952 208.65413061 181.28257267 185.54382357 182 161 C182.05679932 159.52345947 182.05679932 159.52345947 182.11474609 158.01708984 C183.13807367 128.95372301 180.25954472 103.25872373 159.9375 81.3125 C151.20974293 73.01957781 139.58851843 65.42855575 128 62 C127.38382813 61.80277344 126.76765625 61.60554688 126.1328125 61.40234375 C120.13633051 60.27113927 112.50364583 60.81675175 107 63.5625 C102.36498223 67.32845194 99.03682518 72.03296531 98 78 C97.39223565 88.14498958 97.27292657 96.52217462 103.8125 104.8125 C108.02025498 109.35108584 112.56234991 111.46349681 118.77734375 112.07421875 C124.27801128 111.89054092 129.46058975 110.0262735 134 107 C133.81171228 104.55519921 133.81171228 104.55519921 133 102 C132.34 101.71125 131.68 101.4225 131 101.125 C130.01 100.568125 130.01 100.568125 129 100 C128.12006685 96.60597215 127.7031442 94.09836646 128.625 90.6875 C130.60905766 88.25252014 131.91834694 87.72123795 135 87 C141.57728639 86.77406268 147.05117507 88.59708861 152 93 C152.68812955 94.32238419 153.35790624 95.6546607 154 97 C154.99 97.4640625 154.99 97.4640625 156 97.9375 C158.74986668 99.39836667 159.08833304 101.11305462 160 104 C157.9754262 102.06745228 156.57894208 100.36841312 155 98 C154.91363281 98.76183594 154.82726562 99.52367187 154.73828125 100.30859375 C153.85699045 106.78486836 152.58874649 111.61448409 148.92578125 117.0625 C147.78047125 118.98905266 147.78047125 118.98905266 148.35546875 121.25 C148.56816406 121.8275 148.78085937 122.405 149 123 C148.34 123 147.68 123 147 123 C146.67 122.34 146.34 121.68 146 121 C145.27296875 121.59748047 145.27296875 121.59748047 144.53125 122.20703125 C135.72569543 129.16680611 127.46833875 131.50531369 116.22460938 130.40527344 C107.13523315 128.74939498 98.15344597 123.80059982 92 117 C91.48695313 116.47277344 90.97390625 115.94554687 90.4453125 115.40234375 C81.71467724 105.71598806 76.39644417 95.12608183 76.6875 81.9921875 C77.86015478 70.76401794 82.40223468 59.44360383 91.25 52.1875 C99.74613937 46.17353824 107.60375928 42.99205957 118 42 C118.87269531 41.91621094 119.74539063 41.83242187 120.64453125 41.74609375 C134.94821845 41.08130469 150.77498699 46.29939546 161.49267578 55.73852539 C163.52992171 57.61243527 165.51069128 59.53686384 167.47363281 61.48828125 C169.03397744 63.03365136 170.61958642 64.54912801 172.2109375 66.0625 C177.92719231 71.56024354 183.0149917 77.07866979 187 84 C188.29753062 80.10740815 187.1638568 77.84591093 185.75 74.1875 C185.48622559 73.49825439 185.22245117 72.80900879 184.95068359 72.09887695 C176.13253187 49.82362902 166.10321289 29.8467065 144.11328125 18.54296875 C133.65516019 14.16518272 121.7975453 13.31106379 110.625 12.3125 C109.93800018 12.24996033 109.25100037 12.18742065 108.54318237 12.12298584 C99.22233833 11.28568033 89.92518422 10.69862238 80.5625 10.625 C79.61777832 10.61122314 78.67305664 10.59744629 77.69970703 10.58325195 C70.73971901 10.63052592 64.22212292 11.49157206 58.6015625 15.8671875 Z M-6 15 C-4.95125002 17.62187494 -4.35068687 18.79371361 -1.875 20.25 C-1.25625 20.4975 -0.6375 20.745 0 21 C1.65 19.68 3.3 18.36 5 17 C3.18777466 14.9375006 3.18777466 14.9375006 1 13 C-2.10551666 13 -3.35261084 13.5393715 -6 15 Z M15 13 C13.02 14.32 11.04 15.64 9 17 C11.475 19.97 11.475 19.97 14 23 C16.31 21.68 18.62 20.36 21 19 C19.95125002 16.37812506 19.35068687 15.20628639 16.875 13.75 C16.25625 13.5025 15.6375 13.255 15 13 Z M-17.1875 14.9375 C-17.785625 15.288125 -18.38375 15.63875 -19 16 C-18.67 16.99 -18.34 17.98 -18 19 C-16.02 17.68 -14.04 16.36 -12 15 C-14.89186786 13.66695302 -14.89186786 13.66695302 -17.1875 14.9375 Z M-88 26 C-88.92167969 26.46019531 -89.84335938 26.92039062 -90.79296875 27.39453125 C-93.66712158 29.48528667 -94.41710303 31.39122081 -95.6875 34.6875 C-96.08324219 35.68136719 -96.47898437 36.67523438 -96.88671875 37.69921875 C-99.0071398 43.98608117 -100.1706652 49.71523149 -100.58105469 56.30664062 C-101.83439106 76.28757539 -106.81634274 95.13136562 -116.015625 112.90625 C-124.4184225 129.17997304 -130.64155238 147.26855187 -125.375 165.625 C-122.1903833 174.86597548 -118.40497248 183.49263219 -110 189 C-109.45085937 189.38285156 -108.90171875 189.76570312 -108.3359375 190.16015625 C-104.6996458 191.46751865 -101.05356314 191.02304853 -97.25 190.875 C-87.96061181 190.7274239 -79.88092676 192.25457557 -71 195 C-68.74093953 195.68247082 -66.48181998 196.36474609 -64.22265625 197.046875 C-57.80442597 198.99750935 -51.39896376 200.98713915 -45 203 C-45.37630192 193.12531871 -46.37401596 183.7532695 -48.53662109 174.07910156 C-49.24169529 170.91555473 -49.91726478 167.74588037 -50.59057617 164.57543945 C-50.93667152 162.9480482 -51.28683494 161.32151459 -51.6418457 159.69604492 C-56.39618152 137.56036803 -53.81832843 120.70503773 -43.01074219 100.89526367 C-38.84678517 93.10016158 -36.40592766 85.72320683 -35 77 C-34.74271118 75.55210083 -34.74271118 75.55210083 -34.48022461 74.07495117 C-32.9814789 64.89571525 -32.65910316 55.91499866 -32.68432617 46.63012695 C-32.68751897 44.17290111 -32.66380638 41.71684664 -32.63867188 39.25976562 C-32.60694982 31.38643009 -32.64715283 24.28489665 -36 17 C-38.63098505 14.36901495 -40.58278192 14.71473186 -44.16870117 14.66992188 C-60.69011904 14.7852211 -73.55573068 17.91381763 -88 26 Z M27 18 C28.33332095 21.99996286 30.4957827 22.83782337 34 25 C35.65 23.35 37.3 21.7 39 20 C37.35830472 17.97945196 35.69088222 15.97956942 34 14 C31.60824401 14 28.91501516 16.69615989 27 18 Z M-17 22 C-15.02 24.97 -15.02 24.97 -13 28 C-9.06326356 26.68775452 -6.77280706 25.08089673 -4 22 C-5.81222534 19.9375006 -5.81222534 19.9375006 -8 18 C-11.99904969 18 -13.80200422 19.72586967 -17 22 Z M6 19 C4.35 20.65 2.7 22.3 1 24 C5.455 23.505 5.455 23.505 10 23 C8.68 21.68 7.36 20.36 6 19 Z M19.6875 22.3125 C19.130625 22.869375 18.57375 23.42625 18 24 C18 24.66 18 25.32 18 26 C21.67452438 28.8394052 23.26886581 30 28 30 C29.7511573 28.5833253 29.7511573 28.5833253 31 27 C28.39208595 23.23152439 28.39208595 23.23152439 24.5 21 C21.91920148 20.79433103 21.91920148 20.79433103 19.6875 22.3125 Z M36 26 C36.33 27.32 36.66 28.64 37 30 C37.99 30 38.98 30 40 30 C40.66 27.69 41.32 25.38 42 23 C39.23776722 23 38.10718546 24.31425163 36 26 Z M-18 26 C-18.33 28.31 -18.66 30.62 -19 33 C-17.35 32.01 -15.7 31.02 -14 30 C-15.32 28.68 -16.64 27.36 -18 26 Z M28 32 C29.4317521 37.01113235 31.98445693 38.94469549 36 42 C37.64555699 40.77190909 37.64555699 40.77190909 39 39 C39 34.81519611 35.65134709 31.9164818 33 29 C31.03177114 29 29.49471455 30.84280164 28 32 Z M89.859375 61.36328125 C84.06669313 69.57769357 80.84675276 80.32184679 82.5625 90.3125 C85.84532188 102.70947211 93.11194136 113.55638219 104 120.4375 C105.64739958 121.32825984 107.3138093 122.18505251 109 123 C109.71800781 123.350625 110.43601562 123.70125 111.17578125 124.0625 C118.49332369 127.05908045 126.48906639 126.59137414 133.87890625 123.984375 C140.61993065 120.8097644 145.67980232 116.70332456 149.2734375 110.02734375 C151.06640853 105.02437621 150.74505034 99.88223243 148.8125 95 C146.06725254 91.97076142 143.8055762 91.14707466 139.74609375 90.81640625 C137.44712084 90.75367344 135.28070521 90.69530854 133 91 C132.34 91.66 131.68 92.32 131 93 C130.85231087 95.51749828 130.85231087 95.51749828 132 98 C134.96707046 99.85916824 134.96707046 99.85916824 138 101 C138.41017747 105.18381014 138.5160068 107.29049065 136 110.75 C129.23627979 115.82279016 122.38461178 117.06802522 114 116 C106.55323378 113.89691682 100.78585156 108.22572989 96.609375 101.890625 C92.43824928 93.37212881 92.39960865 81.92218549 94.84765625 72.86328125 C97.8625271 66.18968578 102.73052933 60.90055928 109.45703125 57.90625 C119.32518853 54.6320227 126.69012606 55.7606824 136 60 C144.23907252 64.23907638 151.95042567 68.94656117 159 75 C159.8559375 75.73476562 160.711875 76.46953125 161.59375 77.2265625 C176.65699968 90.47336148 184.26452625 107.00685272 186 127 C187.05373421 146.79496846 186.20512032 166.4288545 183 186 C182.8443457 187.01288086 182.68869141 188.02576172 182.52832031 189.06933594 C179.15048607 210.54319237 171.67383552 230.5736799 162 250 C167.30975378 250.43024054 167.30975378 250.43024054 171.625 247.6875 C177.36307686 239.64881222 179.97838334 230.2758171 182 220.75 C182.24782227 219.62392334 182.49564453 218.49784668 182.75097656 217.33764648 C183.25999431 215.01960046 183.7642423 212.70050181 184.26367188 210.38037109 C184.95619439 207.20110493 185.68191956 204.03179518 186.421875 200.86328125 C189.17403779 188.94617808 191.13809375 177.20195423 192 165 C192.08467529 163.83509033 192.16935059 162.67018066 192.2565918 161.4699707 C195.4402968 115.47780451 195.4402968 115.47780451 175.8203125 75 C175.21960938 74.34 174.61890625 73.68 174 73 C173.35804688 72.278125 172.71609375 71.55625 172.0546875 70.8125 C161.4524412 59.54516814 149.68119406 52.57310757 135 48 C134.33097656 47.79117188 133.66195312 47.58234375 132.97265625 47.3671875 C116.90115641 44.3756608 100.90161731 49.17248454 89.859375 61.36328125 Z M35 50 C35 53.63 35 57.26 35 61 C36.32 60.67 37.64 60.34 39 60 C38.896875 58.72125 38.79375 57.4425 38.6875 56.125 C38.62949219 55.40570313 38.57148438 54.68640625 38.51171875 53.9453125 C38.12606964 51.60480784 38.12606964 51.60480784 35 50 Z M35 67 C35 70.96 35 74.92 35 79 C37.31 77.35 39.62 75.7 42 74 C39.92391901 70.05544612 39.17799643 69.08899822 35 67 Z M42 76 C42 76.66 42 77.32 42 78 C40.02 78.99 40.02 78.99 38 80 C39.52708963 83.43595166 41.59927045 86.11912454 44 89 C44.99 88.34 45.98 87.68 47 87 C45.7874262 83.27566618 44.49140021 79.62197194 43 76 C42.67 76 42.34 76 42 76 Z M34 83 C34 83.99 34 84.98 34 86 C34 89.33333333 34 92.66666667 34 96 C37.96 93.525 37.96 93.525 42 91 C41.236875 89.68 40.47375 88.36 39.6875 87 C39.25824219 86.2575 38.82898438 85.515 38.38671875 84.75 C37.92910156 84.1725 37.47148437 83.595 37 83 C36.01 83 35.02 83 34 83 Z M48 89 C47.01 90.485 47.01 90.485 46 92 C47.98 93.65 49.96 95.3 52 97 C52 93.41465407 50.97637955 91.92504174 49 89 C48.67 89 48.34 89 48 89 Z M39.4375 96 C38.79683594 96.556875 38.15617188 97.11375 37.49609375 97.6875 C37.00238281 98.120625 36.50867188 98.55375 36 99 C38.475 101.97 38.475 101.97 41 105 C44.36591866 103.55746343 46.51047079 101.66735273 49 99 C47.35830472 96.97945196 45.69088222 94.97956942 44 93 C42.12175109 93 40.78481163 94.82416439 39.4375 96 Z M33 101 C32.01 104.3 31.02 107.6 30 111 C31.98 111.99 31.98 111.99 34 113 C35.65 111.02 37.3 109.04 39 107 C37.35830472 104.97945196 35.69088222 102.97956942 34 101 C33.67 101 33.34 101 33 101 Z M50 102 C48.02 104.31 46.04 106.62 44 109 C45.65 110.65 47.3 112.3 49 114 C52.82946843 112.54744301 54.12050295 110.57104439 56 107 C54.02 105.35 52.04 103.7 50 102 Z M41 110 C39.02 112.31 37.04 114.62 35 117 C37.475 119.97 37.475 119.97 40 123 C42.88437779 121.70700306 44.87219421 120.34058637 47 118 C45.55746343 114.63408134 43.66735273 112.48952921 41 110 Z M57 110 C56.67 110.99 56.34 111.98 56 113 C55.34 113 54.68 113 54 113 C54 113.66 54 114.32 54 115 C53.34 115 52.68 115 52 115 C52.78130071 117.49552484 52.78130071 117.49552484 54 120 C54.99 120.33 55.98 120.66 57 121 C58.98 118.69 60.96 116.38 63 114 C61.71034824 112.62437146 60.37310707 111.29233607 59 110 C58.34 110 57.68 110 57 110 Z M28 113 C27.67 114.65 27.34 116.3 27 118 C27.99 117.34 28.98 116.68 30 116 C29.67 115.01 29.34 114.02 29 113 C28.67 113 28.34 113 28 113 Z M64 117 C62.42159428 118.55705194 62.42159428 118.55705194 60.875 120.5 C60.33617187 121.1496875 59.79734375 121.799375 59.2421875 122.46875 C58.83226562 122.9740625 58.42234375 123.479375 58 124 C59.98 125.98 61.96 127.96 64 130 C67.60640202 128.96167573 67.60640202 128.96167573 70.0625 126.3125 C69.96130688 122.56835452 67.98704938 120.13110812 66 117 C65.34 117 64.68 117 64 117 Z M29.375 121.5 C28.59125 122.325 27.8075 123.15 27 124 C29.475 127.465 29.475 127.465 32 131 C33.32 130.34 34.64 129.68 36 129 C36 128.34 36 127.68 36 127 C36.99 126.67 37.98 126.34 39 126 C38.21654285 124.82780457 37.42297164 123.66236332 36.625 122.5 C36.18414062 121.8503125 35.74328125 121.200625 35.2890625 120.53125 C34.86367188 120.0259375 34.43828125 119.520625 34 119 C31.63721264 118.77011494 31.63721264 118.77011494 29.375 121.5 Z M49 119 C47.02 121.31 45.04 123.62 43 126 C43.99 127.485 43.99 127.485 45 129 C48.67420866 128.69381595 49.78135513 128.24228216 52.3125 125.4375 C52.869375 124.633125 53.42625 123.82875 54 123 C53.360625 122.71125 52.72125 122.4225 52.0625 122.125 C50 121 50 121 49 119 Z M24 126 C22.94983987 127.14034008 21.93409804 128.31256404 20.9375 129.5 C20.11572266 130.47453125 20.11572266 130.47453125 19.27734375 131.46875 C18.85582031 131.9740625 18.43429688 132.479375 18 133 C20.475 135.97 20.475 135.97 23 139 C26.36720387 137.60667426 27.9859524 136.0210714 30 133 C29.19152271 131.83054208 28.37810888 130.66449539 27.5625 129.5 C27.11003906 128.8503125 26.65757812 128.200625 26.19140625 127.53125 C25.79824219 127.0259375 25.40507812 126.520625 25 126 C24.67 126 24.34 126 24 126 Z M55 126 C52.43750025 128.31232422 52.43750025 128.31232422 50 131 C49.65629795 133.95508863 49.65629795 133.95508863 51.3125 135.38671875 C51.869375 135.81597656 52.42625 136.24523437 53 136.6875 C54.485 137.8321875 54.485 137.8321875 56 139 C57.98 137.35 59.96 135.7 62 134 C60.50902342 130.2047869 58.24299151 128.38957269 55 126 Z M40 128 C37.03 130.475 37.03 130.475 34 133 C35.15173355 135.46800047 36.04783565 137.04783565 38 139 C39.98 137.02 41.96 135.04 44 133 C42.6910428 129.87802522 42.6910428 129.87802522 40 128 Z M71 129 C69.68 130.32 68.36 131.64 67 133 C69.31 135.31 71.62 137.62 74 140 C74.66 139.67 75.32 139.34 76 139 C75.55090939 137.51800098 75.09043436 136.03944764 74.625 134.5625 C74.24214844 133.32693359 74.24214844 133.32693359 73.8515625 132.06640625 C73.19117773 129.82201984 73.19117773 129.82201984 71 129 Z M16 135 C14.21590198 138.06246747 13.77119979 140.22079273 13.875 143.75 C13.89304688 144.54921875 13.91109375 145.3484375 13.9296875 146.171875 C13.95289063 146.77515625 13.97609375 147.3784375 14 148 C14.33 147.34 14.66 146.68 15 146 C15.639375 145.71125 16.27875 145.4225 16.9375 145.125 C19.42001234 143.77090236 19.96871397 142.57821507 21 140 C19.35 138.35 17.7 136.7 16 135 Z M46 135 C44.02 136.98 42.04 138.96 40 141 C40.71745356 143.46229997 40.71745356 143.46229997 42 146 C43.32 146.66 44.64 147.32 46 148 C48.31 146.02 50.62 144.04 53 142 C50.41889311 137.41455183 50.41889311 137.41455183 46 135 Z M31 136 C29.30911778 137.97956942 27.64169528 139.97945196 26 142 C26.99 143.32 27.98 144.64 29 146 C32.16115776 144.63016497 32.9927092 144.0109362 35 141 C34.03114628 139.31503702 33.03013277 137.64821244 32 136 C31.67 136 31.34 136 31 136 Z M64 135 C60.535 137.97 60.535 137.97 57 141 C58.98 143.64 60.96 146.28 63 149 C65.64 147.02 68.28 145.04 71 143 C68.9957983 138.9915966 67.50944037 137.58590343 64 135 Z M49.9375 146.5 C49.20402344 147.1496875 48.47054687 147.799375 47.71484375 148.46875 C47.14894531 148.9740625 46.58304688 149.479375 46 150 C47.98 152.64 49.96 155.28 52 158 C55.98175544 155.89851796 58.35039045 153.63094642 61 150 C60.02433888 148.83040013 59.044375 147.66438823 58.0625 146.5 C57.51722656 145.8503125 56.97195313 145.200625 56.41015625 144.53125 C55.94480469 144.0259375 55.47945312 143.520625 55 143 C53.00075727 143 51.34007777 145.25326421 49.9375 146.5 Z M23 144 C21.13749195 146.21491684 21.13749195 146.21491684 20 149 C20.69140351 151.30287793 20.69140351 151.30287793 22 153 C25.16115776 151.63016497 25.9927092 151.0109362 28 148 C26.63676257 145.9600281 26.63676257 145.9600281 25 144 C24.34 144 23.68 144 23 144 Z M72 144 C70.09198426 145.20129367 70.09198426 145.20129367 68.3125 146.9375 C67.68988281 147.50339844 67.06726563 148.06929687 66.42578125 148.65234375 C65.72001953 149.31943359 65.72001953 149.31943359 65 150 C65.90172468 151.17825358 66.82201502 152.34231577 67.75 153.5 C68.51570312 154.47453125 68.51570312 154.47453125 69.296875 155.46875 C71.11404296 157.44572515 71.11404296 157.44572515 75 157 C76.74668165 155.9448979 76.74668165 155.9448979 78.25 154.5 C79.1575 153.675 80.065 152.85 81 152 C80.07038578 150.84775972 79.1309875 149.70340824 78.1875 148.5625 C77.66542969 147.92441406 77.14335937 147.28632813 76.60546875 146.62890625 C74.99165589 144.7451725 74.99165589 144.7451725 72 144 Z M36 145 C34.36323743 146.9600281 34.36323743 146.9600281 33 149 C34.15173355 151.46800047 35.04783565 153.04783565 37 155 C38.65 153.35 40.3 151.7 42 150 C40.71937515 148.2925002 39.38232443 146.62626404 38 145 C37.34 145 36.68 145 36 145 Z M30 152 C28.35 153.65 26.7 155.3 25 157 C26.32 158.32 27.64 159.64 29 161 C30.65 160.01 32.3 159.02 34 158 C32.88145414 154.27385847 32.88145414 154.27385847 30 152 Z M43 153 C40.94009522 154.29467677 40.94009522 154.29467677 39 156 C38.65944803 159.24565858 38.65944803 159.24565858 41.5 161.6875 C42.325 162.450625 43.15 163.21375 44 164 C45.32 163.34 46.64 162.68 48 162 C48.44844853 157.87387385 48.44844853 157.87387385 45.5 155.25 C44.675 154.5075 43.85 153.765 43 153 Z M62 153 C58.535 155.97 58.535 155.97 55 159 C56.2491742 162.45925163 57.67527795 165.14693203 60 168 C63.93673644 166.68775452 66.22719294 165.08089673 69 162 C67.44499019 158.18315774 64.96404505 155.80804268 62 153 Z M81 155 C78.03 157.475 78.03 157.475 75 160 C76.32 161.65 77.64 163.3 79 165 C80.32 164.34 81.64 163.68 83 163 C83.16681109 160.08347826 83.16681109 160.08347826 83 157 C82.34 156.34 81.68 155.68 81 155 Z M31 163 C31.57352893 166.87132028 33.48704352 169.08172796 36 172 C39.36720387 170.60667426 40.9859524 169.0210714 43 166 C42.02433888 164.83040013 41.044375 163.66438823 40.0625 162.5 C39.51722656 161.8503125 38.97195313 161.200625 38.41015625 160.53125 C37.94480469 160.0259375 37.47945312 159.520625 37 159 C34.77885534 159 32.64121052 161.65336573 31 163 Z M48.9375 164 C48.298125 164.66 47.65875 165.32 47 166 C48.55500981 169.81684226 51.03595495 172.19195732 54 175 C55.65 173.35 57.3 171.7 59 170 C57.85760183 168.66372225 56.71098945 167.33104612 55.5625 166 C54.60537109 164.88625 54.60537109 164.88625 53.62890625 163.75 C53.09136719 163.1725 52.55382812 162.595 52 162 C50.64082319 161.88397569 50.64082319 161.88397569 48.9375 164 Z M69.15234375 164.75 C68.05599609 165.86375 68.05599609 165.86375 66.9375 167 C65.83728516 168.11375 65.83728516 168.11375 64.71484375 169.25 C63.86599609 170.11625 63.86599609 170.11625 63 171 C63.99 172.65 64.98 174.3 66 176 C68.99220268 174.63629701 71.29026529 173.05091917 73.75 170.875 C74.36359375 170.33617187 74.9771875 169.79734375 75.609375 169.2421875 C76.06828125 168.83226562 76.5271875 168.42234375 77 168 C75.3545622 166.31237149 73.68711423 164.6459651 72 163 C70.69686153 162.88539008 70.69686153 162.88539008 69.15234375 164.75 Z M29 168 C30 170 30 170 30 170 Z M38 174 C38.92543709 175.34173403 39.86577405 176.67320159 40.8125 178 C41.33457031 178.7425 41.85664063 179.485 42.39453125 180.25 C43.18923828 181.11625 43.18923828 181.11625 44 182 C44.99 182 45.98 182 47 182 C49.20142332 179.5609294 49.20142332 179.5609294 51 177 C50.02471263 175.66382648 49.04466681 174.3311249 48.0625 173 C47.51722656 172.2575 46.97195313 171.515 46.41015625 170.75 C45.94480469 170.1725 45.47945312 169.595 45 169 C42.59244254 169 39.75431241 172.50696816 38 174 Z M31 171 C31.66 172.65 32.32 174.3 33 176 C33.66 175.34 34.32 174.68 35 174 C33.68 173.01 32.36 172.02 31 171 Z M60 173 C58.68 174.32 57.36 175.64 56 177 C57.07401108 179.91517292 57.77810176 181.77810176 60 184 C61.65 182.35 63.3 180.7 65 179 C63.63016497 175.83884224 63.0109362 175.0072908 60 173 Z M69 178 C69 178.66 69 179.32 69 180 C71.94956528 178.63055898 74.52468811 177.12169591 77 175 C77 174.34 77 173.68 77 173 C73.47085452 173 71.48911562 175.72732921 69 178 Z M35 177 C33.6976002 179.01933138 33.6976002 179.01933138 34.77734375 181.3828125 C35.35162109 182.74019531 35.35162109 182.74019531 35.9375 184.125 C36.31777344 185.03507813 36.69804687 185.94515625 37.08984375 186.8828125 C37.39019531 187.58148438 37.69054687 188.28015625 38 189 C39.65 187.35 41.3 185.7 43 184 C42.04882866 182.8274869 41.08882991 181.66212985 40.125 180.5 C39.59132813 179.8503125 39.05765625 179.200625 38.5078125 178.53125 C38.01023437 178.0259375 37.51265625 177.520625 37 177 C36.34 177 35.68 177 35 177 Z M53 180 C50.03 182.475 50.03 182.475 47 185 C47.99 186.485 47.99 186.485 49 188 C53.12973628 187.43260132 53.12973628 187.43260132 57 186 C55.88145414 182.27385847 55.88145414 182.27385847 53 180 Z M43 188 C41.70366379 189.06645115 41.70366379 189.06645115 41.9375 191.5625 C41.958125 192.366875 41.97875 193.17125 42 194 C43.65 192.35 45.3 190.7 47 189 C45.05396726 188.40929986 45.05396726 188.40929986 43 188 Z M38 192 C38.66 193.98 39.32 195.96 40 198 C40.66 196.68 41.32 195.36 42 194 C40.68 193.34 39.36 192.68 38 192 Z M-104 203 C-102.02 204.98 -100.04 206.96 -98 209 C-94.08597051 207.73058503 -92.20927127 206.48832306 -90 203 C-91.01760473 200.86124923 -91.01760473 200.86124923 -93 199 C-98.27106467 198.23329968 -100.69891454 198.77461061 -104 203 Z M-90 199 C-89.01 200.485 -89.01 200.485 -88 202 C-87.01 201.67 -86.02 201.34 -85 201 C-87.67642489 198.81509993 -87.67642489 198.81509993 -90 199 Z M-83.6875 202.5 C-84.120625 202.995 -84.55375 203.49 -85 204 C-83.75023244 207.65316671 -83.32901247 208.78065836 -80 211 C-78.35 209.35 -76.7 207.7 -75 206 C-76.79857668 203.4390706 -76.79857668 203.4390706 -79 201 C-82.00259517 200.66781808 -82.00259517 200.66781808 -83.6875 202.5 Z M-115 204 C-115 204.66 -115 205.32 -115 206 C-111.27385847 204.88145414 -111.27385847 204.88145414 -109 202 C-111.46278801 202 -112.85224119 202.85452863 -115 204 Z M-106 204 C-108.97 206.475 -108.97 206.475 -112 209 C-109.525 212.465 -109.525 212.465 -107 216 C-104.69 214.68 -102.38 213.36 -100 212 C-101.44253657 208.63408134 -103.33264727 206.48952921 -106 204 Z M-69 205 C-69.44290923 209.00346023 -69.44290923 209.00346023 -67 211.25 C-66.34 211.8275 -65.68 212.405 -65 213 C-61.34683329 211.75023244 -60.21934164 211.32901247 -58 208 C-59.26839526 207.49384702 -60.53983102 206.99530901 -61.8125 206.5 C-62.52019531 206.2215625 -63.22789062 205.943125 -63.95703125 205.65625 C-66.11841216 204.8470838 -66.11841216 204.8470838 -69 205 Z M-118 207 C-117.67 207.66 -117.34 208.32 -117 209 C-116.67 208.34 -116.34 207.68 -116 207 C-116.66 207 -117.32 207 -118 207 Z M-92.125 209.5 C-93.07375 210.325 -94.0225 211.15 -95 212 C-92.525 214.97 -92.525 214.97 -90 218 C-86.73539027 216.19587357 -85.11070205 215.16605307 -83 212 C-84.28062485 210.2925002 -85.61767557 208.62626404 -87 207 C-89.58926331 207 -90.20051661 207.82653618 -92.125 209.5 Z M-52 208 C-52.33 208.66 -52.66 209.32 -53 210 C-52.34 210 -51.68 210 -51 210 C-50.67 210.99 -50.34 211.98 -50 213 C-48.00016466 212.20882096 -48.00016466 212.20882096 -46 211 C-45.67 210.01 -45.34 209.02 -45 208 C-47.31 208 -49.62 208 -52 208 Z M-74 209 C-76.19038423 210.37168238 -76.19038423 210.37168238 -78 212 C-76.7251791 214.84383123 -75.54862922 217.13754018 -73 219 C-70.34305562 218.83394098 -69.23616321 218.21086001 -67.25 216.4375 C-66.8375 215.963125 -66.425 215.48875 -66 215 C-69.47736026 211.21965377 -69.47736026 211.21965377 -74 209 Z M-114 211 C-115.98 212.32 -117.96 213.64 -120 215 C-117.525 217.97 -117.525 217.97 -115 221 C-113.35 220.34 -111.7 219.68 -110 219 C-110 215.09161134 -111.50567876 213.88405893 -114 211 Z M-61 215 C-61 215.66 -61 216.32 -61 217 C-58.53673288 218.6446674 -58.53673288 218.6446674 -56 220 C-54.68 218.35 -53.36 216.7 -52 215 C-53.37485532 213.45833358 -53.37485532 213.45833358 -55 212 C-57.79908133 212 -58.92722373 213.2035939 -61 215 Z M-45 213 C-45 213.66 -45 214.32 -45 215 C-45.99 215.495 -45.99 215.495 -47 216 C-45.68 216.99 -44.36 217.98 -43 219 C-43.33 217.02 -43.66 215.04 -44 213 C-44.33 213 -44.66 213 -45 213 Z M-98 214 C-99.65 215.65 -101.3 217.3 -103 219 C-101.68 220.65 -100.36 222.3 -99 224 C-96.11562221 222.70700306 -94.12780579 221.34058637 -92 219 C-93.98 217.35 -95.96 215.7 -98 214 Z M-81 215 C-82.98 216.32 -84.96 217.64 -87 219 C-85.50902342 222.7952131 -83.24299151 224.61042731 -80 227 C-78.35 225.68 -76.7 224.36 -75 223 C-76.44253657 219.63408134 -78.33264727 217.48952921 -81 215 Z M-121 219 C-120.67 221.64 -120.34 224.28 -120 227 C-119.34 226.34 -118.68 225.68 -118 225 C-118.32198966 221.90073181 -118.32198966 221.90073181 -119 219 C-119.66 219 -120.32 219 -121 219 Z M-68.25 221 C-68.8275 221.66 -69.405 222.32 -70 223 C-68.68 224.32 -67.36 225.64 -66 227 C-63.11562221 225.70700306 -61.12780579 224.34058637 -59 222 C-60.2488427 220.4166747 -60.2488427 220.4166747 -62 219 C-66.00346023 218.55709077 -66.00346023 218.55709077 -68.25 221 Z M-52.5625 220.5 C-53.7690625 221.7375 -53.7690625 221.7375 -55 223 C-53.35 224.65 -51.7 226.3 -50 228 C-46.34683329 226.75023244 -45.21934164 226.32901247 -43 223 C-47.70907421 217.7859504 -47.70907421 217.7859504 -52.5625 220.5 Z M-108 221 C-109.63676257 222.9600281 -109.63676257 222.9600281 -111 225 C-109.02 226.65 -107.04 228.3 -105 230 C-103.68 228.68 -102.36 227.36 -101 226 C-102.62339805 224.29115995 -104.29319053 222.62553283 -106 221 C-106.66 221 -107.32 221 -108 221 Z M-93.625 224.5 C-94.40875 225.325 -95.1925 226.15 -96 227 C-93.03 230.465 -93.03 230.465 -90 234 C-86.76524552 232.38262276 -85.29427979 231.52370777 -83 229 C-83.95117134 227.8274869 -84.91117009 226.66212985 -85.875 225.5 C-86.40867187 224.8503125 -86.94234375 224.200625 -87.4921875 223.53125 C-87.98976563 223.0259375 -88.48734375 222.520625 -89 222 C-91.36278736 221.77011494 -91.36278736 221.77011494 -93.625 224.5 Z M-79 229 C-78.67 229.66 -78.34 230.32 -78 231 C-77.34 231 -76.68 231 -76 231 C-76 231.66 -76 232.32 -76 233 C-75.34 233 -74.68 233 -74 233 C-73.67 233.66 -73.34 234.32 -73 235 C-71.02 233.35 -69.04 231.7 -67 230 C-68.64169528 227.97945196 -70.30911778 225.97956942 -72 224 C-74.40755746 224 -77.24568759 227.50696816 -79 229 Z M-60.625 227.5 C-61.40875 228.325 -62.1925 229.15 -63 230 C-61.35 231.65 -59.7 233.3 -58 235 C-55.11562221 233.70700306 -53.12780579 232.34058637 -51 230 C-52.62339805 228.29115995 -54.29319053 226.62553283 -56 225 C-58.36278736 224.77011494 -58.36278736 224.77011494 -60.625 227.5 Z M-114 226 C-114.99 226.99 -115.98 227.98 -117 229 C-116.690625 229.61875 -116.38125 230.2375 -116.0625 230.875 C-115.375 232.25 -114.6875 233.625 -114 235 C-112.35 234.34 -110.7 233.68 -109 233 C-110.29299694 230.11562221 -111.65941363 228.12780579 -114 226 Z M-45.5625 229.5 C-46.036875 229.995 -46.51125 230.49 -47 231 C-45.515 231.99 -45.515 231.99 -44 233 C-43.67 231.35 -43.34 229.7 -43 228 C-44.24076302 227.88457803 -44.24076302 227.88457803 -45.5625 229.5 Z M-100 229 C-101.32 230.32 -102.64 231.64 -104 233 C-101.69 235.31 -99.38 237.62 -97 240 C-95.35 239.01 -93.7 238.02 -92 237 C-92.76116551 235.84772177 -93.53432693 234.7033614 -94.3125 233.5625 C-94.74175781 232.92441406 -95.17101562 232.28632813 -95.61328125 231.62890625 C-97.0034052 229.7114316 -97.0034052 229.7114316 -100 229 Z M-72 236 C-68.82460444 239.42578949 -68.82460444 239.42578949 -65 242 C-63.02 240.68 -61.04 239.36 -59 238 C-59.97566112 236.83040013 -60.955625 235.66438823 -61.9375 234.5 C-62.48277344 233.8503125 -63.02804688 233.200625 -63.58984375 232.53125 C-64.05519531 232.0259375 -64.52054687 231.520625 -65 231 C-67.40755746 231 -70.24568759 234.50696816 -72 236 Z M-83 232 C-85.20142332 234.4390706 -85.20142332 234.4390706 -87 237 C-85.68 238.32 -84.36 239.64 -83 241 C-79.34683329 239.75023244 -78.21934164 239.32901247 -76 236 C-77.81222534 233.9375006 -77.81222534 233.9375006 -80 232 C-80.99 232 -81.98 232 -83 232 Z M-50 233 C-51.38232443 234.62626404 -52.71937515 236.2925002 -54 238 C-52.02 239.98 -50.04 241.96 -48 244 C-46.68 243.34 -45.36 242.68 -44 242 C-43.66501699 239.66834966 -43.66501699 239.66834966 -44 237 C-45.7712618 234.64477775 -45.7712618 234.64477775 -48 233 C-48.66 233 -49.32 233 -50 233 Z M-107 234 C-108.32 235.32 -109.64 236.64 -111 238 C-108.69 240.31 -106.38 242.62 -104 245 C-102.35 244.01 -100.7 243.02 -99 242 C-99.95421808 240.85073734 -100.91352045 239.70569459 -101.875 238.5625 C-102.40867187 237.92441406 -102.94234375 237.28632813 -103.4921875 236.62890625 C-104.9222757 234.89194996 -104.9222757 234.89194996 -107 234 Z M-117 235 C-117 235.99 -117 236.98 -117 238 C-116.34 238 -115.68 238 -115 238 C-115.33 237.01 -115.66 236.02 -116 235 C-116.33 235 -116.66 235 -117 235 Z M-92 239 C-92.66 240.32 -93.32 241.64 -94 243 C-92.8354799 244.66621425 -92.8354799 244.66621425 -91 246 C-88.34533951 245.76956136 -88.34533951 245.76956136 -86 245 C-85.69302969 242.03837129 -85.69302969 242.03837129 -87.3125 240.3125 C-89.03837129 238.69302969 -89.03837129 238.69302969 -92 239 Z M-114 240 C-114.33 240.66 -114.66 241.32 -115 242 C-112.525 245.465 -112.525 245.465 -110 249 C-109.01 248.01 -108.02 247.02 -107 246 C-108.61594832 243.95880212 -110.2856382 241.95927063 -112 240 C-112.66 240 -113.32 240 -114 240 Z M-75 239 C-76.65 240.65 -78.3 242.3 -80 244 C-76.535 245.98 -76.535 245.98 -73 248 C-71.68 246.68 -70.36 245.36 -69 244 C-70.98 242.35 -72.96 240.7 -75 239 Z M-58 240 C-59.65 241.65 -61.3 243.3 -63 245 C-61.02 246.65 -59.04 248.3 -57 250 C-54.53199953 248.84826645 -52.95216435 247.95216435 -51 246 C-53.31 244.02 -55.62 242.04 -58 240 Z M-98 244 C-99.63676257 245.9600281 -99.63676257 245.9600281 -101 248 C-98.525 249.98 -98.525 249.98 -96 252 C-94.68 250.68 -93.36 249.36 -92 248 C-93.28965176 246.62437146 -94.62689293 245.29233607 -96 244 C-96.66 244 -97.32 244 -98 244 Z M-85.625 247.5 C-86.07875 247.995 -86.5325 248.49 -87 249 C-85.35 250.65 -83.7 252.3 -82 254 C-80.68 253.34 -79.36 252.68 -78 252 C-78 251.01 -78 250.02 -78 249 C-81.6432301 245.60762161 -81.6432301 245.60762161 -85.625 247.5 Z M-69.6875 249.5 C-70.120625 249.995 -70.55375 250.49 -71 251 C-67.91111478 253.05925681 -67.29064073 253.2390374 -63.8125 253.125 C-62.554375 253.08375 -61.29625 253.0425 -60 253 C-62.31232422 250.43750025 -62.31232422 250.43750025 -65 248 C-68.00259517 247.66781808 -68.00259517 247.66781808 -69.6875 249.5 Z M-105 249 C-105.99 250.485 -105.99 250.485 -107 252 C-103.93882432 254.62386487 -103.26826873 255 -99 255 C-100.04874998 252.37812506 -100.64931313 251.20628639 -103.125 249.75 C-104.053125 249.37875 -104.053125 249.37875 -105 249 Z M-49 249 C-50.70532323 250.94009522 -50.70532323 250.94009522 -52 253 C-49.36 253 -46.72 253 -44 253 C-44.66 251.68 -45.32 250.36 -46 249 C-46.99 249 -47.98 249 -49 249 Z M-90 250 C-91.32 251.32 -92.64 252.64 -94 254 C-91.36 254 -88.72 254 -86 254 C-87.32 252.68 -88.64 251.36 -90 250 Z M56.1875 258.375 C55.35957821 258.3853125 54.53165642 258.395625 53.67864609 258.40625 C34.33758197 258.64847074 15.0257802 258.90142938 -4.28237915 260.13369751 C-23.11375068 261.32342331 -41.98369854 261.42465433 -60.84649944 261.63487339 C-62.89452247 261.65797446 -64.94252297 261.68255928 -66.99052429 261.70750427 C-69.50636058 261.73731734 -72.02224325 261.76355077 -74.53816223 261.78529358 C-93.61124807 261.65242503 -93.61124807 261.65242503 -112 266 C-114.22274553 268.67813631 -114.22274553 268.67813631 -113.875 271 C-112.73834412 273.59807057 -111.39211516 274.52251711 -109 276 C-99.59321224 279.13559592 -87.09366853 277.17052689 -77.35302734 276.2752533 C-61.72959108 274.84824858 -46.19715039 274.78880449 -30.52032471 274.92095947 C-25.77341128 274.95982276 -21.02644242 274.98760384 -16.27941895 275.00868225 C-13.77507181 275.02074856 -11.27074221 275.03815444 -8.76647949 275.06199646 C-2.97565183 275.09527089 2.63941114 274.89275601 8.39007568 274.23722839 C13.87766941 273.73843499 19.392014 273.79460713 24.8984375 273.76171875 C25.5664526 273.75697855 26.2344677 273.75223835 26.92272568 273.74735451 C32.07347411 273.71155512 37.2241446 273.69692286 42.375 273.6875 C43.13695175 273.6854657 43.8989035 273.6834314 44.6839447 273.68133545 C72.82219095 273.61112333 100.77906148 274.79542423 128.84655952 276.71800709 C144.12189961 277.79818604 144.12189961 277.79818604 159.421875 278.375 C161.3723877 278.41753906 161.3723877 278.41753906 163.36230469 278.4609375 C168.81440857 277.77009373 173.37715917 275.81954881 177.0625 271.6875 C178.29422831 268.15654551 177.77869795 265.61032686 177 262 C170.71465537 259.2509618 165.52538755 258.53562388 158.703125 258.48828125 C157.71544128 258.47033005 156.72775757 258.45237885 155.71014404 258.43388367 C152.55680749 258.38009597 149.40360819 258.34618825 146.25 258.3125 C144.21091664 258.27925055 142.17185321 258.24475415 140.1328125 258.20898438 C112.15136143 257.75188334 84.16827688 258.01909769 56.1875 258.375 Z M21.25585938 281.09521484 C9.96215881 281.20190971 -1.3314363 281.31720657 -12.625 281.4375 C-13.54765404 281.44722336 -14.47030807 281.45694672 -15.42092133 281.46696472 C-27.77014638 281.59788284 -40.1186098 281.75656224 -52.46687317 281.95931244 C-55.00762912 282.00012254 -57.54841973 282.03750178 -60.0892334 282.07452393 C-64.14350674 282.13540399 -68.19720068 282.21220794 -72.25095749 282.30092049 C-73.73894738 282.33152245 -75.22704053 282.35753082 -76.71519852 282.37841606 C-84.87649321 282.49734392 -92.30769424 283.03562468 -100 286 C-100.66376473 288.37478614 -100.66376473 288.37478614 -101 291 C-95.69941805 298.76156643 -84.95526679 300.21901833 -76.31455708 301.97302151 C-68.10216005 303.50470202 -59.87259035 303.54974549 -51.54296875 303.66015625 C-49.77194769 303.69399437 -48.00095136 303.72914875 -46.22998047 303.76551819 C-42.48645106 303.84014386 -38.74290471 303.9069472 -34.99911499 303.96710205 C-26.16044962 304.10947229 -17.32253258 304.29050149 -8.48452187 304.4683075 C-5.5343946 304.52728089 -2.58423899 304.5846587 0.36592102 304.64196777 C15.35026697 304.93813535 30.32082183 305.40971948 45.29690552 305.98934937 C62.98997397 306.67204357 80.66786443 307.20095594 98.375 307.25 C99.61136703 307.25776459 99.61136703 307.25776459 100.87271118 307.26568604 C116.72728924 307.3460544 133.02430316 306.92146346 148.25 302.125 C149.51650391 301.75955078 149.51650391 301.75955078 150.80859375 301.38671875 C158.82055474 299.0719171 158.82055474 299.0719171 166 295 C166.76021074 292.94255541 166.76021074 292.94255541 167 291 C161.35299385 286.22176403 155.00574856 285.58619003 147.90625 284.9765625 C146.99758179 284.89483795 146.08891357 284.8131134 145.15270996 284.72891235 C132.62108974 283.64949047 120.06116988 282.99764462 107.5 282.375 C106.8424044 282.34229507 106.18480881 282.30959015 105.50728607 282.27589417 C81.95265148 281.10995439 58.49254987 280.64974264 34.91137695 280.95318604 C30.3595934 281.00766481 25.80776414 281.05228388 21.25585938 281.09521484 Z " fill="#000000" transform="translate(222,97)"/>
<path d="M0 0 C4.94886697 1.96087182 7.94786528 5.58323057 10.3125 10.3125 C10.94363458 14.23512126 11.08687223 17.79233015 9.25390625 21.390625 C6.24309075 25.2744954 3.20273176 27.44007873 -1.66796875 28.296875 C-6.2935165 28.3326626 -9.63478273 26.19899876 -13.0625 23.3125 C-16.1132332 19.55775145 -16.01000153 15.98877216 -15.6875 11.3125 C-13.34245803 4.90271862 -6.61162865 0.56030751 0 0 Z M-9.125 9.9375 C-10.89550688 13.76179486 -10.94954113 15.34608502 -9.6875 19.3125 C-7.75744771 21.66848629 -7.75744771 21.66848629 -4.3125 21.625 C-0.80186125 21.51674865 -0.80186125 21.51674865 1.75 20.25 C3.61622252 18.27236102 3.61622252 18.27236102 3.8125 14.875 C3.57721984 11.32785917 3.57721984 11.32785917 1.6875 8.875 C-0.65032129 7.128428 -0.65032129 7.128428 -3.6875 6.6875 C-6.92445059 7.06000328 -6.92445059 7.06000328 -9.125 9.9375 Z " fill="#000000" transform="translate(163.6875,146.6875)"/>
<path d="M0 0 C2.89274814 0.2374644 3.99599414 0.62239619 6.5 2.25 C8.43204232 5.30906701 8.52979878 7.0677796 8 10.625 C6.36965236 13.2516712 5.09775787 13.59524761 2.125 14.5 C-1.67349069 14.65193963 -3.09651429 14.04457143 -6 11.625 C-7.5625 9.3125 -7.5625 9.3125 -8 6.625 C-6.21098179 2.31509249 -4.69910399 0.23759515 0 0 Z " fill="#000000" transform="translate(220,279.375)"/>
<path d="M0 0 C0.66 0.33 1.32 0.66 2 1 C3.03917614 4.51721154 3.28150169 6.34810135 1.8125 9.75 C-0.11028571 12.1369064 -1.06640504 13.16183001 -4 14 C-7.42908225 13.86003746 -9.29875435 13.63112109 -11.875 11.3125 C-13.35810604 8.26389315 -13.48891657 6.35257076 -13 3 C-8.90019093 -2.23079088 -5.96599011 -2.28484728 0 0 Z M-9 4 C-8.67 5.65 -8.34 7.3 -8 9 C-6.68 8.67 -5.36 8.34 -4 8 C-3.67 6.68 -3.34 5.36 -3 4 C-6.04913228 2.98888907 -6.04913228 2.98888907 -9 4 Z " fill="#000000" transform="translate(161,188)"/>
<path d="M0 0 C2.875 1.125 2.875 1.125 6 3 C7.375 6.1875 7.375 6.1875 8 9 C3.88875453 13.83675937 3.88875453 13.83675937 -0.0625 14.5625 C-3 14 -3 14 -5.4375 12.375 C-7 10 -7 10 -7.125 7 C-5.64906824 3.06418198 -3.60785946 1.99583715 0 0 Z M-2 5 C-2 6.32 -2 7.64 -2 9 C-0.68 9 0.64 9 2 9 C1.67 7.68 1.34 6.36 1 5 C0.01 5 -0.98 5 -2 5 Z " fill="#000000" transform="translate(153,219)"/>
<path d="M0 0 C2 2 2 2 2.25 4.9375 C2 8 2 8 0 11 C-3 11.3125 -3 11.3125 -6 11 C-8 9 -8 9 -8.3125 6.0625 C-8 3 -8 3 -6.8125 1.125 C-4.38241919 -0.38332602 -2.80984248 -0.36023622 0 0 Z " fill="#000000" transform="translate(212,258)"/>
<path d="M0 0 C2.375 0.875 2.375 0.875 4.375 3.875 C4.1875 6.4375 4.1875 6.4375 3.375 8.875 C0.375 10.875 0.375 10.875 -2.1875 10.625 C-4.625 9.875 -4.625 9.875 -6.625 7.875 C-7 5.4375 -7 5.4375 -6.625 2.875 C-4.39928105 0.40197895 -3.34204055 -0.15914479 0 0 Z " fill="#000000" transform="translate(208.625,240.125)"/>
<path d="M0 0 C1.11375 0.556875 1.11375 0.556875 2.25 1.125 C1.9375 3.5 1.9375 3.5 1.25 6.125 C-1.75 8.125 -1.75 8.125 -4.4375 7.75 C-5.200625 7.54375 -5.96375 7.3375 -6.75 7.125 C-7.875 3.375 -7.875 3.375 -6.75 1.125 C-4.05213982 -0.80204298 -3.22656894 -1.02663557 0 0 Z " fill="#000000" transform="translate(220.75,221.875)"/>
<path d="M0 0 C1.32 0.66 2.64 1.32 4 2 C4.125 4.375 4.125 4.375 4 7 C3.34 7.66 2.68 8.32 2 9 C-0.625 8.625 -0.625 8.625 -3 8 C-3.75 6.25 -3.75 6.25 -4 4 C-2.0625 1.75 -2.0625 1.75 0 0 Z " fill="#000000" transform="translate(230,200)"/>
<path d="M0 0 C3.3 1.65 6.6 3.3 10 5 C10 5.33 10 5.66 10 6 C6.67179946 6.22692276 4.58198664 6.32162419 1.625 4.6875 C0 3 0 3 0 0 Z " fill="#000000" transform="translate(110,366)"/>
<path d="M0 0 C0.33 0.66 0.66 1.32 1 2 C-0.375 4 -0.375 4 -2 6 C-2.66 6 -3.32 6 -4 6 C-3.6875 4.125 -3.6875 4.125 -3 2 C-2.01 1.34 -1.02 0.68 0 0 Z " fill="#000000" transform="translate(106,265)"/>
<path d="M0 0 C0.33 0.99 0.66 1.98 1 3 C0.01 3.33 -0.98 3.66 -2 4 C-1.34 2.68 -0.68 1.36 0 0 Z " fill="#000000" transform="translate(111,268)"/>
<path d="M0 0 C0.66 0 1.32 0 2 0 C1.67 0.99 1.34 1.98 1 3 C0.34 3 -0.32 3 -1 3 C-0.67 2.01 -0.34 1.02 0 0 Z " fill="#000000" transform="translate(113,239)"/>
<path d="M0 0 C0.66 0.33 1.32 0.66 2 1 C1.01 1.66 0.02 2.32 -1 3 C-0.67 2.01 -0.34 1.02 0 0 Z " fill="#000000" transform="translate(112,252)"/>
<path d="M0 0 C0 3 0 3 0 3 Z " fill="#000000" transform="translate(395,367)"/>
<path d="M0 0 C0 3 0 3 0 3 Z " fill="#000000" transform="translate(252,129)"/>
<path d="" fill="#000000" transform="translate(0,0)"/>
<path d="" fill="#000000" transform="translate(0,0)"/>
<path d="" fill="#000000" transform="translate(0,0)"/>
<path d="" fill="#000000" transform="translate(0,0)"/>
<path d="" fill="#000000" transform="translate(0,0)"/>
<path d="" fill="#000000" transform="translate(0,0)"/>
</svg>
