<?xml version="1.0" encoding="UTF-8"?>
<svg version="1.1" xmlns="http://www.w3.org/2000/svg" width="512" height="512">
<path d="M0 0 C0.97324219 0.20625 1.94648438 0.4125 2.94921875 0.625 C3.75875 0.81835938 4.56828125 1.01171875 5.40234375 1.2109375 C7.82752931 1.46694254 7.82752931 1.46694254 9.95483398 -0.22265625 C13.20085743 -2.02917904 15.2110879 -2.13683747 18.90625 -2.1484375 C20.72842041 -2.15774292 20.72842041 -2.15774292 22.58740234 -2.16723633 C24.52993896 -2.14632935 24.52993896 -2.14632935 26.51171875 -2.125 C27.17617004 -2.12067963 27.84062134 -2.11635925 28.52520752 -2.11190796 C51.21856211 -1.9394371 78.34816011 -1.35105864 95.38671875 15.6875 C106.20752149 28.87378055 106.93235565 47.02103669 107.69921875 63.25 C107.76496094 64.19617188 107.83070313 65.14234375 107.8984375 66.1171875 C108.20119334 73.15365075 106.52430165 79.29762572 104.4765625 85.96484375 C103.56384375 89.73983826 103.56384375 89.73983826 104.69921875 93.25 C106.11943344 95.06316213 106.11943344 95.06316213 107.88671875 96.8125 C124.67291455 115.52893598 121.37309489 140.87536756 120.32421875 164.25 C120.15242176 167.25347502 119.94220248 170.2514929 119.69921875 173.25 C119.56773437 174.87615234 119.56773437 174.87615234 119.43359375 176.53515625 C118.57977417 183.13369671 115.99011133 187.34736564 111.8671875 192.546875 C110.28794743 195.3352616 110.28794743 195.3352616 111.9765625 198.5625 C112.27892822 199.15901367 112.58129395 199.75552734 112.89282227 200.37011719 C114.2927088 203.63355235 114.1402469 207.01446853 114.07421875 210.5 C114.05790405 211.72275635 114.05790405 211.72275635 114.04125977 212.97021484 C113.60200062 230.83563015 110.92469141 248.35685253 107.26171875 265.8125 C107.04417435 266.86319672 107.04417435 266.86319672 106.82223511 267.93511963 C103.90883453 281.85836656 100.82625731 293.72829723 88.69921875 302.25 C85.08552811 303.45456355 81.65745155 303.57571576 77.88671875 303.75 C77.06993652 303.78988037 76.2531543 303.82976074 75.41162109 303.87084961 C67.55138102 304.23855918 59.68800846 304.53259647 51.82421875 304.8125 C50.64496826 304.85632813 49.46571777 304.90015625 48.25073242 304.9453125 C41.43383296 305.17421929 34.63238136 305.27194679 27.8125 305.25390625 C12.88048255 305.21599808 -2.05030948 305.37474201 -16.98126602 305.53752613 C-21.58456691 305.58765655 -26.18783921 305.63412545 -30.79125977 305.671875 C-35.31543936 305.70904222 -39.83944124 305.75541358 -44.36346626 305.80806351 C-46.06279984 305.82635442 -47.76217011 305.8415516 -49.4615612 305.85334396 C-58.53100833 305.91869927 -67.22647295 306.35886591 -76.20530701 307.79708862 C-80.59175761 308.43888798 -84.90897399 308.57365882 -89.3359375 308.5859375 C-90.22075302 308.5925943 -91.10556854 308.5992511 -92.01719666 308.60610962 C-93.86976077 308.61611714 -95.72236006 308.6209304 -97.57495117 308.62060547 C-100.33511203 308.6249556 -103.09363804 308.66134145 -105.85351562 308.69921875 C-115.28619392 308.76154437 -124.43202637 308.22650078 -133.734375 306.6015625 C-134.59249283 306.46285736 -135.45061066 306.32415222 -136.33473206 306.1812439 C-142.20428478 305.02761274 -146.38421547 302.8641048 -150.30078125 298.25 C-151.30078125 295.25 -151.30078125 295.25 -150.88671875 292.3515625 C-151.02335937 291.32804687 -151.16 290.30453125 -151.30078125 289.25 C-153.86232863 287.38310954 -156.12608031 286.03335068 -158.92578125 284.625 C-167.76400653 279.80650041 -174.97929894 274.11471714 -182.30078125 267.25 C-183.08727051 266.52707764 -183.08727051 266.52707764 -183.88964844 265.78955078 C-211.50331462 240.25944551 -220.74255586 207.57045947 -225.30078125 171.25 C-225.40535645 170.52997803 -225.50993164 169.80995605 -225.61767578 169.06811523 C-226.69967887 161.0401943 -226.54378792 152.89843476 -226.55078125 144.8125 C-226.55178833 144.0076416 -226.55279541 143.2027832 -226.55383301 142.37353516 C-226.54398162 130.75353277 -226.23776047 119.55673973 -223.30078125 108.25 C-223.01074219 107.12464844 -222.72070312 105.99929687 -222.421875 104.83984375 C-220.44842053 98.1763385 -217.48974018 92.77942578 -213.30078125 87.25 C-213.77515625 86.3425 -214.24953125 85.435 -214.73828125 84.5 C-216.89400159 80.01610169 -216.89400159 80.01610169 -217.30078125 77.25 C-217.48640625 76.033125 -217.67203125 74.81625 -217.86328125 73.5625 C-217.85352791 68.38347428 -214.63523672 65.53314989 -211.24609375 61.9375 C-209.30078125 60.25 -209.30078125 60.25 -207.30078125 60.25 C-207.37039062 59.25033203 -207.37039062 59.25033203 -207.44140625 58.23046875 C-207.96325743 44.90462601 -202.7014676 36.26890901 -194.30078125 26.25 C-193.70652344 25.5178125 -193.11226562 24.785625 -192.5 24.03125 C-178.50125447 8.38741907 -152.48386583 1.18993561 -132.30078125 -0.75 C-126.13455059 -1.0629209 -119.96577427 -1.07994316 -113.79296875 -1.06567383 C-110.93841312 -1.06251398 -108.08489701 -1.0860438 -105.23046875 -1.11132812 C-95.81289391 -1.141512 -87.22134369 -0.80404321 -78.09130859 1.70239258 C-73.75866649 2.55262147 -70.44042286 1.36837516 -66.42578125 -0.1875 C-45.44575075 -7.14672963 -21.16748545 -4.8096535 0 0 Z M-69.30078125 10.25 C-70.10500205 12.84855733 -70.10500205 12.84855733 -70.30078125 15.25 C-62.33095561 16.35257521 -54.45605324 16.37892023 -46.421875 16.34765625 C-44.99984284 16.34578745 -43.57781002 16.34436573 -42.15577698 16.34336853 C-38.44210991 16.33957971 -34.72848294 16.32978117 -31.01483154 16.31866455 C-27.21366925 16.30837158 -23.41250038 16.30385414 -19.61132812 16.29882812 C-12.17446103 16.28815505 -4.73762679 16.27112318 2.69921875 16.25 C2.69921875 13.94 2.69921875 11.63 2.69921875 9.25 C1.26445928 8.78315852 -0.17384121 8.32720356 -1.61328125 7.875 C-2.41378906 7.61976562 -3.21429688 7.36453125 -4.0390625 7.1015625 C-13.88108278 4.53202906 -23.33154494 3.88424623 -33.48828125 3.9375 C-34.17032623 3.93865814 -34.85237122 3.93981628 -35.55508423 3.94100952 C-53.5422312 3.29595644 -53.5422312 3.29595644 -69.30078125 10.25 Z M12.08203125 8.0390625 C10.13459004 11.15276794 10.42304753 13.65977415 10.69921875 17.25 C11.91609375 17.518125 13.13296875 17.78625 14.38671875 18.0625 C15.21042969 18.25457031 16.03414062 18.44664063 16.8828125 18.64453125 C18.82049274 19.06109219 20.7737821 19.40904091 22.734375 19.69921875 C33.22323199 21.49621612 40.81206255 26.55465649 47.70703125 34.58984375 C49.21781927 36.74973918 50.4812302 38.91447556 51.69921875 41.25 C52.27736328 42.20519531 52.27736328 42.20519531 52.8671875 43.1796875 C55.63523312 48.31606096 56.34442775 53.59344409 57.01171875 59.3125 C57.1003418 60.06845459 57.18896484 60.82440918 57.28027344 61.60327148 C57.89094562 67.84094855 58.00756097 74.29135674 55.19921875 80.0625 C53.66047214 83.16987692 53.66047214 83.16987692 52.69921875 86.25 C53.65699219 86.27505615 54.61476563 86.3001123 55.6015625 86.32592773 C59.1874512 86.42077972 62.77318086 86.52080373 66.35888672 86.62231445 C67.90474706 86.66537149 69.45064606 86.70706426 70.99658203 86.74731445 C73.23091236 86.80573303 75.46505319 86.86921267 77.69921875 86.93359375 C78.37976318 86.95030624 79.06030762 86.96701874 79.76147461 86.98423767 C84.46900223 87.12648194 89.03956366 87.61066256 93.69921875 88.25 C94.350568 86.68979133 94.99504839 85.12671421 95.63671875 83.5625 C95.99636719 82.69238281 96.35601562 81.82226562 96.7265625 80.92578125 C100.33514949 70.99854394 100.64950155 54.42692908 96.59765625 44.5703125 C96.30117188 43.80460937 96.0046875 43.03890625 95.69921875 42.25 C96.19421875 41.26 96.19421875 41.26 96.69921875 40.25 C94.35719732 30.27201285 91.21450548 22.03304779 82.73046875 15.8046875 C66.79415684 6.43368719 42.8686105 6.16475101 24.82421875 5.875 C23.87820801 5.84889648 22.93219727 5.82279297 21.95751953 5.79589844 C16.69428357 5.74602754 16.69428357 5.74602754 12.08203125 8.0390625 Z M-187.30078125 29.25 C-194.34316293 37.58510766 -200.30078125 45.95223637 -200.30078125 57.25 C-189.41078125 57.25 -178.52078125 57.25 -167.30078125 57.25 C-166.31078125 54.28 -165.32078125 51.31 -164.30078125 48.25 C-163.39505596 46.16386225 -162.44176769 44.0972188 -161.42578125 42.0625 C-160.95398438 41.09957031 -160.4821875 40.13664062 -159.99609375 39.14453125 C-156.71920022 33.54965082 -152.6932761 29.39107773 -147.48828125 25.5625 C-146.51246094 24.81613281 -145.53664062 24.06976563 -144.53125 23.30078125 C-134.2804843 17.39767461 -119.46227738 17.60393054 -107.88989258 16.74194336 C-105.47192677 16.56127803 -103.05538434 16.36658286 -100.63867188 16.16992188 C-92.51435412 15.52634065 -84.45752974 15.03698004 -76.30078125 15.25 C-75.97078125 13.6 -75.64078125 11.95 -75.30078125 10.25 C-86.65509697 6.80685692 -97.7171265 6.65054092 -109.48828125 6.6875 C-110.4623291 6.68831573 -111.43637695 6.68913147 -112.43994141 6.68997192 C-136.79967024 6.78370549 -169.66192428 9.98836819 -187.30078125 29.25 Z M-96.30078125 20.25 C-96.30078125 22.23 -96.30078125 24.21 -96.30078125 26.25 C-93.66078125 26.58 -91.02078125 26.91 -88.30078125 27.25 C-88.30078125 24.94 -88.30078125 22.63 -88.30078125 20.25 C-90.94078125 20.25 -93.58078125 20.25 -96.30078125 20.25 Z M-85.30078125 20.25 C-85.30078125 22.56 -85.30078125 24.87 -85.30078125 27.25 C-82.33078125 27.25 -79.36078125 27.25 -76.30078125 27.25 C-75.97078125 24.94 -75.64078125 22.63 -75.30078125 20.25 C-78.60078125 20.25 -81.90078125 20.25 -85.30078125 20.25 Z M-71.30078125 20.25 C-71.63078125 22.56 -71.96078125 24.87 -72.30078125 27.25 C-69.00078125 27.25 -65.70078125 27.25 -62.30078125 27.25 C-61.97078125 24.94 -61.64078125 22.63 -61.30078125 20.25 C-64.60078125 20.25 -67.90078125 20.25 -71.30078125 20.25 Z M-58.30078125 20.25 C-58.30078125 22.56 -58.30078125 24.87 -58.30078125 27.25 C-55.66078125 27.25 -53.02078125 27.25 -50.30078125 27.25 C-50.30078125 24.94 -50.30078125 22.63 -50.30078125 20.25 C-52.94078125 20.25 -55.58078125 20.25 -58.30078125 20.25 Z M-47.30078125 20.25 C-47.30078125 22.56 -47.30078125 24.87 -47.30078125 27.25 C-44.00078125 27.25 -40.70078125 27.25 -37.30078125 27.25 C-37.30078125 24.94 -37.30078125 22.63 -37.30078125 20.25 C-40.60078125 20.25 -43.90078125 20.25 -47.30078125 20.25 Z M-33.30078125 20.25 C-33.30078125 22.56 -33.30078125 24.87 -33.30078125 27.25 C-30.00078125 26.92 -26.70078125 26.59 -23.30078125 26.25 C-23.30078125 24.27 -23.30078125 22.29 -23.30078125 20.25 C-26.60078125 20.25 -29.90078125 20.25 -33.30078125 20.25 Z M-20.30078125 20.25 C-20.30078125 22.23 -20.30078125 24.21 -20.30078125 26.25 C-17.66078125 26.25 -15.02078125 26.25 -12.30078125 26.25 C-12.30078125 24.6 -12.30078125 22.95 -12.30078125 21.25 C-14.94078125 20.92 -17.58078125 20.59 -20.30078125 20.25 Z M-109.30078125 21.25 C-108.97078125 23.23 -108.64078125 25.21 -108.30078125 27.25 C-105.66078125 27.25 -103.02078125 27.25 -100.30078125 27.25 C-100.63078125 25.27 -100.96078125 23.29 -101.30078125 21.25 C-103.94078125 21.25 -106.58078125 21.25 -109.30078125 21.25 Z M-7.30078125 21.25 C-7.63078125 22.9 -7.96078125 24.55 -8.30078125 26.25 C-5.99078125 26.58 -3.68078125 26.91 -1.30078125 27.25 C-0.91859358 25.59385343 -0.58683023 23.92542976 -0.30078125 22.25 C-1.4261223 20.89381501 -1.4261223 20.89381501 -4.36328125 21.1875 C-5.33265625 21.208125 -6.30203125 21.22875 -7.30078125 21.25 Z M-133.30078125 24.25 C-132.31078125 26.56 -131.32078125 28.87 -130.30078125 31.25 C-125.82194429 30.80296014 -125.82194429 30.80296014 -122.30078125 28.25 C-124.01838954 25.17321965 -124.01838954 25.17321965 -126.30078125 22.25 C-130.34700627 21.88019987 -130.34700627 21.88019987 -133.30078125 24.25 Z M-121.30078125 22.25 C-120.64078125 24.23 -119.98078125 26.21 -119.30078125 28.25 C-116.33078125 28.25 -113.36078125 28.25 -110.30078125 28.25 C-111.78578125 25.28 -111.78578125 25.28 -113.30078125 22.25 C-115.94078125 22.25 -118.58078125 22.25 -121.30078125 22.25 Z M3.69921875 22.25 C3.03921875 23.9 2.37921875 25.55 1.69921875 27.25 C4.66921875 27.25 7.63921875 27.25 10.69921875 27.25 C11.35921875 25.6 12.01921875 23.95 12.69921875 22.25 C9.72921875 22.25 6.75921875 22.25 3.69921875 22.25 Z M17.69921875 22.25 C15.71921875 25.22 15.71921875 25.22 13.69921875 28.25 C16.33921875 28.91 18.97921875 29.57 21.69921875 30.25 C23.95807199 26.99602492 23.95807199 26.99602492 24.69921875 23.25 C22.38921875 22.92 20.07921875 22.59 17.69921875 22.25 Z M-146.30078125 29.25 C-144.77369162 32.68595166 -142.7015108 35.36912454 -140.30078125 38.25 C-136.93486259 36.80746343 -134.79031046 34.91735273 -132.30078125 32.25 C-133.10515625 31.46625 -133.90953125 30.6825 -134.73828125 29.875 C-137.30078125 27.25 -137.30078125 27.25 -138.30078125 25.25 C-141.58236609 25.25 -143.67959233 27.42656423 -146.30078125 29.25 Z M28.69921875 25.25 C27.37921875 27.56 26.05921875 29.87 24.69921875 32.25 C26.67921875 33.9 28.65921875 35.55 30.69921875 37.25 C34.06513741 35.80746343 36.20968954 33.91735273 38.69921875 31.25 C34.29677115 27.09174722 34.29677115 27.09174722 28.69921875 25.25 Z M-151.30078125 34.25 C-152.62078125 36.56 -153.94078125 38.87 -155.30078125 41.25 C-154.18703125 41.91 -153.07328125 42.57 -151.92578125 43.25 C-151.29929687 43.62125 -150.6728125 43.9925 -150.02734375 44.375 C-148.32605458 45.40068348 -148.32605458 45.40068348 -146.30078125 45.25 C-145.97078125 45.91 -145.64078125 46.57 -145.30078125 47.25 C-143.98078125 44.94 -142.66078125 42.63 -141.30078125 40.25 C-142.72390625 39.6003125 -142.72390625 39.6003125 -144.17578125 38.9375 C-147.30078125 37.25 -147.30078125 37.25 -149.30078125 34.25 C-149.96078125 34.25 -150.62078125 34.25 -151.30078125 34.25 Z M40.69921875 34.25 C38.71921875 36.56 36.73921875 38.87 34.69921875 41.25 C36.01921875 42.57 37.33921875 43.89 38.69921875 45.25 C41.00921875 43.93 43.31921875 42.61 45.69921875 41.25 C44.31331894 38.15837736 43.20738334 36.75816459 40.69921875 34.25 Z M-75.9453125 34.6171875 C-77.64816658 34.67666061 -77.64816658 34.67666061 -79.38542175 34.73733521 C-81.75919735 34.82164124 -84.13292116 34.90741762 -86.5065918 34.99462891 C-90.12200704 35.12531541 -93.73769776 35.2443286 -97.35351562 35.36328125 C-99.67580737 35.44719696 -101.99807411 35.53180812 -104.3203125 35.6171875 C-105.38925247 35.65061249 -106.45819244 35.68403748 -107.55952454 35.71847534 C-117.67921741 36.11609762 -126.60756634 37.14426696 -134.30078125 44.25 C-140.48586741 52.35779084 -143.44240083 59.01390532 -142.30078125 69.25 C-139.40655917 79.02550528 -134.67132284 85.76135404 -126.48828125 91.875 C-125.92987549 92.2982959 -125.37146973 92.7215918 -124.79614258 93.15771484 C-121.71560313 95.48515828 -118.59956916 97.75714028 -115.45703125 100 C-102.07105801 109.64167983 -83.81012421 123.07416655 -78.30078125 139.25 C-78 141.3125 -78 141.3125 -77.98828125 143.25 C-77.97152344 143.889375 -77.95476562 144.52875 -77.9375 145.1875 C-79.61110186 154.68923962 -90.66293165 162.79414868 -97.8203125 168.3203125 C-103.91505663 173.0617355 -109.44636479 178.15047835 -114.41796875 184.05859375 C-116.65297509 186.65991855 -119.01130375 189.12909552 -121.36328125 191.625 C-132.90838676 204.37892536 -137.31212083 217.8247604 -136.6875 234.90234375 C-136.34400107 239.98981219 -135.22395715 244.03295936 -132.30078125 248.25 C-131.93855469 248.8171875 -131.57632813 249.384375 -131.203125 249.96875 C-125.9074396 257.29295218 -116.71686887 259.47402452 -108.30078125 261.25 C-100.95996565 262.40994829 -93.59549896 262.59864946 -86.17578125 262.8125 C-85.48191315 262.83301422 -84.78804504 262.85352844 -84.07315063 262.87466431 C-71.54572766 263.23325525 -59.01644814 263.38305559 -46.48419189 263.42623901 C-44.51880403 263.43362649 -42.55342502 263.44419905 -40.58807373 263.45828247 C-24.02621809 263.56614083 -6.96979653 263.46730872 9.07421875 258.875 C9.83992187 258.6790625 10.605625 258.483125 11.39453125 258.28125 C18.31268274 256.39665011 23.61338542 253.34762365 27.59765625 247.28125 C33.34088145 236.69090566 32.96806301 224.49247398 29.72265625 213.1484375 C26.23539889 203.27231169 20.31859746 196.17194316 13.15039062 188.77050781 C11.7240735 187.27604229 10.33936497 185.75305907 8.96484375 184.2109375 C1.53268269 175.87794912 -6.26037468 167.50564084 -15.61328125 161.3125 C-21.42691548 157.08329439 -25.22997691 150.47783092 -26.98046875 143.56640625 C-27.35449077 138.77144391 -26.36378303 135.76686072 -23.48828125 131.9375 C-22.10446427 130.3643479 -20.70710216 128.80306743 -19.30078125 127.25 C-18.45222981 126.20937439 -17.61011812 125.16347493 -16.7734375 124.11328125 C-11.7317665 117.84081427 -6.57486077 112.46085609 -0.19140625 107.5 C3.06407327 104.96600513 6.19269055 102.30916703 9.32421875 99.625 C12.98934845 96.48837083 16.68419078 93.48297973 20.57421875 90.625 C27.2101703 85.51385349 33.04947393 78.64602274 34.69921875 70.25 C35.81217408 60.09428257 33.82039012 52.90403152 27.51171875 44.9375 C21.63147971 38.60299357 14.30109134 36.63844154 5.86999512 36.05381775 C4.40777527 36.00385399 4.40777527 36.00385399 2.91601562 35.95288086 C1.24267151 35.8929319 1.24267151 35.8929319 -0.46447754 35.83177185 C-1.65827026 35.79318558 -2.85206299 35.7545993 -4.08203125 35.71484375 C-5.32770874 35.67186661 -6.57338623 35.62888947 -7.85681152 35.58460999 C-10.49271388 35.49453619 -13.12861261 35.40597987 -15.76464844 35.32006836 C-19.75866421 35.18976833 -23.75236744 35.05100658 -27.74609375 34.91210938 C-30.31639271 34.82511973 -32.88670486 34.73851904 -35.45703125 34.65234375 C-37.22342957 34.59142799 -37.22342957 34.59142799 -39.0255127 34.52928162 C-51.34477013 34.1317301 -63.62823567 34.18126461 -75.9453125 34.6171875 Z M-157.30078125 44.25 C-157.96078125 46.56 -158.62078125 48.87 -159.30078125 51.25 C-156.66078125 51.25 -154.02078125 51.25 -151.30078125 51.25 C-150.97078125 52.57 -150.64078125 53.89 -150.30078125 55.25 C-153.60078125 55.25 -156.90078125 55.25 -160.30078125 55.25 C-160.63078125 57.23 -160.96078125 59.21 -161.30078125 61.25 C-157.29823669 61.34181134 -157.29823669 61.34181134 -153.30078125 61.25 C-152.97078125 60.92 -152.64078125 60.59 -152.30078125 60.25 C-152.30078125 61.57 -152.30078125 62.89 -152.30078125 64.25 C-157.25078125 64.745 -157.25078125 64.745 -162.30078125 65.25 C-161.97078125 67.89 -161.64078125 70.53 -161.30078125 73.25 C-158.00078125 72.26 -154.70078125 71.27 -151.30078125 70.25 C-151.30078125 71.24 -151.30078125 72.23 -151.30078125 73.25 C-152.22890625 73.518125 -153.15703125 73.78625 -154.11328125 74.0625 C-157.06318491 75.16148371 -158.35693311 75.87418561 -160.30078125 78.25 C-159.31078125 79.57 -158.32078125 80.89 -157.30078125 82.25 C-156.18703125 81.321875 -156.18703125 81.321875 -155.05078125 80.375 C-152.81276937 78.64562719 -150.86338138 77.38893339 -148.30078125 76.25 C-148.65140625 75.1775 -149.00203125 74.105 -149.36328125 73 C-151.33043315 65.14534384 -149.87840782 56.81103792 -147.30078125 49.25 C-150.60078125 47.6 -153.90078125 45.95 -157.30078125 44.25 Z M40.69921875 49.25 C41.02921875 50.24 41.35921875 51.23 41.69921875 52.25 C44.66921875 52.25 47.63921875 52.25 50.69921875 52.25 C49.70921875 49.94 48.71921875 47.63 47.69921875 45.25 C44.5659845 45.25 43.01901091 47.29649081 40.69921875 49.25 Z M43.69921875 56.25 C43.69921875 58.23 43.69921875 60.21 43.69921875 62.25 C46.66921875 62.25 49.63921875 62.25 52.69921875 62.25 C52.36921875 59.94 52.03921875 57.63 51.69921875 55.25 C48.85954644 55.25 46.46186164 55.65267181 43.69921875 56.25 Z M-182.33300781 62.30419922 C-184.5733074 62.37249496 -186.81159394 62.46455666 -189.05078125 62.5625 C-190.13190186 62.59609619 -190.13190186 62.59609619 -191.23486328 62.63037109 C-197.40445048 62.94548059 -201.36464549 64.73476331 -206.17578125 68.5 C-208.89797854 72.02284355 -208.8554294 73.89205028 -208.30078125 78.25 C-207.90817583 80.61954287 -207.90817583 80.61954287 -206.30078125 82.25 C-194.2388949 87.73267561 -176.2102225 83.9093249 -163.30078125 83.25 C-163.78160156 82.18007812 -164.26242188 81.11015625 -164.7578125 80.0078125 C-167.0892675 74.56089764 -167.48591163 69.17417204 -167.30078125 63.25 C-172.23417063 61.60553687 -177.17511174 62.1666388 -182.33300781 62.30419922 Z M43.69921875 64.25 C43.69921875 66.23 43.69921875 68.21 43.69921875 70.25 C48.15421875 72.23 48.15421875 72.23 52.69921875 74.25 C52.69921875 71.28 52.69921875 68.31 52.69921875 65.25 C49.72921875 64.92 46.75921875 64.59 43.69921875 64.25 Z M42.69921875 73.25 C42.36921875 74.57 42.03921875 75.89 41.69921875 77.25 C44.00921875 78.9 46.31921875 80.55 48.69921875 82.25 C49.35921875 80.6 50.01921875 78.95 50.69921875 77.25 C48.05921875 75.93 45.41921875 74.61 42.69921875 73.25 Z M-148.30078125 79.25 C-148.71328125 79.70375 -149.12578125 80.1575 -149.55078125 80.625 C-151.63395332 82.55937407 -153.63857644 83.31463074 -156.30078125 84.25 C-153.82578125 87.715 -153.82578125 87.715 -151.30078125 91.25 C-148.99078125 89.6 -146.68078125 87.95 -144.30078125 86.25 C-145.29078125 83.94 -146.28078125 81.63 -147.30078125 79.25 C-147.63078125 79.25 -147.96078125 79.25 -148.30078125 79.25 Z M39.69921875 81.25 C38.70921875 83.23 37.71921875 85.21 36.69921875 87.25 C37.65828125 87.683125 37.65828125 87.683125 38.63671875 88.125 C40.69921875 89.25 40.69921875 89.25 41.69921875 91.25 C43.34921875 89.27 44.99921875 87.29 46.69921875 85.25 C44.38064958 83.70428722 42.19283446 82.45381448 39.69921875 81.25 Z M-143.30078125 89.25 C-144.62078125 90.57 -145.94078125 91.89 -147.30078125 93.25 C-145.99182405 96.37197478 -145.99182405 96.37197478 -143.30078125 98.25 C-141.98078125 96.27 -140.66078125 94.29 -139.30078125 92.25 C-140.62078125 91.26 -141.94078125 90.27 -143.30078125 89.25 Z M33.69921875 90.25 C32.48231342 92.01529595 32.48231342 92.01529595 31.69921875 94.25 C32.48231342 96.48470405 32.48231342 96.48470405 33.69921875 98.25 C35.69905409 97.45882096 35.69905409 97.45882096 37.69921875 96.25 C38.02921875 95.26 38.35921875 94.27 38.69921875 93.25 C37.04921875 92.26 35.39921875 91.27 33.69921875 90.25 Z M-184.67578125 90.6875 C-197.76886709 90.3828262 -197.76886709 90.3828262 -209.02734375 95.5703125 C-218.1298264 107.57665465 -217.85496456 126.38298183 -217.73828125 140.8125 C-217.7355722 141.60493103 -217.73286316 142.39736206 -217.73007202 143.21380615 C-217.51377628 185.39200115 -209.38763826 228.04129499 -178.66894531 258.88867188 C-172.31324175 265.06667284 -165.59304443 270.80491725 -158.671875 276.33984375 C-156.70125319 277.92737928 -154.81208729 279.56528392 -152.92578125 281.25 C-149.28106596 284.02692594 -146.72098125 284.3886428 -142.1796875 283.9453125 C-141.08527344 283.75710938 -139.99085938 283.56890625 -138.86328125 283.375 C-137.77144531 283.19195312 -136.67960937 283.00890625 -135.5546875 282.8203125 C-134.48089844 282.63210938 -133.40710938 282.44390625 -132.30078125 282.25 C-130.3009673 281.91555231 -128.30102533 281.58186553 -126.30078125 281.25 C-129.14196285 279.35587894 -131.90067741 278.00549027 -134.98828125 276.5625 C-144.83538908 271.63300694 -150.16485161 265.91078549 -155.30078125 256.25 C-155.76613281 255.4559375 -156.23148438 254.661875 -156.7109375 253.84375 C-160.40822003 247.2037324 -161.61488317 240.77582613 -162.30078125 233.25 C-162.4090625 232.09371094 -162.4090625 232.09371094 -162.51953125 230.9140625 C-163.44090284 210.25998258 -151.33027762 188.98757179 -137.88842773 174.05371094 C-135.72713447 171.75184882 -133.5139746 169.50183641 -131.30078125 167.25 C-130.05993961 165.84354802 -128.82935391 164.42792242 -127.61328125 163 C-122.01945331 156.57844573 -116.29595687 151.10379533 -109.30078125 146.25 C-107.84145895 143.3313554 -107.90851689 141.49686144 -108.30078125 138.25 C-110.00943993 135.90022157 -111.58590219 134.03138756 -113.61328125 132 C-114.42817017 131.15356934 -114.42817017 131.15356934 -115.25952148 130.29003906 C-122.76614188 122.57965354 -130.78275463 115.61313118 -139.234375 108.96484375 C-141.7314751 106.87026128 -143.86283948 104.56733467 -146.0234375 102.12890625 C-152.8504672 94.07142302 -152.8504672 94.07142302 -161.88671875 89.1875 C-165.03320177 89.1875 -167.98115784 89.44275936 -171.08398438 89.94921875 C-175.58361599 90.55974145 -180.14173419 90.5426193 -184.67578125 90.6875 Z M36.73266602 102.41308594 C34.56016253 105.44400088 32.25665053 107.46680393 29.32421875 109.75 C21.31732784 116.07362407 13.87285723 122.99536883 6.69921875 130.25 C5.94898438 130.99121094 5.19875 131.73242188 4.42578125 132.49609375 C3.73226562 133.21925781 3.03875 133.94242188 2.32421875 134.6875 C1.61523438 135.40808594 0.90625 136.12867188 0.17578125 136.87109375 C-1.55851058 139.2093677 -1.55851058 139.2093677 -1.34375 142.2578125 C-0.02602302 146.03825769 1.57609528 147.29937787 4.76171875 149.6875 C5.76074219 150.4609375 6.75976562 151.234375 7.7890625 152.03125 C8.74941406 152.7634375 9.70976562 153.495625 10.69921875 154.25 C17.00685582 159.37706328 22.40671003 165.08787413 27.69921875 171.25 C28.66988281 172.35408203 28.66988281 172.35408203 29.66015625 173.48046875 C36.6808222 181.80497266 42.82357894 191.49872038 47.69921875 201.25 C52.18299597 201.69837772 54.05796592 201.76845973 57.63671875 198.875 C58.12269531 198.42253906 58.60867188 197.97007812 59.109375 197.50390625 C61.96941606 195.24819819 65.09661798 194.46071816 68.69921875 194.25 C70.70703125 194.72265625 70.70703125 194.72265625 72.69921875 195.375 C75.16749257 196.14633557 76.25013915 196.41840485 78.69921875 195.5 C80.03436343 194.74898112 81.36132191 193.98322298 82.6796875 193.203125 C84.979373 192.1177802 86.48825749 192.03273451 89.01171875 192.125 C92.78814104 192.61146396 92.78814104 192.61146396 95.69921875 190.25 C98.03121263 190.17094936 100.36754497 190.16201231 102.69921875 190.25 C110.97756475 178.02206145 110.18926249 163.18963663 110.61572266 148.93896484 C110.66852592 147.23845269 110.7296294 145.53816024 110.80224609 143.83837891 C111.44060519 128.86448366 108.87357642 115.69313526 100.57421875 103 C91.63941218 94.45366328 78.27149842 94.7080983 66.63598633 94.14306641 C64.89409435 94.04810421 63.15324407 93.9314124 61.41430664 93.79248047 C50.39422396 92.92442802 43.69296002 92.68505531 36.73266602 102.41308594 Z M-137.30078125 95.25 C-139.28078125 98.22 -139.28078125 98.22 -141.30078125 101.25 C-138.82578125 103.23 -138.82578125 103.23 -136.30078125 105.25 C-133.32402666 102.15672105 -133.32402666 102.15672105 -132.30078125 98.25 C-134.76404837 96.6053326 -134.76404837 96.6053326 -137.30078125 95.25 Z M27.69921875 96.25 C26.37921875 97.9 25.05921875 99.55 23.69921875 101.25 C25.01921875 102.9 26.33921875 104.55 27.69921875 106.25 C29.34921875 104.27 30.99921875 102.29 32.69921875 100.25 C31.04921875 98.93 29.39921875 97.61 27.69921875 96.25 Z M-129.30078125 102.25 C-130.62078125 104.56 -131.94078125 106.87 -133.30078125 109.25 C-131.32078125 110.9 -129.34078125 112.55 -127.30078125 114.25 C-125.98078125 111.61 -124.66078125 108.97 -123.30078125 106.25 C-126.01081418 103.57668287 -126.01081418 103.57668287 -129.30078125 102.25 Z M17.01171875 104.4375 C15.43956159 106.2231575 15.43956159 106.2231575 15.76171875 108.8125 C16.47827093 111.39661024 16.47827093 111.39661024 18.76171875 112.5625 C19.40109375 112.789375 20.04046875 113.01625 20.69921875 113.25 C22.01921875 111.6 23.33921875 109.95 24.69921875 108.25 C23.4185939 106.5425002 22.08154318 104.87626404 20.69921875 103.25 C18.6279131 103.05816886 18.6279131 103.05816886 17.01171875 104.4375 Z M-120.30078125 109.25 C-121.62078125 111.89 -122.94078125 114.53 -124.30078125 117.25 C-121.82578125 119.23 -121.82578125 119.23 -119.30078125 121.25 C-117.65078125 118.94 -116.00078125 116.63 -114.30078125 114.25 C-115.94621905 112.56237149 -117.61366702 110.8959651 -119.30078125 109.25 C-119.63078125 109.25 -119.96078125 109.25 -120.30078125 109.25 Z M7.57421875 112.25 C6.95546875 112.91 6.33671875 113.57 5.69921875 114.25 C8.17421875 117.715 8.17421875 117.715 10.69921875 121.25 C12.34921875 119.6 13.99921875 117.95 15.69921875 116.25 C14.42525985 114.21166576 13.08859952 112.21147874 11.69921875 110.25 C9.45559302 110.0215451 9.45559302 110.0215451 7.57421875 112.25 Z M-112.30078125 115.25 C-114.53424286 118.63847477 -114.53424286 118.63847477 -116.30078125 122.25 C-115.71822888 124.6743434 -115.71822888 124.6743434 -114.30078125 126.25 C-110.93486259 124.80746343 -108.79031046 122.91735273 -106.30078125 120.25 C-108.28078125 118.6 -110.26078125 116.95 -112.30078125 115.25 Z M2.69921875 116.25 C1.34093904 117.89639965 0.00667624 119.56295807 -1.30078125 121.25 C0.34921875 122.9 1.99921875 124.55 3.69921875 126.25 C5.01921875 125.59 6.33921875 124.93 7.69921875 124.25 C6.37921875 121.61 5.05921875 118.97 3.69921875 116.25 C3.36921875 116.25 3.03921875 116.25 2.69921875 116.25 Z M-105.30078125 122.25 C-106.95078125 124.23 -108.60078125 126.21 -110.30078125 128.25 C-108.93094622 131.41115776 -108.31171745 132.2427092 -105.30078125 134.25 C-103.92515271 132.96034824 -102.59311732 131.62310707 -101.30078125 130.25 C-101.30078125 129.59 -101.30078125 128.93 -101.30078125 128.25 C-100.64078125 127.92 -99.98078125 127.59 -99.30078125 127.25 C-101.28078125 125.6 -103.26078125 123.95 -105.30078125 122.25 Z M-4.30078125 123.25 C-5.99166347 125.22956942 -7.65908597 127.22945196 -9.30078125 129.25 C-6.99078125 130.9 -4.68078125 132.55 -2.30078125 134.25 C-0.98078125 132.6 0.33921875 130.95 1.69921875 129.25 C0.05752347 127.22945196 -1.60989903 125.22956942 -3.30078125 123.25 C-3.63078125 123.25 -3.96078125 123.25 -4.30078125 123.25 Z M-99.30078125 129.25 C-100.18869756 130.3911908 -101.03694163 131.56346106 -101.86328125 132.75 C-102.31832031 133.3996875 -102.77335937 134.049375 -103.2421875 134.71875 C-103.59152344 135.2240625 -103.94085938 135.729375 -104.30078125 136.25 C-103.24099192 137.53612676 -103.24099192 137.53612676 -100.796875 137.34765625 C-99.78753906 137.33605469 -98.77820313 137.32445312 -97.73828125 137.3125 C-96.72636719 137.30347656 -95.71445313 137.29445312 -94.671875 137.28515625 C-93.88941406 137.27355469 -93.10695312 137.26195312 -92.30078125 137.25 C-93.27606862 135.91382648 -94.25611444 134.5811249 -95.23828125 133.25 C-95.78355469 132.5075 -96.32882813 131.765 -96.890625 131 C-97.35597656 130.4225 -97.82132813 129.845 -98.30078125 129.25 C-98.63078125 129.25 -98.96078125 129.25 -99.30078125 129.25 Z M-11.30078125 130.25 C-12.62078125 132.56 -13.94078125 134.87 -15.30078125 137.25 C-12.00078125 137.58 -8.70078125 137.91 -5.30078125 138.25 C-6.22389063 134.55756248 -6.85029681 132.99454257 -9.30078125 130.25 C-9.96078125 130.25 -10.62078125 130.25 -11.30078125 130.25 Z M-96.30078125 140.5625 C-97.20828125 140.80613281 -98.11578125 141.04976562 -99.05078125 141.30078125 C-99.79328125 141.61402344 -100.53578125 141.92726562 -101.30078125 142.25 C-101.63078125 143.24 -101.96078125 144.23 -102.30078125 145.25 C-100.63015625 145.62125 -100.63015625 145.62125 -98.92578125 146 C-95.30078125 147.25 -95.30078125 147.25 -93.86328125 149.375 C-93.58484375 150.303125 -93.58484375 150.303125 -93.30078125 151.25 C-89.94187727 147.06138276 -89.94187727 147.06138276 -89.55078125 141.875 C-89.79828125 141.00875 -90.04578125 140.1425 -90.30078125 139.25 C-92.34441418 139.25 -94.34884045 140.02183458 -96.30078125 140.5625 Z M-17.30078125 140.25 C-16.72625379 144.18075644 -16.72625379 144.18075644 -14.30078125 147.25 C-11.99078125 146.26 -9.68078125 145.27 -7.30078125 144.25 C-7.30078125 143.26 -7.30078125 142.27 -7.30078125 141.25 C-10.60078125 140.92 -13.90078125 140.59 -17.30078125 140.25 Z M-104.30078125 147.25 C-105.84244767 148.62485532 -105.84244767 148.62485532 -107.30078125 150.25 C-107.30078125 150.91 -107.30078125 151.57 -107.30078125 152.25 C-105.65744621 153.28789581 -103.98834258 154.28567924 -102.30078125 155.25 C-101.64078125 155.91 -100.98078125 156.57 -100.30078125 157.25 C-98.32078125 155.6 -96.34078125 153.95 -94.30078125 152.25 C-96.60361058 150.71478044 -98.4794036 149.66642091 -100.98828125 148.625 C-102.08140625 148.17125 -103.17453125 147.7175 -104.30078125 147.25 Z M-12.30078125 152.25 C-9.82578125 153.735 -9.82578125 153.735 -7.30078125 155.25 C-5.65078125 153.6 -4.00078125 151.95 -2.30078125 150.25 C-2.96078125 149.59 -3.62078125 148.93 -4.30078125 148.25 C-8.20916991 148.25 -9.41672232 149.75567876 -12.30078125 152.25 Z M-110.30078125 153.25 C-112.28078125 154.57 -114.26078125 155.89 -116.30078125 157.25 C-115.53765625 157.848125 -114.77453125 158.44625 -113.98828125 159.0625 C-111.95242375 160.71959332 -110.10295335 162.35297674 -108.30078125 164.25 C-106.32078125 162.6 -104.34078125 160.95 -102.30078125 159.25 C-104.91592442 157.12961365 -107.49715741 155.11908256 -110.30078125 153.25 Z M0.69921875 153.25 C-0.62078125 154.57 -1.94078125 155.89 -3.30078125 157.25 C-2.64078125 158.57 -1.98078125 159.89 -1.30078125 161.25 C2.70267898 161.69290923 2.70267898 161.69290923 4.94921875 159.25 C5.52671875 158.59 6.10421875 157.93 6.69921875 157.25 C4.71921875 155.93 2.73921875 154.61 0.69921875 153.25 Z M-118.30078125 159.25 C-119.95078125 160.9 -121.60078125 162.55 -123.30078125 164.25 C-118.84578125 167.22 -118.84578125 167.22 -114.30078125 170.25 C-112.65078125 168.27 -111.00078125 166.29 -109.30078125 164.25 C-112.27078125 162.6 -115.24078125 160.95 -118.30078125 159.25 Z M7.69921875 159.25 C7.36921875 160.24 7.03921875 161.23 6.69921875 162.25 C4.63671875 163.4375 4.63671875 163.4375 2.69921875 164.25 C5.17421875 166.23 5.17421875 166.23 7.69921875 168.25 C9.67921875 166.93 11.65921875 165.61 13.69921875 164.25 C12.4185939 162.5425002 11.08154318 160.87626404 9.69921875 159.25 C9.03921875 159.25 8.37921875 159.25 7.69921875 159.25 Z M-125.30078125 166.25 C-126.29078125 167.24 -127.28078125 168.23 -128.30078125 169.25 C-127.30180412 172.24693138 -126.64947872 173.27709413 -124.30078125 175.25 C-123.64078125 175.25 -122.98078125 175.25 -122.30078125 175.25 C-122.30078125 175.91 -122.30078125 176.57 -122.30078125 177.25 C-123.04328125 176.79625 -123.78578125 176.3425 -124.55078125 175.875 C-126.77008703 174.56359204 -128.98045947 173.36719197 -131.30078125 172.25 C-132.95078125 174.56 -134.60078125 176.87 -136.30078125 179.25 C-135.66140625 179.848125 -135.02203125 180.44625 -134.36328125 181.0625 C-132.30078125 183.25 -132.30078125 183.25 -131.30078125 186.25 C-132.22890625 185.755 -133.15703125 185.26 -134.11328125 184.75 C-137.16605641 183.03710148 -137.16605641 183.03710148 -140.30078125 183.25 C-141.29078125 185.23 -142.28078125 187.21 -143.30078125 189.25 C-142.51703125 189.70375 -141.73328125 190.1575 -140.92578125 190.625 C-138.30078125 192.25 -138.30078125 192.25 -136.30078125 194.25 C-129.55992251 186.98110732 -122.84434357 179.69811358 -116.30078125 172.25 C-117.29078125 171.59 -118.28078125 170.93 -119.30078125 170.25 C-121.30078125 168.91666667 -123.30078125 167.58333333 -125.30078125 166.25 Z M14.69921875 167.25 C13.31689432 168.87626404 11.9798436 170.5425002 10.69921875 172.25 C12.01921875 173.24 13.33921875 174.23 14.69921875 175.25 C16.34921875 173.6 17.99921875 171.95 19.69921875 170.25 C18.32436343 168.70833358 18.32436343 168.70833358 16.69921875 167.25 C16.03921875 167.25 15.37921875 167.25 14.69921875 167.25 Z M20.69921875 172.25 C19.04921875 174.23 17.39921875 176.21 15.69921875 178.25 C18.00921875 180.23 20.31921875 182.21 22.69921875 184.25 C23.02921875 183.26 23.35921875 182.27 23.69921875 181.25 C24.68921875 180.92 25.67921875 180.59 26.69921875 180.25 C25.25668218 176.88408134 23.36657148 174.73952921 20.69921875 172.25 Z M23.69921875 185.25 C26.17421875 188.715 26.17421875 188.715 28.69921875 192.25 C30.34921875 191.26 31.99921875 190.27 33.69921875 189.25 C32.21421875 186.28 32.21421875 186.28 30.69921875 183.25 C28.05268525 183.25 26.11840245 184.23139634 23.69921875 185.25 Z M-145.30078125 191.25 C-147.55963449 194.50397508 -147.55963449 194.50397508 -148.30078125 198.25 C-147.34171875 198.9615625 -147.34171875 198.9615625 -146.36328125 199.6875 C-144.30078125 201.25 -144.30078125 201.25 -143.30078125 204.25 C-144.06390625 203.940625 -144.82703125 203.63125 -145.61328125 203.3125 C-147.48867802 202.57106407 -149.38762777 201.88771783 -151.30078125 201.25 C-152.62078125 203.89 -153.94078125 206.53 -155.30078125 209.25 C-154.02203125 209.70375 -152.74328125 210.1575 -151.42578125 210.625 C-148.68070195 211.5990604 -147.39860912 212.15217213 -145.30078125 214.25 C-144.96304688 213.36957031 -144.6253125 212.48914063 -144.27734375 211.58203125 C-143.83132812 210.42058594 -143.3853125 209.25914062 -142.92578125 208.0625 C-142.48492187 206.91394531 -142.0440625 205.76539063 -141.58984375 204.58203125 C-140.51225982 201.79664006 -139.41713695 199.02002279 -138.30078125 196.25 C-140.61078125 194.6 -142.92078125 192.95 -145.30078125 191.25 Z M34.69921875 192.25 C33.21421875 194.23 33.21421875 194.23 31.69921875 196.25 C33.01921875 197.9 34.33921875 199.55 35.69921875 201.25 C35.69921875 200.59 35.69921875 199.93 35.69921875 199.25 C37.01921875 198.59 38.33921875 197.93 39.69921875 197.25 C38.04921875 195.6 36.39921875 193.95 34.69921875 192.25 Z M91.69921875 202.25 C86.94072423 210.31389171 86.62864949 220.26236496 85.546875 229.35546875 C84.6604354 236.74905603 83.61837643 244.11626601 82.52462769 251.48162842 C82.30964023 252.93897844 82.0982477 254.39686383 81.89065552 255.85528564 C79.00542092 276.10984788 79.00542092 276.10984788 71.69921875 283.25 C59.87515294 290.29412431 43.7234853 288.3795013 30.53118896 287.9730835 C25.06180536 287.80580528 19.59140085 287.67978262 14.12109375 287.546875 C13.04217865 287.5195932 11.96326355 287.4923114 10.85165405 287.46420288 C2.09262826 287.24605482 -6.66374621 287.10035642 -15.42578125 287.125 C-17.06338409 287.12950165 -17.06338409 287.12950165 -18.73406982 287.13409424 C-26.04386322 287.17349211 -33.3357518 287.33412285 -40.63967896 287.62301636 C-53.9527022 288.14381296 -67.23631559 288.31524849 -80.55859375 288.2421875 C-81.371646 288.23827374 -82.18469826 288.23435997 -83.02238846 288.23032761 C-90.54270949 288.19381854 -98.06290982 288.14748612 -105.58300781 288.07861328 C-109.76194756 288.04099822 -113.94075518 288.01797938 -118.11983871 288.00430679 C-119.68991796 287.99629913 -121.25997984 287.98275705 -122.82995987 287.96337509 C-125.00025637 287.93690989 -127.16989432 287.92900829 -129.34033203 287.92529297 C-130.56809357 287.91561493 -131.7958551 287.90593689 -133.06082153 287.89596558 C-137.80989211 288.41490242 -141.26579479 290.57606902 -144.30078125 294.25 C-144.30078125 294.91 -144.30078125 295.57 -144.30078125 296.25 C-134.88791013 300.75180793 -125.75962743 301.52644985 -115.42578125 301.4375 C-114.32569733 301.4281543 -113.2256134 301.41880859 -112.0921936 301.40917969 C-103.34317049 301.31605179 -94.60265874 301.10481811 -85.85741043 300.83703613 C-68.10011192 300.29913974 -50.3448571 300.00946967 -32.58102417 299.80444336 C-24.55390926 299.71150483 -16.52695479 299.60574126 -8.5 299.5 C-7.71013514 299.48964218 -6.92027027 299.47928436 -6.10647011 299.46861267 C8.01738645 299.28249565 22.13975871 299.04915943 36.26171875 298.75 C37.16146423 298.73203369 38.06120972 298.71406738 38.98822021 298.69555664 C47.65543816 298.52034307 56.31243245 298.27181752 64.96875 297.79296875 C65.64547256 297.75719727 66.32219513 297.72142578 67.01942444 297.68457031 C75.55607371 297.17011057 84.99244243 296.47562801 91.28125 290.078125 C100.34400704 278.39390931 101.75068276 261.9369268 103.97265625 247.71875 C104.43469792 244.78612188 104.95853728 241.87783099 105.55078125 238.96875 C107.04896287 231.50797776 107.97780106 224.3103042 108.01171875 216.6875 C108.0171167 215.96175781 108.02251465 215.23601562 108.02807617 214.48828125 C107.95470089 208.95514659 107.48816907 202.97601954 104.38671875 198.25 C99.26121184 195.21266257 95.07022604 198.0688335 91.69921875 202.25 Z M77.14428711 202.61621094 C70.1796702 210.49038164 70.92799912 221.17398198 70.63671875 231.0625 C69.73842247 259.22537985 69.73842247 259.22537985 62.69921875 268.25 C55.60206881 274.47988111 47.67811418 275.30678412 38.66259766 276.07324219 C28.64145551 276.97541912 19.27386088 279.29291412 9.69921875 282.25 C9.69921875 282.58 9.69921875 282.91 9.69921875 283.25 C16.40643465 283.46971686 23.1140479 283.66442586 29.82250977 283.84204102 C32.10294898 283.90533709 34.38323877 283.97428566 36.66333008 284.04907227 C39.94719549 284.15578894 43.2310674 284.24193911 46.515625 284.32421875 C47.52943741 284.36157639 48.54324982 284.39893402 49.58778381 284.43742371 C56.79940991 284.58944999 61.1082723 283.38746812 67.32421875 279.6875 C77.07254853 269.68263522 77.89429024 254.20075973 79.26953125 241 C79.69921875 237.25 79.69921875 237.25 80.19921875 234.85449219 C80.71594915 232.16285162 80.95257836 229.56240194 81.12890625 226.828125 C81.20238281 225.80203125 81.27585937 224.7759375 81.3515625 223.71875 C81.49888781 221.58899457 81.6396161 219.45877156 81.7734375 217.328125 C82.25337701 210.82047058 83.3639805 205.34969335 85.69921875 199.25 C81.47594675 199.25 80.18936614 199.81831449 77.14428711 202.61621094 Z M38.63671875 203.25 C37.99734375 203.91 37.35796875 204.57 36.69921875 205.25 C37.35921875 207.23 38.01921875 209.21 38.69921875 211.25 C40.67921875 210.59 42.65921875 209.93 44.69921875 209.25 C43.70921875 206.61 42.71921875 203.97 41.69921875 201.25 C40.34004194 201.13397569 40.34004194 201.13397569 38.63671875 203.25 Z M59.69921875 206.25 C56.11860948 212.26030842 55.63248835 217.5489291 55.38671875 224.4375 C54.39955378 242.75133319 49.92778371 256.0005626 37.203125 269.5703125 C35.58804408 270.99840752 35.58804408 270.99840752 35.69921875 272.25 C48.63403006 271.9227357 48.63403006 271.9227357 59.01171875 265 C64.9212371 258.20000628 64.11153206 248.90508898 64.32421875 240.4375 C64.36289062 239.21740234 64.4015625 237.99730469 64.44140625 236.74023438 C64.60245142 231.38835838 64.71141054 226.05312655 64.63671875 220.69921875 C64.62307238 217.19461447 64.94960106 214.22658343 66.07421875 210.875 C66.45707031 209.68777344 66.45707031 209.68777344 66.84765625 208.4765625 C67.67323756 206.31793246 68.6253626 204.29499563 69.69921875 202.25 C65.00006175 201.71295349 63.00502736 202.94419139 59.69921875 206.25 Z M-155.30078125 211.25 C-156.90433226 214.75776784 -157.52114989 217.39354879 -157.30078125 221.25 C-154.66078125 221.58 -152.02078125 221.91 -149.30078125 222.25 C-149.30078125 222.91 -149.30078125 223.57 -149.30078125 224.25 C-153.75578125 224.745 -153.75578125 224.745 -158.30078125 225.25 C-158.30078125 228.55 -158.30078125 231.85 -158.30078125 235.25 C-155.33078125 234.92 -152.36078125 234.59 -149.30078125 234.25 C-149.30078125 235.24 -149.30078125 236.23 -149.30078125 237.25 C-153.26078125 237.745 -153.26078125 237.745 -157.30078125 238.25 C-156.64078125 241.55 -155.98078125 244.85 -155.30078125 248.25 C-152.33078125 247.59 -149.36078125 246.93 -146.30078125 246.25 C-148.80894584 248.75816459 -150.20915861 249.86410019 -153.30078125 251.25 C-152.1393544 255.60535069 -151.2237862 257.89619703 -147.30078125 260.25 C-147.07390625 259.63125 -146.84703125 259.0125 -146.61328125 258.375 C-144.9214829 255.63589791 -143.30833964 255.19975528 -140.30078125 254.25 C-140.96078125 255.03375 -141.62078125 255.8175 -142.30078125 256.625 C-144.50279566 258.96512812 -144.50279566 258.96512812 -144.30078125 261.25 C-144.96078125 261.25 -145.62078125 261.25 -146.30078125 261.25 C-145.28901688 264.65320742 -144.65234543 266.00725331 -141.67578125 268.0625 C-140.89203125 268.454375 -140.10828125 268.84625 -139.30078125 269.25 C-138.62669817 267.98308493 -137.96177628 266.71129251 -137.30078125 265.4375 C-136.92953125 264.72980469 -136.55828125 264.02210938 -136.17578125 263.29296875 C-135.10392767 261.16079271 -135.10392767 261.16079271 -135.30078125 258.25 C-136.74502039 256.18594348 -136.74502039 256.18594348 -138.61328125 254.0625 C-145.86699856 245.03565179 -146.46199773 235.58311677 -146.36328125 224.375 C-146.35876953 223.40046875 -146.35425781 222.4259375 -146.34960938 221.421875 C-146.33789049 219.03122332 -146.31995721 216.6406035 -146.30078125 214.25 C-149.27078125 213.26 -152.24078125 212.27 -155.30078125 211.25 Z M39.69921875 214.25 C40.02921875 216.56 40.35921875 218.87 40.69921875 221.25 C43.33921875 221.25 45.97921875 221.25 48.69921875 221.25 C48.03921875 217.95 47.37921875 214.65 46.69921875 211.25 C44.32700888 211.25 41.77044142 213.19235438 39.69921875 214.25 Z M41.69921875 224.25 C41.69921875 227.55 41.69921875 230.85 41.69921875 234.25 C43.67921875 234.25 45.65921875 234.25 47.69921875 234.25 C49.17754135 231.29335481 48.75954658 228.50770263 48.69921875 225.25 C46.38921875 224.92 44.07921875 224.59 41.69921875 224.25 Z M40.69921875 237.25 C40.03921875 240.22 39.37921875 243.19 38.69921875 246.25 C41.00921875 246.91 43.31921875 247.57 45.69921875 248.25 C47.01548567 244.63026598 47.69921875 242.15432869 47.69921875 238.25 C45.38921875 237.92 43.07921875 237.59 40.69921875 237.25 Z M37.69921875 248.25 C36.21421875 250.23 36.21421875 250.23 34.69921875 252.25 C36.2132033 256.03496138 36.71365835 256.2572198 40.69921875 258.25 C42.01921875 255.61 43.33921875 252.97 44.69921875 250.25 C42.38921875 249.59 40.07921875 248.93 37.69921875 248.25 Z M29.57421875 259.25 C28.95546875 259.91 28.33671875 260.57 27.69921875 261.25 C28.77322983 264.16517292 29.47732051 266.02810176 31.69921875 268.25 C33.34921875 266.6 34.99921875 264.95 36.69921875 263.25 C36.38984375 262.63125 36.08046875 262.0125 35.76171875 261.375 C35.07421875 260 34.38671875 258.625 33.69921875 257.25 C31.45559302 257.0215451 31.45559302 257.0215451 29.57421875 259.25 Z M-133.30078125 261.25 C-133.97233058 262.53913487 -134.63786984 263.83140204 -135.30078125 265.125 C-135.67203125 265.84429687 -136.04328125 266.56359375 -136.42578125 267.3046875 C-137.43751871 269.19848977 -137.43751871 269.19848977 -137.30078125 271.25 C-134.66078125 271.91 -132.02078125 272.57 -129.30078125 273.25 C-128.64078125 270.61 -127.98078125 267.97 -127.30078125 265.25 C-130.01081418 262.57668287 -130.01081418 262.57668287 -133.30078125 261.25 Z M18.69921875 266.25 C19.35921875 268.56 20.01921875 270.87 20.69921875 273.25 C23.33921875 272.26 25.97921875 271.27 28.69921875 270.25 C27.21421875 267.28 27.21421875 267.28 25.69921875 264.25 C23.05268525 264.25 21.11840245 265.23139634 18.69921875 266.25 Z M-124.30078125 266.25 C-125.29078125 269.22 -126.28078125 272.19 -127.30078125 275.25 C-122.84578125 276.24 -122.84578125 276.24 -118.30078125 277.25 C-116.85553241 272.82394994 -116.85553241 272.82394994 -116.30078125 268.25 C-118.94078125 267.59 -121.58078125 266.93 -124.30078125 266.25 Z M7.69921875 269.25 C8.35921875 271.56 9.01921875 273.87 9.69921875 276.25 C14.71456927 275.92039784 14.71456927 275.92039784 18.69921875 273.25 C17.21421875 270.28 17.21421875 270.28 15.69921875 267.25 C13.06345192 267.25 10.21408464 268.51840265 7.69921875 269.25 Z M-114.30078125 269.25 C-114.66201006 270.56057393 -115.01458436 271.87353624 -115.36328125 273.1875 C-115.56050781 273.91839844 -115.75773437 274.64929688 -115.9609375 275.40234375 C-116.07308594 276.01207031 -116.18523437 276.62179687 -116.30078125 277.25 C-115.11653799 278.66577477 -115.11653799 278.66577477 -111.73828125 278.3125 C-110.03671875 278.2815625 -110.03671875 278.2815625 -108.30078125 278.25 C-107.97078125 275.94 -107.64078125 273.63 -107.30078125 271.25 C-109.61078125 270.59 -111.92078125 269.93 -114.30078125 269.25 Z M-1.30078125 272.25 C-0.97078125 274.23 -0.64078125 276.21 -0.30078125 278.25 C2.33921875 277.92 4.97921875 277.59 7.69921875 277.25 C7.03921875 274.94 6.37921875 272.63 5.69921875 270.25 C3.05268525 270.25 1.11840245 271.23139634 -1.30078125 272.25 Z M-105.30078125 272.25 C-105.34332481 274.24954746 -105.34158908 276.25041636 -105.30078125 278.25 C-104.1754402 279.60618499 -104.1754402 279.60618499 -101.23828125 279.3125 C-100.26890625 279.291875 -99.29953125 279.27125 -98.30078125 279.25 C-98.30078125 276.94 -98.30078125 274.63 -98.30078125 272.25 C-100.61078125 272.25 -102.92078125 272.25 -105.30078125 272.25 Z M-10.30078125 273.25 C-10.34141957 274.91617115 -10.34350225 276.58388095 -10.30078125 278.25 C-7.99078125 278.25 -5.68078125 278.25 -3.30078125 278.25 C-3.30078125 276.27 -3.30078125 274.29 -3.30078125 272.25 C-7.1069917 271.81152641 -7.1069917 271.81152641 -10.30078125 273.25 Z M-94.30078125 273.25 C-94.30078125 275.23 -94.30078125 277.21 -94.30078125 279.25 C-91.66078125 279.58 -89.02078125 279.91 -86.30078125 280.25 C-86.63078125 277.94 -86.96078125 275.63 -87.30078125 273.25 C-89.61078125 273.25 -91.92078125 273.25 -94.30078125 273.25 Z M-83.30078125 273.25 C-83.30078125 275.56 -83.30078125 277.87 -83.30078125 280.25 C-80.33078125 280.745 -80.33078125 280.745 -77.30078125 281.25 C-76.97078125 278.61 -76.64078125 275.97 -76.30078125 273.25 C-78.61078125 273.25 -80.92078125 273.25 -83.30078125 273.25 Z M-74.30078125 273.25 C-73.97078125 275.89 -73.64078125 278.53 -73.30078125 281.25 C-70.33078125 281.745 -70.33078125 281.745 -67.30078125 282.25 C-67.63078125 279.28 -67.96078125 276.31 -68.30078125 273.25 C-70.28078125 273.25 -72.26078125 273.25 -74.30078125 273.25 Z M-64.30078125 273.25 C-64.30078125 276.22 -64.30078125 279.19 -64.30078125 282.25 C-61.33078125 282.25 -58.36078125 282.25 -55.30078125 282.25 C-55.63078125 279.28 -55.96078125 276.31 -56.30078125 273.25 C-58.94078125 273.25 -61.58078125 273.25 -64.30078125 273.25 Z M-52.30078125 273.25 C-52.63078125 276.22 -52.96078125 279.19 -53.30078125 282.25 C-50.33078125 282.25 -47.36078125 282.25 -44.30078125 282.25 C-44.30078125 279.28 -44.30078125 276.31 -44.30078125 273.25 C-46.94078125 273.25 -49.58078125 273.25 -52.30078125 273.25 Z M-40.30078125 273.25 C-40.30078125 276.22 -40.30078125 279.19 -40.30078125 282.25 C-38.65078125 281.92 -37.00078125 281.59 -35.30078125 281.25 C-34.97078125 278.61 -34.64078125 275.97 -34.30078125 273.25 C-36.28078125 273.25 -38.26078125 273.25 -40.30078125 273.25 Z M-32.30078125 273.25 C-31.97078125 275.89 -31.64078125 278.53 -31.30078125 281.25 C-29.32078125 280.92 -27.34078125 280.59 -25.30078125 280.25 C-25.30078125 277.94 -25.30078125 275.63 -25.30078125 273.25 C-27.61078125 273.25 -29.92078125 273.25 -32.30078125 273.25 Z M-20.30078125 273.25 C-20.96078125 275.56 -21.62078125 277.87 -22.30078125 280.25 C-19.66078125 279.92 -17.02078125 279.59 -14.30078125 279.25 C-13.97078125 277.27 -13.64078125 275.29 -13.30078125 273.25 C-15.61078125 273.25 -17.92078125 273.25 -20.30078125 273.25 Z " fill="#000000" transform="translate(309.30078125,106.75)"/>
<path d="M0 0 C0.51771973 0.42990234 1.03543945 0.85980469 1.56884766 1.30273438 C2.12523926 1.74939453 2.68163086 2.19605469 3.25488281 2.65625 C12.69220445 10.41951545 19.64526385 19.88781698 26.21337891 30.10351562 C33.30539902 40.9734396 41.86288135 47.53571288 53.13134766 53.86523438 C52.80134766 54.85523438 52.47134766 55.84523438 52.13134766 56.86523438 C42.75146918 57.73374164 36.24165668 53.88577273 29.13134766 47.99023438 C23.99352548 43.15747039 20.40817848 37.61880329 16.63525391 31.72070312 C9.71465675 20.93279297 1.71730771 9.93942703 -9.86865234 3.86523438 C-15.20941244 4.57733572 -18.36907286 7.828812 -22.13427734 11.40429688 C-23.86865234 12.86523438 -23.86865234 12.86523438 -25.86865234 12.86523438 C-26.12517578 13.43371094 -26.38169922 14.0021875 -26.64599609 14.58789062 C-28.00156369 17.11279767 -29.59483141 19.102859 -31.43115234 21.30273438 C-34.66221123 25.2667921 -37.62386746 29.32706426 -40.49365234 33.55273438 C-47.64943528 43.98235573 -55.42654251 52.79762154 -67.86865234 56.86523438 C-71.30615234 57.05273438 -71.30615234 57.05273438 -73.86865234 56.86523438 C-73.86865234 55.54523438 -73.86865234 54.22523438 -73.86865234 52.86523438 C-72.47453125 52.22908203 -72.47453125 52.22908203 -71.05224609 51.58007812 C-69.80317675 50.9884137 -68.55449966 50.39592069 -67.30615234 49.80273438 C-66.69707031 49.52751953 -66.08798828 49.25230469 -65.46044922 48.96875 C-56.33434915 44.57470182 -51.3647886 37.01494836 -46.05615234 28.67773438 C-28.53860271 1.91236481 -28.53860271 1.91236481 -15.01708984 -3.93554688 C-9.08478888 -4.48563296 -4.74840735 -3.65605073 0 0 Z " fill="#000000" transform="translate(265.86865234375,291.134765625)"/>
<path d="M0 0 C11.95662331 0.23913247 23.6389977 7.88018046 32 16 C35.41518534 19.70300904 38.60753937 23.59018349 41.78076172 27.50048828 C49.89193854 38.29053092 49.89193854 38.29053092 61.4375 44.1875 C66.77584897 44.40428574 70.05463399 42.44460802 74 39 C78.76188606 34.25488115 82.96334322 29.08286071 87.125 23.8125 C95.68758762 13.07156328 107.17330412 3.09153235 121 0 C123.78125 0.41015625 123.78125 0.41015625 126 1 C126 1.99 126 2.98 126 4 C125.03320312 4.4846875 124.06640625 4.969375 123.0703125 5.46875 C107.38930164 13.47487147 96.21862401 24.08352908 85.375 37.8125 C80.3151189 44.08747799 74.74190559 49.37044281 67 52 C59.19320102 52.76788187 54.28553742 50.62197867 48.21484375 45.77734375 C42.60328253 40.95917914 37.84296515 35.76155601 33.375 29.875 C25.68766414 19.75785342 17.18175412 13.05351625 6 7 C4.58116692 6.19128907 3.16406681 5.37951638 1.75 4.5625 C0.8425 4.046875 -0.065 3.53125 -1 3 C-0.67 2.01 -0.34 1.02 0 0 Z " fill="#000000" transform="translate(192,179)"/>
<path d="M0 0 C4.23268884 4.20698426 6.42379073 8.23017946 6.6484375 14.234375 C6.31735855 19.42708693 5.01764956 22.92205592 1.5625 26.9375 C-4.31526877 31.46828009 -9.05575763 32.66527742 -16.4375 31.9375 C-22.56675296 30.54820266 -27.97381628 28.57629602 -31.625 23.18359375 C-34.40296165 18.25464096 -35.15083632 14.55502353 -34.4375 8.9375 C-32.33211742 3.4094634 -28.7156579 -0.42342105 -23.4375 -3.0625 C-15.31833015 -4.63733898 -6.73592494 -5.41588105 0 0 Z M-22.4375 7.9375 C-24.00180248 11.06610495 -23.79377284 13.49352925 -23.4375 16.9375 C-20.13100721 20.99062019 -16.56547633 21.52340202 -11.62109375 22.0546875 C-9.07006055 21.91778053 -7.58519849 21.30037213 -5.4375 19.9375 C-3.8207293 16.70395861 -3.96118071 14.50989465 -4.4375 10.9375 C-7.1883911 7.28819649 -10.05935935 5.18556532 -14.5625 4.375 C-17.78163031 5.00482984 -19.81107865 5.98644414 -22.4375 7.9375 Z " fill="#000000" transform="translate(274.4375,328.0625)"/>
<path d="M0 0 C4.4720603 3.009633 6.5627657 7.62139347 8.1875 12.625 C9.21355924 18.60134502 8.46075205 23.58844103 5.46875 28.8671875 C2.99782554 32.25717532 -0.04701934 34.74225967 -3.8125 36.625 C-11.20894973 37.39625373 -17.50582918 36.73639104 -23.8125 32.625 C-27.59114533 29.33600797 -29.82916286 25.54168572 -30.8125 20.625 C-30.8005725 14.68510487 -29.44645048 9.41231975 -25.26953125 4.9921875 C-18.41364757 -1.27345454 -8.84574472 -4.09453686 0 0 Z M-19.8125 10.625 C-21.55394037 14.10788073 -21.39105206 17.82496485 -20.8125 21.625 C-17.81144785 25.77351327 -14.8104816 27.60500376 -9.8125 28.625 C-6.67125866 28.4402211 -4.6360027 28.21321622 -2.0625 26.375 C0.05663402 23.40821237 1.29852279 21.23190881 1.0390625 17.4765625 C0.34647744 13.54320204 -0.62543653 10.90276091 -2.875 7.5625 C-6.3691024 5.25787927 -8.53584389 4.90524501 -12.65625 5.125 C-16.10621778 5.92499253 -17.72177996 7.88092995 -19.8125 10.625 Z " fill="#000000" transform="translate(369.8125,233.375)"/>
<path d="M0 0 C3.75919988 3.14390484 6.67784307 7.46458309 7.30078125 12.3671875 C7.33341561 19.35094101 6.39875302 23.48423464 1.4375 28.6875 C-3.5720276 32.52855218 -9.95708671 34.43177097 -16.25 33.9375 C-22.44955321 32.3876117 -26.5218039 29.34151544 -30 24 C-32.36569815 18.25473305 -32.55272665 12.96573924 -31 7 C-28.80252264 2.35451855 -26.26251615 -1.06683589 -22.125 -4.125 C-14.69621316 -6.20506031 -6.71893614 -3.33840557 0 0 Z M-21 5 C-23.88868756 9.3828363 -24.56796579 12.79364695 -24 18 C-22.34860695 21.5386994 -21.28394771 22.81070153 -18 25 C-13.1251372 25.24787438 -9.07442806 24.6797402 -4.9375 22.0625 C-2.41013692 19.37208124 -2.03712221 18.48258879 -1.75 14.75 C-2.0244375 10.63343749 -2.73868521 8.43096037 -5 5 C-7.75368606 2.76728157 -9.48258624 2.06467672 -13 1.625 C-16.51741376 2.06467672 -18.24631394 2.76728157 -21 5 Z " fill="#000000" transform="translate(159,236)"/>
<path d="M0 0 C2.44609595 1.83457196 2.87528543 3.14120599 3.30859375 6.125 C3.52372583 10.08864559 3.55549273 12.25934303 1.125 15.5 C-2.73560564 18.22513339 -5.24596513 18.47540349 -10 18 C-12.98057835 16.69440478 -13.81956349 15.67103473 -16 13 C-16.58964428 8.52189073 -15.82733264 5.10311019 -13.125 1.5 C-8.79095806 -1.55932372 -4.93469289 -1.28507627 0 0 Z M-9 6 C-9 7.32 -9 8.64 -9 10 C-5.95086772 11.01111093 -5.95086772 11.01111093 -3 10 C-3.33 8.68 -3.66 7.36 -4 6 C-5.65 6 -7.3 6 -9 6 Z " fill="#000000" transform="translate(382,206)"/>
<path d="M0 0 C2.87029869 1.79393668 4.49131638 2.98263276 6 6 C6.69064748 13.13669065 6.69064748 13.13669065 4 16.5 C0.22012441 18.3899378 -2.90566772 18.89388931 -7 18 C-9.98674357 16.68659056 -10.81107064 15.68143846 -13 13 C-13.99435617 8.70132181 -13.72299386 5.28881514 -11.5625 1.4375 C-7.73660562 -0.70873343 -4.28374326 -0.77886241 0 0 Z M-5 6 C-5.33 7.32 -5.66 8.64 -6 10 C-4.68 10.33 -3.36 10.66 -2 11 C-1.34 10.01 -0.68 9.02 0 8 C-0.33 7.34 -0.66 6.68 -1 6 C-2.32 6 -3.64 6 -5 6 Z " fill="#000000" transform="translate(133,205)"/>
<path d="M0 0 C3.00741304 1.9507544 4.55990868 3.33185415 6.3125 6.5 C6.64994757 10.99930092 6.15896107 14.40779217 3.375 18 C-0.139825 20.55623636 -2.32805757 20.92739632 -6.6875 20.5 C-9.56215603 18.96685012 -11.23342657 17.80929148 -12.32421875 14.6640625 C-12.96303865 11.07842825 -12.74977359 8.70628126 -11.6875 5.1875 C-8.66262897 1.12282955 -5.12748571 -0.95395083 0 0 Z M-3.6875 5.5 C-6.03723818 7.39755144 -6.03723818 7.39755144 -5.8125 10.625 C-5.77125 11.57375 -5.73 12.5225 -5.6875 13.5 C-4.0375 13.5 -2.3875 13.5 -0.6875 13.5 C-0.0275 11.85 0.6325 10.2 1.3125 8.5 C-0.06235532 6.95833358 -0.06235532 6.95833358 -1.6875 5.5 C-2.3475 5.5 -3.0075 5.5 -3.6875 5.5 Z " fill="#000000" transform="translate(378.6875,277.5)"/>
<path d="M0 0 C2.9375 1.9375 2.9375 1.9375 5 5 C5.84706541 9.59198617 5.82542046 13.49271046 3.5625 17.625 C-0.29271976 19.6936545 -3.73671628 20.01072502 -8 19 C-11.07809423 16.81998503 -12.60596876 13.98507809 -14 10.5 C-14 6.17076659 -12.09419855 3.21143411 -9.25 0.0625 C-5.79243688 -1.57023814 -3.63114436 -1.01926859 0 0 Z M-6 5 C-6.66 5.66 -7.32 6.32 -8 7 C-7.67958603 9.60280568 -7.67958603 9.60280568 -7 12 C-5.35 12.33 -3.7 12.66 -2 13 C-1.20046862 9.71303767 -0.90341064 8.28976808 -2 5 C-3.32 5 -4.64 5 -6 5 Z " fill="#000000" transform="translate(134,278)"/>
<path d="M0 0 C-4.6154263 3.38464596 -9.48086654 4.08907506 -15 5 C-14.67 4.01 -14.34 3.02 -14 2 C-13.01 2 -12.02 2 -11 2 C-10.67 1.34 -10.34 0.68 -10 0 C-6.18015204 -0.77811718 -3.73159669 -1.24386556 0 0 Z " fill="#000000" transform="translate(364,372)"/>
<path d="M0 0 C5.28 0 10.56 0 16 0 C16 0.33 16 0.66 16 1 C10.72 1 5.44 1 0 1 C0 0.67 0 0.34 0 0 Z " fill="#000000" transform="translate(123,161)"/>
<path d="M0 0 C1.32 0.66 2.64 1.32 4 2 C2.35 2 0.7 2 -1 2 C-0.67 1.34 -0.34 0.68 0 0 Z " fill="#000000" transform="translate(367,186)"/>
<path d="M0 0 C1.32 0.33 2.64 0.66 4 1 C3.34 1.66 2.68 2.32 2 3 C1.34 2.01 0.68 1.02 0 0 Z " fill="#000000" transform="translate(249,97)"/>
<path d="M0 0 C1.98 0 3.96 0 6 0 C6 0.33 6 0.66 6 1 C4.02 1 2.04 1 0 1 C0 0.67 0 0.34 0 0 Z " fill="#000000" transform="translate(290,403)"/>
<path d="M0 0 C0.99 0 1.98 0 3 0 C3 0.66 3 1.32 3 2 C2.01 2 1.02 2 0 2 C0 1.34 0 0.68 0 0 Z " fill="#000000" transform="translate(318,314)"/>
<path d="M0 0 C1.65 0 3.3 0 5 0 C4.01 0.66 3.02 1.32 2 2 C1.34 1.34 0.68 0.68 0 0 Z " fill="#000000" transform="translate(106,130)"/>
<path d="M0 0 C4 1 4 1 4 1 Z " fill="#000000" transform="translate(286,404)"/>
<path d="M0 0 C0.66 0.66 1.32 1.32 2 2 C1.34 2 0.68 2 0 2 C0 1.34 0 0.68 0 0 Z " fill="#000000" transform="translate(89,126)"/>
<path d="M0 0 C2 1 2 1 2 1 Z " fill="#000000" transform="translate(208,144)"/>
<path d="" fill="#000000" transform="translate(0,0)"/>
</svg>
