<?xml version="1.0" encoding="UTF-8"?>
<svg version="1.1" xmlns="http://www.w3.org/2000/svg" width="512" height="512">
<path d="M0 0 C1.63707413 -0.00472824 1.63707413 -0.00472824 3.30722046 -0.009552 C5.08994858 -0.00651566 5.08994858 -0.00651566 6.90869141 -0.00341797 C8.72707016 -0.00485306 8.72707016 -0.00485306 10.58218384 -0.00631714 C13.15293428 -0.00699929 15.72368643 -0.00514257 18.29443359 -0.00097656 C22.23620471 0.00436196 26.1778614 -0.00091564 30.11962891 -0.00732422 C32.61181666 -0.00666326 35.10400434 -0.00538174 37.59619141 -0.00341797 C39.37284683 -0.00645432 39.37284683 -0.00645432 41.18539429 -0.009552 C42.8319249 -0.00482376 42.8319249 -0.00482376 44.51171875 0 C45.4791098 0.00079559 46.44650085 0.00159119 47.44320679 0.00241089 C49.88525391 0.12939453 49.88525391 0.12939453 52.88525391 1.12939453 C55.72895842 1.22608048 58.5423266 1.2686329 61.38525391 1.25439453 C62.15740234 1.25826172 62.92955078 1.26212891 63.72509766 1.26611328 C67.03029127 1.26038504 69.72902889 1.18146954 72.88525391 0.12939453 C74.48865182 0.03663164 76.09558255 -0.00129011 77.70166016 -0.00341797 C78.63042969 -0.00470703 79.55919922 -0.00599609 80.51611328 -0.00732422 C81.96727539 -0.00152344 81.96727539 -0.00152344 83.44775391 0.00439453 C84.9047168 -0.00140625 84.9047168 -0.00140625 86.39111328 -0.00732422 C87.31859375 -0.00603516 88.24607422 -0.00474609 89.20166016 -0.00341797 C90.05187744 -0.00229004 90.90209473 -0.00116211 91.77807617 0 C93.88525391 0.12939453 93.88525391 0.12939453 95.88525391 1.12939453 C97.92578936 1.31853177 99.97158778 1.45192287 102.01806641 1.55908203 C103.28690674 1.63030273 104.55574707 1.70152344 105.86303711 1.77490234 C106.53887848 1.81184204 107.21471985 1.84878174 107.91104126 1.88684082 C130.47529631 3.15041548 152.13246979 5.93633518 174.09765625 11.43896484 C176.44479705 12.02030257 178.79435117 12.56656196 181.15478516 13.09033203 C188.55747215 14.83874564 195.38122067 17.44254917 202.32275391 20.50439453 C203.15210449 20.86766846 203.98145508 21.23094238 204.8359375 21.60522461 C214.29838609 25.94512311 223.34259183 32.30114403 228.82275391 41.31689453 C230.54989199 47.51427235 231.14195188 54.27326277 228.51025391 60.25439453 C227.73778175 63.80776647 228.33276149 64.49057367 230.13525391 67.56689453 C231.7220637 69.99782917 233.36127077 72.38406984 235.03076172 74.75878906 C252.86884941 100.17264759 263.90231801 131.09892214 259.56445312 162.44775391 C258.78625291 166.21866821 257.51240145 169.65029617 255.88525391 173.12939453 C255.53462891 173.92603516 255.18400391 174.72267578 254.82275391 175.54345703 C251.47199972 182.31477278 246.07262248 190.19450091 239.10400391 193.41455078 C238.00572266 193.76839844 238.00572266 193.76839844 236.88525391 194.12939453 C236.95744141 195.20576172 237.02962891 196.28212891 237.10400391 197.39111328 C237.40140937 201.96873172 237.65116059 206.54814717 237.88525391 211.12939453 C237.94197266 212.17869141 237.99869141 213.22798828 238.05712891 214.30908203 C238.73040372 239.1529226 233.9550614 263.02882415 216.58837891 281.46142578 C206.1341698 291.77966974 194.16353802 299.46373271 180.82275391 305.50439453 C179.80632812 305.96773193 178.78990234 306.43106934 177.74267578 306.90844727 C166.08749855 312.10125132 154.06573925 316.3432519 141.88525391 320.12939453 C141.17506104 320.35103271 140.46486816 320.5726709 139.7331543 320.80102539 C126.17894532 324.62803589 109.41403566 323.65645999 96.88525391 317.12939453 C90.04715409 312.36964631 86.4572227 305.48981507 82.88525391 298.12939453 C82.38896484 299.05880859 81.89267578 299.98822266 81.38134766 300.94580078 C74.96097483 312.74225933 68.17958847 321.49561537 54.88525391 326.12939453 C49.31936913 327.00052529 43.93837404 326.94872714 38.32275391 326.75439453 C36.79242316 326.724646 35.26206705 326.69617702 33.73168945 326.66894531 C23.68148652 326.44047229 13.9434331 325.55466815 4.06835938 323.69042969 C-0.06405392 322.96207521 -4.2099974 322.34807343 -8.36083984 321.73486328 C-10.07935376 321.47922082 -11.7978595 321.22352339 -13.51635742 320.96777344 C-16.08915427 320.58520253 -18.66203407 320.20332246 -21.23544312 319.82489014 C-30.20193438 318.49917849 -39.10988453 317.0268883 -47.97021484 315.10595703 C-48.7062796 314.94962296 -49.44234436 314.79328888 -50.20071411 314.63221741 C-59.53273312 312.53238782 -65.97716272 308.46355417 -71.51708984 300.68408203 C-82.22934146 283.55495597 -83.7516932 264.06991134 -79.52099609 244.36376953 C-78.18562337 239.86414405 -77.10751743 237.78849791 -73.11474609 235.12939453 C-73.63423828 234.66791016 -74.15373047 234.20642578 -74.68896484 233.73095703 C-80.0752794 228.69311014 -83.27871944 223.90328251 -86.11474609 217.12939453 C-86.55818359 216.10458984 -87.00162109 215.07978516 -87.45849609 214.02392578 C-93.22851343 199.9846685 -93.46117696 186.46516802 -93.43041992 171.48535156 C-93.42726014 168.26869789 -93.45078 165.05296632 -93.47607422 161.83642578 C-93.51034389 150.88056469 -93.25764219 140.70566895 -90.11474609 130.12939453 C-89.90100342 129.39591797 -89.68726074 128.66244141 -89.46704102 127.90673828 C-84.38250902 111.91800457 -76.9299683 95.02911487 -66.11474609 82.12939453 C-66.99646484 81.78714844 -66.99646484 81.78714844 -67.89599609 81.43798828 C-74.40147114 77.6011324 -78.18924097 67.88209368 -80.44677734 60.94189453 C-82.57712589 51.97200594 -81.49463467 45.04673016 -77.00537109 37.01220703 C-64.96254324 18.64938274 -44.51407585 8.85894776 -23.67724609 3.83251953 C-18.72186055 2.85448291 -13.76428488 2.1243617 -8.74755859 1.52392578 C-5.35763597 1.01594034 -3.71934608 0.00306387 0 0 Z M81.88916016 10.58642578 C72.26295038 11.10419142 62.64386216 11.27484585 53.00634766 11.37548828 C51.87814291 11.38791124 51.87814291 11.38791124 50.72714615 11.40058517 C43.67649538 11.47818294 36.62579392 11.54851741 29.57495117 11.60620117 C8.36102168 11.67950399 8.36102168 11.67950399 -12.79833984 13.01220703 C-13.54523575 13.08487289 -14.29213165 13.15753876 -15.06166077 13.23240662 C-27.24282977 14.6357581 -38.0223654 19.81250609 -48.73974609 25.50439453 C-49.56925781 25.9380835 -50.39876953 26.37177246 -51.25341797 26.81860352 C-58.45456112 30.8212731 -64.15622334 35.8812918 -67.05224609 43.75439453 C-68.89600613 51.19857567 -69.71714078 59.61645234 -66.48974609 66.69189453 C-63.82882701 69.42283781 -61.13192956 71.79793458 -58.11474609 74.12939453 C-57.05126953 73.05818359 -57.05126953 73.05818359 -55.96630859 71.96533203 C-34.14306364 50.17275924 -2.88189516 33.82285091 28.63916016 33.03564453 C36.47394914 33.37965283 46.06153273 34.41175424 52.48339844 39.36108398 C59.08227273 44.34632591 66.03278539 43.84450152 74.01025391 43.81689453 C84.15645202 43.86240973 93.8676422 44.49178584 103.88525391 46.12939453 C105.86785747 46.4075009 107.8509161 46.68238753 109.83447266 46.95361328 C122.0299408 48.73943801 132.90536671 51.57114212 144.32324219 56.14111328 C149.26702973 58.04815083 154.2966027 59.70452917 159.32275391 61.37939453 C160.29341797 61.70842773 161.26408203 62.03746094 162.26416016 62.37646484 C171.95220336 65.60691249 181.58655903 68.71814618 191.88525391 68.62939453 C193.03127075 68.62407715 193.03127075 68.62407715 194.20043945 68.61865234 C203.46722884 68.34968254 210.87336733 65.15864649 217.88525391 59.12939453 C220.42075624 55.62798655 220.30738579 52.35071337 219.88525391 48.12939453 C217.52277806 40.21747877 211.50246553 34.74855834 204.47509766 30.76220703 C172.99756266 16.57645488 136.47932183 12.05725774 102.38525391 10.37939453 C101.52843018 10.33451904 100.67160645 10.28964355 99.78881836 10.2434082 C93.7943222 10.018496 87.87235138 10.25933154 81.88916016 10.58642578 Z M-52.92724609 81.44189453 C-53.42869141 82.05677734 -53.93013672 82.67166016 -54.44677734 83.30517578 C-56.11474609 85.12939453 -56.11474609 85.12939453 -58.53271484 86.98095703 C-69.04033879 95.72406319 -74.16754594 109.86650471 -78.30224609 122.44189453 C-78.67772583 123.56072021 -78.67772583 123.56072021 -79.06079102 124.70214844 C-82.75093297 136.41026877 -83.45954403 148.36366905 -83.36474609 160.56689453 C-83.35652832 161.86804199 -83.34831055 163.16918945 -83.33984375 164.50976562 C-83.630333 198.15564363 -83.630333 198.15564363 -69.04443359 227.21142578 C-68.36638672 227.78248047 -67.68833984 228.35353516 -66.98974609 228.94189453 C-66.30654297 229.52583984 -65.62333984 230.10978516 -64.91943359 230.71142578 C-61.83389966 233.13577388 -59.75853399 233.29694115 -55.88818359 233.44580078 C-54.85693359 233.48769531 -53.82568359 233.52958984 -52.76318359 233.57275391 C-51.68294922 233.61207031 -50.60271484 233.65138672 -49.48974609 233.69189453 C-47.85779297 233.75666992 -47.85779297 233.75666992 -46.19287109 233.82275391 C-43.5002944 233.92903983 -40.80762356 234.0310751 -38.11474609 234.12939453 C-38.44474609 234.78939453 -38.77474609 235.44939453 -39.11474609 236.12939453 C-41.24438477 236.76782227 -41.24438477 236.76782227 -44.03271484 237.31298828 C-45.04011719 237.51859375 -46.04751953 237.72419922 -47.08544922 237.93603516 C-49.21043489 238.35277491 -51.33543462 238.76944293 -53.46044922 239.18603516 C-61.15745927 240.66891782 -61.15745927 240.66891782 -68.11474609 244.12939453 C-69.21633635 246.00730508 -69.21633635 246.00730508 -69.42724609 248.19189453 C-69.61867188 249.39072266 -69.61867188 249.39072266 -69.81396484 250.61376953 C-69.91322266 251.44392578 -70.01248047 252.27408203 -70.11474609 253.12939453 C-70.22431641 253.91830078 -70.33388672 254.70720703 -70.44677734 255.52001953 C-70.75360935 258.05649748 -70.95327135 260.57959561 -71.11474609 263.12939453 C-71.18048828 264.05623047 -71.24623047 264.98306641 -71.31396484 265.93798828 C-71.74920318 277.23917689 -69.25508519 287.61258237 -61.89599609 296.35986328 C-53.32288674 304.8765706 -38.70330658 305.49039214 -27.23974609 307.37939453 C-26.19471924 307.55462646 -25.14969238 307.7298584 -24.07299805 307.91040039 C-12.98397419 310.01504498 -12.98397419 310.01504498 -2.36474609 307.69189453 C7.79538414 296.1206351 8.67898546 285.73896133 8.08056641 270.84082031 C7.63365972 264.63663823 6.00521198 258.9726967 3.88525391 253.12939453 C3.51916016 252.07880859 3.15306641 251.02822266 2.77587891 249.94580078 C-0.78033362 240.80282227 -5.861409 232.58603897 -10.85595703 224.17358398 C-25.07496909 200.09537656 -33.81757465 175.13453401 -27.84912109 146.82470703 C-24.0539238 132.89552549 -16.80956141 119.04922323 -6.11474609 109.12939453 C-6.47826172 109.78423828 -6.84177734 110.43908203 -7.21630859 111.11376953 C-8.86660984 114.10970102 -10.48983868 117.11962285 -12.11474609 120.12939453 C-12.64068359 121.06654297 -13.16662109 122.00369141 -13.70849609 122.96923828 C-23.67032864 141.49519727 -26.43859663 164.9887029 -20.42724609 185.21142578 C-14.6395992 203.05814983 -5.07262259 219.60130826 6.60009766 234.21533203 C20.17494924 251.52616841 26.13708932 270.23408462 24.88525391 292.12939453 C23.82498536 298.73418664 20.64838436 303.21020684 16.40869141 308.28173828 C14.82666145 310.05995137 14.82666145 310.05995137 13.88525391 312.12939453 C22.71643319 315.07312096 33.73050788 314.24819687 43.01025391 314.37939453 C43.80302734 314.40074463 44.59580078 314.42209473 45.41259766 314.4440918 C51.12307684 314.47753264 55.14189961 313.4277158 59.64306641 309.65673828 C68.11967716 299.79965091 69.71333376 288.22441488 69.11181641 275.65771484 C66.90922924 251.07798129 54.87487912 228.09639259 42.44555664 207.29980469 C27.84298579 182.85380768 30.72253298 156.57315492 36.83056641 129.87158203 C37.74565026 126.24969552 38.77216378 122.69518852 39.88525391 119.12939453 C40.19003662 118.12368408 40.19003662 118.12368408 40.50097656 117.09765625 C45.18909785 101.8358783 53.37201513 84.24387622 65.70556641 73.55126953 C67.09341585 72.20278172 67.09341585 72.20278172 66.80322266 70.30517578 C62.38139747 59.82450927 54.24166407 49.16977667 43.88525391 44.12939453 C12.17797264 33.03184609 -32.96057155 58.19775289 -52.92724609 81.44189453 Z M74.88525391 50.12939453 C74.88525391 51.44939453 74.88525391 52.76939453 74.88525391 54.12939453 C76.20525391 53.46939453 77.52525391 52.80939453 78.88525391 52.12939453 C78.88525391 51.46939453 78.88525391 50.80939453 78.88525391 50.12939453 C77.56525391 50.12939453 76.24525391 50.12939453 74.88525391 50.12939453 Z M84.88525391 50.12939453 C86.53525391 51.44939453 88.18525391 52.76939453 89.88525391 54.12939453 C90.54525391 53.13939453 91.20525391 52.14939453 91.88525391 51.12939453 C90.75991286 49.77320954 90.75991286 49.77320954 87.82275391 50.06689453 C86.85337891 50.08751953 85.88400391 50.10814453 84.88525391 50.12939453 Z M66.88525391 51.12939453 C67.88525391 53.12939453 67.88525391 53.12939453 67.88525391 53.12939453 Z M98.88525391 51.12939453 C100.86525391 52.11939453 100.86525391 52.11939453 102.88525391 53.12939453 C103.21525391 52.46939453 103.54525391 51.80939453 103.88525391 51.12939453 C102.23525391 51.12939453 100.58525391 51.12939453 98.88525391 51.12939453 Z M81.88525391 53.12939453 C80.40025391 55.10939453 80.40025391 55.10939453 78.88525391 57.12939453 C81.36025391 58.11939453 81.36025391 58.11939453 83.88525391 59.12939453 C84.54525391 57.80939453 85.20525391 56.48939453 85.88525391 55.12939453 C84.56525391 54.46939453 83.24525391 53.80939453 81.88525391 53.12939453 Z M93.88525391 53.12939453 C92.89525391 54.61439453 92.89525391 54.61439453 91.88525391 56.12939453 C93.20525391 56.12939453 94.52525391 56.12939453 95.88525391 56.12939453 C96.54525391 55.46939453 97.20525391 54.80939453 97.88525391 54.12939453 C96.56525391 53.79939453 95.24525391 53.46939453 93.88525391 53.12939453 Z M70.88525391 54.12939453 C70.55525391 55.11939453 70.22525391 56.10939453 69.88525391 57.12939453 C70.21525391 57.78939453 70.54525391 58.44939453 70.88525391 59.12939453 C71.87525391 58.79939453 72.86525391 58.46939453 73.88525391 58.12939453 C73.22525391 56.80939453 72.56525391 55.48939453 71.88525391 54.12939453 C71.55525391 54.12939453 71.22525391 54.12939453 70.88525391 54.12939453 Z M98.36181641 67.02392578 C96.31446144 69.94330231 95.07374224 72.77366276 93.88525391 76.12939453 C94.36994141 76.55607422 94.85462891 76.98275391 95.35400391 77.42236328 C115.32073391 96.04517876 122.03599593 124.52488517 124.01025391 150.69189453 C124.09662109 151.73796875 124.18298828 152.78404297 124.27197266 153.86181641 C126.57822931 183.34895503 120.11365129 209.31494009 106.0456543 235.24707031 C102.35973092 242.06706476 99.60987615 248.54289134 97.88525391 256.12939453 C97.51690934 257.57117126 97.14700062 259.01254891 96.77587891 260.45361328 C93.59701552 273.2080136 91.43461151 286.63197147 96.88525391 299.12939453 C100.14143914 303.68926659 103.45127616 308.31806861 108.88525391 310.12939453 C110.98766807 310.22483122 113.09318034 310.25924937 115.19775391 310.25439453 C116.86257813 310.25826172 116.86257813 310.25826172 118.56103516 310.26220703 C121.75326516 310.13466788 124.75034218 309.72697226 127.88525391 309.12939453 C127.45212891 308.43716797 127.01900391 307.74494141 126.57275391 307.03173828 C120.89345723 297.05352953 120.10102979 287.53088884 123.13525391 276.44189453 C125.66501584 269.66213256 129.64906808 263.57000936 133.55615234 257.50952148 C140.96248565 245.81390043 143.81565801 231.82965986 140.88525391 218.12939453 C139.50094908 215.11431853 139.50094908 215.11431853 137.88525391 213.12939453 C138.87525391 212.79939453 139.86525391 212.46939453 140.88525391 212.12939453 C141.56087138 213.79245293 142.22458672 215.46034058 142.88525391 217.12939453 C143.42150391 218.22251953 143.95775391 219.31564453 144.51025391 220.44189453 C148.42854154 231.0915994 146.29288022 244.03568676 141.88525391 254.12939453 C139.97266818 257.82871189 137.86908853 261.38967892 135.68994141 264.93798828 C131.46607974 272.40745794 130.52640306 279.78504818 132.64306641 288.10986328 C134.81585701 294.44859491 136.99170476 299.20036177 142.69775391 303.00439453 C148.41422489 305.02197253 153.62232423 303.06247119 159.09619141 300.94189453 C160.25046631 300.49523437 161.40474121 300.04857422 162.59399414 299.58837891 C163.80385986 299.10691406 165.01372559 298.62544922 166.26025391 298.12939453 C167.19383224 297.75874878 167.19383224 297.75874878 168.14627075 297.38061523 C190.04045653 288.6537565 212.11882428 278.15833083 222.13525391 255.31689453 C229.31095641 236.87567375 230.66149879 216.64076139 228.88525391 197.12939453 C227.99966797 197.33435547 227.11408203 197.53931641 226.20166016 197.75048828 C224.96287109 198.01990234 223.72408203 198.28931641 222.44775391 198.56689453 C221.25279297 198.83373047 220.05783203 199.10056641 218.82666016 199.37548828 C206.00799672 201.64177132 192.62677525 201.29259456 179.65429688 201.25976562 C177.12314961 201.25436872 174.59217737 201.25977201 172.06103516 201.26611328 C151.23352992 201.27777823 151.23352992 201.27777823 144.88525391 200.12939453 C144.55525391 199.46939453 144.22525391 198.80939453 143.88525391 198.12939453 C144.73418213 198.11481201 145.58311035 198.10022949 146.45776367 198.08520508 C172.22552913 197.59324814 196.7691205 195.2990725 221.88525391 189.12939453 C223.12533203 188.83419922 224.36541016 188.53900391 225.64306641 188.23486328 C234.30512398 185.80904409 240.87773216 181.09111244 245.58056641 173.33251953 C254.31082112 154.47516936 249.45619462 130.47166107 242.69775391 111.75439453 C235.87970725 93.22298763 235.87970725 93.22298763 224.88525391 77.12939453 C223.89525391 77.12939453 222.90525391 77.12939453 221.88525391 77.12939453 C220.89525391 75.14939453 219.90525391 73.16939453 218.88525391 71.12939453 C216.39731791 72.11660045 213.91811533 73.11539409 211.45556641 74.16455078 C206.56415162 76.21957009 202.22808841 77.76092319 196.88525391 78.12939453 C196.10666016 78.20416016 195.32806641 78.27892578 194.52587891 78.35595703 C174.80255347 79.41455359 153.17775702 70.67092119 135.85498047 61.8449707 C122.05264383 54.96946364 108.64509073 54.51026091 98.36181641 67.02392578 Z M87.88525391 58.12939453 C87.22525391 59.44939453 86.56525391 60.76939453 85.88525391 62.12939453 C87.20525391 62.12939453 88.52525391 62.12939453 89.88525391 62.12939453 C90.54525391 61.13939453 91.20525391 60.14939453 91.88525391 59.12939453 C90.56525391 58.79939453 89.24525391 58.46939453 87.88525391 58.12939453 Z M75.88525391 59.12939453 C75.88525391 60.44939453 75.88525391 61.76939453 75.88525391 63.12939453 C76.87525391 63.45939453 77.86525391 63.78939453 78.88525391 64.12939453 C79.54525391 63.13939453 80.20525391 62.14939453 80.88525391 61.12939453 C78.41025391 60.13939453 78.41025391 60.13939453 75.88525391 59.12939453 Z M82.88525391 63.12939453 C81.89525391 64.61439453 81.89525391 64.61439453 80.88525391 66.12939453 C82.20525391 66.45939453 83.52525391 66.78939453 84.88525391 67.12939453 C84.88525391 66.13939453 84.88525391 65.14939453 84.88525391 64.12939453 C84.22525391 63.79939453 83.56525391 63.46939453 82.88525391 63.12939453 Z M87.88525391 67.12939453 C87.88525391 68.44939453 87.88525391 69.76939453 87.88525391 71.12939453 C88.54525391 69.80939453 89.20525391 68.48939453 89.88525391 67.12939453 C89.22525391 67.12939453 88.56525391 67.12939453 87.88525391 67.12939453 Z M220.88525391 71.12939453 C221.88525391 73.12939453 221.88525391 73.12939453 221.88525391 73.12939453 Z M73.88525391 75.12939453 C72.23591889 77.22196949 70.70546851 79.31280864 69.19775391 81.50439453 C68.28904744 82.81048689 67.38019284 84.11647619 66.47119141 85.42236328 C66.02743164 86.06351074 65.58367187 86.7046582 65.12646484 87.36523438 C64.11259469 88.80627012 63.05557001 90.21686087 61.98681641 91.61767578 C45.53321738 113.36269046 37.4233159 145.05423136 39.88525391 172.12939453 C42.0374718 187.10869308 48.97999979 198.95071101 57.34448242 211.27636719 C70.8399018 231.29152599 76.16817771 251.63439773 80.88525391 275.12939453 C82.50713246 271.98374333 83.59129422 268.97313699 84.57275391 265.56689453 C88.58341022 252.45569445 93.15571537 240.18083614 99.76025391 228.12939453 C116.02595569 198.11254476 123.85315386 162.27779162 114.35009766 128.84814453 C113.86937074 127.27290263 113.38154321 125.69980287 112.88525391 124.12939453 C112.67658691 123.45263672 112.46791992 122.77587891 112.25292969 122.07861328 C106.38620238 103.74567385 94.7595416 85.83144799 77.95166016 76.12548828 C75.96731191 74.98465281 75.96731191 74.98465281 73.88525391 75.12939453 Z " fill="#000000" transform="translate(173.11474609375,92.87060546875)"/>
<path d="M0 0 C10.79730381 3.88702937 17.86870598 21.76727144 22.58203125 31.5390625 C28.9202384 46.26937683 30.65498263 62.11338833 25.78125 77.546875 C24.98259168 80.18929568 24.98259168 80.18929568 25.21875 83.265625 C25.10487402 86.73884232 24.48360886 86.81227289 22.125 89.125 C21.11655504 91.04600951 21.11655504 91.04600951 20.328125 93.1875 C20.01262695 93.97946777 19.69712891 94.77143555 19.37207031 95.58740234 C19.04303711 96.42480957 18.71400391 97.2622168 18.375 98.125 C14.42760584 107.83954802 9.76289668 115.95750105 3.125 124.125 C-1.06914752 123.64215232 -2.61438181 121.50718848 -5.1875 118.3125 C-12.46776508 108.98948518 -17.30726537 99.55101795 -21.6875 88.625 C-22.07292969 87.67592773 -22.45835937 86.72685547 -22.85546875 85.74902344 C-30.62167166 65.70698737 -29.03356436 45.52008811 -20.75 26 C-9.3201876 0.40522555 -9.3201876 0.40522555 0 0 Z M-1.875 23.125 C-1.215 24.445 -0.555 25.765 0.125 27.125 C0.785 25.805 1.445 24.485 2.125 23.125 C0.805 23.125 -0.515 23.125 -1.875 23.125 Z M-6.875 29.125 C-7.535 30.445 -8.195 31.765 -8.875 33.125 C-7.555 33.125 -6.235 33.125 -4.875 33.125 C-4.545 32.135 -4.215 31.145 -3.875 30.125 C-4.865 29.795 -5.855 29.465 -6.875 29.125 Z M4.125 29.125 C3.35257731 30.96200789 3.35257731 30.96200789 3.125 33.125 C4.47944301 34.89690909 4.47944301 34.89690909 6.125 36.125 C6.785 34.805 7.445 33.485 8.125 32.125 C7.465 31.135 6.805 30.145 6.125 29.125 C5.465 29.125 4.805 29.125 4.125 29.125 Z M-0.875 35.125 C-2.36 37.105 -2.36 37.105 -3.875 39.125 C-2.555 40.775 -1.235 42.425 0.125 44.125 C1.115 42.805 2.105 41.485 3.125 40.125 C1.8160428 37.00302522 1.8160428 37.00302522 -0.875 35.125 Z M-11.875 37.125 C-11.545 38.115 -11.215 39.105 -10.875 40.125 C-10.875 39.135 -10.875 38.145 -10.875 37.125 C-11.205 37.125 -11.535 37.125 -11.875 37.125 Z M10.125 38.125 C9.26141377 39.90641747 9.26141377 39.90641747 9.125 42.125 C10.97932087 44.39644074 10.97932087 44.39644074 13.125 46.125 C12.465 43.485 11.805 40.845 11.125 38.125 C10.795 38.125 10.465 38.125 10.125 38.125 Z M-12.875 40.125 C-11.875 42.125 -11.875 42.125 -11.875 42.125 Z M-7.875 43.125 C-8.865 44.115 -9.855 45.105 -10.875 46.125 C-10.09369929 48.62052484 -10.09369929 48.62052484 -8.875 51.125 C-7.885 51.455 -6.895 51.785 -5.875 52.125 C-5.215 50.475 -4.555 48.825 -3.875 47.125 C-5.195 45.805 -6.515 44.485 -7.875 43.125 Z M6.125 44.125 C4.38852052 45.79988528 4.38852052 45.79988528 3.125 48.125 C4.03478285 51.94608796 4.79791667 52.90694445 8.125 55.125 C9.115 53.805 10.105 52.485 11.125 51.125 C9.83200306 48.24062221 8.46558637 46.25280579 6.125 44.125 Z M-14.875 50.125 C-16.13737731 52.64975462 -15.97356404 54.43700466 -15.9375 57.25 C-15.92847656 58.16007812 -15.91945312 59.07015625 -15.91015625 60.0078125 C-15.89855469 60.70648438 -15.88695312 61.40515625 -15.875 62.125 C-12.50751488 60.60552501 -11.26659663 59.60399158 -9.875 56.125 C-11.17906884 54.10579663 -12.51323419 52.10575027 -13.875 50.125 C-14.205 50.125 -14.535 50.125 -14.875 50.125 Z M-0.875 53.125 C-1.865 54.115 -2.855 55.105 -3.875 56.125 C-2.6891763 59.50003669 -1.59926311 61.77222731 1.125 64.125 C2.86147948 62.45011472 2.86147948 62.45011472 4.125 60.125 C3.21521715 56.30391204 2.45208333 55.34305555 -0.875 53.125 Z M14.125 55.125 C12.45653266 56.81995956 12.45653266 56.81995956 11.125 59.125 C11.11864754 61.76037508 11.11864754 61.76037508 12.125 64.125 C13.61 65.115 13.61 65.115 15.125 66.125 C16.35767348 65.11663938 16.35767348 65.11663938 16.22265625 63.05859375 C16.21105469 62.23488281 16.19945312 61.41117188 16.1875 60.5625 C16.17847656 59.73621094 16.16945313 58.90992188 16.16015625 58.05859375 C16.14855469 57.42050781 16.13695312 56.78242188 16.125 56.125 C15.465 55.795 14.805 55.465 14.125 55.125 Z M-7.875 61.125 C-9.525 63.105 -11.175 65.085 -12.875 67.125 C-10.4 70.095 -10.4 70.095 -7.875 73.125 C-6.225 71.475 -4.575 69.825 -2.875 68.125 C-4.12476756 64.47183329 -4.54598753 63.34434164 -7.875 61.125 Z M6.125 64.125 C4.64 66.105 4.64 66.105 3.125 68.125 C5.105 71.095 5.105 71.095 7.125 74.125 C9.27067913 72.39644074 9.27067913 72.39644074 11.125 70.125 C11.29166667 67.95833333 11.29166667 67.95833333 10.125 66.125 C8.1412233 64.84063266 8.1412233 64.84063266 6.125 64.125 Z M-15.875 69.125 C-14.875 71.125 -14.875 71.125 -14.875 71.125 Z M-14.875 71.125 C-14.545 74.425 -14.215 77.725 -13.875 81.125 C-12.885 80.135 -11.895 79.145 -10.875 78.125 C-11.10061907 74.51509495 -12.17709025 73.82290975 -14.875 71.125 Z M-0.875 71.125 C-2.5893618 73.08427063 -4.25905168 75.08380212 -5.875 77.125 C-4.225 79.765 -2.575 82.405 -0.875 85.125 C2.20589673 82.35219294 3.81275452 80.06173644 5.125 76.125 C3.84437515 74.4175002 2.50732443 72.75126404 1.125 71.125 C0.465 71.125 -0.195 71.125 -0.875 71.125 Z M14.125 72.125 C12.76672029 73.77139965 11.43245749 75.43795807 10.125 77.125 C11.24354586 80.85114153 11.24354586 80.85114153 14.125 83.125 C14.455 79.495 14.785 75.865 15.125 72.125 C14.795 72.125 14.465 72.125 14.125 72.125 Z M-8.875 80.125 C-10.195 81.775 -11.515 83.425 -12.875 85.125 C-11.225 88.095 -9.575 91.065 -7.875 94.125 C-6.225 92.475 -4.575 90.825 -2.875 89.125 C-4.18724548 85.18826356 -5.79410327 82.89780706 -8.875 80.125 Z M7.125 80.125 C6.0713606 81.43256357 5.05646366 82.77151756 4.0625 84.125 C3.51464844 84.8675 2.96679688 85.61 2.40234375 86.375 C1.77005859 87.24125 1.77005859 87.24125 1.125 88.125 C2.775 90.765 4.425 93.405 6.125 96.125 C9.57698855 93.13327659 11.39451208 90.6905495 12.125 86.125 C10.4518025 82.73877224 10.4518025 82.73877224 8.125 80.125 C7.795 80.125 7.465 80.125 7.125 80.125 Z M-1.875 91.125 C-3.67953646 92.7799514 -3.67953646 92.7799514 -4.875 95.125 C-3.96658433 99.16240297 -1.90202828 101.40067455 1.125 104.125 C2.115 102.475 3.105 100.825 4.125 99.125 C3.31685349 97.78902348 2.50336819 96.456275 1.6875 95.125 C1.00880859 94.01125 1.00880859 94.01125 0.31640625 92.875 C-0.07675781 92.2975 -0.46992188 91.72 -0.875 91.125 C-1.205 91.125 -1.535 91.125 -1.875 91.125 Z M4.125 104.125 C3.465 105.445 2.805 106.765 2.125 108.125 C2.785 108.125 3.445 108.125 4.125 108.125 C4.455 106.805 4.785 105.485 5.125 104.125 C4.795 104.125 4.465 104.125 4.125 104.125 Z M-0.875 109.125 C-0.215 110.445 0.445 111.765 1.125 113.125 C1.125 112.135 1.125 111.145 1.125 110.125 C0.465 109.795 -0.195 109.465 -0.875 109.125 Z " fill="#000000" transform="translate(253.875,188.875)"/>
<path d="M0 0 C6.12080919 1.75777085 10.72398866 5.56843722 14 11 C15.95340933 15.69649477 16.32421175 18.90128241 14.875 23.8125 C11.94723613 28.78969858 9.45441219 31.14502624 4 33 C-3.11335573 33.91442241 -9.14523783 33.28583897 -15 29 C-18.49051005 26.24944818 -20.60547396 23.78603005 -21.578125 19.3828125 C-21.95640277 13.17561826 -20.67981697 9.39614548 -16.703125 4.65625 C-11.36554473 -0.53442439 -7.31790677 -0.89317031 0 0 Z M-13 11 C-14.56935594 14.13871188 -14.35201103 16.53855822 -14 20 C-11.8272578 22.63016161 -10.05326212 24.47336894 -7 26 C-5.21140489 26.12207871 -3.41771619 26.17548448 -1.625 26.1875 C-0.66851562 26.20167969 0.28796875 26.21585937 1.2734375 26.23046875 C4.03010017 25.99745572 5.64947395 25.40920164 8 24 C8.24483315 19.83783641 8.40913302 16.15068663 7 12.1875 C3.53893198 8.40195685 -0.70222912 6.48092879 -5.6875 5.4375 C-9.15346266 6.280572 -10.7248269 8.34563138 -13 11 Z " fill="#000000" transform="translate(137,355)"/>
<path d="M0 0 C4.30227698 3.36699938 7.4751089 7.4120458 8.28515625 12.94921875 C8.49164907 17.66264193 7.71009949 21.02518741 5 25 C0.76024106 28.64816467 -3.41047548 30.2540693 -9 30 C-15.06302405 28.85431151 -18.96353903 26.7932974 -23 22 C-23.33 21.67 -23.66 21.34 -24 21 C-24.59637275 16.21391996 -25.04102969 11.248942 -22.9765625 6.7890625 C-17.13882405 -0.59680549 -8.81668104 -3.92805439 0 0 Z M-14.4375 6.9375 C-17.176981 10.19022418 -17.176981 10.19022418 -17.6875 14.0625 C-17.31741169 17.9927357 -17.31741169 17.9927357 -15.0625 20.5 C-11.06751501 22.45672734 -7.38112889 22.9106841 -3 22 C-1.19350608 20.76134811 -1.19350608 20.76134811 0 19 C0.55263851 14.81573698 0.21613952 12.46686137 -1.5625 8.625 C-3.84256884 5.76119115 -3.84256884 5.76119115 -7.375 4.8125 C-11.12975123 4.73692088 -11.12975123 4.73692088 -14.4375 6.9375 Z " fill="#000000" transform="translate(355,345)"/>
<path d="M0 0 C4.56138 1.90941488 6.8338521 4.5874765 9 9 C9.78966489 12.54471796 9.90072149 15.46939416 9 19 C6.33911499 23.04886016 3.19105899 25.48247993 -1.546875 26.6015625 C-5.96313737 26.85583215 -9.06451679 26.42674195 -12.5625 23.625 C-16.06805956 19.84978201 -16.45429911 17.47466204 -16.421875 12.45703125 C-15.67641341 8.11540772 -13.03361196 5.07789827 -10 2 C-6.27420911 -0.48386059 -4.41288598 -0.3804212 0 0 Z M-5.625 7 C-7.78235055 10.13796443 -7.69134656 13.23442808 -8 17 C-5.78223378 18.30514736 -5.78223378 18.30514736 -3 19 C-0.07163629 18.24300635 -0.07163629 18.24300635 2 16 C2.51264131 12.4115108 2.76351378 10.12709177 0.6875 7.0625 C-1.66093631 5.58385492 -3.25032985 5.53866452 -5.625 7 Z " fill="#000000" transform="translate(323,248)"/>
<path d="M0 0 C4.674414 2.71768256 6.4624398 5.87479933 8 11 C8.18488713 14.95658463 7.61074899 18.08387651 5.375 21.4375 C2.14871191 23.56005795 -0.14558158 23.93354451 -4 24 C-9.15689191 22.28103603 -11.54448015 19.81659662 -14 15 C-15.00134127 9.88203351 -13.0489958 6.83400238 -10.38671875 2.63671875 C-7.64389821 -0.60058211 -3.94912775 -0.39491277 0 0 Z M-4 5 C-6.35448165 7.55068845 -6.98327924 8.71017358 -7.1875 12.25 C-7.0946875 13.61125 -7.0946875 13.61125 -7 15 C-4.67145537 16.19838209 -4.67145537 16.19838209 -2 17 C-1.01 16.34 -0.02 15.68 1 15 C0.76586026 9.96521559 0.76586026 9.96521559 -2.0625 6.0625 C-2.701875 5.711875 -3.34125 5.36125 -4 5 Z " fill="#000000" transform="translate(187,267)"/>
<path d="M0 0 C2.84613268 2.84613268 2.79864424 5.04000344 3 9 C1.41161066 12.57387602 0.28365642 13.81089572 -3 16 C-6.90831419 16.33262248 -9.71326332 16.23028561 -13 14 C-15.68039246 9.97941131 -15.68328032 6.72317518 -15 2 C-12.96689436 -1.12785483 -11.59738585 -1.80934494 -8.0625 -2.9375 C-4.38950179 -3.01245915 -2.90498934 -2.178742 0 0 Z M-8 3 C-8.33 4.65 -8.66 6.3 -9 8 C-6.60931266 9.10636395 -6.60931266 9.10636395 -4 10 C-3.34 9.67 -2.68 9.34 -2 9 C-1.957279 7.33388095 -1.95936168 5.66617115 -2 4 C-3.06645115 2.70366379 -3.06645115 2.70366379 -5.5625 2.9375 C-6.366875 2.958125 -7.17125 2.97875 -8 3 Z " fill="#000000" transform="translate(334,220)"/>
<path d="M0 0 C1.8125 1 1.8125 1 3 3 C3.72238405 5.98585409 4.20927223 8.0178707 4 11 C2.23535939 13.85993478 1.00434303 15.49782849 -2 17 C-5.87424565 17.35872645 -8.14933906 17.56710729 -11.4375 15.375 C-13.51114192 12.22306429 -13.66859841 10.71443562 -13 7 C-9.52521734 1.47368514 -6.5401447 -0.53388936 0 0 Z M-6 6 C-6 7.65 -6 9.3 -6 11 C-4.68 10.67 -3.36 10.34 -2 10 C-2.33 8.35 -2.66 6.7 -3 5 C-4.2236068 4.9254644 -4.2236068 4.9254644 -6 6 Z " fill="#000000" transform="translate(179,240)"/>
<path d="M0 0 C2 1.625 2 1.625 3 4 C2.93108944 7.85899147 2.52415508 10.21376738 0.375 13.4375 C-2.9617771 15.63274809 -5.08548544 15.55921637 -9 15 C-11.79112864 13.01682965 -12.77985677 11.69429788 -13.8125 8.4375 C-14 6 -14 6 -13 3 C-12.34 3 -11.68 3 -11 3 C-11 2.34 -11 1.68 -11 1 C-7.22804193 -1.56493149 -4.30808167 -1.09660261 0 0 Z M-5 3 C-5.99 3.66 -6.98 4.32 -8 5 C-7.67 6.32 -7.34 7.64 -7 9 C-5.35 8.67 -3.7 8.34 -2 8 C-2 6.68 -2 5.36 -2 4 C-2.99 3.67 -3.98 3.34 -5 3 Z " fill="#000000" transform="translate(349,197)"/>
<path d="M0 0 C2.06719957 2.51659078 2.01244355 3.79675537 1.8125 7.0625 C0.60204082 11.43877551 0.60204082 11.43877551 -2 13 C-5.93094707 13.50030235 -8.1005787 13.5996142 -11.4375 11.375 C-13.47161336 8.28314769 -13.60605429 6.63632575 -13 3 C-9.01393589 -2.085668 -5.82088345 -2.60082026 0 0 Z M-6 3 C-6.66 3.66 -7.32 4.32 -8 5 C-8 5.99 -8 6.98 -8 8 C-6.35 7.67 -4.7 7.34 -3 7 C-3.33 5.68 -3.66 4.36 -4 3 C-4.66 3 -5.32 3 -6 3 Z " fill="#000000" transform="translate(182,212)"/>
<path d="M0 0 C0.75 3.25 0.75 3.25 1 7 C-0.625 9.5 -0.625 9.5 -3 11 C-6.39154295 10.83849795 -7.58296757 10.41703243 -10 8 C-9.85362273 4.56013404 -9.58459664 2.64723199 -7.25 0.0625 C-4.41184751 -1.27773867 -2.94905709 -0.90110078 0 0 Z " fill="#000000" transform="translate(190,188)"/>
<path d="M0 0 C2 2 2 2 2.25 4.9375 C2 8 2 8 0 11 C-3 11.3125 -3 11.3125 -6 11 C-8 9 -8 9 -8.3125 5.5 C-8.209375 4.345 -8.10625 3.19 -8 2 C-4.77626323 -0.14915785 -3.73296326 -0.38286803 0 0 Z " fill="#000000" transform="translate(368,183)"/>
<path d="M0 0 C0 0.99 0 1.98 0 3 C-5.36489595 3.90483637 -10.50317457 4.12303662 -15.9375 4.0625 C-16.71673828 4.05798828 -17.49597656 4.05347656 -18.29882812 4.04882812 C-20.19925268 4.03716908 -22.09963706 4.01923877 -24 4 C-24.33 3.01 -24.66 2.02 -25 1 C-22.14596025 0.83087172 -19.29179998 0.66462837 -16.4375 0.5 C-15.23770508 0.42845703 -15.23770508 0.42845703 -14.01367188 0.35546875 C-9.33281023 0.08799094 -4.68841621 -0.05034541 0 0 Z " fill="#000000" transform="translate(256,131)"/>
<path d="M0 0 C0.66 1.32 1.32 2.64 2 4 C1.34 3.67 0.68 3.34 0 3 C0 2.01 0 1.02 0 0 Z " fill="#000000" transform="translate(258,219)"/>
<path d="M0 0 C0.66 0 1.32 0 2 0 C1.67 0.66 1.34 1.32 1 2 C0.67 1.34 0.34 0.68 0 0 Z " fill="#000000" transform="translate(263,196)"/>
<path d="" fill="#000000" transform="translate(0,0)"/>
<path d="" fill="#000000" transform="translate(0,0)"/>
<path d="M0 0 C2 1 2 1 2 1 Z " fill="#000000" transform="translate(257,132)"/>
<path d="" fill="#000000" transform="translate(0,0)"/>
<path d="" fill="#000000" transform="translate(0,0)"/>
<path d="" fill="#000000" transform="translate(0,0)"/>
<path d="" fill="#000000" transform="translate(0,0)"/>
<path d="" fill="#000000" transform="translate(0,0)"/>
<path d="" fill="#000000" transform="translate(0,0)"/>
<path d="" fill="#000000" transform="translate(0,0)"/>
<path d="" fill="#000000" transform="translate(0,0)"/>
<path d="" fill="#000000" transform="translate(0,0)"/>
<path d="" fill="#000000" transform="translate(0,0)"/>
<path d="" fill="#000000" transform="translate(0,0)"/>
</svg>
