<?xml version="1.0" encoding="UTF-8"?>
<svg version="1.1" xmlns="http://www.w3.org/2000/svg" width="512" height="512">
<path d="M0 0 C1.02916534 -0.00885223 2.05833069 -0.01770447 3.11868286 -0.02682495 C6.09153275 -0.04415115 9.06240097 -0.0300535 12.03515625 -0.00390625 C12.92912109 -0.00862946 13.82308594 -0.01335266 14.74414062 -0.01821899 C20.62919789 0.09058404 24.08677068 1.19140563 28.9375 4.5625 C36.99529723 13.00751403 36.2624701 25.67765153 36.19824219 36.53710938 C36.1876221 38.66305769 36.19813668 40.78814146 36.2109375 42.9140625 C36.23535214 65.13234721 31.5044478 82.88070852 20.37158203 102.07910156 C13.83619861 113.39641858 7.44798326 124.78186459 2.3125 136.8125 C1.99394043 137.54976318 1.67538086 138.28702637 1.34716797 139.04663086 C-3.52752163 150.90837555 -5.37541967 163.92777292 -0.37890625 176.02734375 C5.25118501 186.86986371 15.25923435 191.90260493 26.39453125 195.80078125 C41.25259376 200.25135297 57.05323314 198.11243793 70.9375 191.5625 C82.09151887 184.84624398 87.29905569 175.0449923 90.75 162.75 C93.40048118 150.10341837 93.85198169 134.66942055 88.9375 122.5625 C88.64746094 121.78132813 88.35742188 121.00015625 88.05859375 120.1953125 C84.35222691 110.98367273 78.9325854 105.33234522 71.04272461 99.48461914 C61.78422103 92.5594847 54.04655431 84.41042908 47.9375 74.5625 C47.52757812 73.96695313 47.11765625 73.37140625 46.6953125 72.7578125 C41.18453109 63.70725909 40.75966129 48.72044846 42.9375 38.5625 C44.82050718 31.78172283 46.99817086 27.44124556 52.9375 23.5625 C64.19375914 18.14543289 81.06253789 20.3181193 93.33911133 20.26733398 C95.28872889 20.25572425 97.23831254 20.23513383 99.18774414 20.20581055 C119.94961909 19.89546603 119.94961909 19.89546603 128.9375 24.5625 C129.61458008 24.88299316 130.29166016 25.20348633 130.98925781 25.53369141 C134.94176405 27.55906941 137.63975298 29.76237993 139.9375 33.5625 C141.25814105 39.99193671 141.08890643 46.45969357 141.0625 53 C141.06056641 54.14839355 141.05863281 55.29678711 141.05664062 56.47998047 C141.01251651 65.20797495 140.67320624 73.8654012 139.9375 82.5625 C141.19304687 82.73265625 142.44859375 82.9028125 143.7421875 83.078125 C167.1008067 86.39074252 167.1008067 86.39074252 173.78125 94.5859375 C176.54192733 99.30520348 177.18738808 103.78968882 177.16796875 109.1875 C177.16800903 109.82978043 177.16804932 110.47206085 177.16809082 111.13380432 C177.16466164 113.27690046 177.1455585 115.41950386 177.125 117.5625 C177.11602252 119.10668791 177.10732239 120.65087745 177.09887695 122.19506836 C177.07060083 126.42214913 177.02374945 130.64883508 176.97070312 134.87567139 C176.9371066 137.59433442 176.90785764 140.3130222 176.87890625 143.03173828 C176.57414141 169.89167929 175.33337301 196.57625603 173.12036133 223.34545898 C172.94553067 225.46513478 172.77382383 227.58503467 172.60351562 229.70507812 C172.07069596 236.32629571 171.51974593 242.94544628 170.9375 249.5625 C171.8641748 249.96625854 171.8641748 249.96625854 172.80957031 250.37817383 C173.62006836 250.73419678 174.43056641 251.09021973 175.265625 251.45703125 C176.0690332 251.80870361 176.87244141 252.16037598 177.70019531 252.52270508 C184.12640378 255.5093072 187.22033174 260.19656293 189.9375 266.5625 C190.5625 269.8125 190.5625 269.8125 189.9375 272.5625 C186.8269698 276.49640584 183.49119309 278.55040305 178.9375 280.5625 C179.865625 281.119375 180.79375 281.67625 181.75 282.25 C185.0091838 284.61450589 186.49801664 285.83677836 187.9375 289.5625 C188.02630297 295.06828436 187.088825 298.75334282 183.2421875 302.765625 C180.1685829 305.16199469 176.94890232 307.00852268 173.5 308.8125 C172.88697021 309.14185547 172.27394043 309.47121094 171.64233398 309.81054688 C160.60057648 315.21604748 147.85274662 316.02117838 135.75048828 316.64331055 C133.70124793 316.74928901 131.65358365 316.87233702 129.60546875 316.99804688 C109.12934906 318.19640571 88.64056024 317.369795 68.15515423 316.8339653 C31.69700784 315.88106144 -4.7551372 315.2431903 -41.22444534 314.92777348 C-89.04611999 314.51186647 -89.04611999 314.51186647 -104.625 312.1875 C-105.53701172 312.05593506 -106.44902344 311.92437012 -107.38867188 311.78881836 C-128.66019508 308.60680772 -128.66019508 308.60680772 -134.5625 301.84375 C-137.09330546 298.37764687 -138.48994789 295.40068983 -138.4375 291.0625 C-137.43367999 285.11202055 -132.66627551 281.97580427 -128.0625 278.5625 C-128.52140625 278.21058594 -128.9803125 277.85867188 -129.453125 277.49609375 C-134.49632374 273.43822585 -138.42302207 269.70921771 -139.44140625 263.10546875 C-139.70527383 257.42805996 -138.92446057 253.96084398 -135.0625 249.5625 C-134.35512695 249.16095703 -133.64775391 248.75941406 -132.91894531 248.34570312 C-130.71965085 246.62532564 -130.71965085 246.62532564 -130.79199219 243.41601562 C-130.89672852 242.11341797 -131.00146484 240.81082031 -131.109375 239.46875 C-131.15956284 238.74607437 -131.20975067 238.02339874 -131.26145935 237.27882385 C-131.37144698 235.70230678 -131.49002278 234.12637124 -131.61605835 232.55105591 C-131.9535545 228.27559782 -132.21484322 223.99574433 -132.47265625 219.71484375 C-132.5274263 218.81487167 -132.58219635 217.9148996 -132.6386261 216.98765564 C-133.23686155 206.5358734 -133.27336167 196.09102773 -133.25 185.625 C-133.25036255 184.72765137 -133.2507251 183.83030273 -133.25109863 182.90576172 C-133.25072339 174.72990797 -133.20046551 166.59355731 -132.578125 158.4375 C-131.81623939 148.32699836 -131.8094673 138.19677372 -131.67462158 128.06222534 C-131.21355592 94.96332542 -131.21355592 94.96332542 -130.1875 79 C-130.12119385 77.88810303 -130.0548877 76.77620605 -129.98657227 75.63061523 C-129.11875943 63.73963447 -127.52715828 52.02715828 -118.8125 43.3125 C-110.65092671 38.11877154 -103.37747731 36.38815263 -93.75 36.5 C-92.63915039 36.50676758 -92.63915039 36.50676758 -91.50585938 36.51367188 C-89.69137101 36.52537825 -87.87692466 36.54331102 -86.0625 36.5625 C-85.67191406 35.67884766 -85.67191406 35.67884766 -85.2734375 34.77734375 C-83.98827526 32.42674056 -82.62763183 30.95922944 -80.6875 29.125 C-78.64666799 27.18755816 -76.85253062 25.29637115 -75.10546875 23.08203125 C-63.55358022 8.83543832 -43.97249903 2.60084946 -26.31152344 0.7467041 C-17.56436431 0.03027645 -8.77074622 0.03599695 0 0 Z M7.81442261 12.62734985 C3.31730734 12.78407352 -1.17678412 13.02209891 -5.6706543 13.25219727 C-7.29412234 13.33342719 -8.91783074 13.41000021 -10.54174805 13.48168945 C-24.69062147 14.10736394 -38.92427791 15.31014991 -52.25 20.5 C-52.98976074 20.78649414 -53.72952148 21.07298828 -54.49169922 21.36816406 C-62.36263389 24.69458109 -68.63740826 30.00638207 -74.0625 36.5625 C-74.0625 37.5525 -74.0625 38.5425 -74.0625 39.5625 C-72.86753906 40.01689453 -72.86753906 40.01689453 -71.6484375 40.48046875 C-64.19234015 43.42843911 -58.16551981 45.87929002 -53.6875 52.8125 C-51.94535176 56.85907972 -51.79783863 60.67565529 -51.8359375 65.015625 C-51.83956299 65.753573 -51.84318848 66.491521 -51.84692383 67.25183105 C-51.97061779 75.95239196 -52.88215459 84.5756065 -53.77313232 93.22463989 C-55.12736675 106.5057634 -56.45432846 119.76320349 -56.4375 133.125 C-56.43878906 134.05441406 -56.44007813 134.98382813 -56.44140625 135.94140625 C-56.26769438 146.55362214 -55.04313241 157.38496729 -47.35693359 165.32421875 C-42.50104515 169.61610882 -37.5110305 172.76381517 -31.8125 175.8125 C-16.07533575 184.64427095 -3.77653558 196.3906437 1.4375 214.0625 C5.87934187 231.66535484 5.29163813 249.21328412 -3.0625 265.5625 C-3.0625 266.2225 -3.0625 266.8825 -3.0625 267.5625 C16.4075 267.5625 35.8775 267.5625 55.9375 267.5625 C57.9175 260.1375 57.9175 260.1375 59.9375 252.5625 C60.2675 251.5725 60.5975 250.5825 60.9375 249.5625 C62.60360929 249.24704181 64.2704245 248.93531161 65.9375 248.625 C66.865625 248.45097656 67.79375 248.27695312 68.75 248.09765625 C77.40518609 246.64451839 85.79053647 246.36564559 94.5625 246.375 C95.60695786 246.37391235 95.60695786 246.37391235 96.67251587 246.37280273 C108.28278868 246.37412293 119.77125524 246.96394789 131.35058594 247.84643555 C141.89852458 248.63151366 152.36648022 248.77252026 162.9375 248.5625 C166.48080003 219.83915294 166.31951378 191.19721403 165.9810791 162.29870605 C165.93691087 158.51199162 165.89746973 154.72524669 165.85839844 150.93847656 C165.79186884 144.75892169 165.71050712 138.57973401 165.61608887 132.40054321 C165.5805676 130.06364405 165.54741801 127.72670754 165.51672363 125.38973999 C165.47179124 122.15148574 165.41379463 118.91374348 165.3515625 115.67578125 C165.33420547 114.24227829 165.33420547 114.24227829 165.3164978 112.77981567 C165.2071332 106.42844493 165.2071332 106.42844493 162.9375 100.5625 C158.18703741 97.36872746 153.10644196 96.68494237 147.5625 95.875 C146.02382112 95.64155794 144.4852539 95.40737916 142.94677734 95.17260742 C142.1900473 95.05745285 141.43331726 94.94229828 140.65365601 94.82365417 C139.80415878 94.69438286 139.80415878 94.69438286 138.9375 94.5625 C137.77812561 110.28983687 136.80673071 126.00621812 136.2265625 141.765625 C136.19960989 142.49308867 136.17265728 143.22055233 136.14488792 143.97006035 C136.03444961 146.95836051 135.92478903 149.94668806 135.81603527 152.93505001 C134.97476897 175.99248524 134.09344135 199.02578587 131.875 222 C131.79300354 222.87539429 131.71100708 223.75078857 131.62652588 224.65270996 C130.64893171 234.88396274 130.64893171 234.88396274 129.9375 238.5625 C129.2775 238.8925 128.6175 239.2225 127.9375 239.5625 C127.43410877 204.09536099 128.28990826 168.69828477 129.375 133.25 C129.40883915 132.13934299 129.4426783 131.02868599 129.47754288 129.88437271 C130.93332844 82.17581714 130.93332844 82.17581714 131.71641541 66.96440125 C132.42701608 53.09130669 132.42701608 53.09130669 129.9375 39.5625 C126.25036446 35.74925722 122.86340369 34.53025095 117.67578125 34.15771484 C116.38667847 34.06289322 116.38667847 34.06289322 115.0715332 33.96615601 C114.14042725 33.9025589 113.20932129 33.83896179 112.25 33.7734375 C111.27828857 33.70589264 110.30657715 33.63834778 109.30541992 33.5687561 C107.23762017 33.4270544 105.16966087 33.28766514 103.1015625 33.15039062 C100.00432663 32.94199636 96.90854824 32.71744486 93.8125 32.4921875 C81.4087945 31.63683681 69.33224962 31.56310023 56.9375 32.5625 C51.44115127 45.24645267 50.5419979 55.17699324 54.671875 68.484375 C57.26021882 74.77948281 61.35122891 79.30364142 66.125 84 C66.70161377 84.57347168 67.27822754 85.14694336 67.87231445 85.73779297 C70.98002402 88.78619675 74.11543577 91.59919638 77.625 94.1875 C93.13900703 105.80879831 102.01296289 122.6703207 104.9375 141.5625 C105.85227182 152.89098663 106.69103695 165.42673543 100.9375 175.5625 C100.61491211 176.15546875 100.29232422 176.7484375 99.95996094 177.359375 C89.46189755 196.42288242 75.46734051 208.43279294 54.9375 215.5625 C50.02666675 216.95500137 45.0018925 216.7095191 39.9375 216.6875 C39.04804688 216.69136719 38.15859375 216.69523438 37.2421875 216.69921875 C33.01689209 216.69291234 29.05457324 216.64323173 24.9375 215.5625 C26.9175 215.5625 28.8975 215.5625 30.9375 215.5625 C28.07233769 213.30087882 25.17396772 211.5558441 21.9375 209.875 C5.66043353 201.06368135 -7.99478988 190.48594607 -14.5 172.5625 C-18.68033092 157.30700663 -17.11341105 139.75821031 -9.6171875 125.82421875 C-3.98601475 115.95948962 2.55167213 106.69809838 9.1262207 97.44824219 C13.20084245 91.69623926 16.94664779 85.96432413 19.9375 79.5625 C20.39511719 78.593125 20.85273438 77.62375 21.32421875 76.625 C28.73838101 59.96968994 29.38524088 38.96297253 23.984375 21.4765625 C22.12543528 16.60192438 22.12543528 16.60192438 18.9375 12.5625 C17.01258598 12.3059614 17.01258598 12.3059614 14.83813477 12.41674805 C13.62723679 12.44410538 13.62723679 12.44410538 12.39187622 12.47201538 C10.86621651 12.52826134 9.34040705 12.58073833 7.81442261 12.62734985 Z M-113.19140625 57.9140625 C-116.09355022 62.76352624 -116.81994333 68.31688023 -117.75 73.8125 C-117.96495117 75.07940674 -118.17990234 76.34631348 -118.40136719 77.65161133 C-121.23137302 95.89037627 -120.82133096 114.47406122 -120.94190979 132.88294983 C-120.99469681 138.99612237 -121.19575069 145.07768217 -121.5625 151.1796875 C-122.1935357 161.78485891 -122.3011386 172.37785312 -122.3125 183 C-122.31483643 184.00733185 -122.31717285 185.0146637 -122.31958008 186.05252075 C-122.33631157 205.34222088 -121.12581803 224.39083666 -119.0625 243.5625 C-117.37447266 243.25505859 -117.37447266 243.25505859 -115.65234375 242.94140625 C-89.8089352 238.35514313 -44.389465 231.88305978 -21.0625 246.5625 C-16.92217723 250.83220785 -16.94728826 255.00442066 -17 260.75 C-17.00902344 262.02230469 -17.01804687 263.29460937 -17.02734375 264.60546875 C-17.03894531 265.58128906 -17.05054688 266.55710937 -17.0625 267.5625 C-13.4325 267.5625 -9.8025 267.5625 -6.0625 267.5625 C-5.41368552 265.02156145 -4.76837101 262.47981727 -4.125 259.9375 C-3.94259766 259.22464844 -3.76019531 258.51179687 -3.57226562 257.77734375 C0.55494631 241.41857646 1.78647309 220.35311432 -6.75 205.1875 C-15.22905013 192.62517266 -25.67744772 185.65727752 -38.9296875 178.84790039 C-44.06629343 176.18219096 -48.5277615 173.17178166 -53.0625 169.5625 C-53.7225 169.5625 -54.3825 169.5625 -55.0625 169.5625 C-55.34222656 168.98242188 -55.62195313 168.40234375 -55.91015625 167.8046875 C-57.00597125 165.58966389 -57.00597125 165.58966389 -58.24609375 163.6953125 C-69.79960326 145.19530038 -65.66550524 119.18569974 -63.78125 98.54394531 C-63.17230976 91.68454244 -62.87010153 84.88663934 -62.875 78 C-62.87435547 77.16154541 -62.87371094 76.32309082 -62.87304688 75.45922852 C-62.57722211 66.23182688 -62.57722211 66.23182688 -66.0625 58.25 C-77.39247885 51.8768869 -103.26652822 46.95116971 -113.19140625 57.9140625 Z M-127.44140625 256.5390625 C-129.30551331 258.4476734 -129.30551331 258.4476734 -129.125 261 C-126.41613727 267.53313953 -120.6734077 270.16358353 -114.78125 273.5234375 C-109.11879319 275.10559455 -103.84993946 274.19175069 -98.0625 273.5625 C-96.13085554 273.41079181 -94.19854978 273.26722777 -92.265625 273.1328125 C-79.1168039 272.15356294 -65.98848554 271.02240705 -52.86050415 269.80093384 C-42.60239793 268.84940713 -32.35589287 268.01823801 -22.0625 267.5625 C-20.97524524 261.41388689 -21.01110163 257.0704393 -24.0625 251.5625 C-29.16293681 248.01437004 -34.57912769 247.44445627 -40.66870117 247.40136719 C-41.77142868 247.39175964 -42.87415619 247.3821521 -44.01029968 247.37225342 C-45.19670547 247.36800354 -46.38311127 247.36375366 -47.60546875 247.359375 C-48.84307449 247.35367493 -50.08068024 247.34797485 -51.35578918 247.34210205 C-53.98091785 247.33265629 -56.60605834 247.32611975 -59.23120117 247.32226562 C-63.19010868 247.31578053 -67.14863636 247.28165248 -71.10742188 247.25 C-100.62776058 246.3690481 -100.62776058 246.3690481 -127.44140625 256.5390625 Z M72.30859375 253.91015625 C71.33075928 253.97082275 70.3529248 254.03148926 69.34545898 254.09399414 C66.6402261 254.35717604 66.6402261 254.35717604 64.75 257.1875 C63.91978471 260.6360866 63.41720985 264.0501896 62.9375 267.5625 C64.20480957 267.59263184 65.47211914 267.62276367 66.77783203 267.65380859 C78.65942202 268.01532868 90.43184574 268.92250648 102.2421875 270.2265625 C102.95266487 270.30451805 103.66314224 270.3824736 104.39514923 270.46279144 C111.02967345 271.19238541 117.66213309 271.93978205 124.29296875 272.70214844 C152.05432139 276.95626378 152.05432139 276.95626378 178.9375 271.5625 C179.9275 270.0775 179.9275 270.0775 180.9375 268.5625 C178.3689258 264.28154301 176.39797808 261.80652445 171.9375 259.5625 C163.06224734 257.3810277 153.71750522 257.08592116 144.625 256.5625 C136.26801849 256.05267675 127.9261403 255.49997955 119.59008789 254.71020508 C110.10983914 253.81951302 100.71146183 253.38180867 91.1875 253.375 C90.14045898 253.37419434 89.09341797 253.37338867 88.01464844 253.37255859 C82.77108999 253.41019179 77.54234951 253.58390021 72.30859375 253.91015625 Z M-125.0625 285.5625 C-126.44800197 288.33350394 -126.2502467 290.4959706 -126.0625 293.5625 C-124.42008483 296.72508225 -124.42008483 296.72508225 -121.77978516 297.22265625 C-120.81347168 297.35542969 -119.8471582 297.48820312 -118.8515625 297.625 C-117.73515381 297.78057373 -116.61874512 297.93614746 -115.46850586 298.09643555 C-113.59690796 298.32713745 -113.59690796 298.32713745 -111.6875 298.5625 C-110.69751511 298.68656723 -110.69751511 298.68656723 -109.68753052 298.81314087 C-74.54777791 303.1702856 -39.37721671 303.89251335 -4.01586914 304.21728516 C-0.65510555 304.24850071 2.70565253 304.28023907 6.06640625 304.3125 C6.90924856 304.32054028 7.75209087 304.32858055 8.62047386 304.33686447 C31.8173178 304.56526258 55.00456347 305.19613104 78.19315147 305.83453274 C93.10624305 306.24386154 108.01388229 306.64528962 122.93359375 306.66796875 C123.96557892 306.67071304 124.99756409 306.67345734 126.06082153 306.67628479 C154.68165863 307.34379081 154.68165863 307.34379081 178.9375 294.5625 C178.83572241 292.64845508 178.83572241 292.64845508 177.9375 290.5625 C168.96556075 284.05625328 157.9513137 283.13783 147.29492188 281.9453125 C143.42704058 281.50429753 139.56524556 281.01951329 135.703125 280.53125 C130.03252329 279.82030487 124.36162117 279.11203503 118.6875 278.4296875 C117.50671875 278.28644043 116.3259375 278.14319336 115.109375 277.99560547 C90.81221802 275.3255225 66.22512042 275.35116583 41.8125 275.375 C41.1410067 275.37556145 40.4695134 275.37612289 39.77767181 275.37670135 C-43.68385683 272.13079301 -43.68385683 272.13079301 -125.0625 285.5625 Z " fill="#000000" transform="translate(231.0625,97.4375)"/>
<path d="M0 0 C7.67661591 3.71123786 11.88925306 10.0238348 16.23828125 17.16796875 C17.94750147 19.91560657 19.78124065 22.51151437 21.6875 25.125 C27.60674334 33.60391614 30.31701503 40.49190135 29 51 C28.00154576 55.59851462 26.51122963 58.74248045 22.859375 61.78125 C13.25785449 67.94071599 3.34758061 70.22750271 -8 69 C-15.30457576 67.26702667 -21.79874912 64.58501739 -26.2109375 58.265625 C-30.26311852 51.54072883 -30.84413581 45.23364204 -29.609375 37.578125 C-25.70593733 21.86428618 -11.12517228 10.79766494 0 0 Z M2 17 C-2.65881072 32.01037426 -2.65881072 32.01037426 -1.09375 46.9296875 C0.0639524 48.80264098 0.0639524 48.80264098 2 51 C7.5771904 50.71615928 7.5771904 50.71615928 12.4375 48.3125 C14.42724938 45.36767091 14.78001397 43.5612832 15 40 C14.25624675 37.20937961 13.09964485 34.67227743 11.875 32.0625 C11.57851563 31.38509766 11.28203125 30.70769531 10.9765625 30.00976562 C8.81557268 25.23452753 6.21037414 21.1453821 3 17 C2.67 17 2.34 17 2 17 Z " fill="#000000" transform="translate(271,216)"/>
<path d="M0 0 C4.3036603 2.48288094 6.9983568 5.37171359 9.25 9.875 C9.75676332 14.18248819 9.52784282 16.98904144 7.125 20.5625 C3.47141598 25.10396617 -0.3232288 27.85819474 -6.125 28.875 C-11.122998 29.20370476 -14.86190331 28.05378176 -18.75 24.875 C-22.0801226 20.89532052 -23.07057093 16.95210408 -22.875 11.8125 C-22.10756504 6.63231404 -19.79244503 3.16325753 -15.75 -0.125 C-10.36592666 -1.91969111 -5.40600512 -1.62180154 0 0 Z M-13.75 7.875 C-14.83982144 11.3779975 -14.9913601 13.23610561 -13.6875 16.6875 C-11.87902609 19.08426213 -11.87902609 19.08426213 -8.9375 19.875 C-5.00500422 19.875 -2.96953105 19.12118445 0.25 16.875 C1.66518518 14.54912158 1.66518518 14.54912158 1.25 11.875 C-1.35748081 8.28971388 -3.06588361 7.05192665 -7.375 5.9375 C-10.88271366 5.55180131 -10.88271366 5.55180131 -13.75 7.875 Z " fill="#000000" transform="translate(335.75,147.125)"/>
<path d="M0 0 C3.71870238 3.71870238 4.86077755 6.58457178 5.375 11.8125 C5.33349904 15.03178905 4.80322827 16.83510531 2.8125 19.375 C-0.55330087 22.51641415 -2.50284945 23.92709049 -7.140625 24.0625 C-11.40330004 23.83666291 -13.51320574 23.38322102 -16.9375 20.6875 C-20.02904093 16.65912849 -21.02171876 15.34656324 -20.9375 10.125 C-20.20773572 5.62898096 -18.38862058 3.09395792 -15 0 C-9.70395242 -2.39821022 -5.23229622 -2.4341552 0 0 Z M-12 7 C-13.09036928 9.9737344 -13.03864166 10.88407501 -12 14 C-9.22899606 15.38550197 -7.0665294 15.1877467 -4 15 C-3.01 14.34 -2.02 13.68 -1 13 C-1.27034634 10.56282742 -1.27034634 10.56282742 -2 8 C-5.54442593 5.63704938 -8.10215986 5.05107993 -12 7 Z " fill="#000000" transform="translate(237,163)"/>
<path d="M0 0 C3.18108426 2.65090355 4.62875605 4.16020695 5.44140625 8.1875 C5.65300426 12.22833947 5.14875087 14.69105588 3.375 18.375 C0.01039535 22.09377356 -3.19430237 23.46213262 -7.9375 24.875 C-13.11610353 25.08637157 -16.63421165 23.2257075 -20.4375 19.8125 C-22.48766897 16.12219585 -23.00179869 13.06113779 -22 9 C-19.30148927 4.04616462 -15.45292652 1.01174057 -10.08203125 -0.62109375 C-6.24550538 -1.31929827 -3.81533645 -1.06329048 0 0 Z M-13 7 C-15.33775029 9.83573263 -15.33775029 9.83573263 -14.75 13.125 C-14.5025 14.07375 -14.255 15.0225 -14 16 C-11.09704195 17.45147903 -9.22738221 17.37239025 -6 17 C-3.72248656 15.52631484 -1.97993 13.88564762 0 12 C-0.66 10.02 -1.32 8.04 -2 6 C-6.28086459 4.74092218 -8.93390435 5.19284638 -13 7 Z " fill="#000000" transform="translate(341,307)"/>
<path d="M0 0 C2.87029869 1.79393668 4.49131638 2.98263276 6 6 C6.58646923 10.89219273 7.16131527 15.88461957 4.73046875 20.3125 C1.44237317 24.15261163 -0.59243006 25.85924301 -5.75 26.375 C-8.9929235 26.33372643 -10.81797482 25.82159121 -13.375 23.8125 C-16.92918254 20.00444727 -17.81532717 17.69283431 -18.375 12.5625 C-17.82731693 7.35951082 -15.73712792 4.48896679 -11.8125 1.125 C-7.82331584 -0.47067367 -4.23723019 -0.71388117 0 0 Z M-9.9375 8.625 C-11.36489363 11.81564458 -10.93843266 13.67939213 -10 17 C-8.17796419 19.22966747 -8.17796419 19.22966747 -5.5625 19.3125 C-3.02358754 19.17519597 -3.02358754 19.17519597 -1.1875 17.9375 C0.646921 14.94449731 0.31107576 12.42183337 0 9 C-1.88138759 6.71069764 -1.88138759 6.71069764 -4.9375 6.625 C-8.02433444 6.72077453 -8.02433444 6.72077453 -9.9375 8.625 Z " fill="#000000" transform="translate(198,205)"/>
<path d="M0 0 C3.83235703 1.1633941 5.86901515 2.03288108 8.5 5.0625 C9.1875 8.5 9.1875 8.5 8.5 12.0625 C5.58112015 15.32886555 3.7290822 16.86584685 -0.625 17.5625 C-3.99531613 16.97635807 -5.31903881 16.72811924 -7.5 14.0625 C-8.4677814 10.99982593 -8.81891614 8.26285141 -8.5 5.0625 C-5.95656213 1.08837833 -4.74863501 0.08479705 0 0 Z M-2.5 6.0625 C-2.5 7.7125 -2.5 9.3625 -2.5 11.0625 C-0.52 11.0625 1.46 11.0625 3.5 11.0625 C3.17 9.7425 2.84 8.4225 2.5 7.0625 C0.85 6.7325 -0.8 6.4025 -2.5 6.0625 Z " fill="#000000" transform="translate(347.5,195.9375)"/>
<path d="M0 0 C2.84657942 1.97070883 3.8027964 3.12353956 4.5625 6.5 C4 9 4 9 1.875 11.3125 C-1.49892681 13.29284835 -3.15452292 13.65454929 -7 13 C-9.4375 11.375 -9.4375 11.375 -11 9 C-10.93558662 5.84374437 -10.49895728 3.83159547 -8.875 1.125 C-5.83167192 -0.70099685 -3.45750445 -0.42460581 0 0 Z " fill="#000000" transform="translate(202,145)"/>
<path d="M0 0 C2 2 2 2 2.3125 5.4375 C2 9 2 9 0.9375 10.9375 C-2.1652833 12.63902633 -4.53769185 12.42519574 -8 12 C-10.5 10.375 -10.5 10.375 -12 8 C-12 4.52255535 -11.61862598 2.73759251 -9.375 0.0625 C-5.95249533 -1.46862051 -3.58323398 -0.8626304 0 0 Z " fill="#000000" transform="translate(277,199)"/>
<path d="M0 0 C2.5625 0.9375 2.5625 0.9375 4.5 3.6875 C5.5625 6.9375 5.5625 6.9375 4.9375 9.6875 C3.5625 11.9375 3.5625 11.9375 0.5625 13.9375 C-2.55776907 14.26252803 -4.58497535 14.44901479 -7.3125 12.8125 C-8.99218045 10.01303259 -8.89492277 8.13945936 -8.4375 4.9375 C-5.95270199 1.87291579 -4.05920746 -0.10408224 0 0 Z M-2.4375 5.9375 C-2.4375 6.5975 -2.4375 7.2575 -2.4375 7.9375 C-1.4475 7.6075 -0.4575 7.2775 0.5625 6.9375 C-0.4275 6.6075 -1.4175 6.2775 -2.4375 5.9375 Z " fill="#000000" transform="translate(302.4375,140.0625)"/>
<path d="M0 0 C2.85109227 2.85109227 2.86327758 5.03504975 3 9 C1.5 11.5 1.5 11.5 -1 13 C-4.625 13 -4.625 13 -8 12 C-9.98187369 9.68781402 -10.02234293 8.45803016 -9.875 5.4375 C-8.14313045 0.61300626 -4.92496868 -0.64802219 0 0 Z M-4 5 C-4 5.99 -4 6.98 -4 8 C-3.34 8 -2.68 8 -2 8 C-2 7.01 -2 6.02 -2 5 C-2.66 5 -3.32 5 -4 5 Z " fill="#000000" transform="translate(348,281)"/>
<path d="M0 0 C2.68069828 0.96230195 3.93003317 1.44630344 5.4375 3.875 C5.21419287 7.52234979 5.05377165 9.25872835 2.4375 11.875 C-1 12.25 -1 12.25 -4.5625 11.875 C-6.5625 10.1875 -6.5625 10.1875 -7.5625 7.875 C-7.48446617 4.67561304 -6.99995759 3.34370456 -4.8125 1 C-2.5625 -0.125 -2.5625 -0.125 0 0 Z " fill="#000000" transform="translate(193.5625,173.125)"/>
<path d="M0 0 C0.66 0.33 1.32 0.66 2 1 C2.29296875 7.0546875 2.29296875 7.0546875 2 9 C-1.46923881 11.31282587 -2.92205575 11.42478586 -7 11 C-8.9375 9.875 -8.9375 9.875 -10 8 C-9.9272401 4.50752483 -9.61188815 2.6774476 -7.25 0.0625 C-4.37633378 -1.29450905 -2.98621245 -0.94301446 0 0 Z M-4 4 C-4.33 4.66 -4.66 5.32 -5 6 C-4.01 6 -3.02 6 -2 6 C-2 5.34 -2 4.68 -2 4 C-2.66 4 -3.32 4 -4 4 Z " fill="#000000" transform="translate(198,247)"/>
<path d="M0 0 C1 1 1 1 1.09765625 2.84765625 C1.04882812 5.92382812 1.04882812 5.92382812 1 9 C-1.46393719 10.55136786 -2.68089146 11.03039129 -5.625 10.75 C-8 10 -8 10 -10 8 C-10.375 5.0625 -10.375 5.0625 -10 2 C-6.93891643 -1.64975349 -4.3702682 -1.16540485 0 0 Z " fill="#000000" transform="translate(242,134)"/>
<path d="M0 0 C0.66 0.66 1.32 1.32 2 2 C1.8125 5.5 1.8125 5.5 1 9 C-2 11 -2 11 -5.0625 10.75 C-8 10 -8 10 -10 8 C-10.35571424 5.22542896 -10.36405327 3.62103204 -8.9375 1.1875 C-5.94449731 -0.646921 -3.42183337 -0.31107576 0 0 Z " fill="#000000" transform="translate(304,167)"/>
<path d="M0 0 C0.66 0 1.32 0 2 0 C3.8460616 5.12794889 4.26977791 7.98259619 2 13 C1 14 1 14 -1.375 14.25 C-4 14 -4 14 -5.875 12.8125 C-7 11 -7 11 -6.6875 8.3125 C-6.460625 7.549375 -6.23375 6.78625 -6 6 C-4.02 5.34 -2.04 4.68 0 4 C0 2.68 0 1.36 0 0 Z " fill="#000000" transform="translate(273,178)"/>
<path d="M0 0 C1.3921875 0.3403125 1.3921875 0.3403125 2.8125 0.6875 C3.4375 3.5 3.4375 3.5 3.8125 6.6875 C1.8125 9.6875 1.8125 9.6875 -1.125 10.5625 C-4.1875 10.6875 -4.1875 10.6875 -6.125 9.5625 C-7.1875 7.6875 -7.1875 7.6875 -7.0625 5.1875 C-5.57452786 0.93615104 -4.68389176 -0.45920507 0 0 Z " fill="#000000" transform="translate(353.1875,234.3125)"/>
<path d="M0 0 C2 2 2 2 2.125 5.625 C2.08375 6.73875 2.0425 7.8525 2 9 C-0.73905345 10.36952673 -2.97087332 10.12621361 -6 10 C-6.66 9.67 -7.32 9.34 -8 9 C-8.36190476 3.57142857 -8.36190476 3.57142857 -6.8125 1.125 C-4.38241919 -0.38332602 -2.80984248 -0.36023622 0 0 Z " fill="#000000" transform="translate(247,327)"/>
<path d="M0 0 C0 0.99 0 1.98 0 3 C-1.65 3.66 -3.3 4.32 -5 5 C-5.33 4.34 -5.66 3.68 -6 3 C-4.02 2.01 -2.04 1.02 0 0 Z " fill="#000000" transform="translate(301,309)"/>
<path d="M0 0 C0.99 0.33 1.98 0.66 3 1 C3.33 2.65 3.66 4.3 4 6 C3.01 6.495 3.01 6.495 2 7 C1.34 4.69 0.68 2.38 0 0 Z " fill="#000000" transform="translate(336,223)"/>
<path d="M0 0 C0 0.33 0 0.66 0 1 C-4.455 1.495 -4.455 1.495 -9 2 C-5.5647952 -0.29013653 -4.014669 -0.17842973 0 0 Z " fill="#000000" transform="translate(280,356)"/>
<path d="M0 0 C1.98 0.99 1.98 0.99 4 2 C3.01 2.33 2.02 2.66 1 3 C0.67 2.01 0.34 1.02 0 0 Z " fill="#000000" transform="translate(269,175)"/>
<path d="M0 0 C0.99 1.32 1.98 2.64 3 4 C2.01 4 1.02 4 0 4 C0 2.68 0 1.36 0 0 Z " fill="#000000" transform="translate(282,190)"/>
<path d="M0 0 C0.33 0 0.66 0 1 0 C1 1.98 1 3.96 1 6 C0.67 6 0.34 6 0 6 C0 4.02 0 2.04 0 0 Z " fill="#000000" transform="translate(211,258)"/>
<path d="M0 0 C0.66 0 1.32 0 2 0 C2 0.66 2 1.32 2 2 C1.34 2 0.68 2 0 2 C0 1.34 0 0.68 0 0 Z " fill="#000000" transform="translate(233,362)"/>
<path d="M0 0 C1 4 1 4 1 4 Z " fill="#000000" transform="translate(211,246)"/>
<path d="" fill="#000000" transform="translate(0,0)"/>
<path d="" fill="#000000" transform="translate(0,0)"/>
<path d="M0 0 C2 1 2 1 2 1 Z " fill="#000000" transform="translate(231,359)"/>
<path d="M0 0 C2 1 2 1 2 1 Z " fill="#000000" transform="translate(293,313)"/>
<path d="" fill="#000000" transform="translate(0,0)"/>
<path d="" fill="#000000" transform="translate(0,0)"/>
<path d="" fill="#000000" transform="translate(0,0)"/>
<path d="" fill="#000000" transform="translate(0,0)"/>
<path d="" fill="#000000" transform="translate(0,0)"/>
</svg>
