<?xml version="1.0" encoding="UTF-8"?>
<svg version="1.1" xmlns="http://www.w3.org/2000/svg" width="512" height="512">
<path d="M0 0 C1.27431885 -0.01780518 2.5486377 -0.03561035 3.86157227 -0.05395508 C11.81704436 -0.04710373 19.04426896 0.20662297 25.625 5.06640625 C26.429375 5.96166016 26.429375 5.96166016 27.25 6.875 C28.0853125 7.77412109 28.0853125 7.77412109 28.9375 8.69140625 C31.34655407 11.66687482 31.71482155 14.26481421 31.65234375 18.08984375 C30.75229035 23.06198342 27.30425583 26.56257837 23.5625 29.75 C10.634399 38.66593172 -5.67335654 40.03882307 -20.75 42.3125 C-26.25735803 43.15005465 -31.76200755 44.00366447 -37.26461792 44.87185669 C-39.6139472 45.23852049 -41.96507143 45.59121892 -44.31665039 45.94311523 C-57.94244017 48.04311423 -71.36395382 51.26415375 -83.9375 57.0625 C-84.68032227 57.40047607 -85.42314453 57.73845215 -86.18847656 58.08666992 C-117.39673288 72.6967127 -142.19297883 98.59461447 -158.75 128.3125 C-159.12753418 128.98619629 -159.50506836 129.65989258 -159.89404297 130.35400391 C-169.77454006 148.26327505 -179.10099252 169.79016609 -182.17578125 190.12890625 C-184.44377039 202.70313178 -189.13791911 220.20430393 -200.0625 228 C-202.75 229.3125 -202.75 229.3125 -204.75 229.3125 C-203.2201249 244.42858561 -203.2201249 244.42858561 -194.75 256.3125 C-194.09 256.89 -193.43 257.4675 -192.75 258.0625 C-187.44995083 261.37503073 -180.7497695 260.98270422 -174.84765625 259.6640625 C-165.06835785 256.77836789 -158.65152749 251.78427626 -153.2578125 243.1484375 C-145.97526373 229.45120847 -140.90208832 214.98316409 -141.75 199.3125 C-142.16894531 199.77269531 -142.58789062 200.23289062 -143.01953125 200.70703125 C-144.79436303 202.35365848 -146.20381951 203.11495679 -148.4375 204 C-149.530625 204.433125 -150.62375 204.86625 -151.75 205.3125 C-153.73 203.3325 -153.73 203.3325 -155.75 201.3125 C-155.3125 200 -154.875 198.6875 -154.4375 197.375 C-154.02951172 196.14716797 -154.02951172 196.14716797 -153.61328125 194.89453125 C-153.05446658 193.2231444 -152.48974119 191.55371728 -151.91796875 189.88671875 C-148.91766575 181.0927272 -148.81295905 176.12362284 -151.75 167.3125 C-152.83785488 153.37958943 -148.54890095 143.83282481 -139.9140625 133.01171875 C-138.23601686 131.06621168 -136.50994956 129.18378456 -134.75 127.3125 C-133.986875 126.425625 -133.22375 125.53875 -132.4375 124.625 C-124.28209738 117.60756053 -115.62103596 116.40853594 -105.22851562 115.75 C-96.93031936 114.97291139 -91.79914515 111.79736626 -86.23217773 105.63134766 C-83.78475016 103.45361684 -80.90917692 103.61053556 -77.75 103.3125 C-76.625 104.875 -76.625 104.875 -75.75 107.3125 C-76.60381264 111.29695897 -77.88676404 114.71234915 -79.75 118.3125 C-78.33280758 117.68869308 -76.9162694 117.0633997 -75.5 116.4375 C-74.71109375 116.08945313 -73.9221875 115.74140625 -73.109375 115.3828125 C-72.33078125 115.02960938 -71.5521875 114.67640625 -70.75 114.3125 C-70.03328125 114.04179687 -69.3165625 113.77109375 -68.578125 113.4921875 C-66.04765406 111.85927676 -65.78356913 110.11391131 -64.75 107.3125 C-55.76100453 93.87477562 -43.53684269 80.5728893 -27.1640625 76.6796875 C-16.66322075 75.08247209 -5.91497924 76.71299333 3.1875 82.5 C6.54550275 85.17642793 8.65295694 88.62346703 10.9140625 92.23046875 C13.07069187 95.59153148 15.30054626 97.7665641 18.75 99.75 C23.04106435 102.43191522 24.94073286 105.1989075 26.296875 110.08203125 C26.54618708 111.4270043 26.78036063 112.77486387 27 114.125 C27.12503906 114.81787109 27.25007813 115.51074219 27.37890625 116.22460938 C27.68259145 117.91823839 27.96816718 119.61509781 28.25 121.3125 C38.12441858 121.68195431 38.12441858 121.68195431 47.02734375 118.01171875 C48.65184361 115.75402725 48.42596458 114.65070917 48 111.9375 C47.83757812 110.81214844 47.83757812 110.81214844 47.671875 109.6640625 C47.38581064 108.06951856 47.06692398 106.48058101 46.71875 104.8984375 C46.19382573 102.00260528 46.04503642 99.25487932 46 96.3125 C45.97421875 95.301875 45.9484375 94.29125 45.921875 93.25 C46.40938111 88.88565962 48.25490022 86.30759978 51.3125 83.25 C54.61256747 81.07335976 57.86676516 79.7739325 61.55859375 78.3984375 C64.33344741 77.27883036 66.87533008 75.93307769 69.5 74.5 C72.67072687 72.88228221 74.05212795 72.3125 77.6875 72.3125 C80.38720282 73.36604256 81.44055251 74.09817614 83.25 76.3125 C86.04039627 84.71353263 86.20435778 93.56278374 83.49609375 101.97265625 C81.24925377 106.19164418 77.52459821 108.38822074 73.25 110.3125 C71.59499363 110.69959533 69.92904224 111.04848099 68.25 111.3125 C64.45821001 121.12300425 65.99938802 132.19298563 67.25 142.4375 C71.37257816 176.64945036 60.1059738 210.55584764 39.03515625 237.45703125 C33.04425594 244.97638371 26.84278138 252.3127568 20.25 259.3125 C19.44691406 260.19164062 18.64382813 261.07078125 17.81640625 261.9765625 C11.00380152 269.16370865 3.60279501 274.62002913 -4.68701172 279.97607422 C-6.68130695 281.26799991 -8.65546565 282.5866722 -10.62890625 283.91015625 C-20.79814671 290.62221575 -31.43353443 295.8198053 -42.75 300.3125 C-43.58853516 300.64991211 -44.42707031 300.98732422 -45.29101562 301.33496094 C-65.51976854 309.2187905 -87.1840297 312.18681691 -108.47476196 315.85380554 C-113.82696185 316.77965738 -119.14382172 317.7867562 -124.45703125 318.9140625 C-133.66657194 320.79713275 -142.98182207 321.79750157 -152.3125 322.875 C-155.85576997 323.29043561 -159.39861516 323.70940926 -162.94140625 324.12890625 C-163.79455414 324.22896469 -164.64770203 324.32902313 -165.52670288 324.43211365 C-170.44171075 325.01452512 -175.33583941 325.67604787 -180.23046875 326.4140625 C-186.64845183 327.35220966 -193.02227335 327.84529841 -199.5 328.125 C-200.54542969 328.18880859 -201.59085937 328.25261719 -202.66796875 328.31835938 C-211.85756676 328.72563869 -220.52494834 327.45379391 -227.75 321.3125 C-230.23124712 317.17708813 -230.7754453 312.0877351 -230.75 307.3125 C-228.82119655 300.42391626 -222.64266562 296.74044072 -216.83984375 293.12109375 C-210.84889132 289.87758447 -204.27878704 288.13469583 -197.75 286.3125 C-196.94111328 286.08272461 -196.13222656 285.85294922 -195.29882812 285.61621094 C-184.5973612 282.60077187 -174.00067592 280.07475481 -163 278.4375 C-142.67896678 275.3248946 -123.57469432 268.78519214 -104.92553711 260.26489258 C-102.79351673 259.33155047 -100.64751617 258.50691213 -98.4609375 257.7109375 C-90.8185368 254.83095913 -84.3867285 250.17541419 -77.9375 245.25 C-77.39843018 244.8387085 -76.85936035 244.42741699 -76.30395508 244.00366211 C-72.86471769 241.32324482 -69.78950063 238.43346128 -66.75 235.3125 C-66.1621875 234.77109375 -65.574375 234.2296875 -64.96875 233.671875 C-57.57843949 226.75185697 -51.75019736 218.42409686 -45.75 210.3125 C-45.07396729 209.42485962 -45.07396729 209.42485962 -44.38427734 208.51928711 C-30.76399627 190.25750132 -27.34721572 166.95268632 -24.62426758 144.98657227 C-22.47622219 128.07810922 -18.53102063 113.22685045 -4.890625 101.90625 C-0.72649506 98.80594888 2.03303578 97.3125 7.25 97.3125 C2.55337146 91.27397759 -1.96589193 87.59091191 -9.75 86.3125 C-17.69203905 85.66188098 -24.30905444 86.56857643 -31.75 89.3125 C-32.56082031 89.55613281 -33.37164062 89.79976563 -34.20703125 90.05078125 C-42.76037014 92.89291433 -50.4093939 99.10110334 -55.25 106.75 C-58.86120914 115.32662171 -60.23560289 123.01410384 -59.75 132.3125 C-59.14671875 131.86777344 -58.5434375 131.42304688 -57.921875 130.96484375 C-57.12265625 130.39894531 -56.3234375 129.83304688 -55.5 129.25 C-54.71109375 128.68152344 -53.9221875 128.11304688 -53.109375 127.52734375 C-50.75 126.3125 -50.75 126.3125 -48.515625 126.56640625 C-46.75 127.3125 -46.75 127.3125 -45.75 128.3125 C-45.7837035 132.39062407 -46.05871446 136.17037606 -48.1875 139.6875 C-52.31475057 146.62128095 -51.96956281 153.58574402 -50.3125 161.25 C-48.01771243 172.00152812 -48.35377662 180.41766737 -53.671875 190.21484375 C-60.3221957 200.12782178 -69.97783467 211.31445306 -81.9609375 213.890625 C-85.21027 214.38212067 -88.40429956 214.49624704 -91.6875 214.625 C-97.61982331 214.9592154 -101.75122769 216.26851552 -106.859375 219.25390625 C-108.75 220.3125 -108.75 220.3125 -110.75 220.3125 C-110.935625 220.89 -111.12125 221.4675 -111.3125 222.0625 C-113.52641237 225.52775414 -116.02206606 226.57708248 -119.75 228.3125 C-122.1875 228.0625 -122.1875 228.0625 -123.75 227.3125 C-124.94104403 223.73936791 -124.75000395 222.31251092 -123.4375 218.6875 C-121.75 215.3125 -121.75 215.3125 -119.75 212.3125 C-129.47102282 216.63027441 -134.09135223 222.46086305 -138.35058594 232.03613281 C-144.97812228 246.85893744 -153.28311364 263.07640773 -168.875 269.625 C-180.1552879 271.6263414 -189.17142943 270.94491291 -198.75 264.3125 C-206.28146452 258.18382182 -209.09050612 249.86789763 -210.2109375 240.4296875 C-210.46316495 237.05529328 -210.64994055 233.69450953 -210.75 230.3125 C-211.51054687 230.21195313 -212.27109375 230.11140625 -213.0546875 230.0078125 C-217.40678427 228.88509768 -219.26482095 225.8966166 -221.75 222.3125 C-224.62344579 216.8734776 -225.72261742 211.31966637 -226.75 205.3125 C-232.66016915 205.40087997 -232.66016915 205.40087997 -237.75 207.9375 C-240.54336527 214.57174251 -239.66685766 221.77362211 -239.296875 228.7890625 C-239.87364699 233.27396192 -241.22596764 234.57713211 -244.75 237.3125 C-246.9609375 238.3515625 -246.9609375 238.3515625 -249.125 238.9375 C-254.427826 240.51163906 -259.23307421 242.25993925 -263.8125 245.4375 C-266.97873514 247.45850115 -269.01449022 248.15008653 -272.75 248.3125 C-275.6743436 247.47697326 -276.55587245 246.594553 -278.28515625 244.08203125 C-281.90009881 237.24737984 -282.05295145 229.14284898 -281.52734375 221.56640625 C-280.3528381 218.16093007 -278.51984761 216.58213255 -275.75 214.3125 C-272.26171875 212.87109375 -272.26171875 212.87109375 -268.4375 211.75 C-256.99926934 208.45073821 -256.99926934 208.45073821 -248.75 200.3125 C-247.51683041 196.22381072 -247.40890642 192.07106065 -247.171875 187.83203125 C-247.06588727 186.1046629 -246.9586607 184.37737022 -246.8503418 182.65014648 C-246.79389496 181.74755096 -246.73744812 180.84495544 -246.67929077 179.91500854 C-243.95717102 137.55511857 -234.18763916 106.26328884 -204.75 75.3125 C-204.16992188 74.67957031 -203.58984375 74.04664063 -202.9921875 73.39453125 C-173.85831126 42.57703904 -131.2172221 26.23279975 -91.70111084 13.92053223 C-89.96311574 13.37891408 -88.22679769 12.83192111 -86.49072266 12.28417969 C-70.2468438 7.22904223 -53.56534719 4.62715381 -36.75 2.3125 C-35.29013672 2.11116455 -35.29013672 2.11116455 -33.80078125 1.90576172 C-22.56302809 0.43049538 -11.32374391 0.10111559 0 0 Z M-134.80126953 40.29638672 C-136.79860131 41.33784185 -138.81346287 42.3327682 -140.83984375 43.31640625 C-159.25811963 52.26748713 -175.74303551 63.32819712 -190.75 77.3125 C-191.49121094 77.98796875 -192.23242188 78.6634375 -192.99609375 79.359375 C-202.83965899 88.69409284 -210.83361347 100.13056315 -216.75 112.3125 C-217.09160156 112.99828125 -217.43320313 113.6840625 -217.78515625 114.390625 C-225.88384984 131.57165916 -229.92178443 148.72971601 -230.1875 167.6875 C-230.20989746 168.67371338 -230.23229492 169.65992676 -230.25537109 170.67602539 C-230.22999882 178.63423913 -228.92234549 186.79719824 -223.4375 192.875 C-220.2206666 194.59563182 -217.29862098 195.47753036 -213.75 196.3125 C-213.80800781 197.03695312 -213.86601562 197.76140625 -213.92578125 198.5078125 C-214.32402695 205.15643688 -214.32402695 205.15643688 -211.6875 211.0625 C-208.90205568 213.63473003 -208.90205568 213.63473003 -205.25 213.5 C-199.40050277 211.51534915 -196.58164374 207.60246131 -193.75 202.3125 C-192.50143147 199.12296133 -191.4341208 195.88165644 -190.375 192.625 C-190.0668335 191.69236328 -189.75866699 190.75972656 -189.44116211 189.79882812 C-187.55294306 184.01071618 -185.86395904 178.19846827 -184.3125 172.3125 C-181.58373349 162.01913428 -177.68374132 152.19465918 -173.75 142.3125 C-173.42 141.46486084 -173.09 140.61722168 -172.75 139.74389648 C-170.68897204 134.48757347 -168.44178519 129.40292041 -165.875 124.375 C-165.52622803 123.68825195 -165.17745605 123.00150391 -164.81811523 122.29394531 C-164.11982412 120.92459628 -163.41897946 119.55654579 -162.71533203 118.18994141 C-161.87299803 116.55171469 -161.04286475 114.90722614 -160.21484375 113.26171875 C-155.32117868 103.84243584 -149.13421548 95.25544098 -141.41796875 87.9453125 C-139.63205434 86.19704031 -138.0459609 84.34965632 -136.4375 82.4375 C-122.15730905 65.97253483 -103.78323615 54.38124978 -83.75 46.3125 C-83.10691895 46.04405273 -82.46383789 45.77560547 -81.80126953 45.49902344 C-63.78967133 38.11504592 -43.72514421 36.65863399 -24.546875 34.2890625 C-0.39840154 32.36424573 -0.39840154 32.36424573 20.25 21.3125 C21.47873769 18.28371534 21.47873769 18.28371534 21.25 15.3125 C17.75287206 10.83839663 12.60234523 10.16887524 7.25 9.3125 C-38.42685007 5.01094646 -94.79283149 19.08795131 -134.80126953 40.29638672 Z M61.25 87.9375 C59.6721875 88.66839844 59.6721875 88.66839844 58.0625 89.4140625 C54.68395023 91.69458359 53.6537255 93.52049152 52.25 97.3125 C52.25 98.6325 52.25 99.9525 52.25 101.3125 C52.91 101.3125 53.57 101.3125 54.25 101.3125 C54.25 101.9725 54.25 102.6325 54.25 103.3125 C56.89835428 105.11338091 58.30935287 105.31026027 61.5625 105.1875 C66.79849807 103.94505978 70.69161423 102.22277933 74.1875 97.9375 C75.48823864 94.72391043 75.83408411 92.74399417 75.25 89.3125 C73.04511741 86.84833866 73.04511741 86.84833866 70.25 85.3125 C66.59068014 85.3125 64.54540693 86.36248934 61.25 87.9375 Z M-1.75 115.3125 C-8.83630716 124.27513014 -11.16791905 133.52059728 -13.125 144.5625 C-19.01675328 176.30006764 -19.01675328 176.30006764 -25.75 190.3125 C-26.18957031 191.25738281 -26.62914062 192.20226562 -27.08203125 193.17578125 C-30.23748837 199.73878434 -33.84278335 205.96752221 -37.67871094 212.1496582 C-39.30468873 214.78920948 -40.73859011 217.28203228 -41.828125 220.19140625 C-42.13234375 220.89136719 -42.4365625 221.59132813 -42.75 222.3125 C-43.74 222.6425 -44.73 222.9725 -45.75 223.3125 C-47.07536013 224.87191931 -48.33644605 226.48635429 -49.5625 228.125 C-53.32808634 232.85358875 -57.33365038 236.83748854 -61.9375 240.75 C-62.81015503 241.49310425 -62.81015503 241.49310425 -63.70043945 242.2512207 C-67.23518327 245.19910158 -70.88643624 247.80144567 -74.75 250.3125 C-76.3774753 251.47571119 -78.00258868 252.64223609 -79.625 253.8125 C-83.22625865 256.34253224 -86.77982667 258.48238844 -90.7578125 260.3515625 C-92.96019134 261.41388641 -95.06419249 262.60023101 -97.1875 263.8125 C-100.88491004 265.88634748 -104.62982741 267.68302234 -108.52734375 269.34765625 C-109.95200425 269.96609411 -111.36314761 270.61728098 -112.75390625 271.30859375 C-118.81877375 274.26622363 -125.13841229 275.77028669 -131.66796875 277.3125 C-135.24717992 278.16504995 -138.7375047 279.21457717 -142.25 280.3125 C-148.46237832 282.13470383 -154.66791643 283.14764399 -161.0625 284.125 C-192.57963957 288.67484493 -192.57963957 288.67484493 -217.75 306.3125 C-218.66738597 309.40000447 -218.66738597 309.40000447 -217.75 312.3125 C-213.74937678 316.66611938 -209.90837584 317.15959784 -204.18310547 317.43676758 C-180.67699448 318.06873644 -159.00481492 314.50549163 -136.0546875 309.77734375 C-129.86830782 308.51395075 -123.66977017 307.44326801 -117.4375 306.4375 C-104.43679945 304.28139995 -91.68286271 301.0763092 -78.9135437 297.85552979 C-74.35064562 296.70558045 -69.77880454 295.60167086 -65.19921875 294.51953125 C-48.11263496 290.40953727 -33.76761776 285.15793514 -19.75 274.3125 C-19.21665039 273.9009668 -18.68330078 273.48943359 -18.13378906 273.06542969 C-14.54468757 270.28903049 -10.98461871 267.47795164 -7.43652344 264.64941406 C-5.84448414 263.38739796 -4.2390339 262.14235332 -2.6328125 260.8984375 C-1.72273437 260.18945312 -0.81265625 259.48046875 0.125 258.75 C0.92679688 258.12996094 1.72859375 257.50992188 2.5546875 256.87109375 C3.39386719 256.09958984 3.39386719 256.09958984 4.25 255.3125 C4.25 254.6525 4.25 253.9925 4.25 253.3125 C4.8171875 253.06757813 5.384375 252.82265625 5.96875 252.5703125 C27.49698499 240.70029252 42.62857765 207.82227731 49.1875 185.2578125 C50.82651867 179.33685756 52.08326381 173.34326477 53.25 167.3125 C53.42345947 166.53156982 53.59691895 165.75063965 53.77563477 164.94604492 C54.58982881 160.42586422 54.43450187 155.89364625 54.4375 151.3125 C54.44974609 150.32765625 54.46199219 149.3428125 54.47460938 148.328125 C54.47654297 147.37421875 54.47847656 146.4203125 54.48046875 145.4375 C54.48457764 144.57382813 54.48868652 143.71015625 54.49291992 142.8203125 C54.10323834 138.79738869 53.00082656 136.08607887 50.1875 133.1875 C41.46289421 127.61860269 31.30300457 127.29356244 21.25 126.3125 C21.07984375 125.55324219 20.9096875 124.79398438 20.734375 124.01171875 C20.49203125 123.01785156 20.2496875 122.02398437 20 121 C19.76796875 120.01386719 19.5359375 119.02773437 19.296875 118.01171875 C18.07733164 114.86729912 17.22006102 113.86775087 14.25 112.3125 C8.62974389 111.45815406 2.55337591 111.25503128 -1.75 115.3125 Z M-130.2890625 132.7421875 C-131.9959557 134.35924943 -131.9959557 134.35924943 -132.75 137.3125 C-133.74 137.6425 -134.73 137.9725 -135.75 138.3125 C-137.17598197 140.26136902 -137.17598197 140.26136902 -138.375 142.625 C-138.80039063 143.40488281 -139.22578125 144.18476563 -139.6640625 144.98828125 C-144.60075566 155.55422524 -140.18045667 166.20993746 -136.625 176.5 C-135.03280068 181.16113312 -134.12722571 185.40856578 -133.75 190.3125 C-133.42 190.3125 -133.09 190.3125 -132.75 190.3125 C-132.54650736 188.60229588 -132.34335482 186.89205082 -132.14160156 185.18164062 C-131.96165888 183.66695829 -131.77864273 182.15263837 -131.59277344 180.63867188 C-131.10317954 176.59246879 -130.67640061 172.55763648 -130.3828125 168.4921875 C-129.26510736 154.20152897 -129.26510736 154.20152897 -123.9921875 147.84375 C-122.54000141 146.38225705 -122.54000141 146.38225705 -122.75 144.3125 C-122.193125 144.044375 -121.63625 143.77625 -121.0625 143.5 C-118.7307233 142.34649975 -118.7307233 142.34649975 -116.5546875 140.921875 C-113.33599729 139.07493856 -110.01369412 137.70984202 -106.5625 136.375 C-105.23436928 135.85287912 -103.90624431 135.33074365 -102.578125 134.80859375 C-101.93037109 134.55577637 -101.28261719 134.30295898 -100.61523438 134.04248047 C-98.00838118 133.02225913 -95.41036634 131.98035777 -92.8125 130.9375 C-91.45833333 130.39583333 -90.10416667 129.85416667 -88.75 129.3125 C-88.75 128.9825 -88.75 128.6525 -88.75 128.3125 C-92.52027204 128.11239289 -96.29120917 127.92979668 -100.0625 127.75 C-101.6412793 127.66588867 -101.6412793 127.66588867 -103.25195312 127.58007812 C-117.71813335 126.65961049 -117.71813335 126.65961049 -130.2890625 132.7421875 Z M-113.125 148.9375 C-120.22642197 156.63194259 -123.99183638 165.91353555 -123.75 176.3125 C-122.739375 175.6525 -121.72875 174.9925 -120.6875 174.3125 C-116.8469333 172.16425545 -114.19132267 171.51940667 -109.75 172.3125 C-106.822927 173.88200685 -104.68592951 175.60334421 -102.75 178.3125 C-101.59067279 182.88738352 -102.66865505 187.1498101 -104.75 191.3125 C-96.93573084 190.91176825 -91.01175742 185.97192771 -85.9375 180.375 C-79.38173569 172.37757455 -76.31898406 164.65688256 -76.75 154.3125 C-77.513125 154.9725 -78.27625 155.6325 -79.0625 156.3125 C-83.5317563 159.37097901 -88.55920149 158.64500667 -93.75 158.3125 C-93.75 157.6525 -93.75 156.9925 -93.75 156.3125 C-95.07 155.9825 -96.39 155.6525 -97.75 155.3125 C-98.07712342 149.18196489 -98.14366878 144.68580889 -94.75 139.3125 C-101.13501698 139.3125 -108.59606704 144.74209311 -113.125 148.9375 Z M-67.75 140.3125 C-66.75 144.3125 -66.75 144.3125 -66.75 144.3125 Z M-67.75 148.3125 C-69.77132095 153.36982891 -69.9790394 157.71822085 -70.0625 163.0625 C-70.33724188 170.51515578 -71.38304355 176.07911832 -75.75 182.3125 C-76.14832031 182.95316406 -76.54664063 183.59382813 -76.95703125 184.25390625 C-83.00217159 192.70979742 -94.68547598 195.44174339 -104.13671875 198.43359375 C-107.20589968 199.46582949 -109.92473578 200.74290877 -112.75 202.3125 C-112.75 202.6425 -112.75 202.9725 -112.75 203.3125 C-111.56857422 203.29509766 -111.56857422 203.29509766 -110.36328125 203.27734375 C-104.58369366 203.22946551 -98.93923003 203.34561495 -93.1875 203.9375 C-85.75635037 204.54926534 -77.31670611 204.75247176 -71.125 200 C-68.86546863 197.44316188 -67.68096351 195.57087229 -66.75 192.3125 C-66.09 192.3125 -65.43 192.3125 -64.75 192.3125 C-63.93432826 190.87679734 -63.12257907 189.43886566 -62.3125 188 C-61.86003906 187.19949219 -61.40757812 186.39898437 -60.94140625 185.57421875 C-57.1579006 178.39176048 -58.64141885 171.56053917 -60.82421875 164.1328125 C-62.64499527 158.58597432 -64.5015296 153.18520561 -67.75 148.3125 Z M-255.75 217.3125 C-256.41 217.9725 -257.07 218.6325 -257.75 219.3125 C-256.43 220.3025 -255.11 221.2925 -253.75 222.3125 C-253.8125 224.625 -253.8125 224.625 -254.75 227.3125 C-258.29496333 229.18531082 -261.81618996 230.52573799 -265.75 231.3125 C-266.08 229.0025 -266.41 226.6925 -266.75 224.3125 C-266.09 223.85875 -265.43 223.405 -264.75 222.9375 C-264.09 222.40125 -263.43 221.865 -262.75 221.3125 C-262.75 220.6525 -262.75 219.9925 -262.75 219.3125 C-265.73220128 219.86089062 -265.73220128 219.86089062 -268.75 221.3125 C-270.20160938 224.33029872 -270.20160938 224.33029872 -270.75 227.3125 C-271.41 226.6525 -272.07 225.9925 -272.75 225.3125 C-273.04562367 230.63420494 -273.04562367 230.63420494 -270.75 235.3125 C-267.77481167 236.3062129 -264.8726942 236.50143612 -261.75 236.3125 C-258.50513772 234.60157262 -256.32430793 232.88680793 -253.75 230.3125 C-253.04875 229.735 -252.3475 229.1575 -251.625 228.5625 C-249.48895527 226.39964066 -249.48895527 226.39964066 -249.3125 223.25 C-249.52233821 220.34071304 -249.52233821 220.34071304 -251.0625 218.4375 C-252.82800472 217.0351499 -252.82800472 217.0351499 -255.75 217.3125 Z " fill="#000000" transform="translate(353.75,91.6875)"/>
<path d="M0 0 C2.5625 2.125 2.5625 2.125 4 5 C4.37419807 9.19101842 3.98895111 12.92057669 3 17 C1.35 17.33 -0.3 17.66 -2 18 C-2 18.66 -2 19.32 -2 20 C-10.94147298 21.44105293 -10.94147298 21.44105293 -15 19.75 C-17 18 -17 18 -19 15 C-19.2500507 10.54909761 -18.52819164 6.8866074 -16.25 3.0625 C-11.31516877 -1.46109529 -6.31495651 -1.8025902 0 0 Z M-10.8125 8.5 C-11.204375 9.325 -11.59625 10.15 -12 11 C-11.01 12.32 -10.02 13.64 -9 15 C-6.52372901 14.36078035 -6.52372901 14.36078035 -4 13 C-2.63921965 10.47627099 -2.63921965 10.47627099 -2 8 C-3.82786272 5.79142762 -3.82786272 5.79142762 -6.4375 5.5625 C-9.25299859 5.73583949 -9.25299859 5.73583949 -10.8125 8.5 Z " fill="#000000" transform="translate(151,240)"/>
<path d="M0 0 C3.74670976 3.05853858 5.13025306 5.33562071 5.9375 10.0625 C6.02076389 15.30812505 5.34651337 17.5380712 1.8125 21.375 C-1 23 -1 23 -4.4375 23.0625 C-8.95252006 21.71591507 -10.78330697 20.44645681 -14 17 C-14.875 14.125 -14.875 14.125 -15 11 C-15.12375 9.80375 -15.2475 8.6075 -15.375 7.375 C-15 4 -15 4 -13.125 1.5625 C-8.69688848 -0.65155576 -4.85111228 -1.03554121 0 0 Z M-9 7 C-9.66 8.32 -10.32 9.64 -11 11 C-9.29218213 14.29430105 -9.29218213 14.29430105 -5.9375 14.75 C-4.968125 14.8325 -3.99875 14.915 -3 15 C-1.72996677 13.94689723 -1.72996677 13.94689723 -1.8125 11.5625 C-1.73160017 8.83265325 -1.73160017 8.83265325 -4 7 C-6.58354218 6.83312552 -6.58354218 6.83312552 -9 7 Z " fill="#000000" transform="translate(378,239)"/>
<path d="M0 0 C3.02488897 2.45772229 2.98579131 3.49915161 3.4375 7.5 C3.37933848 11.06077733 3.2191314 11.41134689 0.5 14.0625 C-4.7828095 16.4208971 -8.71639572 17.45939387 -14.25 15.4375 C-16.87007357 13.71063333 -18.9098802 11.95628747 -21 9.625 C-19.53156664 3.13941933 -19.53156664 3.13941933 -17.0625 0.75 C-11.68168618 -2.18498936 -5.56390699 -2.55012404 0 0 Z M-12.6875 6.125 C-13.120625 6.62 -13.55375 7.115 -14 7.625 C-13.34 8.285 -12.68 8.945 -12 9.625 C-10.68 9.625 -9.36 9.625 -8 9.625 C-8 7.975 -8 6.325 -8 4.625 C-11.00259517 4.29281808 -11.00259517 4.29281808 -12.6875 6.125 Z " fill="#000000" transform="translate(367,276.375)"/>
<path d="M0 0 C0.99 0.66 1.98 1.32 3 2 C3.43359375 4.49609375 3.43359375 4.49609375 3.4375 7.4375 C3.46650391 8.88962891 3.46650391 8.88962891 3.49609375 10.37109375 C3 13 3 13 1.2578125 14.81640625 C-2.44295177 16.75642627 -5.93553621 16.82211271 -10 16 C-12.125 13.8125 -12.125 13.8125 -13 11 C-12.8125 8.5 -12.8125 8.5 -12 6 C-11.731875 5.113125 -11.46375 4.22625 -11.1875 3.3125 C-10 1 -10 1 -8.25 -0.375 C-5.19255605 -1.22428999 -3.0528394 -0.77944836 0 0 Z M-5 7 C-5.99 7.495 -5.99 7.495 -7 8 C-7 8.66 -7 9.32 -7 10 C-5.68 9.67 -4.36 9.34 -3 9 C-3.66 8.34 -4.32 7.68 -5 7 Z " fill="#000000" transform="translate(158,202)"/>
<path d="M0 0 C1.5 2.875 1.5 2.875 2 6 C0.69132936 8.94450894 -0.09402863 10.54701431 -3 12 C-7.39502658 12.49755018 -9.34009074 12.46743573 -13 9.875 C-15 7 -15 7 -15 3.875 C-13.53398058 -0.33980583 -13.53398058 -0.33980583 -11 -2 C-6.31056037 -3.42722076 -3.75564765 -3.23402992 0 0 Z " fill="#000000" transform="translate(346,313)"/>
<path d="M0 0 C0.33 0.66 0.66 1.32 1 2 C3.02463255 2.65213292 3.02463255 2.65213292 5 3 C4.74233354 6.77910801 4.37804992 8.57874438 1.8125 11.4375 C-1.64569177 13.35871765 -3.26130369 13.04335711 -7 12 C-7 11.34 -7 10.68 -7 10 C-7.66 10 -8.32 10 -9 10 C-8.66410006 6.86493389 -7.97334828 5.974751 -5.625 3.75 C-3 2 -3 2 0 2 C0 1.34 0 0.68 0 0 Z " fill="#000000" transform="translate(419,181)"/>
<path d="M0 0 C3 0.1875 3 0.1875 5 1.1875 C5.36075949 6.59889241 5.36075949 6.59889241 3.8125 9.125 C2 10.1875 2 10.1875 -0.5625 10 C-3 9.1875 -3 9.1875 -5 7.1875 C-5.25 4.6875 -5.25 4.6875 -5 2.1875 C-3 0.1875 -3 0.1875 0 0 Z " fill="#000000" transform="translate(190,166.8125)"/>
<path d="M0 0 C0.66 1.32 1.32 2.64 2 4 C1.01 4.495 1.01 4.495 0 5 C-0.66 4.67 -1.32 4.34 -2 4 C-1 1 -1 1 0 0 Z " fill="#000000" transform="translate(85,320)"/>
<path d="M0 0 C0.66 0 1.32 0 2 0 C1.67 0.99 1.34 1.98 1 3 C0.67 2.01 0.34 1.02 0 0 Z " fill="#000000" transform="translate(424,182)"/>
<path d="M0 0 C4 1 4 1 4 1 Z " fill="#000000" transform="translate(337,105)"/>
<path d="M0 0 C3 1 3 1 3 1 Z " fill="#000000" transform="translate(188,383)"/>
<path d="M0 0 C0.66 0.66 1.32 1.32 2 2 C1.34 2 0.68 2 0 2 C0 1.34 0 0.68 0 0 Z " fill="#000000" transform="translate(411,193)"/>
<path d="M0 0 C2 1 2 1 2 1 Z " fill="#000000" transform="translate(180,385)"/>
<path d="M0 0 C2 1 2 1 2 1 Z " fill="#000000" transform="translate(184,384)"/>
<path d="M0 0 C2 1 2 1 2 1 Z " fill="#000000" transform="translate(318,274)"/>
<path d="M0 0 C2 1 2 1 2 1 Z " fill="#000000" transform="translate(422,180)"/>
<path d="" fill="#000000" transform="translate(0,0)"/>
<path d="" fill="#000000" transform="translate(0,0)"/>
<path d="" fill="#000000" transform="translate(0,0)"/>
<path d="" fill="#000000" transform="translate(0,0)"/>
<path d="" fill="#000000" transform="translate(0,0)"/>
<path d="" fill="#000000" transform="translate(0,0)"/>
<path d="" fill="#000000" transform="translate(0,0)"/>
<path d="" fill="#000000" transform="translate(0,0)"/>
<path d="" fill="#000000" transform="translate(0,0)"/>
<path d="" fill="#000000" transform="translate(0,0)"/>
<path d="" fill="#000000" transform="translate(0,0)"/>
<path d="" fill="#000000" transform="translate(0,0)"/>
<path d="" fill="#000000" transform="translate(0,0)"/>
</svg>
