<?xml version="1.0" encoding="UTF-8"?>
<svg version="1.1" xmlns="http://www.w3.org/2000/svg" width="512" height="512">
<path d="M0 0 C1.90860429 -0.01148106 3.81717747 -0.03187094 5.72558594 -0.06152344 C16.0749783 -0.22134927 26.03895258 0.06861883 36.22143555 2.06469727 C37.42178185 2.2982618 37.42178185 2.2982618 38.64637756 2.5365448 C45.2223506 3.97418877 50.73152032 6.57011836 56.3190918 10.29516602 C58.82498609 9.71140608 58.82498609 9.71140608 61.5690918 8.54516602 C91.45592377 -2.16488515 145.37293903 5.08884168 174.45874023 18.2644043 C183.90945391 22.78674273 192.81288885 28.18430982 201.3190918 34.29516602 C202.3915918 35.05829102 203.4640918 35.82141602 204.5690918 36.60766602 C217.03532101 48.79057184 224.94131464 65.747024 226.6940918 82.98266602 C225.87965967 90.17681649 224.74834772 95.50923251 219.1315918 100.42016602 C217.87776076 101.4006393 216.61241791 102.36741189 215.3190918 103.29516602 C215.9584668 104.26454102 216.5978418 105.23391602 217.2565918 106.23266602 C219.43573115 109.95314784 219.79161224 113.11196284 219.8503418 117.37719727 C220.0050293 118.01012695 220.1597168 118.64305664 220.3190918 119.29516602 C222.22010713 120.48005045 222.22010713 120.48005045 224.3190918 121.29516602 C227.60015341 125.04495071 227.87218155 128.71694116 227.7565918 133.51391602 C226.96913494 138.51989174 224.68186806 142.85652204 222.3190918 147.29516602 C222.8037793 147.87911133 223.2884668 148.46305664 223.7878418 149.06469727 C225.62835896 151.74565466 225.84589655 153.86923773 225.76831055 157.09204102 C225.22422176 159.76044167 224.11475124 161.45822312 222.6315918 163.73266602 C220.62229607 166.90298929 220.62229607 166.90298929 220.69018555 170.51391602 C221.28334935 172.01132508 221.89318553 173.50222192 222.51831055 174.98657227 C224.34305929 180.24718938 223.19773483 185.17558233 221.1159668 190.19750977 C217.80514156 196.68846976 214.49474081 201.90328301 207.3190918 204.29516602 C207.29331055 205.1549707 207.2675293 206.01477539 207.2409668 206.90063477 C205.99677197 232.83078615 192.40757156 256.41059979 175.3190918 275.29516602 C174.58432617 276.16141602 173.84956055 277.02766602 173.0925293 277.92016602 C170.0819379 281.45383313 167.44721202 284.35220975 163.4440918 286.73266602 C161.12516818 288.23528692 160.43715385 288.87028836 159.6862793 291.57250977 C159.56510742 292.42973633 159.44393555 293.28696289 159.3190918 294.17016602 C158.60883747 299.05497637 157.25417222 301.46552704 153.54174805 304.70532227 C127.99796632 322.97653345 86.86464065 321.66168508 57.03149414 321.5559082 C53.45400983 321.54519571 49.87702975 321.55587405 46.29956055 321.56860352 C25.12299855 321.58368156 4.18540331 320.53242475 -16.6184082 316.42016602 C-17.96133771 316.17314922 -19.30443811 315.92705981 -20.64770508 315.68188477 C-31.92557568 313.5600653 -42.22353344 311.16089556 -49.6184082 301.85766602 C-50.97388586 298.58857284 -50.49292177 296.6908591 -49.6809082 293.29516602 C-49.6809082 292.30516602 -49.6809082 291.31516602 -49.6809082 290.29516602 C-51.52875845 288.45615408 -51.52875845 288.45615408 -53.9934082 286.67016602 C-54.90864258 285.96375977 -55.82387695 285.25735352 -56.7668457 284.52954102 C-57.72848633 283.79219727 -58.69012695 283.05485352 -59.6809082 282.29516602 C-63.38786631 279.34234551 -67.044751 276.33464665 -70.6809082 273.29516602 C-71.58969727 272.54750977 -72.49848633 271.79985352 -73.43481445 271.02954102 C-84.938736 261.14565963 -92.44369547 249.44283167 -98.9230957 235.88891602 C-102.05750291 229.36989002 -105.94502665 224.01395296 -110.8684082 218.73266602 C-128.33864059 199.78441059 -140.04977524 174.80650224 -139.9465332 148.82250977 C-139.94844666 147.74119278 -139.95036011 146.65987579 -139.95233154 145.54579163 C-139.95368653 143.26571418 -139.95003831 140.98562883 -139.94165039 138.70556641 C-139.93101487 135.26715129 -139.94153149 131.82926741 -139.9543457 128.39086914 C-139.97652538 97.97206026 -139.97652538 97.97206026 -135.1184082 84.35766602 C-134.73422729 83.25152954 -134.73422729 83.25152954 -134.34228516 82.12304688 C-129.58047213 68.99841308 -122.92877181 57.75065442 -113.6809082 47.29516602 C-112.04909177 45.30072371 -110.42399862 43.30076029 -108.8059082 41.29516602 C-105.39675719 37.09176835 -102.38708555 33.62831585 -97.8059082 30.73266602 C-94.39665257 28.51692613 -91.19021633 26.14766791 -88.015625 23.60693359 C-73.98053076 12.43003107 -57.69186269 6.96605445 -40.3684082 2.98266602 C-39.68891113 2.82330566 -39.00941406 2.66394531 -38.30932617 2.49975586 C-25.77347043 -0.20288763 -12.76293469 0.05312017 0 0 Z M-81.6809082 33.29516602 C-81.6809082 34.28516602 -81.6809082 35.27516602 -81.6809082 36.29516602 C-82.22360352 36.0309082 -82.76629883 35.76665039 -83.32543945 35.49438477 C-85.91563833 35.01707522 -85.91563833 35.01707522 -88.38012695 37.25219727 C-89.38984054 38.18955957 -90.38519913 39.14253931 -91.3684082 40.10766602 C-91.89732666 40.61249512 -92.42624512 41.11732422 -92.97119141 41.63745117 C-108.58671626 56.71271992 -122.98308167 75.37938073 -126.6809082 97.29516602 C-126.81335938 98.03911621 -126.94581055 98.78306641 -127.08227539 99.54956055 C-130.92936193 121.676792 -130.61941612 143.22545558 -126.6809082 165.29516602 C-126.46106728 166.65306276 -126.24224831 168.01112553 -126.0246582 169.36938477 C-122.87690743 187.30032221 -115.6372872 204.19640923 -102.6809082 217.29516602 C-102.00801758 218.03766602 -102.00801758 218.03766602 -101.3215332 218.79516602 C-92.04434991 227.97670825 -77.36717378 231.96658031 -64.6809082 232.29516602 C-55.12296027 231.88870689 -46.88952424 228.02478903 -40.3059082 221.04516602 C-35.7233424 215.13469763 -32.91708909 208.11865878 -33.2902832 200.58813477 C-34.47157782 193.65393534 -37.76526644 185.37174168 -43.4309082 180.92016602 C-49.84659326 179.13803128 -55.0123571 180.1207774 -60.6809082 183.29516602 C-63.14622718 186.40361168 -62.85635701 189.4352922 -62.6809082 193.29516602 C-61.6909082 193.62516602 -60.7009082 193.95516602 -59.6809082 194.29516602 C-58.7527832 193.55266602 -58.7527832 193.55266602 -57.8059082 192.79516602 C-55.6809082 191.29516602 -55.6809082 191.29516602 -53.1184082 191.29516602 C-50.6809082 192.29516602 -50.6809082 192.29516602 -48.8059082 194.23266602 C-47.12055023 198.82058495 -47.4271074 202.60236873 -48.6809082 207.29516602 C-52.0383051 214.53335628 -58.37931945 218.56578632 -65.6809082 221.29516602 C-72.87990159 222.71100435 -79.38313553 220.83944958 -85.6809082 217.29516602 C-98.39511548 208.62244618 -104.68249479 198.20410873 -107.6809082 183.29516602 C-111.00432066 162.30317278 -112.12832543 137.51319497 -104.2434082 117.42016602 C-103.83219727 116.35024414 -103.42098633 115.28032227 -102.99731445 114.17797852 C-101.7940619 111.54296253 -100.43385734 109.57451096 -98.6809082 107.29516602 C-98.6809082 106.63516602 -98.6809082 105.97516602 -98.6809082 105.29516602 C-97.35832348 104.60742196 -96.02104317 103.94805228 -94.6809082 103.29516602 C-93.7527832 102.80016602 -92.8246582 102.30516602 -91.8684082 101.79516602 C-75.88099254 95.23366417 -54.43360732 97.52564919 -37.62060547 99.03955078 C-32.82889522 99.45620394 -28.05053452 99.7138202 -23.2434082 99.85766602 C-22.29014648 99.92018555 -21.33688477 99.98270508 -20.35473633 100.04711914 C-17.57614137 100.11119575 -15.35050921 100.07725114 -12.6809082 99.29516602 C-10.28862741 96.9292828 -8.8591021 94.43555645 -7.6809082 91.29516602 C-7.6809082 90.63516602 -7.6809082 89.97516602 -7.6809082 89.29516602 C-7.0209082 89.29516602 -6.3609082 89.29516602 -5.6809082 89.29516602 C-4.41523486 87.69300878 -3.22149663 86.03404319 -2.0559082 84.35766602 C2.03012767 78.68769292 6.59078847 73.5655915 11.3815918 68.48266602 C12.3718335 67.42607788 12.3718335 67.42607788 13.38208008 66.34814453 C20.9373066 58.40851616 28.90079077 51.98525973 38.0690918 45.98266602 C39.00108398 45.36327148 39.93307617 44.74387695 40.89331055 44.10571289 C48.32533734 39.19545702 48.32533734 39.19545702 52.3190918 37.29516602 C52.25874248 35.06525875 52.1698643 32.83611242 52.0690918 30.60766602 C52.02268555 29.36629883 51.9762793 28.12493164 51.9284668 26.84594727 C51.23170872 22.78599155 50.24141727 21.151075 47.3190918 18.29516602 C45.14806874 16.91789771 45.14806874 16.91789771 42.8190918 16.04516602 C42.0662793 15.73063477 41.3134668 15.41610352 40.5378418 15.09204102 C29.70758946 11.2023025 17.22778858 12.08779467 5.8815918 12.10766602 C5.18488373 12.1086026 4.48817566 12.10953918 3.77035522 12.11050415 C-22.25860747 12.18585574 -61.86291529 13.12009215 -81.6809082 33.29516602 Z M60.3190918 22.29516602 C57.29475143 26.77953277 55.66184021 31.87978325 56.3190918 37.29516602 C57.52479824 38.90715102 57.52479824 38.90715102 59.27612305 40.18188477 C60.23615234 40.9454126 60.23615234 40.9454126 61.21557617 41.72436523 C64.81401519 44.4115004 68.45815868 47.02424239 72.1315918 49.60766602 C87.17971018 60.37195799 99.81227634 73.02864675 110.9440918 87.79516602 C111.44086426 88.45331299 111.93763672 89.11145996 112.44946289 89.78955078 C115.17127973 93.48357984 117.30933395 97.1517262 119.3190918 101.29516602 C130.94808956 101.44864394 142.51908083 100.98057562 154.1315918 100.42016602 C155.0777536 100.37470642 156.02391541 100.32924683 156.99874878 100.28240967 C163.43977182 99.97005248 169.87968592 99.63917434 176.3190918 99.29516602 C177.05184326 99.25649414 177.78459473 99.21782227 178.53955078 99.17797852 C182.65610865 98.95803601 186.76890691 98.70304399 190.8815918 98.42016602 C191.82301025 98.36618652 192.76442871 98.31220703 193.734375 98.2565918 C200.41160031 97.74376318 208.39144659 96.61296877 213.02832031 91.3581543 C217.47378118 84.25315253 217.06360504 75.94747176 215.4440918 68.04516602 C213.23941394 60.6199774 208.32535523 55.01981703 203.3190918 49.29516602 C202.58174805 48.44438477 201.8444043 47.59360352 201.0847168 46.71704102 C194.59493553 39.75355308 186.7777165 35.47331733 178.3190918 31.29516602 C177.59334961 30.91618164 176.86760742 30.53719727 176.11987305 30.14672852 C170.7743528 27.51173109 165.44896783 25.65974305 159.6472168 24.33032227 C158.91426895 24.1604631 158.18132111 23.99060394 157.42616272 23.81559753 C148.60519921 21.83038257 139.69146137 20.4643612 130.7565918 19.10766602 C129.07095497 18.84587474 127.38540761 18.58350676 125.69995117 18.32055664 C114.2659914 16.54781868 103.16992253 15.09862607 91.5690918 15.04516602 C89.91393555 15.01422852 89.91393555 15.01422852 88.2253418 14.98266602 C78.66955992 14.93780319 67.75110019 15.6254149 60.3190918 22.29516602 Z M44.2565918 45.48266602 C43.65782227 45.97831055 43.05905273 46.47395508 42.44213867 46.98461914 C41.26547779 47.96022953 40.09433904 48.94254374 38.92919922 49.93188477 C36.01569735 52.39875277 33.01962809 54.75592968 29.99487305 57.08422852 C23.60746339 62.04634841 17.94693815 67.49706549 12.3190918 73.29516602 C11.48893555 74.11243164 10.6587793 74.92969727 9.8034668 75.77172852 C3.29089227 82.38670201 -4.36661729 90.49068016 -7.6809082 99.29516602 C-7.54529315 104.52705209 -5.22247833 108.0488859 -2.2434082 112.17016602 C-1.63142578 113.05961914 -1.63142578 113.05961914 -1.00708008 113.96704102 C0.0425463 115.45329827 1.17503425 116.8803132 2.3190918 118.29516602 C2.9790918 118.29516602 3.6390918 118.29516602 4.3190918 118.29516602 C4.54983398 118.84301758 4.78057617 119.39086914 5.01831055 119.95532227 C6.68719252 122.95730515 8.80016295 125.21248581 11.1315918 127.73266602 C12.40969727 129.12291992 12.40969727 129.12291992 13.71362305 130.54125977 C15.41399686 132.33850644 17.14109659 134.1109435 18.8972168 135.85375977 C21.14997669 138.12468707 23.19401921 140.47775333 25.2565918 142.92016602 C32.00998712 150.43894615 43.63429159 162.65475212 54.3190918 163.29516602 C66.26803562 160.18241594 78.03052251 149.20976017 86.3190918 140.29516602 C86.3190918 139.63516602 86.3190918 138.97516602 86.3190918 138.29516602 C86.85147461 138.09793945 87.38385742 137.90071289 87.93237305 137.69750977 C91.40882577 135.65488043 93.8134926 132.82846522 96.5065918 129.85766602 C97.07740479 129.23456543 97.64821777 128.61146484 98.23632812 127.96948242 C109.04944321 117.30771048 109.04944321 117.30771048 114.68237305 103.96313477 C114.26252126 99.72398613 112.86337909 97.03527372 110.5065918 93.60766602 C109.90741943 92.70636963 109.90741943 92.70636963 109.29614258 91.78686523 C105.61596284 86.41162385 101.3780565 81.65758235 96.8737793 76.96704102 C94.76177867 74.75815963 92.77761076 72.51289205 90.8190918 70.17016602 C84.8247578 63.27021322 77.84458766 57.18919392 70.4206543 51.87329102 C66.80302474 49.15670674 63.43309056 46.12956083 60.0300293 43.15063477 C53.25288836 38.5121017 49.8395364 40.64975947 44.2565918 45.48266602 Z M-95.8059082 111.10766602 C-106.86548981 125.96300526 -105.05958987 148.06222202 -104.5559082 165.79516602 C-104.53646149 166.51274078 -104.51701477 167.23031555 -104.49697876 167.96963501 C-103.98441162 184.78834658 -101.37480392 198.3386613 -88.7434082 210.45922852 C-83.3927002 215.22216935 -78.77547877 217.04532973 -71.5246582 216.73657227 C-64.71773169 215.68000263 -59.41802385 212.68006005 -55.0559082 207.35766602 C-52.7503766 203.9447021 -52.05488798 201.46863418 -52.6809082 197.29516602 C-53.6709082 196.80016602 -53.6709082 196.80016602 -54.6809082 196.29516602 C-55.4440332 196.79016602 -56.2071582 197.28516602 -56.9934082 197.79516602 C-59.6809082 199.29516602 -59.6809082 199.29516602 -62.3059082 199.29516602 C-64.6809082 198.29516602 -64.6809082 198.29516602 -66.6809082 196.35766602 C-68.24674633 191.56228674 -66.74526928 187.77777863 -64.6809082 183.29516602 C-61.69130509 179.70764228 -58.76621359 176.5539485 -53.97387695 175.95922852 C-47.6705008 175.87994077 -43.56978593 175.88325197 -38.6809082 180.29516602 C-37.8146582 181.03766602 -36.9484082 181.78016602 -36.0559082 182.54516602 C-29.1151645 190.58181661 -28.94696344 197.81669312 -29.6809082 208.29516602 C-30.70028056 217.90240138 -35.16248563 224.70512125 -42.5949707 230.75610352 C-54.73678969 239.71467408 -68.59238599 237.33172467 -82.6809082 235.29516602 C-84.0168175 235.10486375 -85.3527533 234.91474743 -86.6887207 234.72485352 C-87.67614258 234.58305664 -88.66356445 234.44125977 -89.6809082 234.29516602 C-87.93831265 241.43980778 -83.7851679 246.11893146 -77.7434082 250.10766602 C-69.25358402 254.94989219 -59.42973886 255.8803344 -49.90356445 253.64282227 C-38.34446168 249.38804984 -28.46590773 241.37283172 -22.9934082 230.29516602 C-21.03260924 225.64638437 -19.62737071 220.92104051 -18.3684082 216.04516602 C-18.19672119 215.38387695 -18.02503418 214.72258789 -17.84814453 214.04125977 C-16.8106183 209.72012809 -16.52584766 205.72874906 -16.6809082 201.29516602 C-15.6909082 201.29516602 -14.7009082 201.29516602 -13.6809082 201.29516602 C-13.29732002 217.46980104 -13.29732002 217.46980104 -15.6809082 225.29516602 C-15.87555664 226.02993164 -16.07020508 226.76469727 -16.27075195 227.52172852 C-18.02314594 233.5566001 -20.91665353 238.29687502 -24.6809082 243.29516602 C-25.2068457 244.0105957 -25.7327832 244.72602539 -26.2746582 245.46313477 C-30.61179313 250.9152407 -35.23241724 253.76559452 -41.6809082 256.29516602 C-42.45563477 256.61485352 -43.23036133 256.93454102 -44.02856445 257.26391602 C-53.49551189 260.50458265 -63.81321529 259.56312314 -73.6809082 259.29516602 C-72.25141154 263.94103016 -69.59049594 266.85153608 -66.1809082 270.17016602 C-65.38112549 270.95798462 -65.38112549 270.95798462 -64.56518555 271.76171875 C-59.97371178 276.19140552 -55.11494777 279.94057842 -49.6809082 283.29516602 C-48.6909082 283.93454102 -47.7009082 284.57391602 -46.6809082 285.23266602 C-41.66655255 287.00858364 -36.60016962 287.46503701 -31.57543945 285.45141602 C-29.46634986 284.20532716 -27.60049473 282.81656042 -25.6809082 281.29516602 C-24.95000977 280.7834082 -24.21911133 280.27165039 -23.46606445 279.74438477 C-10.78233274 269.96598647 -5.63344778 251.70648298 -3.4309082 236.54516602 C-2.78531425 231.0802698 -2.48804052 225.79189509 -2.6809082 220.29516602 C-1.1959082 220.79016602 -1.1959082 220.79016602 0.3190918 221.29516602 C0.39467244 225.16877105 0.4483481 229.04207608 0.48388672 232.91625977 C0.5059444 234.86302839 0.54411098 236.80959366 0.58276367 238.75610352 C0.67076584 250.25505377 -0.3654559 261.48431488 -6.3059082 271.54516602 C-6.91692383 272.60219727 -7.52793945 273.65922852 -8.1574707 274.74829102 C-8.66020508 275.58875977 -9.16293945 276.42922852 -9.6809082 277.29516602 C-10.0109082 277.95516602 -10.3409082 278.61516602 -10.6809082 279.29516602 C-9.73062744 279.23981689 -8.78034668 279.18446777 -7.80126953 279.12744141 C9.90196273 278.09801685 27.60350985 277.090592 45.3190918 276.29516602 C45.35667603 274.7833374 45.35667603 274.7833374 45.39501953 273.2409668 C45.49006937 269.4574986 45.59004084 265.67417296 45.69140625 261.89086914 C45.73439002 260.26167159 45.77608604 258.63243948 45.81640625 257.00317383 C46.03043218 248.38929061 46.28971635 239.8588777 47.3190918 231.29516602 C46.80137207 230.91166992 46.28365234 230.52817383 45.75024414 230.13305664 C44.51538086 229.2183431 43.28051758 228.30362956 42.0456543 227.38891602 C40.37814566 226.11678501 40.37814566 226.11678501 38.3190918 226.29516602 C35.96123208 221.72681282 35.89425068 217.32409922 36.3190918 212.29516602 C37.3190918 210.29516602 37.3190918 210.29516602 40.3190918 209.29516602 C40.3809668 210.34704102 40.4428418 211.39891602 40.5065918 212.48266602 C41.47333638 217.01892904 42.73076012 218.44081128 46.3190918 221.29516602 C49.98237038 223.47333166 53.11487525 223.588944 57.32299805 222.88891602 C60.92245145 221.81823712 62.84539006 220.06335606 65.3190918 217.29516602 C66.358917 214.59561982 66.83131148 212.17306989 67.3190918 209.29516602 C68.3090918 209.29516602 69.2990918 209.29516602 70.3190918 209.29516602 C70.42774124 211.35648743 70.504975 213.41947923 70.5690918 215.48266602 C70.61549805 216.6312207 70.6619043 217.77977539 70.7097168 218.96313477 C70.23773224 222.989163 69.17900862 224.47497025 66.3190918 227.29516602 C64.1784668 228.65844727 64.1784668 228.65844727 62.0690918 229.60766602 C61.36268555 229.93379883 60.6562793 230.25993164 59.9284668 230.59594727 C59.39737305 230.82668945 58.8662793 231.05743164 58.3190918 231.29516602 C58.48151367 232.00157227 58.64393555 232.70797852 58.8112793 233.43579102 C61.16572673 246.69314118 58.89080961 262.0027268 58.3190918 275.29516602 C74.8190918 275.29516602 91.3190918 275.29516602 108.3190918 275.29516602 C107.9890918 272.32516602 107.6590918 269.35516602 107.3190918 266.29516602 C105.6613022 235.89230949 111.60008603 215.75781761 131.3190918 192.29516602 C131.94428711 191.46500977 132.56948242 190.63485352 133.21362305 189.77954102 C144.86094675 176.03613122 164.36663619 166.6802482 180.5690918 159.35766602 C188.5886987 155.40901425 196.68399187 148.2380707 202.3190918 141.29516602 C202.3190918 140.63516602 202.3190918 139.97516602 202.3190918 139.29516602 C202.9790918 139.29516602 203.6390918 139.29516602 204.3190918 139.29516602 C208.53415644 132.51497029 211.89467632 126.46846627 211.3190918 118.29516602 C210.19811817 114.33439255 208.45882967 112.07879935 205.2565918 109.60766602 C193.29097496 103.02403208 177.02977595 103.84555013 163.7565918 104.04516602 C162.09717206 104.06320608 160.4377481 104.08086072 158.77832031 104.09814453 C155.49221435 104.13547776 152.20651353 104.18442797 148.9206543 104.23901367 C144.76961176 104.3012448 140.62644973 104.26664514 136.4753418 104.21313477 C134.23575331 104.21752642 131.99616732 104.22387076 129.7565918 104.23266602 C128.75362061 104.20462891 127.75064941 104.1765918 126.71728516 104.14770508 C123.97486205 104.19688787 121.88291749 104.31684081 119.3190918 105.29516602 C117.55588648 107.38386048 116.53704117 109.40746092 115.42285156 111.89990234 C113.74923959 115.53179951 111.2268481 118.22262993 108.5690918 121.17016602 C107.50938396 122.37361299 106.4508022 123.57805242 105.39331055 124.78344727 C104.61479736 125.66637451 104.61479736 125.66637451 103.82055664 126.56713867 C100.89986927 129.92854115 98.13510452 133.41541214 95.35424805 136.89282227 C84.98447337 149.13353518 71.79932309 161.24272243 56.3190918 166.29516602 C38.47725926 165.37310749 21.60687176 145.4697168 10.3190918 133.29516602 C7.87791746 130.51886061 5.56301976 127.64997477 3.2722168 124.74829102 C0.96654977 121.85237323 -1.49195204 119.12506757 -3.99414062 116.39892578 C-5.6809082 114.29516602 -5.6809082 114.29516602 -6.79833984 112.00292969 C-8.16333063 109.25325663 -9.41989105 107.38832567 -11.6809082 105.29516602 C-16.53382708 103.82868694 -21.39793669 103.79726507 -26.4309082 103.73266602 C-27.89031787 103.68466506 -29.34963175 103.63366807 -30.80883789 103.57983398 C-34.64983556 103.45183202 -38.48958289 103.38420798 -42.33227539 103.33233643 C-44.67046367 103.29533132 -47.00735425 103.23874742 -49.3449707 103.17553711 C-53.14481254 103.07390318 -56.94412224 102.9995958 -60.74499512 102.94973755 C-62.18053582 102.93031723 -63.61602136 102.9061155 -65.0513916 102.87667847 C-75.77647477 102.68582549 -87.96048791 102.82609355 -95.8059082 111.10766602 Z M217.3190918 126.29516602 C214.46408329 129.47959858 212.50843511 132.76715568 210.5690918 136.54516602 C202.76499219 151.02740062 189.62095192 159.5043952 175.30319214 166.81262207 C172.21413274 168.39453783 169.14908004 170.02151445 166.0847168 171.65063477 C165.48932602 171.96710968 164.89393524 172.28358459 164.28050232 172.60964966 C139.90986657 185.64384195 122.60897955 205.44369969 114.15893555 231.93188477 C110.82878665 246.0114445 111.72354571 261.02532234 113.3190918 275.29516602 C116.6190918 275.29516602 119.9190918 275.29516602 123.3190918 275.29516602 C123.41706055 273.79469727 123.5150293 272.29422852 123.6159668 270.74829102 C125.65188122 241.94246931 130.10547218 211.91964884 152.99536133 191.82348633 C159.68877819 186.17620516 166.49852929 181.26342508 174.3190918 177.29516602 C193.3041535 167.39843708 212.71686504 154.31308706 220.3190918 133.29516602 C220.74499089 129.87362146 220.74499089 129.87362146 220.3190918 127.29516602 C219.3290918 126.96516602 218.3390918 126.63516602 217.3190918 126.29516602 Z M213.3815918 154.79516602 C202.65179332 164.5185128 190.17827318 172.32533088 177.9675293 180.06079102 C150.07303751 197.7584269 138.02714579 215.81121813 130.54174805 247.59594727 C128.71789632 257.00808721 128.67796668 266.73776134 128.3190918 276.29516602 C130.9590918 276.29516602 133.5990918 276.29516602 136.3190918 276.29516602 C136.38378662 275.59133789 136.44848145 274.88750977 136.51513672 274.16235352 C137.83120864 260.31705093 139.27907369 247.31521278 144.3190918 234.29516602 C144.72643555 233.14661133 145.1337793 231.99805664 145.5534668 230.81469727 C151.20243272 216.11077126 160.38878941 203.33679968 173.3190918 194.29516602 C174.51598633 193.38250977 174.51598633 193.38250977 175.73706055 192.45141602 C182.46455722 187.44694867 189.78113888 183.89576895 197.3190918 180.29516602 C199.17596328 179.40495273 201.03047125 178.50977693 202.8815918 177.60766602 C203.62538086 177.25317383 204.36916992 176.89868164 205.13549805 176.53344727 C210.40429419 173.54559686 213.25986242 170.30693988 216.1315918 164.98266602 C217.03844727 163.3487793 217.03844727 163.3487793 217.96362305 161.68188477 C219.44998526 157.96812097 219.57522394 155.25768097 219.3190918 151.29516602 C216.38360343 151.29516602 215.49750638 152.80551758 213.3815918 154.79516602 Z M212.90893555 176.54516602 C212.09102539 177.41141602 212.09102539 177.41141602 211.2565918 178.29516602 C207.0900489 182.12221282 202.65241519 184.12357778 197.5065918 186.29516602 C182.61021154 192.63292618 166.97925746 202.1324286 158.3190918 216.29516602 C157.80934814 217.08455566 157.80934814 217.08455566 157.28930664 217.88989258 C146.79044252 234.27116247 143.89158824 250.97753204 142.50854492 270.13745117 C142.26711463 272.88714309 141.83212893 275.58403012 141.3190918 278.29516602 C145.42132765 279.31056714 145.42132765 279.31056714 149.3190918 278.29516602 C149.81703577 275.31053839 150.2138583 272.35974819 150.5690918 269.35766602 C153.28057402 249.50663103 160.53013776 227.79453627 176.4128418 214.54907227 C182.64543375 209.88501596 189.50262212 206.60969195 196.46362305 203.20532227 C208.75190331 197.20297227 208.75190331 197.20297227 216.6315918 186.42016602 C217.47621176 182.58098438 217.45446597 179.22101692 217.3190918 175.29516602 C214.37918349 174.96349907 214.37918349 174.96349907 212.90893555 176.54516602 Z M191.6940918 210.98266602 C190.99413086 211.32233398 190.29416992 211.66200195 189.57299805 212.01196289 C174.7890304 219.34908969 167.08835222 231.12233706 161.3190918 246.29516602 C157.69891561 257.21054574 157.21925505 268.90010119 156.3190918 280.29516602 C166.1132485 279.04556671 172.60456727 267.53427451 178.3190918 260.29516602 C179.13893555 259.27616211 179.13893555 259.27616211 179.9753418 258.23657227 C187.57087411 248.51994716 192.51701536 238.12666615 196.2565918 226.42016602 C196.65426758 225.23680664 197.05194336 224.05344727 197.46166992 222.83422852 C199.22435246 217.44606296 200.55393371 213.01125015 200.3190918 207.29516602 C197.53632352 207.29516602 194.21430612 209.73154358 191.6940918 210.98266602 Z M53.69152832 284.31408691 C33.27430639 284.43311346 13.02294149 285.13223422 -7.3059082 287.10766602 C-8.13050537 287.18448608 -8.95510254 287.26130615 -9.8046875 287.3404541 C-19.95244523 288.31211345 -29.67515998 289.33364582 -37.6809082 296.29516602 C-37.8922535 298.68639552 -37.8922535 298.68639552 -36.6809082 301.29516602 C-24.34941487 310.22379157 -3.03602596 309.39834627 11.4440918 310.48266602 C13.14234604 310.6119902 13.14234604 310.6119902 14.87490845 310.743927 C82.16027599 317.16055815 82.16027599 317.16055815 146.3190918 301.29516602 C148.74593901 298.94935923 148.74593901 298.94935923 150.3190918 296.29516602 C149.79191369 292.52960811 149.08255739 290.88897259 146.0690918 288.54516602 C135.54437281 283.76120284 124.77270895 284.14469792 113.4206543 284.16235352 C111.9589739 284.16116699 110.49729374 284.15964353 109.03561401 284.1578064 C104.33842077 284.15406776 99.64127619 284.16164339 94.9440918 284.17016602 C93.32568364 284.17243846 91.70727544 284.1746763 90.08886719 284.17687988 C77.9562515 284.19540699 65.82397615 284.25080565 53.69152832 284.31408691 Z " fill="#000000" transform="translate(212.680908203125,95.704833984375)"/>
<path d="M0 0 C4.08541159 0.18461773 5.6471836 0.64343023 8.5703125 3.59765625 C9.43856437 4.74011065 10.2891996 5.89609481 11.125 7.0625 C11.58946533 7.67939697 12.05393066 8.29629395 12.5324707 8.93188477 C14.04017881 10.94157542 15.5224405 12.96805827 17 15 C28.05059115 30.15130087 38.97402304 43.22532808 58 48 C57.62230469 47.52433594 57.24460938 47.04867187 56.85546875 46.55859375 C54.88512506 44.05298105 52.9410752 41.52837487 51 39 C50.53964355 38.40541992 50.07928711 37.81083984 49.60498047 37.19824219 C48.09943425 35.24534215 46.61105665 33.28025901 45.125 31.3125 C44.63668701 30.68335693 44.14837402 30.05421387 43.64526367 29.40600586 C40.82193832 25.63080801 39.34235763 22.84510479 39 18 C40.32 17.34 41.64 16.68 43 16 C50.3298806 23.98835687 57.28637911 32.21481821 63.94140625 40.7734375 C64.68801514 41.7320166 64.68801514 41.7320166 65.44970703 42.70996094 C66.42714214 43.96808384 67.40089811 45.22907536 68.37060547 46.49316406 C71.46038589 50.68120652 71.46038589 50.68120652 76.16650391 52.30322266 C83.23749973 52.92429758 90.27758552 53.27728841 97.375 53.375 C98.95474609 53.43107422 98.95474609 53.43107422 100.56640625 53.48828125 C106.64521265 53.62689882 106.64521265 53.62689882 111.8828125 50.875 C112.58148438 49.92625 113.28015625 48.9775 114 48 C114.87795942 46.98568449 115.76379879 45.97815101 116.65625 44.9765625 C117.60582221 43.86078181 118.55366421 42.74352693 119.5 41.625 C120.55202568 40.39448196 121.60411125 39.16401511 122.65625 37.93359375 C124.96162399 35.22873997 127.24943046 32.50989505 129.53125 29.78515625 C130.68733788 28.41913361 131.84358378 27.05324469 133 25.6875 C133.53947266 25.03539551 134.07894531 24.38329102 134.63476562 23.71142578 C135.14716797 23.10927246 135.65957031 22.50711914 136.1875 21.88671875 C136.63480469 21.35264404 137.08210937 20.81856934 137.54296875 20.26831055 C139.29794384 18.74064708 140.73261947 18.39721642 143 18 C143.93518785 21.02719768 144.22422013 22.49489761 142.91796875 25.4375 C142.34691406 26.283125 141.77585937 27.12875 141.1875 28 C140.54941406 28.94875 139.91132813 29.8975 139.25390625 30.875 C136.36269268 34.883615 133.37414857 38.80980629 130.28979492 42.671875 C128.34683312 45.12342781 126.99904428 47.00286716 126 50 C143.49900937 41.7335968 154.69331543 32.29596536 165.96826172 16.4921875 C168.25853731 13.29511518 170.60591859 10.15449225 173.0859375 7.1015625 C173.54790527 6.53002441 174.00987305 5.95848633 174.48583984 5.36962891 C176.28976653 3.73789258 177.60434177 3.31042157 180 3 C181 4 181 4 181.0625 7.5625 C178.9625578 24.44280462 164.96425743 40.67050355 152.5 51.08984375 C144.61324517 56.92649044 136.05294453 59.68255733 126.7578125 62.5546875 C125.92958984 62.81145264 125.10136719 63.06821777 124.24804688 63.33276367 C122.42297199 63.8744589 120.57681607 64.34475697 118.7265625 64.79296875 C114.84967153 66.50924283 112.85130506 69.1655765 110.25 72.4375 C109.20280713 73.70003574 108.15461456 74.9617429 107.10546875 76.22265625 C106.58645996 76.85445801 106.06745117 77.48625977 105.53271484 78.13720703 C103.24530922 80.91721737 100.92565951 83.6586029 98.5625 86.375 C97.80066406 87.26960938 97.03882813 88.16421875 96.25390625 89.0859375 C94 91 94 91 91.41796875 91.49609375 C88.41630354 90.88024321 87.63943796 90.06838268 85.75 87.6875 C85.15832031 86.96046875 84.56664062 86.2334375 83.95703125 85.484375 C83.31121094 84.66453125 82.66539062 83.8446875 82 83 C79.70771987 80.19965778 77.40996671 77.40425746 75.1015625 74.6171875 C73 72 73 72 71.5859375 69.8828125 C67.76610907 64.42256695 63.01804511 63.5187781 56.7265625 61.94921875 C34.85508172 56.37818119 20.02418098 43.49661855 8.6015625 24.53198242 C3.91865141 16.46827774 0.59467816 9.36618103 0 0 Z M83 67 C83.928125 68.27875 84.85625 69.5575 85.8125 70.875 C86.59560547 71.95394531 86.59560547 71.95394531 87.39453125 73.0546875 C89.03272777 75.23028655 89.03272777 75.23028655 92 77 C93.14842923 75.71064081 94.29366227 74.41843421 95.4375 73.125 C96.07558594 72.40570313 96.71367187 71.68640625 97.37109375 70.9453125 C99.05014465 69.09249509 99.05014465 69.09249509 100 67 C94.39 67 88.78 67 83 67 Z " fill="#000000" transform="translate(175,220)"/>
<path d="M0 0 C8.1954219 1.01291731 15.83115797 9.5836927 21.68359375 14.93359375 C24.24151687 17.21545097 26.88848421 19.35563796 29.5625 21.5 C37.13208694 27.65490821 43.75556853 34.51543611 50 42 C50.57234375 42.67160156 51.1446875 43.34320313 51.734375 44.03515625 C55.1204858 48.21942174 57.30016409 51.39693706 57 57 C54.04685893 63.47620181 49.13451019 68.1127364 43.9375 72.8125 C43.18815186 73.5024707 42.43880371 74.19244141 41.66674805 74.90332031 C40.15790946 76.29103246 38.64567502 77.67506242 37.12988281 79.05517578 C35.21604329 80.80272801 33.31892 82.56578197 31.4296875 84.33984375 C26.8127552 88.65210184 22.27912533 92.50517879 17 96 C15.91686672 96.85835703 14.84415861 97.73000339 13.78125 98.61328125 C12.97107422 99.2774707 12.97107422 99.2774707 12.14453125 99.95507812 C11.03852749 100.86799097 9.94222345 101.79277078 8.85546875 102.72851562 C6.04672927 104.99762855 4.47965155 106.00294626 0.8203125 105.98046875 C-2.05731855 104.98007347 -3.47873003 104.11686901 -5.625 102 C-8.94250744 98.89262259 -12.38857078 96.17862005 -16.0625 93.5 C-20.18880032 90.44674512 -23.88879126 87.33918099 -27.41796875 83.62109375 C-29.07419958 81.92396833 -30.81106873 80.40149891 -32.625 78.875 C-38.30820641 74.07584792 -43.20841909 68.67230912 -48 63 C-48.59941406 62.31292969 -49.19882813 61.62585938 -49.81640625 60.91796875 C-50.37199219 60.24378906 -50.92757812 59.56960937 -51.5 58.875 C-52.0053125 58.27429688 -52.510625 57.67359375 -53.03125 57.0546875 C-54.51883276 53.89957246 -54.07104214 52.30939988 -53 49 C-51.15952697 46.31218414 -49.01886202 43.9537391 -46.8125 41.5625 C-45.67302947 40.29310124 -44.5337059 39.02357055 -43.39453125 37.75390625 C-42.83008301 37.13378662 -42.26563477 36.51366699 -41.68408203 35.87475586 C-40.01799986 34.02003782 -38.40174284 32.13105606 -36.79296875 30.2265625 C-34.81557123 27.90835796 -32.83625271 25.7795807 -30.5 23.8125 C-27.89916734 21.60950025 -25.3119785 19.39796381 -22.76171875 17.13671875 C-15.82278487 11.02515255 -8.94226104 5.76535663 -1 1 C-0.67 0.67 -0.34 0.34 0 0 Z M-6.5625 20.625 C-10.62768341 23.62314451 -14.6207489 26.44957012 -19.0625 28.875 C-25.85761768 32.81256819 -31.52688713 38.41630088 -37 44 C-37.5057959 44.50660156 -38.0115918 45.01320313 -38.53271484 45.53515625 C-40.69792675 47.86979356 -41.9923544 49.28895914 -42.02734375 52.54296875 C-38.60089366 60.73778664 -32.56675229 66.79708162 -25.5703125 72.0390625 C-22.90934239 74.06916432 -20.4644175 76.23644411 -18 78.5 C-11.94422898 84.02087642 -5.57192173 89.10856967 1 94 C7.37187545 91.05913441 12.63122177 86.76282631 17.875 82.1875 C18.48923828 81.65632568 19.10347656 81.12515137 19.73632812 80.57788086 C23.6202748 77.21531403 27.49715326 73.84375518 31.3359375 70.4296875 C32.87260019 69.10945617 34.49648238 67.89260304 36.125 66.6875 C39.99538365 63.06953267 42.94974786 58.90624539 45 54 C44.34225152 49.52742146 41.56546652 46.92330189 38.5625 43.75 C38.01827393 43.17080811 37.47404785 42.59161621 36.91333008 41.99487305 C28.98402196 33.69719094 19.88415438 27.44471065 10.3203125 21.19921875 C7 19 7 19 4.7421875 17.20703125 C0.29873575 14.12849629 -2.9809835 17.93276998 -6.5625 20.625 Z " fill="#000000" transform="translate(265,144)"/>
<path d="M0 0 C8.11097411 5.22194821 8.11097411 5.22194821 10 9 C10.40282133 14.23667727 9.83087029 17.55148954 7 22 C4.18627579 25.02214822 1.1709634 25.70172346 -2.9140625 26.05859375 C-8.01130571 25.91541276 -11.25680824 23.69472274 -14.875 20.3125 C-17.57836603 16.09842943 -18.07934608 13.99880295 -18 9 C-14.81484388 2.90665785 -6.83174133 -1.53365622 0 0 Z M-9 11 C-7.21092278 14.75151144 -7.21092278 14.75151144 -3.8125 16.8125 C-3.214375 16.874375 -2.61625 16.93625 -2 17 C0.29013653 13.5647952 0.17842973 12.014669 0 8 C-4.27709699 8 -5.55930376 8.70620251 -9 11 Z " fill="#000000" transform="translate(140,248)"/>
<path d="M0 0 C-1.08970196 10.35984258 -9.57099595 20.03921049 -17 27 C-20.1603949 28.89144846 -22.31809382 29.20455034 -26 29 C-27.20804586 26.25444123 -26.96387167 24.86382399 -26.1875 21.9375 C-21.93000676 12.93870748 -10.52255682 0 0 0 Z " fill="#000000" transform="translate(253,334)"/>
<path d="M0 0 C8.73445347 1.02295401 15.37004327 8.92324733 20.625 15.4375 C24.39966361 20.35996948 25.11660471 22.70334565 25 29 C22.03184502 29.51942712 19.85448773 29.46558626 17.171875 28.00390625 C12.20049548 24.11370073 8.91096494 19.20658482 5.5625 13.9375 C5.12518555 13.25300781 4.68787109 12.56851562 4.23730469 11.86328125 C1.82908549 7.91250518 0.4037506 4.70552971 0 0 Z " fill="#000000" transform="translate(278,334)"/>
<path d="M0 0 C2.89024914 2.31219931 4.62172335 4.05430838 6 7.5 C6 10.88220383 5.08561071 12.35822644 3 15 C0.28575479 17.12738138 -1.5239277 17.92909561 -4.9375 18.4375 C-9.06646393 17.84764801 -12.04904319 15.95095681 -15 13 C-15.38684641 8.97679738 -15.41652015 6.69420025 -13.3125 3.1875 C-9.06798265 -0.82758398 -5.63479356 -1.76087299 0 0 Z M-5 7 C-5.33 7.66 -5.66 8.32 -6 9 C-5.34 9 -4.68 9 -4 9 C-4.33 8.34 -4.66 7.68 -5 7 Z " fill="#000000" transform="translate(137,222)"/>
<path d="M0 0 C12.37381294 1.32010807 21.8051242 10.29701584 30 19 C30 19.66 30 20.32 30 21 C19.29476485 20.30933967 11.17268805 16.94866795 3 10 C2.175 9.319375 1.35 8.63875 0.5 7.9375 C-1 6 -1 6 -1.3125 3.3125 C-1 1 -1 1 0 0 Z " fill="#000000" transform="translate(166,153)"/>
<path d="M0 0 C5.09334325 0.27152014 8.20285719 3.10840663 12 6.1875 C12.90492188 6.89229492 12.90492188 6.89229492 13.828125 7.61132812 C19.59474267 12.20581808 24.08783738 17.10277275 27 24 C27 24.99 27 25.98 27 27 C18.63558226 24.41101356 13.29672941 20.8205703 7.1875 14.6875 C6.50751953 14.03587891 5.82753906 13.38425781 5.12695312 12.71289062 C2.09074379 9.6887898 0.22221928 7.75074082 -1.01171875 3.58203125 C-1 1 -1 1 0 0 Z " fill="#000000" transform="translate(191,129)"/>
<path d="M0 0 C1.04027344 0.38478516 1.04027344 0.38478516 2.1015625 0.77734375 C0.9185508 9.43279647 -7.27117344 15.67529525 -13.8984375 20.77734375 C-17.77979633 23.09123074 -19.34117928 23.77734375 -23.8984375 23.77734375 C-23.76587333 18.47477708 -21.74518424 15.73341133 -18.265625 12.015625 C-15.36894505 9.27668505 -12.38214767 6.70918432 -9.2734375 4.21484375 C-8.72333008 3.76077148 -8.17322266 3.30669922 -7.60644531 2.83886719 C-4.8933733 0.74321915 -3.48478637 -0.26769922 0 0 Z " fill="#000000" transform="translate(338.8984375,133.22265625)"/>
<path d="M0 0 C-0.68263894 5.11104026 -2.39802589 7.06711206 -6.28125 10.2890625 C-13.29171916 14.70082327 -21.87235665 16.82461773 -30 18 C-29.56423901 13.60185422 -26.95566816 11.84635403 -23.6875 9.125 C-7.59864276 -4.02686694 -7.59864276 -4.02686694 0 0 Z " fill="#000000" transform="translate(366,160)"/>
<path d="M0 0 C2.1875 -0.3125 2.1875 -0.3125 5 0 C11.96974215 5.77978617 14.77878663 12.48534873 17 21 C13.08995482 19.65289963 10.44505891 17.946333 7.375 15.1875 C6.61960938 14.52105469 5.86421875 13.85460937 5.0859375 13.16796875 C1.89492804 9.85147016 0.07533575 7.33093157 -0.1875 2.6875 C-0.125625 1.800625 -0.06375 0.91375 0 0 Z " fill="#000000" transform="translate(223,116)"/>
<path d="M0 0 C0.5775 0.226875 1.155 0.45375 1.75 0.6875 C1.62596977 6.64095085 -0.21395383 9.57077893 -4.26171875 13.88671875 C-7.05679128 16.4182088 -9.86913212 18.03156471 -13.25 19.6875 C-12.99393222 12.64563615 -10.79111322 8.07940726 -6.25 2.6875 C-2.70918849 -0.37627618 -2.70918849 -0.37627618 0 0 Z " fill="#000000" transform="translate(306.25,118.3125)"/>
<path d="M0 0 C2.430466 2.430466 2.76271993 3.5989856 3 7 C2 9.75 2 9.75 0 12 C-3.4375 13.0625 -3.4375 13.0625 -7 13 C-9.5 11.4375 -9.5 11.4375 -11 9 C-11.0625 5.9375 -11.0625 5.9375 -10 3 C-6.76572398 0.30476998 -4.18186848 -0.56511736 0 0 Z " fill="#000000" transform="translate(143,203)"/>
<path d="M0 0 C0 0.66 0 1.32 0 2 C-4.18772701 1.86027432 -8.37511607 1.71212919 -12.5625 1.5625 C-14.33463867 1.50352539 -14.33463867 1.50352539 -16.14257812 1.44335938 C-21.83013123 1.2362496 -27.38995814 0.98031568 -33 0 C-33 -0.33 -33 -0.66 -33 -1 C-21.62465046 -2.49184912 -11.30528884 -2.0130244 0 0 Z " fill="#000000" transform="translate(175,202)"/>
<path d="M0 0 C1.98 0.99 3.96 1.98 6 3 C6 3.66 6 4.32 6 5 C7.05960937 5.34933594 8.11921875 5.69867188 9.2109375 6.05859375 C10.59898459 6.51814988 11.98700399 6.97778964 13.375 7.4375 C14.07367188 7.66759766 14.77234375 7.89769531 15.4921875 8.13476562 C20.7734375 9.88671875 20.7734375 9.88671875 23 11 C23 11.66 23 12.32 23 13 C6.76569038 9.56903766 6.76569038 9.56903766 1 5 C0.23046875 2.3359375 0.23046875 2.3359375 0 0 Z " fill="#000000" transform="translate(118,313)"/>
<path d="M0 0 C0.66 0.66 1.32 1.32 2 2 C-0.71576573 5.08565497 -4.08655828 7.07287319 -7.5625 9.1875 C-8.15224609 9.55552734 -8.74199219 9.92355469 -9.34960938 10.30273438 C-13.74830415 13 -13.74830415 13 -16 13 C-14.6551963 8.96558889 -12.04690097 7.87332753 -8.5625 5.8125 C-7.96373047 5.44447266 -7.36496094 5.07644531 -6.74804688 4.69726562 C-2.27929325 2 -2.27929325 2 0 2 C0 1.34 0 0.68 0 0 Z " fill="#000000" transform="translate(375,272)"/>
<path d="M0 0 C0 0.33 0 0.66 0 1 C-0.90363281 1.27714844 -1.80726563 1.55429688 -2.73828125 1.83984375 C-3.91777344 2.20207031 -5.09726563 2.56429687 -6.3125 2.9375 C-8.07013672 3.47697266 -8.07013672 3.47697266 -9.86328125 4.02734375 C-11.91553977 4.66372279 -13.96160137 5.32053379 -16 6 C-16.66 5.34 -17.32 4.68 -18 4 C-6.66287016 -1.92482916 -6.66287016 -1.92482916 0 0 Z " fill="#000000" transform="translate(132,192)"/>
<path d="M0 0 C1.94343258 1.07265426 3.87955399 2.15856192 5.8125 3.25 C6.89144531 3.85328125 7.97039062 4.4565625 9.08203125 5.078125 C11.80165849 6.86936543 13.28343286 8.27758474 15 11 C9.23327335 9.35236381 3.87000413 6.73000505 0 2 C0 1.34 0 0.68 0 0 Z " fill="#000000" transform="translate(127,335)"/>
<path d="M0 0 C0 0.66 0 1.32 0 2 C-1.78614318 3.03046722 -3.57910018 4.04913236 -5.375 5.0625 C-6.87160156 5.91521484 -6.87160156 5.91521484 -8.3984375 6.78515625 C-9.25695312 7.18605469 -10.11546875 7.58695312 -11 8 C-11.66 7.67 -12.32 7.34 -13 7 C-9.67790929 3.14637478 -5.30135789 0 0 0 Z " fill="#000000" transform="translate(407,296)"/>
<path d="M0 0 C0.66 0 1.32 0 2 0 C1.67 6.6 1.34 13.2 1 20 C0.67 20 0.34 20 0 20 C-0.74464946 13.12631267 -1.18225237 6.83079148 0 0 Z " fill="#000000" transform="translate(100,225)"/>
<path d="M0 0 C0.625 1.8125 0.625 1.8125 1 4 C0.01 5.485 0.01 5.485 -1 7 C-1.66 7 -2.32 7 -3 7 C-3.103125 7.598125 -3.20625 8.19625 -3.3125 8.8125 C-4.08876455 11.28243264 -5.07088921 12.32251235 -7 14 C-5.53967505 8.68972746 -3.01679014 4.53669968 0 0 Z " fill="#000000" transform="translate(398,339)"/>
<path d="M0 0 C0.33 0 0.66 0 1 0 C0.67 3.96 0.34 7.92 0 12 C-0.66 11.67 -1.32 11.34 -2 11 C-2.05399736 9.54207116 -2.09279177 8.08357288 -2.125 6.625 C-2.15980469 5.40683594 -2.15980469 5.40683594 -2.1953125 4.1640625 C-2 2 -2 2 0 0 Z " fill="#000000" transform="translate(194,297)"/>
<path d="M0 0 C-1.40742064 3.51855159 -2.66466523 4.38612834 -6 6 C-6.33 6.99 -6.66 7.98 -7 9 C-7.66 8.67 -8.32 8.34 -9 8 C-4.67567568 0 -4.67567568 0 0 0 Z " fill="#000000" transform="translate(177,123)"/>
<path d="M0 0 C0.5775 0.226875 1.155 0.45375 1.75 0.6875 C1.028125 1.079375 0.30625 1.47125 -0.4375 1.875 C-3.477326 3.83399898 -5.77127727 6.06713597 -8.25 8.6875 C-7.38540574 5.44527151 -6.73278055 3.18637323 -4.375 0.75 C-2.25 -0.3125 -2.25 -0.3125 0 0 Z " fill="#000000" transform="translate(354.25,212.3125)"/>
<path d="M0 0 C0.86625 0.37125 0.86625 0.37125 1.75 0.75 C1.0075 1.1625 0.265 1.575 -0.5 2 C-3.15171685 3.68745618 -5.11674014 5.45872089 -7.25 7.75 C-6.66524269 3.65669884 -4.62230386 -0.51358932 0 0 Z " fill="#000000" transform="translate(159.25,278.25)"/>
<path d="M0 0 C2.64 0.33 5.28 0.66 8 1 C7.67 1.66 7.34 2.32 7 3 C4.67843403 3.40729228 2.3431213 3.74438677 0 4 C0 2.68 0 1.36 0 0 Z " fill="#000000" transform="translate(366,187)"/>
<path d="M0 0 C1.98 0 3.96 0 6 0 C5.34 1.65 4.68 3.3 4 5 C3.01 4.67 2.02 4.34 1 4 C0.3125 1.9375 0.3125 1.9375 0 0 Z " fill="#000000" transform="translate(264,205)"/>
<path d="M0 0 C0.66 0 1.32 0 2 0 C1.67 2.31 1.34 4.62 1 7 C0.34 7 -0.32 7 -1 7 C-1.04254356 5.00045254 -1.04080783 2.99958364 -1 1 C-0.67 0.67 -0.34 0.34 0 0 Z " fill="#000000" transform="translate(427,272)"/>
<path d="M0 0 C0.66 0 1.32 0 2 0 C1.25 4.75 1.25 4.75 -1 7 C-0.67 4.69 -0.34 2.38 0 0 Z " fill="#000000" transform="translate(410,305)"/>
<path d="M0 0 C0 0.66 0 1.32 0 2 C-1.65 2.66 -3.3 3.32 -5 4 C-5 3.01 -5 2.02 -5 1 C-3 0 -3 0 0 0 Z " fill="#000000" transform="translate(360,184)"/>
<path d="M0 0 C0.99 0 1.98 0 3 0 C3 0.99 3 1.98 3 3 C1.68 3.33 0.36 3.66 -1 4 C-0.67 2.68 -0.34 1.36 0 0 Z " fill="#000000" transform="translate(352,393)"/>
<path d="M0 0 C0 0.99 0 1.98 0 3 C-1.98 3.99 -1.98 3.99 -4 5 C-3 2 -3 2 0 0 Z " fill="#000000" transform="translate(340,286)"/>
<path d="M0 0 C1.32 0.33 2.64 0.66 4 1 C3.67 1.66 3.34 2.32 3 3 C2.01 2.67 1.02 2.34 0 2 C0 1.34 0 0.68 0 0 Z " fill="#000000" transform="translate(196,294)"/>
<path d="M0 0 C0.66 0 1.32 0 2 0 C2.33 1.32 2.66 2.64 3 4 C2.01 3.34 1.02 2.68 0 2 C0 1.34 0 0.68 0 0 Z " fill="#000000" transform="translate(181,211)"/>
<path d="M0 0 C0.99 0 1.98 0 3 0 C3 0.66 3 1.32 3 2 C2.01 2 1.02 2 0 2 C0 1.34 0 0.68 0 0 Z " fill="#000000" transform="translate(317,402)"/>
<path d="M0 0 C0.66 0 1.32 0 2 0 C2 0.99 2 1.98 2 3 C1.34 3 0.68 3 0 3 C0 2.01 0 1.02 0 0 Z " fill="#000000" transform="translate(107,202)"/>
<path d="M0 0 C0.99 0 1.98 0 3 0 C3 0.66 3 1.32 3 2 C2.01 2 1.02 2 0 2 C0 1.34 0 0.68 0 0 Z " fill="#000000" transform="translate(219,161)"/>
<path d="M0 0 C0.66 0.33 1.32 0.66 2 1 C0.02 1.99 0.02 1.99 -2 3 C-1.34 2.01 -0.68 1.02 0 0 Z " fill="#000000" transform="translate(119,139)"/>
<path d="M0 0 C0.66 0.33 1.32 0.66 2 1 C1.01 1.66 0.02 2.32 -1 3 C-0.67 2.01 -0.34 1.02 0 0 Z " fill="#000000" transform="translate(334,294)"/>
<path d="M0 0 C0.33 1.32 0.66 2.64 1 4 C0.34 3.01 -0.32 2.02 -1 1 C-0.67 0.67 -0.34 0.34 0 0 Z " fill="#000000" transform="translate(173,286)"/>
<path d="M0 0 C0.99 0.495 0.99 0.495 2 1 C2 1.66 2 2.32 2 3 C1.34 3 0.68 3 0 3 C0 2.01 0 1.02 0 0 Z " fill="#000000" transform="translate(311,162)"/>
<path d="M0 0 C0.66 0.33 1.32 0.66 2 1 C1.01 1.66 0.02 2.32 -1 3 C-0.67 2.01 -0.34 1.02 0 0 Z " fill="#000000" transform="translate(118,121)"/>
<path d="M0 0 C0.66 0 1.32 0 2 0 C2 0.66 2 1.32 2 2 C1.34 2 0.68 2 0 2 C0 1.34 0 0.68 0 0 Z " fill="#000000" transform="translate(372,393)"/>
<path d="M0 0 C0 3 0 3 0 3 Z " fill="#000000" transform="translate(350,393)"/>
<path d="M0 0 C0.99 0.495 0.99 0.495 2 1 C1.34 1.66 0.68 2.32 0 3 C0 2.01 0 1.02 0 0 Z " fill="#000000" transform="translate(400,335)"/>
<path d="M0 0 C0.99 0.33 1.98 0.66 3 1 C2.01 1 1.02 1 0 1 C0 0.67 0 0.34 0 0 Z " fill="#000000" transform="translate(128,304)"/>
<path d="M0 0 C0.66 0.33 1.32 0.66 2 1 C1.01 1 0.02 1 -1 1 C-0.67 0.67 -0.34 0.34 0 0 Z " fill="#000000" transform="translate(415,260)"/>
<path d="M0 0 C0 3 0 3 0 3 Z " fill="#000000" transform="translate(140,237)"/>
<path d="M0 0 C0.99 0.495 0.99 0.495 2 1 C1.67 1.66 1.34 2.32 1 3 C0.67 2.01 0.34 1.02 0 0 Z " fill="#000000" transform="translate(179,208)"/>
<path d="M0 0 C0.99 0.495 0.99 0.495 2 1 C1.34 1.66 0.68 2.32 0 3 C0 2.01 0 1.02 0 0 Z " fill="#000000" transform="translate(107,206)"/>
<path d="M0 0 C0 3 0 3 0 3 Z " fill="#000000" transform="translate(108,151)"/>
<path d="M0 0 C0.66 0.66 1.32 1.32 2 2 C1.34 2 0.68 2 0 2 C0 1.34 0 0.68 0 0 Z " fill="#000000" transform="translate(160,384)"/>
<path d="M0 0 C0.33 0.66 0.66 1.32 1 2 C0.34 1.67 -0.32 1.34 -1 1 C-0.67 0.67 -0.34 0.34 0 0 Z " fill="#000000" transform="translate(393,366)"/>
<path d="M0 0 C0.66 0 1.32 0 2 0 C1.67 0.66 1.34 1.32 1 2 C0.67 1.34 0.34 0.68 0 0 Z " fill="#000000" transform="translate(128,357)"/>
<path d="M0 0 C0.66 0 1.32 0 2 0 C1.67 0.66 1.34 1.32 1 2 C0.67 1.34 0.34 0.68 0 0 Z " fill="#000000" transform="translate(121,349)"/>
<path d="M0 0 C3 1 3 1 3 1 Z " fill="#000000" transform="translate(157,346)"/>
<path d="M0 0 C0.66 0.66 1.32 1.32 2 2 C1.34 2 0.68 2 0 2 C0 1.34 0 0.68 0 0 Z " fill="#000000" transform="translate(118,343)"/>
<path d="M0 0 C0.66 0 1.32 0 2 0 C1.67 0.66 1.34 1.32 1 2 C0.67 1.34 0.34 0.68 0 0 Z " fill="#000000" transform="translate(115,313)"/>
<path d="M0 0 C0.99 0.495 0.99 0.495 2 1 C1.01 1.495 1.01 1.495 0 2 C0 1.34 0 0.68 0 0 Z " fill="#000000" transform="translate(379,311)"/>
<path d="M0 0 C0.99 0.495 0.99 0.495 2 1 C1.01 1.495 1.01 1.495 0 2 C0 1.34 0 0.68 0 0 Z " fill="#000000" transform="translate(379,270)"/>
<path d="M0 0 C0.66 0 1.32 0 2 0 C1.67 0.66 1.34 1.32 1 2 C0.67 1.34 0.34 0.68 0 0 Z " fill="#000000" transform="translate(435,267)"/>
<path d="M0 0 C0.99 0.495 0.99 0.495 2 1 C1.01 1.495 1.01 1.495 0 2 C0 1.34 0 0.68 0 0 Z " fill="#000000" transform="translate(349,188)"/>
<path d="M0 0 C0.33 0.66 0.66 1.32 1 2 C0.34 1.67 -0.32 1.34 -1 1 C-0.67 0.67 -0.34 0.34 0 0 Z " fill="#000000" transform="translate(124,135)"/>
<path d="M0 0 C0.99 0.495 0.99 0.495 2 1 C1.01 1.495 1.01 1.495 0 2 C0 1.34 0 0.68 0 0 Z " fill="#000000" transform="translate(248,123)"/>
<path d="" fill="#000000" transform="translate(0,0)"/>
<path d="" fill="#000000" transform="translate(0,0)"/>
<path d="M0 0 C2 1 2 1 2 1 Z " fill="#000000" transform="translate(158,370)"/>
<path d="" fill="#000000" transform="translate(0,0)"/>
<path d="" fill="#000000" transform="translate(0,0)"/>
<path d="" fill="#000000" transform="translate(0,0)"/>
<path d="M0 0 C2 1 2 1 2 1 Z " fill="#000000" transform="translate(400,310)"/>
<path d="M0 0 C2 1 2 1 2 1 Z " fill="#000000" transform="translate(171,285)"/>
<path d="M0 0 C2 1 2 1 2 1 Z " fill="#000000" transform="translate(371,280)"/>
<path d="M0 0 C2 1 2 1 2 1 Z " fill="#000000" transform="translate(161,277)"/>
<path d="" fill="#000000" transform="translate(0,0)"/>
<path d="" fill="#000000" transform="translate(0,0)"/>
<path d="" fill="#000000" transform="translate(0,0)"/>
<path d="" fill="#000000" transform="translate(0,0)"/>
<path d="" fill="#000000" transform="translate(0,0)"/>
<path d="" fill="#000000" transform="translate(0,0)"/>
<path d="" fill="#000000" transform="translate(0,0)"/>
<path d="M0 0 C2 1 2 1 2 1 Z " fill="#000000" transform="translate(429,143)"/>
<path d="M0 0 C2 1 2 1 2 1 Z " fill="#000000" transform="translate(126,133)"/>
<path d="M0 0 C2 1 2 1 2 1 Z " fill="#000000" transform="translate(132,129)"/>
<path d="" fill="#000000" transform="translate(0,0)"/>
<path d="M0 0 C2 1 2 1 2 1 Z " fill="#000000" transform="translate(115,124)"/>
<path d="M0 0 C2 1 2 1 2 1 Z " fill="#000000" transform="translate(138,108)"/>
<path d="M0 0 C2 1 2 1 2 1 Z " fill="#000000" transform="translate(157,101)"/>
<path d="" fill="#000000" transform="translate(0,0)"/>
<path d="" fill="#000000" transform="translate(0,0)"/>
<path d="" fill="#000000" transform="translate(0,0)"/>
<path d="" fill="#000000" transform="translate(0,0)"/>
<path d="" fill="#000000" transform="translate(0,0)"/>
<path d="" fill="#000000" transform="translate(0,0)"/>
<path d="" fill="#000000" transform="translate(0,0)"/>
<path d="" fill="#000000" transform="translate(0,0)"/>
<path d="" fill="#000000" transform="translate(0,0)"/>
<path d="" fill="#000000" transform="translate(0,0)"/>
<path d="" fill="#000000" transform="translate(0,0)"/>
<path d="" fill="#000000" transform="translate(0,0)"/>
<path d="" fill="#000000" transform="translate(0,0)"/>
<path d="" fill="#000000" transform="translate(0,0)"/>
<path d="" fill="#000000" transform="translate(0,0)"/>
<path d="" fill="#000000" transform="translate(0,0)"/>
<path d="" fill="#000000" transform="translate(0,0)"/>
<path d="" fill="#000000" transform="translate(0,0)"/>
<path d="" fill="#000000" transform="translate(0,0)"/>
<path d="" fill="#000000" transform="translate(0,0)"/>
<path d="" fill="#000000" transform="translate(0,0)"/>
<path d="" fill="#000000" transform="translate(0,0)"/>
<path d="" fill="#000000" transform="translate(0,0)"/>
<path d="" fill="#000000" transform="translate(0,0)"/>
<path d="" fill="#000000" transform="translate(0,0)"/>
<path d="" fill="#000000" transform="translate(0,0)"/>
<path d="" fill="#000000" transform="translate(0,0)"/>
<path d="" fill="#000000" transform="translate(0,0)"/>
<path d="" fill="#000000" transform="translate(0,0)"/>
<path d="" fill="#000000" transform="translate(0,0)"/>
<path d="" fill="#000000" transform="translate(0,0)"/>
<path d="" fill="#000000" transform="translate(0,0)"/>
<path d="" fill="#000000" transform="translate(0,0)"/>
<path d="" fill="#000000" transform="translate(0,0)"/>
<path d="" fill="#000000" transform="translate(0,0)"/>
<path d="" fill="#000000" transform="translate(0,0)"/>
<path d="" fill="#000000" transform="translate(0,0)"/>
<path d="" fill="#000000" transform="translate(0,0)"/>
<path d="" fill="#000000" transform="translate(0,0)"/>
<path d="" fill="#000000" transform="translate(0,0)"/>
<path d="" fill="#000000" transform="translate(0,0)"/>
<path d="" fill="#000000" transform="translate(0,0)"/>
<path d="" fill="#000000" transform="translate(0,0)"/>
<path d="" fill="#000000" transform="translate(0,0)"/>
<path d="" fill="#000000" transform="translate(0,0)"/>
<path d="" fill="#000000" transform="translate(0,0)"/>
<path d="" fill="#000000" transform="translate(0,0)"/>
<path d="" fill="#000000" transform="translate(0,0)"/>
<path d="" fill="#000000" transform="translate(0,0)"/>
<path d="" fill="#000000" transform="translate(0,0)"/>
<path d="" fill="#000000" transform="translate(0,0)"/>
<path d="" fill="#000000" transform="translate(0,0)"/>
<path d="" fill="#000000" transform="translate(0,0)"/>
<path d="" fill="#000000" transform="translate(0,0)"/>
<path d="" fill="#000000" transform="translate(0,0)"/>
<path d="" fill="#000000" transform="translate(0,0)"/>
<path d="" fill="#000000" transform="translate(0,0)"/>
<path d="" fill="#000000" transform="translate(0,0)"/>
<path d="" fill="#000000" transform="translate(0,0)"/>
<path d="" fill="#000000" transform="translate(0,0)"/>
<path d="" fill="#000000" transform="translate(0,0)"/>
<path d="" fill="#000000" transform="translate(0,0)"/>
<path d="" fill="#000000" transform="translate(0,0)"/>
<path d="" fill="#000000" transform="translate(0,0)"/>
<path d="" fill="#000000" transform="translate(0,0)"/>
<path d="" fill="#000000" transform="translate(0,0)"/>
<path d="" fill="#000000" transform="translate(0,0)"/>
<path d="" fill="#000000" transform="translate(0,0)"/>
<path d="" fill="#000000" transform="translate(0,0)"/>
<path d="" fill="#000000" transform="translate(0,0)"/>
<path d="" fill="#000000" transform="translate(0,0)"/>
<path d="" fill="#000000" transform="translate(0,0)"/>
<path d="" fill="#000000" transform="translate(0,0)"/>
<path d="" fill="#000000" transform="translate(0,0)"/>
<path d="" fill="#000000" transform="translate(0,0)"/>
<path d="" fill="#000000" transform="translate(0,0)"/>
<path d="" fill="#000000" transform="translate(0,0)"/>
<path d="" fill="#000000" transform="translate(0,0)"/>
<path d="" fill="#000000" transform="translate(0,0)"/>
<path d="" fill="#000000" transform="translate(0,0)"/>
<path d="" fill="#000000" transform="translate(0,0)"/>
<path d="" fill="#000000" transform="translate(0,0)"/>
<path d="" fill="#000000" transform="translate(0,0)"/>
<path d="" fill="#000000" transform="translate(0,0)"/>
<path d="" fill="#000000" transform="translate(0,0)"/>
<path d="" fill="#000000" transform="translate(0,0)"/>
<path d="" fill="#000000" transform="translate(0,0)"/>
<path d="" fill="#000000" transform="translate(0,0)"/>
<path d="" fill="#000000" transform="translate(0,0)"/>
<path d="" fill="#000000" transform="translate(0,0)"/>
<path d="" fill="#000000" transform="translate(0,0)"/>
<path d="" fill="#000000" transform="translate(0,0)"/>
<path d="" fill="#000000" transform="translate(0,0)"/>
<path d="" fill="#000000" transform="translate(0,0)"/>
<path d="" fill="#000000" transform="translate(0,0)"/>
<path d="" fill="#000000" transform="translate(0,0)"/>
<path d="" fill="#000000" transform="translate(0,0)"/>
<path d="" fill="#000000" transform="translate(0,0)"/>
<path d="" fill="#000000" transform="translate(0,0)"/>
<path d="" fill="#000000" transform="translate(0,0)"/>
<path d="" fill="#000000" transform="translate(0,0)"/>
<path d="" fill="#000000" transform="translate(0,0)"/>
<path d="" fill="#000000" transform="translate(0,0)"/>
<path d="" fill="#000000" transform="translate(0,0)"/>
</svg>
