<?xml version="1.0" encoding="UTF-8"?>
<svg version="1.1" xmlns="http://www.w3.org/2000/svg" width="512" height="512">
<path d="M0 0 C1.8671875 1.71484375 1.8671875 1.71484375 3 3 C3.4125 2.55269531 3.825 2.10539062 4.25 1.64453125 C15.05132727 -9.66310824 28.29006199 -14.03991511 43.74780273 -14.59667969 C59.71941931 -14.7442705 74.12735557 -11.93487767 88.375 -4.625 C89.05876709 -4.27445557 89.74253418 -3.92391113 90.44702148 -3.56274414 C95.33857069 -0.84004898 98.61727029 2.56718496 102 7 C102.474375 6.13375 102.94875 5.2675 103.4375 4.375 C108.08384692 -2.49704457 115.33906277 -5.50067786 123.12890625 -7.45703125 C142.9926461 -11.21357525 167.34197183 -10.75384148 185.07421875 -0.1640625 C200.04363282 11.06821751 206.17480007 28.08072155 209 46 C220.22810071 129.18357891 220.22810071 129.18357891 204.125 153.875 C203.75375 154.57625 203.3825 155.2775 203 156 C204.15824881 158.94991493 205.86052973 161.14617945 207.875 163.5625 C215.73357273 173.8744808 217.37802138 187.16989432 217.3125 199.75 C217.30831055 200.86890625 217.30412109 201.9878125 217.29980469 203.140625 C217.08146636 219.93873964 215.57980339 236.92828515 212.0625 253.375 C211.9171582 254.06335938 211.77181641 254.75171875 211.62207031 255.4609375 C209.79105652 263.14113065 205.67831561 270.31201272 199.25512695 275.00585938 C188.23765032 281.75533429 175.79517181 281.66239048 163.3125 281.5 C162.47372314 281.49412872 161.63494629 281.48825745 160.77075195 281.48220825 C142.60052869 281.33284198 122.14589277 280.52667651 108.1171875 267.27734375 C107.41851562 266.52582031 106.71984375 265.77429688 106 265 C105.484375 265.845625 104.96875 266.69125 104.4375 267.5625 C94.79966223 281.83455941 80.07895057 286.35647795 64 290 C56.89903243 291.21502212 49.81803682 291.21845159 42.625 291.25 C41.45710937 291.270625 40.28921875 291.29125 39.0859375 291.3125 C27.7763413 291.36321568 16.54354331 289.1426543 8.0234375 281.14453125 C4.3354271 277.08771981 1.52794884 272.85366178 -1 268 C-2.90997264 270.75688315 -2.90997264 270.75688315 -3.97265625 272.83203125 C-7.74211043 279.6818996 -12.90685959 283.56372438 -20.26171875 286.14453125 C-38.31930655 290.27683191 -58.92292024 285.63528738 -75 277 C-92.73754516 265.57761429 -100.09070934 245.7099007 -104.46092224 225.91192627 C-106.81912783 214.15908897 -107.48856728 202.71359849 -107.375 190.75 C-107.3713443 189.90336792 -107.3676886 189.05673584 -107.36392212 188.18444824 C-107.28214676 171.99635774 -106.77138977 155.58055947 -101.453125 140.12109375 C-100.86988428 137.39092384 -101.16292779 135.65844039 -102 133 C-103.40676864 130.97762817 -103.40676864 130.97762817 -105.1875 129.0625 C-120.40295326 110.07436263 -120.69485392 83.12942249 -119 60 C-116.27807606 37.63423681 -109.28847614 13.98078163 -91.515625 -1.109375 C-65.01086967 -20.37059472 -26.7995077 -16.83759157 0 0 Z M10.47265625 8.546875 C8.30564483 12.15664469 7.18825232 15.97713668 6 20 C5.79850342 20.67853027 5.59700684 21.35706055 5.3894043 22.05615234 C0.21260819 40.58196232 0.80643247 60.18530029 3.25 79.125 C3.35900635 79.98198486 3.4680127 80.83896973 3.58032227 81.72192383 C5.83956734 96.71106058 13.84651209 108.0568238 25 118 C25.67933594 118.60585937 26.35867187 119.21171875 27.05859375 119.8359375 C41.89565898 131.52574647 63.87468536 135.72895662 81.7277832 140.77026367 C89.35111792 142.96171754 96.05079505 145.75949916 100.8125 152.4375 C106.64085312 163.44577666 107.57651392 175.26528552 107.35546875 187.48046875 C107.34542002 188.91000662 107.33735181 190.33955961 107.33113098 191.76911926 C107.31046719 195.48826876 107.26659856 199.20674455 107.21636963 202.92559814 C107.14031989 208.88400637 107.1025398 214.84281119 107.06087685 220.80153847 C107.04349895 222.85530805 107.01732214 224.90879956 106.98930359 226.96244812 C106.26918476 246.28694038 106.26918476 246.28694038 114.8046875 262.87890625 C125.47380543 270.91094031 139.61122182 271.62554844 152.42602539 271.41162109 C154.69658195 271.37485293 156.96550268 271.37060556 159.23632812 271.37109375 C172.74011522 271.30573318 187.19775904 271.21966229 197.359375 261.3046875 C201.65744209 255.26692658 203.73552513 248.52052804 204.75 241.25 C204.87141357 240.39092041 204.99282715 239.53184082 205.11791992 238.64672852 C206.26846646 229.10472219 206.29495255 219.53500616 206.3125 209.9375 C206.31608521 209.14017456 206.31967041 208.34284912 206.32336426 207.5213623 C206.68018277 189.81561398 206.68018277 189.81561398 200.625 173.5625 C200.03976562 172.61503906 199.45453125 171.66757812 198.8515625 170.69140625 C198.24054688 169.80324219 197.62953125 168.91507813 197 168 C196.47148437 167.18402344 195.94296875 166.36804688 195.3984375 165.52734375 C188.9465404 158.72868345 179.59983481 155.30072457 171.125 151.6875 C168.92034011 150.73100518 166.71591626 149.77396614 164.51171875 148.81640625 C163.42036621 148.34477051 162.32901367 147.87313477 161.20458984 147.38720703 C156.43806373 145.32386699 151.68353438 143.23500138 146.9375 141.125 C146.14811035 140.78041748 145.3587207 140.43583496 144.54541016 140.08081055 C128.88366622 133.10298943 110.68034736 121.38730107 104 105 C99.7638243 92.68470441 99.76265928 80.202803 99.39453125 67.3046875 C99.18013902 59.9182888 99.18013902 59.9182888 98.4921875 52.56640625 C97.59531114 45.40628819 97.69312679 38.13342923 97.59863281 30.92651367 C97.72830152 18.64399151 97.72830152 18.64399151 92.2734375 8.046875 C91.64695312 7.61890625 91.02046875 7.1909375 90.375 6.75 C89.76398438 6.31171875 89.15296875 5.8734375 88.5234375 5.421875 C66.20053382 -7.15635556 29.32776637 -12.76356888 10.47265625 8.546875 Z M-90.41796875 10.984375 C-107.30033988 32.49376636 -110.25701001 64.38375127 -107.75244141 90.59033203 C-105.16044054 111.76762172 -95.03323107 125.6067969 -79 139 C-78.27635254 139.61858887 -77.55270508 140.23717773 -76.80712891 140.87451172 C-70.70963691 145.94868233 -64.39381525 149.83224555 -57.375 153.5 C-56.32465576 154.05896973 -55.27431152 154.61793945 -54.19213867 155.19384766 C-47.03452338 158.98559148 -39.81486831 162.64405984 -32.5546875 166.234375 C-6.68576832 179.08355244 -6.68576832 179.08355244 -1.7734375 193.6328125 C1.10237296 203.67252802 2.07209621 213.16984151 2.2902832 223.55957031 C2.28611827 250.92400402 2.28611827 250.92400402 14.37890625 274.53515625 C23.80824303 283.05564129 36.56401231 282.63457152 48.56494141 282.14794922 C63.46691929 281.24253528 83.2591719 278.47766591 94 267 C95.6248803 264.713664 96.77543543 262.54709431 98 260 C98.33 259.34 98.66 258.68 99 258 C99.09550823 256.37699137 99.12795234 254.7500833 99.12939453 253.12426758 C99.13248627 252.10228271 99.135578 251.08029785 99.13876343 250.02734375 C99.13679962 248.91101563 99.13483582 247.7946875 99.1328125 246.64453125 C99.13431305 245.48719482 99.1358136 244.3298584 99.13735962 243.13745117 C99.1397231 239.36243269 99.1334542 235.58750903 99.125 231.8125 C99.12278442 230.53724457 99.12056885 229.26198914 99.11828613 227.9480896 C99.10053077 219.29856233 99.059666 210.64933632 99 202 C98.9937561 201.05108887 98.98751221 200.10217773 98.9810791 199.12451172 C98.94346178 194.0190989 98.86473207 188.91676578 98.75 183.8125 C98.73598145 182.66177002 98.72196289 181.51104004 98.70751953 180.32543945 C98.42935685 171.13292391 97.44851709 160.74663212 90.58984375 153.97265625 C85.21760657 149.94316812 78.9356974 148.27929166 72.5625 146.4375 C70.05032806 145.6694495 67.53860707 144.89992244 65.02734375 144.12890625 C63.81804199 143.7642627 62.60874023 143.39961914 61.36279297 143.02392578 C45.65332208 138.24060061 30.6532274 132.79171879 18 122 C17.17628906 121.37996094 16.35257812 120.75992188 15.50390625 120.12109375 C11.14801176 116.43115505 8.21875294 111.67470001 5 107 C4.49855469 106.30390625 3.99710937 105.6078125 3.48046875 104.890625 C-8.55602464 87.29043526 -5.74111485 59.94522207 -3.07861328 40.03662109 C-0.7852606 24.25989801 -0.7852606 24.25989801 -4 9 C-5.86945532 7.13294033 -5.86945532 7.13294033 -8.1875 5.8125 C-8.92355469 5.34457031 -9.65960938 4.87664062 -10.41796875 4.39453125 C-33.78203438 -8.22418498 -71.17701238 -9.74358737 -90.41796875 10.984375 Z M110 7 C106.05575773 13.8127821 103.84562163 19.47463349 103.83203125 27.3671875 C103.8278418 28.10603683 103.82365234 28.84488617 103.81933594 29.60612488 C103.80949072 32.02913632 103.80956055 34.45197169 103.8125 36.875 C103.81277191 37.70079559 103.81304382 38.52659119 103.81332397 39.37741089 C103.83033747 50.6287761 104.07597714 61.8336915 104.8125 73.0625 C104.88251221 74.19993652 104.95252441 75.33737305 105.0246582 76.50927734 C106.12241305 91.19489506 109.5843504 105.92506593 120.8203125 116.20703125 C124.72208003 119.4165497 128.73679024 122.28866994 133 125 C134.01707031 125.6496875 135.03414062 126.299375 136.08203125 126.96875 C144.87626228 132.29238229 153.96497401 135.82028885 163.65576172 139.18408203 C167.2634748 140.43975555 170.8545331 141.73798268 174.4375 143.0625 C175.41009766 143.42166504 175.41009766 143.42166504 176.40234375 143.78808594 C181.71379726 145.79614055 186.73194022 148.23631701 191.7421875 150.8984375 C193.88087924 152.14616163 193.88087924 152.14616163 196 152 C203.23130773 139.53222805 204.19497136 124.70279579 204.16015625 110.56640625 C204.15678001 108.92896202 204.15678001 108.92896202 204.15333557 107.25843811 C204.07770243 96.49717715 203.51278355 85.79702695 202.67553711 75.07006836 C202.43733426 71.93531888 202.23705679 68.79950167 202.03710938 65.66210938 C201.26099183 54.83008886 199.73575778 44.53338297 196.78515625 34.06640625 C196.51980576 33.1018602 196.25445526 32.13731415 195.98106384 31.14353943 C192.90717149 21.06330213 186.89952663 11.87556776 178 6 C166.54687194 0.36180887 153.90152838 -0.35663556 141.34448242 -0.31567383 C139.30399349 -0.31248671 137.26492338 -0.33617524 135.22460938 -0.36132812 C126.08242254 -0.36580739 116.59654699 -0.14625924 110 7 Z M-91 142 C-102.77375578 174.51799214 -103.36318999 215.41855685 -89.34375 247.21875 C-82.85179532 260.65558642 -75.11668565 268.66550518 -61 274 C-47.04515545 278.51911496 -30.35578843 281.98612035 -16.625 275.375 C-8.25439186 267.80159263 -7.4356746 258.44866809 -6.87945557 247.66238403 C-6.70348094 242.62410384 -6.6715402 237.58859625 -6.68432617 232.54760742 C-6.68750071 229.9369173 -6.66386979 227.32734932 -6.63867188 224.71679688 C-6.59046416 212.0164668 -6.56624786 198.30791929 -15 188 C-15.4228125 187.4328125 -15.845625 186.865625 -16.28125 186.28125 C-23.45518023 177.88622526 -35.44875699 173.58470079 -45.296875 169.13037109 C-55.06344146 164.69915873 -63.93914065 159.24100047 -72.90136719 153.3671875 C-74.76849328 152.15081871 -76.64705831 150.95839944 -78.5390625 149.78125 C-79.51617187 149.1728125 -80.49328125 148.564375 -81.5 147.9375 C-82.3146875 147.43089844 -83.129375 146.92429687 -83.96875 146.40234375 C-86 145 -86 145 -87.65625 143.31640625 C-88.92459348 141.76673285 -88.92459348 141.76673285 -91 142 Z " fill="#000000" transform="translate(207,118)"/>
<path d="M0 0 C5.71482656 3.46753711 8.46160913 7.96204419 10.1953125 14.33203125 C11.17601174 24.59753242 9.81537388 32.55495607 3.58984375 40.79296875 C-0.21098301 44.98771873 -4.50669646 47.1657472 -10.09765625 47.5703125 C-18.86995868 47.73748777 -24.86130427 47.42854006 -31.765625 41.70703125 C-37.19982642 36.3837319 -38.58203938 30.81494405 -38.8046875 23.33203125 C-38.40615478 15.05945814 -34.97458189 8.6384713 -29.25390625 2.73046875 C-20.90813554 -4.6448635 -9.80441662 -4.46085193 0 0 Z " fill="#000000" transform="translate(369.8046875,145.66796875)"/>
<path d="M0 0 C5.82372939 4.69691585 9.75399639 11.2360192 10.875 18.625 C11.46842476 24.79661748 10.10807848 29.41983846 6.875 34.625 C1.61273895 40.49885556 -4.80372534 44.05991612 -12.69921875 44.68359375 C-20.62092643 44.49224815 -27.54499852 41.16634097 -33.125 35.625 C-37.75210092 29.42870834 -38.80858917 23.16933865 -38.125 15.625 C-36.57167928 8.88578964 -33.24347824 3.8307529 -27.5625 -0.1875 C-19.87283237 -3.93374833 -7.46461343 -4.52980815 0 0 Z " fill="#000000" transform="translate(170.125,327.375)"/>
<path d="M0 0 C0.67353516 -0.01869141 1.34707031 -0.03738281 2.04101562 -0.05664062 C7.05685755 0.00785586 9.87620165 1.40434455 13.75 4.5 C20.554086 11.62055512 22.94220246 18.76631827 22.75 28.5 C21.54872503 36.43608251 17.02020742 42.2520044 10.7265625 47.0390625 C3.41749324 51.82776305 -3.51915429 53.6254143 -12.25 52.5 C-19.63445276 50.22215589 -24.53982742 46.25874095 -28.25 39.5 C-31.59622987 31.13442532 -30.94030154 23.40559545 -27.6328125 15.1484375 C-24.0705168 8.32573556 -18.48720985 3.64772517 -11.234375 1.125 C-7.46798315 0.33622684 -3.84164613 0.07381022 0 0 Z M-17.1875 14.0625 C-20.60023655 18.34826218 -22.25977818 22.994883 -22.25 28.5 C-21.59 29.49 -20.93 30.48 -20.25 31.5 C-19.651875 30.530625 -19.05375 29.56125 -18.4375 28.5625 C-14.63478954 23.21053714 -9.36308325 19.52627954 -4.25 15.5 C-1.89586462 13.52268836 0.42667428 11.51354895 2.75 9.5 C0.9702428 7.32477677 0.9702428 7.32477677 -1.3125 7.1875 C-7.66702875 7.8635137 -12.6557486 9.37937486 -17.1875 14.0625 Z M5.75 10.5 C5.38390625 10.93828125 5.0178125 11.3765625 4.640625 11.828125 C0.82881044 16.29339349 -3.17087337 20.53042914 -7.3125 24.6875 C-7.8065332 25.18604492 -8.30056641 25.68458984 -8.80957031 26.19824219 C-12.13569227 29.51115651 -15.6068448 32.5389214 -19.25 35.5 C-18.97382467 37.44074861 -18.97382467 37.44074861 -18.25 39.5 C-16.765 40.49 -16.765 40.49 -15.25 41.5 C-14.693125 40.778125 -14.13625 40.05625 -13.5625 39.3125 C-10.6148176 35.72748086 -7.57038482 32.5076621 -3.875 29.6875 C-0.85976061 27.17480051 1.55706625 24.38408841 4.1015625 21.40625 C5.89182441 19.33599452 7.77578518 17.39524622 9.75 15.5 C8.4410428 12.37802522 8.4410428 12.37802522 5.75 10.5 Z M10.75 20.5 C10.22792969 21.10585937 9.70585937 21.71171875 9.16796875 22.3359375 C4.11316941 28.09008736 -1.14380941 33.29179952 -6.8671875 38.37109375 C-8.72684125 40.03258767 -10.51385926 41.71211997 -12.25 43.5 C-5.25206411 44.01624117 -0.11303191 43.53491505 5.75 39.5 C9.53184296 36.21144091 12.51945953 33.28492889 12.9453125 28.140625 C12.92210937 27.35171875 12.89890625 26.5628125 12.875 25.75 C12.84792969 24.55117187 12.84792969 24.55117187 12.8203125 23.328125 C12.79710937 22.72484375 12.77390625 22.1215625 12.75 21.5 C12.09 21.17 11.43 20.84 10.75 20.5 Z " fill="#000000" transform="translate(151.25,145.5)"/>
<path d="M0 0 C6.69862819 5.25131464 11.03930753 12.76851928 12.30078125 21.171875 C12.57770036 29.12868415 11.42489624 34.89439983 5.95703125 40.7578125 C0.1844876 46.15436672 -4.94645881 48.26025971 -12.8515625 48.03515625 C-20.42329719 47.24407949 -27.61385852 43.9494946 -33.20703125 38.7890625 C-36.59922357 34.0684592 -39.13813284 28.77643849 -38.68359375 22.85546875 C-36.73276656 14.39655415 -32.0352321 8.84948803 -25.20703125 3.7890625 C-23.69109375 2.644375 -23.69109375 2.644375 -22.14453125 1.4765625 C-15.22795999 -2.49678695 -7.25444729 -3.98031621 0 0 Z M-18.08203125 9.3515625 C-22.75673815 11.82235602 -25.81932501 15.01365003 -28.20703125 19.7890625 C-28.27653666 21.32930246 -28.29155482 22.87241238 -28.26953125 24.4140625 C-28.26050781 25.23132813 -28.25148437 26.04859375 -28.2421875 26.890625 C-28.23058594 27.51710937 -28.21898437 28.14359375 -28.20703125 28.7890625 C-27.54703125 28.7890625 -26.88703125 28.7890625 -26.20703125 28.7890625 C-25.09911558 27.18707633 -24.07160433 25.52923408 -23.08203125 23.8515625 C-19.64842203 18.27104393 -15.71246366 13.52854335 -11.20703125 8.7890625 C-14.62657702 7.64921391 -15.01191865 7.82845216 -18.08203125 9.3515625 Z M-6.20703125 7.7890625 C-6.53388916 8.30291504 -6.86074707 8.81676758 -7.19750977 9.34619141 C-8.71012164 11.70966408 -10.23961951 14.06175482 -11.76953125 16.4140625 C-12.54006836 17.62642578 -12.54006836 17.62642578 -13.32617188 18.86328125 C-16.76231401 24.1135357 -20.25366083 27.92880661 -25.20703125 31.7890625 C-23.88703125 33.1090625 -22.56703125 34.4290625 -21.20703125 35.7890625 C-20.14162109 34.72171875 -20.14162109 34.72171875 -19.0546875 33.6328125 C-17.19415896 31.77162861 -15.32595359 29.91923264 -13.453125 28.0703125 C-12.52628906 27.1525 -11.59945312 26.2346875 -10.64453125 25.2890625 C-9.71511719 24.37125 -8.78570312 23.4534375 -7.828125 22.5078125 C-2.97757636 18.01536794 -2.97757636 18.01536794 -1.20703125 12.1015625 C-2.43127542 9.27049786 -3.47043612 8.99735753 -6.20703125 7.7890625 Z M-0.20703125 17.7890625 C-1.66676504 19.23666388 -1.66676504 19.23666388 -3.140625 21.1484375 C-3.70716797 21.85226563 -4.27371094 22.55609375 -4.85742188 23.28125 C-5.44716797 24.02632812 -6.03691406 24.77140625 -6.64453125 25.5390625 C-7.23041016 26.26867187 -7.81628906 26.99828125 -8.41992188 27.75 C-11.0696036 31.05834268 -13.67522183 34.38937961 -16.20703125 37.7890625 C-8.5675684 38.57446264 -8.5675684 38.57446264 -1.64453125 35.9140625 C1.56813952 31.79525382 2.52568477 27.97275171 2.79296875 22.7890625 C2.37982334 20.06775079 2.37982334 20.06775079 1.79296875 17.7890625 C1.13296875 17.7890625 0.47296875 17.7890625 -0.20703125 17.7890625 Z " fill="#000000" transform="translate(266.20703125,145.2109375)"/>
<path d="M0 0 C4.95022911 5.00053632 7.13939106 9.57308832 7.3125 16.625 C7.21994769 23.60007876 5.89420153 28.71520932 1.234375 34.00390625 C-3.99064163 38.93064437 -9.10305068 41.4651246 -16.1875 42.4375 C-24.62184655 41.46962417 -31.92866194 39.88860529 -37.75 33.375 C-42.7108254 27.10101493 -42.64949188 21.90524408 -42 14 C-40.33241558 7.85203818 -36.11339355 2.70280223 -31 -1 C-21.26558807 -5.68447809 -9.25081598 -5.83836463 0 0 Z M-30 9 C-32.33988179 12.96891341 -34.13040007 16.40259909 -33.75 21.0625 C-33.5025 21.701875 -33.255 22.34125 -33 23 C-32.17242187 21.95585937 -32.17242187 21.95585937 -31.328125 20.890625 C-29.71044394 18.88209482 -28.08231905 16.8941163 -26.421875 14.921875 C-25.98359375 14.40109375 -25.5453125 13.8803125 -25.09375 13.34375 C-24.18372345 12.26441618 -23.27221961 11.1863265 -22.359375 10.109375 C-20.02965708 7.83805631 -20.02965708 7.83805631 -19 5 C-24.14749522 4.52116324 -26.46256981 5.18329901 -30 9 Z M-13 5 C-18.79120097 12.91213432 -24.56027083 20.84040624 -30 29 C-28.02 29.66 -26.04 30.32 -24 31 C-23.54173828 30.12601562 -23.54173828 30.12601562 -23.07421875 29.234375 C-19.60420809 23.01767984 -15.53598128 18.01584164 -10.6081543 12.93652344 C-7.8448603 10.42052842 -7.8448603 10.42052842 -7 7 C-8.98 6.34 -10.96 5.68 -13 5 Z M-5 10 C-5.50789063 10.9178125 -6.01578125 11.835625 -6.5390625 12.78125 C-10.30630168 19.52078949 -14.08736345 26.00807208 -19 32 C-15.04821692 32.20093812 -11.99907681 32.34059437 -8.25 31.0625 C-4.82933039 27.92688619 -3.17680039 24.46903959 -2 20 C-1.88582783 16.88880839 -2.05588243 13.97862443 -3 11 C-3.66 10.67 -4.32 10.34 -5 10 Z " fill="#000000" transform="translate(278,327)"/>
<path d="M0 0 C4.97822266 3.77953514 7.09198728 8.10487369 8.08984375 14.14453125 C8.59989705 20.31721712 6.66441258 25.2807901 3.65234375 30.58203125 C-1.9282726 35.73336942 -8.69528272 38.55192815 -16.26953125 38.96875 C-23.1439377 38.59514095 -29.48998575 36.24467333 -34.78515625 31.83203125 C-39.47532776 25.62072304 -40.72666946 20.48317884 -39.78515625 12.83203125 C-37.53925201 5.95332005 -33.88505717 0.75241701 -27.78515625 -3.16796875 C-18.44510275 -7.8379955 -8.33547368 -5.45362501 0 0 Z M-28.12109375 7.41015625 C-30.75415419 11.55582588 -31.19013857 14.87099778 -30.78515625 19.83203125 C-24.99156206 14.27018082 -19.89020486 8.01996896 -14.78515625 1.83203125 C-20.1772266 1.17844697 -24.67176396 3.33550936 -28.12109375 7.41015625 Z M-10.78515625 3.83203125 C-12.32813573 5.51833095 -13.8694685 7.20613745 -15.41015625 8.89453125 C-15.86583984 9.39388184 -16.32152344 9.89323242 -16.79101562 10.40771484 C-19.34343659 13.21447279 -21.84641087 16.051163 -24.28515625 18.95703125 C-26.78515625 21.83203125 -26.78515625 21.83203125 -28.78515625 22.83203125 C-27.80421671 25.2843801 -27.09811797 26.61295805 -24.91015625 28.14453125 C-22.34772356 28.97355359 -21.2884498 28.75949298 -18.78515625 27.83203125 C-17.1225376 25.43177194 -15.68863642 23.12553968 -14.28515625 20.58203125 C-11.71932535 16.03709528 -9.18983362 11.82478926 -5.78515625 7.83203125 C-7.43515625 6.51203125 -9.08515625 5.19203125 -10.78515625 3.83203125 Z M-3.78515625 12.83203125 C-4.58179688 13.93611328 -4.58179688 13.93611328 -5.39453125 15.0625 C-6.1009375 16.03832031 -6.80734375 17.01414062 -7.53515625 18.01953125 C-8.23125 18.98246094 -8.92734375 19.94539063 -9.64453125 20.9375 C-11.6308082 23.62332339 -13.68014813 26.23869918 -15.78515625 28.83203125 C-10.49580129 28.78325079 -10.49580129 28.78325079 -5.91796875 26.453125 C-2.86831017 23.19188724 -1.84350578 21.44470134 -1.41015625 16.89453125 C-1.53390625 15.88390625 -1.65765625 14.87328125 -1.78515625 13.83203125 C-2.44515625 13.50203125 -3.10515625 13.17203125 -3.78515625 12.83203125 Z " fill="#000000" transform="translate(374.78515625,326.16796875)"/>
<path d="M0 0 C1.26457031 0.60328125 1.26457031 0.60328125 2.5546875 1.21875 C9.03787546 4.68158036 12.518114 8.59464367 16 15 C16.58394531 15.99193359 16.58394531 15.99193359 17.1796875 17.00390625 C22.73834134 27.04599987 23.37849134 38.53177803 20.5625 49.5 C17.38002771 58.91435184 11.68092835 64.91273987 2.9375 69.5 C-7.94551882 74.36437963 -19.51062724 76.01062422 -31 72 C-40.84624138 67.8326525 -48.2989431 61.86328105 -52.4375 51.8125 C-56.35269141 39.29787032 -55.67046318 27.10485843 -49.9375 15.3125 C-44.4513728 6.25132894 -36.1045628 0.59065938 -26.19140625 -2.578125 C-17.60347174 -4.2314172 -7.90391474 -3.84987729 0 0 Z M-40.74609375 11.55859375 C-47.21527726 18.2858993 -49.22540284 26.42387897 -49.4375 35.5625 C-49.12331922 45.55547586 -47.17496438 53.72785778 -40 61 C-31.37806714 68.01536152 -21.7667713 68.79988985 -11 68 C-1.88271718 66.58729602 4.60491236 62.88519188 10.8125 56.125 C16.44999955 48.07142921 16.79296668 40.63508834 16 31 C13.96595076 19.66293484 8.37958927 10.6974122 -1 4 C-14.72847135 -2.61082087 -29.90591411 1.88246025 -40.74609375 11.55859375 Z " fill="#000000" transform="translate(373,132)"/>
<path d="M0 0 C7.78424547 7.97446199 11.3020591 18.26488602 11.765625 29.2890625 C11.55593213 38.60728952 8.31784825 45.51344794 1.66015625 52.08203125 C-8.39807638 60.55586971 -19.67301948 61.10699126 -32.296875 60.06640625 C-41.66415675 58.69648758 -49.80238345 53.5294995 -55.734375 46.19140625 C-62.02607438 37.02045461 -63.5798928 25.36707458 -61.609375 14.56640625 C-59.36088359 5.58784124 -53.64668382 -0.54373395 -46.296875 -5.93359375 C-30.87389171 -14.75035685 -13.29780556 -11.19458121 0 0 Z M-48.2421875 1.89453125 C-54.7985031 9.08178935 -57.66866948 15.90969922 -57.5078125 25.609375 C-56.81301476 33.70248205 -53.6711593 40.9825303 -48.296875 47.06640625 C-38.05426177 55.63862915 -27.12816222 56.20096828 -14.296875 55.06640625 C-7.46452135 53.56112517 -1.9283875 49.21010955 2.703125 44.06640625 C6.48949267 37.59293895 7.44802674 30.05554668 6.140625 22.69140625 C3.49238223 12.73401343 -1.44223711 3.30665664 -10.35546875 -2.20703125 C-22.09540008 -8.10838711 -38.37384696 -7.37933095 -48.2421875 1.89453125 Z " fill="#000000" transform="translate(182.296875,321.93359375)"/>
<path d="M0 0 C2.93453261 0.36681658 3.86437246 0.86437246 6 3 C6.265625 5.2421875 6.265625 5.2421875 6.25 7.875 C6.25515625 8.73867187 6.2603125 9.60234375 6.265625 10.4921875 C5.98890649 13.10473577 5.3185995 14.7500088 4 17 C1.375662 16.00456145 0.02394756 15.02807645 -1.8125 12.875 C-3.50721416 8.77200781 -2.9227527 6.32983959 -2 2 C-1.34 1.34 -0.68 0.68 0 0 Z " fill="#000000" transform="translate(146,202)"/>
<path d="M0 0 C5.39449293 -0.27429625 8.51925805 -0.36055646 13 3 C12.68611748 6.03419767 12.14199636 6.8816697 9.75 8.875 C7 10 7 10 4.375 9.375 C0.37142857 7.05714286 0.37142857 7.05714286 -1 5 C-0.6875 2.3125 -0.6875 2.3125 0 0 Z " fill="#000000" transform="translate(190,261)"/>
<path d="M0 0 C1.2065625 0.0309375 1.2065625 0.0309375 2.4375 0.0625 C4.65604707 4.68447306 5.82031159 7.83074163 5.4375 13.0625 C3.7875 13.3925 2.1375 13.7225 0.4375 14.0625 C-3.21837458 10.40662542 -3.52219788 6.02973601 -3.5625 1.0625 C-2.5625 0.0625 -2.5625 0.0625 0 0 Z " fill="#000000" transform="translate(349.5625,279.9375)"/>
<path d="M0 0 C2.5 1 2.5 1 4.3125 3.1875 C5.64528737 6.34410166 5.7366951 8.60737019 5.5 12 C4.51 12.33 3.52 12.66 2.5 13 C0.7109375 11.92578125 0.7109375 11.92578125 -1.125 10.3125 C-1.73601562 9.79300781 -2.34703125 9.27351563 -2.9765625 8.73828125 C-4.6806604 6.79386185 -5.20691395 5.55403558 -5.5 3 C-3.88616149 0.39992684 -3.07306191 0 0 0 Z " fill="#000000" transform="translate(255.5,291)"/>
<path d="M0 0 C3.89109132 1.53833843 5.80120661 4.38623458 7.6875 8.0625 C7.6875 9.0525 7.6875 10.0425 7.6875 11.0625 C5.625 11.875 5.625 11.875 2.6875 12.0625 C-0.04673552 10.80271793 -2.2446864 9.25229137 -4.3125 7.0625 C-4.875 4.375 -4.875 4.375 -4.3125 2.0625 C-2.3125 0.0625 -2.3125 0.0625 0 0 Z " fill="#000000" transform="translate(173.3125,246.9375)"/>
<path d="M0 0 C4.60125265 1.31464361 8.22421843 3.03331448 12 6 C12 6.99 12 7.98 12 9 C9.17998673 10.41000664 7.12992745 10.24548451 4 10 C1.1875 8.8125 1.1875 8.8125 -1 7 C-1.9375 4.4375 -1.9375 4.4375 -2 2 C-1.34 1.34 -0.68 0.68 0 0 Z " fill="#000000" transform="translate(215,268)"/>
<path d="M0 0 C2.4375 0.375 2.4375 0.375 5 1 C6.22333253 3.44666506 6.04546823 4.79229374 5.8125 7.5 C5.75707031 8.2940625 5.70164062 9.088125 5.64453125 9.90625 C5 12 5 12 2.94921875 13.28125 C2.30597656 13.5184375 1.66273438 13.755625 1 14 C-0.5 13 -0.5 13 -2 11 C-2.63772451 6.56365558 -2.51756835 3.77635253 0 0 Z " fill="#000000" transform="translate(254,196)"/>
<path d="M0 0 C3.38489309 -0.38684492 4.7990854 -0.12328851 7.75 1.6875 C10.23634955 4.24291482 11 5.4472967 11 9 C9.5625 10.8125 9.5625 10.8125 8 12 C4.81537776 11.05322042 3.26302338 10.33558155 1.1875 7.6875 C-0.06161737 4.86055017 -0.26151458 3.05100339 0 0 Z " fill="#000000" transform="translate(331,261)"/>
<path d="M0 0 C2.125 0 2.125 0 5 1 C8.16835871 4.30933954 11 7.31030015 11 12 C8.8125 12.75 8.8125 12.75 6 13 C2.65107753 10.89718821 0.16601059 8.84783495 -1 5 C-0.625 2.25 -0.625 2.25 0 0 Z " fill="#000000" transform="translate(153,227)"/>
<path d="M0 0 C2.125 -0.375 2.125 -0.375 5 0 C7.3957761 1.68143919 9.47020602 3.49251814 11 6 C10.8515625 8.140625 10.8515625 8.140625 10 10 C7 11 7 11 4.5 10.25 C0.42105263 8.21052632 0.42105263 8.21052632 -1 6 C-0.6875 2.8125 -0.6875 2.8125 0 0 Z " fill="#000000" transform="translate(268,227)"/>
<path d="M0 0 C1.9375 0.0625 1.9375 0.0625 4 1 C5.91502155 5.0124261 6.25190641 7.74351821 5 12 C2.6875 12.6875 2.6875 12.6875 0 13 C-1.71484375 11.80859375 -1.71484375 11.80859375 -3 10 C-2.890625 7.7734375 -2.890625 7.7734375 -2.25 5.375 C-2.04890625 4.57835937 -1.8478125 3.78171875 -1.640625 2.9609375 C-1 1 -1 1 0 0 Z " fill="#000000" transform="translate(355,302)"/>
<path d="M0 0 C2.4375 1.75 2.4375 1.75 4 4 C3.75 6.75 3.75 6.75 3 9 C1.53932801 8.54917531 0.08151968 8.08906463 -1.375 7.625 C-2.59316406 7.24214844 -2.59316406 7.24214844 -3.8359375 6.8515625 C-6 6 -6 6 -8 4 C-8 2.68 -8 1.36 -8 0 C-5.02898609 -1.48550695 -3.16565278 -0.82306972 0 0 Z " fill="#000000" transform="translate(243,279)"/>
<path d="M0 0 C4.05953998 0.180424 5.56501211 0.53067096 8.375 3.5625 C8.91125 4.366875 9.4475 5.17125 10 6 C9.01 7.485 9.01 7.485 8 9 C4.48156769 9.45892595 2.65139498 9.41140736 -0.375 7.5 C-0.91125 7.005 -1.4475 6.51 -2 6 C-1.125 1.125 -1.125 1.125 0 0 Z " fill="#000000" transform="translate(291,237)"/>
<path d="M0 0 C4.55555556 0.55555556 4.55555556 0.55555556 6 2 C6.45977011 7.28735632 6.45977011 7.28735632 4.75 9.9375 C3 11 3 11 0.9375 10.875 C-1 10 -1 10 -3 7 C-2.6758631 3.67759676 -2.39223697 2.39223697 0 0 Z " fill="#000000" transform="translate(261,310)"/>
<path d="M0 0 C3.6413205 -0.33102914 5.41472925 -0.42019439 8.4375 1.75 C10 4 10 4 9.75 6.25 C9.5025 6.8275 9.255 7.405 9 8 C6.8125 8.8125 6.8125 8.8125 4 9 C1.125 6.8125 1.125 6.8125 -1 4 C-0.8125 1.6875 -0.8125 1.6875 0 0 Z " fill="#000000" transform="translate(311,246)"/>
<path d="M0 0 C2.8992226 0.46761655 3.86675182 0.86675182 6 3 C6.125 6.125 6.125 6.125 6 9 C3.625 9.625 3.625 9.625 1 10 C-1 8 -1 8 -1.1875 4.4375 C-1 1 -1 1 0 0 Z " fill="#000000" transform="translate(256,214)"/>
</svg>
