<?xml version="1.0" encoding="UTF-8"?>
<svg version="1.1" xmlns="http://www.w3.org/2000/svg" width="512" height="512">
<path d="M0 0 C2.61555009 2.83351259 3.17503531 4.6147368 3.73046875 8.33984375 C2.98503606 11.59429378 0.60585372 13.17805069 -1.75 15.4375 C-0.64382324 15.44587891 0.46235352 15.45425781 1.60205078 15.46289062 C15.00568413 15.76021748 27.21711074 18.48747504 40.125 21.9375 C42.11544036 22.45613815 44.10632516 22.97307368 46.09765625 23.48828125 C48.88755667 24.21042208 51.67659823 24.93482113 54.46237183 25.67272949 C69.3171101 29.6062357 80.95813614 28.88895885 94.7265625 22.12890625 C97.88963484 20.61049126 100.85804092 19.32831754 104.25 18.4375 C107.41593614 19.68914917 108.9352709 21.0468018 111.0625 23.6875 C112.89823205 27.93866896 112.94549703 31.32960902 111.48828125 35.74609375 C109.69897354 40.0531625 107.92251805 43.42078874 104.25 46.4375 C105.81627668 45.6954194 107.37785359 44.94341622 108.9375 44.1875 C109.80761719 43.76984375 110.67773438 43.3521875 111.57421875 42.921875 C116.36741254 40.26287698 119.717421 37.10572983 123 32.75 C135.38252856 16.99253414 135.38252856 16.99253414 144.25 14.4375 C148.60173088 14.26684389 149.83129831 15.05601624 153.0625 18 C155.67763913 21.60006166 156.60285105 25.0160603 156.25 29.4375 C154.52118665 38.36405261 151.22189872 44.68967013 145.25 51.4375 C144.23860963 52.76221404 143.23508681 54.09311101 142.25 55.4375 C144.27662596 54.13466902 146.26593142 52.8026848 148.25 51.4375 C149.19875 50.798125 150.1475 50.15875 151.125 49.5 C156.93063058 44.55839277 160.37913391 36.73416299 164.10546875 30.16796875 C172.60991329 15.24295018 172.60991329 15.24295018 178.9375 13.3125 C182.25 13.4375 182.25 13.4375 184.125 14.5 C188.74800426 22.46184068 185.37390724 35.33578494 183.50390625 43.82421875 C179.13900203 58.3544999 169.97874621 69.21472058 158.25 78.4375 C158.83007812 79.00855469 159.41015625 79.57960938 160.0078125 80.16796875 C166.36032242 86.76158054 169.86591774 92.9706589 173.25 101.4375 C181.38998252 97.78375785 188.55730326 93.37159073 195.81640625 88.22143555 C196.46480469 87.76164307 197.11320312 87.30185059 197.78125 86.828125 C198.35423828 86.41594727 198.92722656 86.00376953 199.51757812 85.57910156 C202.6757924 83.49795585 204.51970819 82.40828833 208.375 82.5625 C211.25 83.4375 211.25 83.4375 212.4140625 85.0703125 C215.29861304 93.23871264 213.72780026 103.90116504 210.25 111.671875 C205.13497048 121.70002498 198.59560126 126.36334729 188.25 130.4375 C186.58311231 131.10361385 184.91641415 131.77020239 183.25 132.4375 C183.63889404 133.54150146 184.02778809 134.64550293 184.4284668 135.78295898 C188.77160171 148.54029224 191.15012246 161.18602093 193.0625 174.5 C193.36258641 176.4969475 193.66401406 178.49369393 193.96679688 180.49023438 C200.31868184 222.86721172 200.31868184 222.86721172 190.25 237.4375 C186.10273561 242.56594646 181.46372873 246.13770615 175.25 248.4375 C174.59 248.4375 173.93 248.4375 173.25 248.4375 C173.23582031 249.43523437 173.22164063 250.43296875 173.20703125 251.4609375 C172.50507481 276.60890021 168.22012581 303.62440702 149.875 322.125 C130.87306483 338.18615949 100.06932668 340.26522771 76.25 341.4375 C75.22583984 341.49244629 74.20167969 341.54739258 73.14648438 341.60400391 C42.38189875 343.18322779 11.45014879 343.0221579 -19.3125 341.5625 C-20.1605722 341.52329437 -21.00864441 341.48408875 -21.88241577 341.44369507 C-30.9110754 341.01471439 -39.90559893 340.39863984 -48.8984375 339.48046875 C-50.03153099 339.3668248 -50.03153099 339.3668248 -51.18751526 339.25088501 C-65.72334874 337.67877464 -81.43672668 334.64529193 -91.75 323.4375 C-97.14899569 316.40157476 -99.10499651 309.31077027 -99.0625 300.4375 C-99.07861328 299.76460938 -99.09472656 299.09171875 -99.11132812 298.3984375 C-99.11830919 291.166058 -96.52494802 285.26821713 -91.66015625 279.94921875 C-83.95994081 273.85518322 -72.25583866 274.75862988 -63.0546875 275.71875 C-55.11734378 277.01261167 -48.60593444 280.53219384 -41.94921875 284.91796875 C-34.21315315 290.00145789 -28.16396411 293.67744907 -18.75 294.4375 C-16.49906371 294.7856664 -14.24911285 295.14024258 -12 295.5 C-4.58996869 296.51518228 2.7776686 297.15289999 10.25 297.4375 C11.56242676 297.49647461 11.56242676 297.49647461 12.90136719 297.55664062 C47.2342313 298.93415778 82.34466848 291.5545711 108.41796875 268.05859375 C109.35253906 267.19363281 110.28710938 266.32867187 111.25 265.4375 C112.38888672 264.40302734 112.38888672 264.40302734 113.55078125 263.34765625 C123.0471067 254.33075694 131.87392379 242.82498435 132.36328125 229.30859375 C132.01849171 217.52630304 128.69673565 207.5657566 121.25 198.4375 C120.28819469 196.91886003 119.33000991 195.39792248 118.375 193.875 C103.35513104 172.54341083 81.69158921 158.33517932 56.27734375 152.9453125 C30.26181927 148.58141807 5.615555 151.93494873 -16.5234375 166.89453125 C-32.57877973 178.43266954 -42.88448975 193.80612565 -48.75 212.4375 C-49.09224609 213.51813721 -49.09224609 213.51813721 -49.44140625 214.62060547 C-52.76305361 225.40409635 -54.58664045 236.11325561 -55.67456055 247.34179688 C-56.50237495 255.36697901 -58.61787506 261.82480212 -64.75 267.4375 C-72.02092699 272.42826428 -77.84846412 275.27582958 -86.75 274.4375 C-96.07386144 271.09498364 -100.66821756 260.94138847 -104.75 252.4375 C-115.49375707 227.04665541 -113.2867014 198.07516816 -105.05053711 172.40893555 C-104.74124268 171.43093994 -104.43194824 170.45294434 -104.11328125 169.4453125 C-103.82751221 168.57535645 -103.54174316 167.70540039 -103.24731445 166.80908203 C-102.70695202 164.23221377 -102.80494309 162.87553003 -103.75 160.4375 C-104.36875 159.7775 -104.9875 159.1175 -105.625 158.4375 C-110.65952948 151.32992897 -111.28540219 142.78235292 -110.265625 134.3359375 C-108.30126915 123.29387659 -108.30126915 123.29387659 -105.1015625 119.46484375 C-103.50920348 117.50968352 -103.50920348 117.50968352 -103.859375 115.03515625 C-104.07078125 114.19855469 -104.2821875 113.36195313 -104.5 112.5 C-104.70109375 111.66597656 -104.9021875 110.83195312 -105.109375 109.97265625 C-105.32078125 109.13605469 -105.5321875 108.29945313 -105.75 107.4375 C-107.88604036 97.50416548 -106.75007826 87.75661097 -101.20703125 79 C-94.83883597 71.30570456 -86.59313854 66.81096119 -76.75 65.4375 C-76.54761719 64.2103125 -76.34523437 62.983125 -76.13671875 61.71875 C-74.698126 55.27345103 -71.64125244 49.73402375 -68.5625 43.9375 C-68.01013672 42.86113281 -67.45777344 41.78476563 -66.88867188 40.67578125 C-62.06583544 31.47822327 -56.31818835 23.60554659 -48.9375 16.3125 C-48.42324463 15.80388428 -47.90898926 15.29526855 -47.37915039 14.77124023 C-35.85542212 3.60668387 -16.41222206 -9.02472551 0 0 Z M-41.75 18.4375 C-42.59949219 19.20835938 -43.44898438 19.97921875 -44.32421875 20.7734375 C-53.29544585 29.70537455 -59.10978141 40.64498921 -65.20214844 51.64990234 C-66.2106934 53.46623774 -67.23412703 55.27441019 -68.27441406 57.07275391 C-68.73299805 57.86987793 -69.19158203 58.66700195 -69.6640625 59.48828125 C-70.06834473 60.18219971 -70.47262695 60.87611816 -70.88916016 61.59106445 C-71.96127543 63.55112868 -71.96127543 63.55112868 -71.75 66.4375 C-69.11 66.4375 -66.47 66.4375 -63.75 66.4375 C-63.54375 65.2 -63.3375 63.9625 -63.125 62.6875 C-59.89898337 48.49302682 -50.73921066 36.42151768 -38.84375 28.28515625 C-31.61628669 23.96875455 -23.92167881 20.24840588 -15.8125 17.9375 C-10.93753439 16.44535273 -6.90616109 13.4364507 -3.75 9.4375 C-3.75 8.1175 -3.75 6.7975 -3.75 5.4375 C-17.23103136 -1.30301568 -32.27881928 9.75682728 -41.75 18.4375 Z M-43.46875 42.6015625 C-50.02537176 50.75243134 -55.45798382 59.44634601 -58.75 69.4375 C-57.43 69.7675 -56.11 70.0975 -54.75 70.4375 C-54.3375 69.74785156 -53.925 69.05820313 -53.5 68.34765625 C-43.39817409 51.90964043 -30.97913216 42.13668983 -12.03515625 37.53515625 C2.05458024 34.50607574 15.18998441 35.01936369 29.3046875 37.625 C31.24083242 37.96418586 33.1769788 38.30336366 35.11320686 38.64207458 C37.77870972 39.11142069 40.44211344 39.59209637 43.10552979 40.07312012 C47.79184259 40.91868748 52.47990377 41.75419114 57.17019653 42.57739258 C59.65473582 43.01463055 62.13797063 43.45937053 64.61959839 43.9128418 C73.86913607 45.54854466 81.87701752 46.15180116 91 43.625 C92.25296875 43.28855469 93.5059375 42.95210937 94.796875 42.60546875 C99.42269733 41.04085237 102.39203131 39.72445303 105.125 35.625 C106.40074252 32.0103962 106.35147878 30.08085288 105.25 26.4375 C104.26 25.9425 104.26 25.9425 103.25 25.4375 C100.87854824 26.6247249 98.60767437 27.86679576 96.3125 29.1875 C76.96571102 39.78320677 59.673718 37.24547789 39.21435547 31.31054688 C37.24889933 30.73169074 35.28436554 30.14969296 33.32080078 29.56445312 C6.50332878 21.62853288 -22.94841108 20.37119534 -43.46875 42.6015625 Z M145.25 22.4375 C139.3092254 26.42802031 134.7190581 31.02472558 130.1875 36.5 C122.02061646 46.27500974 113.06812775 52.79521088 100.25 55.4375 C92.11615475 55.8895935 84.12185357 55.16541751 76.0625 54.125 C75.04736328 54.00705078 74.03222656 53.88910156 72.98632812 53.76757812 C68.5229616 53.20641986 64.32855619 52.58642749 60.09765625 51.03125 C52.9569236 48.45943361 45.33960644 47.48205105 37.875 46.25 C36.66913239 46.04964645 36.66913239 46.04964645 35.43890381 45.84524536 C18.51759359 43.0680741 3.03083685 41.61013598 -13.75 46.4375 C-14.71292969 46.70433594 -15.67585938 46.97117187 -16.66796875 47.24609375 C-30.64731348 51.68241613 -41.26199611 61.93920303 -47.9375 74.78515625 C-48.205625 75.33042969 -48.47375 75.87570313 -48.75 76.4375 C-48.13125 77.200625 -47.5125 77.96375 -46.875 78.75 C-44.75 81.4375 -44.75 81.4375 -42.75 84.4375 C-42.04875 83.50808594 -41.3475 82.57867187 -40.625 81.62109375 C-30.44153464 68.27108309 -19.0173286 57.2395785 -1.5703125 54.6484375 C16.71714012 53.28067789 33.50128957 56.25406836 51.25 60.4375 C86.79966453 69.04879375 86.79966453 69.04879375 121.25 60.4375 C122.24128906 59.90769531 123.23257813 59.37789062 124.25390625 58.83203125 C135.15723578 52.44774511 144.5047258 43.60710064 147.87109375 31.13671875 C148.35367278 28.77704681 148.35367278 28.77704681 148.25 25.4375 C146.82421425 23.71402614 146.82421425 23.71402614 145.25 22.4375 Z M177.25 23.4375 C173.57392818 28.19715222 170.31895884 33.23401354 167.3125 38.4375 C157.04145069 55.70045095 141.27221605 65.6538877 121.95703125 70.7265625 C115.08972422 72.04358029 108.22561648 72.28378201 101.25 72.4375 C100.23421875 72.47746094 99.2184375 72.51742187 98.171875 72.55859375 C80.72999252 72.97271666 63.9259787 69.29350927 47.00843811 65.54353333 C25.88346498 60.87620583 4.02436958 57.41158437 -15.9375 67.9375 C-28.89258398 76.43263704 -36.86173084 90.37061557 -44.17578125 103.60546875 C-44.78574951 104.70802002 -45.39571777 105.81057129 -46.02416992 106.9465332 C-47.23213982 109.14337807 -48.42944068 111.34613306 -49.61450195 113.55541992 C-55.15914138 123.71067265 -61.35137077 132.63795692 -72.75 136.4375 C-79.54177801 137.21688436 -84.88414766 136.72493416 -90.7421875 133.08203125 C-93.58395957 130.75443195 -95.56750317 128.08060765 -97.55859375 125.01171875 C-97.95175781 124.49222656 -98.34492187 123.97273438 -98.75 123.4375 C-99.41 123.4375 -100.07 123.4375 -100.75 123.4375 C-102.11899965 127.54449894 -101.97388777 131.38550948 -102 135.6875 C-102.020625 136.52152344 -102.04125 137.35554688 -102.0625 138.21484375 C-102.10161945 144.44461591 -101.2562402 149.30469975 -97.25 154.3125 C-93.29890935 157.27581799 -88.43376959 156.82724433 -83.75 156.4375 C-73.70591797 154.59162941 -66.85614842 151.93903091 -60.75 143.4375 C-58.88258613 140.42280918 -57.06861014 137.38435825 -55.26953125 134.32885742 C-38.19085054 105.42022135 -17.75335259 82.55238896 15.25 73.4375 C33.69084871 69.44808118 53.90171751 73.03913053 72.25 75.875 C75.55542025 76.36737393 78.86155545 76.85474033 82.16772461 77.34205627 C84.19520446 77.64283939 86.22211349 77.94750837 88.24829102 78.25694275 C109.95792844 81.56343084 135.74993754 84.53860259 155.25 72.4375 C156.30960937 71.79167969 156.30960937 71.79167969 157.390625 71.1328125 C169.63573217 62.8603546 174.78551159 48.31770995 177.7578125 34.44140625 C178.37494097 30.67496343 178.47378222 27.24179779 178.25 23.4375 C177.92 23.4375 177.59 23.4375 177.25 23.4375 Z M-83.75 77.4375 C-83.42 79.4175 -83.09 81.3975 -82.75 83.4375 C-79.74204833 83.78259128 -79.74204833 83.78259128 -78.14453125 81.90625 C-77.62246094 81.2565625 -77.10039062 80.606875 -76.5625 79.9375 C-75.76779297 78.96296875 -75.76779297 78.96296875 -74.95703125 77.96875 C-74.55871094 77.4634375 -74.16039062 76.958125 -73.75 76.4375 C-78.83303686 76.32429144 -78.83303686 76.32429144 -83.75 77.4375 Z M-70.75 76.4375 C-71.08 77.0975 -71.41 77.7575 -71.75 78.4375 C-70.98498445 80.23290511 -70.98498445 80.23290511 -69.8125 82.0625 C-69.131875 83.17625 -68.45125 84.29 -67.75 85.4375 C-64.38408134 83.99496343 -62.23952921 82.10485273 -59.75 79.4375 C-60.8225 78.9425 -61.895 78.4475 -63 77.9375 C-63.60328125 77.6590625 -64.2065625 77.380625 -64.828125 77.09375 C-67.04242836 76.22207076 -67.04242836 76.22207076 -70.75 76.4375 Z M-5.75 89.4375 C-6.08 90.0975 -6.41 90.7575 -6.75 91.4375 C-6.04762207 91.36893799 -5.34524414 91.30037598 -4.62158203 91.22973633 C29.20801259 88.1430138 58.48932847 92.51364997 90.25 104.4375 C92.13843695 105.12872738 94.027689 105.81773436 95.91796875 106.50390625 C98.96326666 107.61225943 102.00427823 108.73037195 105.0390625 109.8671875 C105.71074463 110.11710449 106.38242676 110.36702148 107.07446289 110.62451172 C108.65144964 111.21382446 110.22583613 111.81011067 111.79858398 112.41064453 C130.32845639 119.36368613 149.77802909 123.52058387 169.5625 123.6875 C170.48240723 123.69700684 171.40231445 123.70651367 172.35009766 123.71630859 C182.93357401 123.66464454 191.74897252 121.93852748 199.4375 114.25 C204.13128973 106.96653318 207.48857454 100.29883992 207.25 91.4375 C206.92 90.7775 206.59 90.1175 206.25 89.4375 C202.31556651 90.82196852 199.37262942 92.66456532 196.0625 95.1875 C182.51686706 105.23278095 170.59567681 111.21847761 153.38671875 109.08203125 C143.5061517 107.1725572 134.5584007 102.90653285 125.42333984 98.83642578 C121.86335225 97.26705135 118.28755564 95.73656592 114.70703125 94.21484375 C114.06757065 93.94277603 113.42811005 93.67070831 112.76927185 93.39039612 C110.21080986 92.3021001 107.65216905 91.21423122 105.09274292 90.12820435 C103.30563115 89.36904383 101.51996902 88.60647352 99.734375 87.84375 C98.18314941 87.18342773 98.18314941 87.18342773 96.60058594 86.50976562 C94.25 85.4375 94.25 85.4375 93.25 84.4375 C90.94025691 84.00435193 88.64373068 83.62549059 86.3203125 83.28125 C85.61534637 83.1740564 84.91038025 83.06686279 84.18405151 82.9564209 C82.68289936 82.72919356 81.1814325 82.50403737 79.6796875 82.28076172 C77.41840325 81.94396451 75.15839289 81.59949399 72.8984375 81.25390625 C45.49497945 77.104068 18.87158346 74.8503732 -5.75 89.4375 Z M-89.875 81 C-92.16600864 83.42258672 -92.16600864 83.42258672 -91.5 87.1875 C-91.2525 88.26 -91.005 89.3325 -90.75 90.4375 C-87.09683329 89.18773244 -85.96934164 88.76651247 -83.75 85.4375 C-85.235 82.4675 -85.235 82.4675 -86.75 79.4375 C-88.05532791 79.33876826 -88.05532791 79.33876826 -89.875 81 Z M-75.37890625 81.96875 C-76.01699219 82.6184375 -76.65507812 83.268125 -77.3125 83.9375 C-77.95316406 84.5871875 -78.59382813 85.236875 -79.25390625 85.90625 C-79.74761719 86.4115625 -80.24132812 86.916875 -80.75 87.4375 C-79.76 90.0775 -78.77 92.7175 -77.75 95.4375 C-76.43388323 94.48413979 -75.12221039 93.52464226 -73.8125 92.5625 C-72.71615234 91.76199219 -72.71615234 91.76199219 -71.59765625 90.9453125 C-69.63901765 89.55737896 -69.63901765 89.55737896 -68.75 87.4375 C-69.51501555 85.64209489 -69.51501555 85.64209489 -70.6875 83.8125 C-71.368125 82.69875 -72.04875 81.585 -72.75 80.4375 C-74.00117073 80.32334524 -74.00117073 80.32334524 -75.37890625 81.96875 Z M-59.75 80.4375 C-61.33455866 82.22473941 -61.33455866 82.22473941 -62.875 84.4375 C-63.82375 85.7575 -64.7725 87.0775 -65.75 88.4375 C-63.77 91.0775 -61.79 93.7175 -59.75 96.4375 C-56.11905358 93.78789045 -53.85148204 91.41925544 -51.75 87.4375 C-52.70117134 86.2649869 -53.66117009 85.09962985 -54.625 83.9375 C-55.15867187 83.2878125 -55.69234375 82.638125 -56.2421875 81.96875 C-56.73976563 81.4634375 -57.23734375 80.958125 -57.75 80.4375 C-58.41 80.4375 -59.07 80.4375 -59.75 80.4375 Z M142.80249023 82.80957031 C133.26683692 85.28569691 124.07878842 86.19147276 114.25 86.4375 C116.63079465 88.02469643 118.61106146 89.10709534 121.20703125 90.20703125 C121.98328857 90.53622559 122.7595459 90.86541992 123.55932617 91.20458984 C124.38537354 91.5495752 125.2114209 91.89456055 126.0625 92.25 C126.91110596 92.60529785 127.75971191 92.9605957 128.6340332 93.32666016 C146.83877577 101.13723575 146.83877577 101.13723575 166.25 103.4375 C162.55870394 95.01265959 158.30802007 87.51411918 151.25 81.4375 C148.22225627 81.4375 145.71515178 82.04722163 142.80249023 82.80957031 Z M-94.75 87.4375 C-95.08 89.0875 -95.41 90.7375 -95.75 92.4375 C-95.09 92.4375 -94.43 92.4375 -93.75 92.4375 C-93.75 90.7875 -93.75 89.1375 -93.75 87.4375 C-94.08 87.4375 -94.41 87.4375 -94.75 87.4375 Z M-89.75 93.4375 C-89.09 96.0775 -88.43 98.7175 -87.75 101.4375 C-82.92557816 100.16803486 -82.92557816 100.16803486 -79.75 96.4375 C-81.05096474 92.76269416 -81.05096474 92.76269416 -82.75 89.4375 C-85.88323425 89.4375 -87.43020784 91.48399081 -89.75 93.4375 Z M-72.375 93.4375 C-73.32246094 94.2728125 -73.32246094 94.2728125 -74.2890625 95.125 C-74.77117187 95.558125 -75.25328125 95.99125 -75.75 96.4375 C-74.3802836 100.43250618 -72.49277578 103.23759492 -69.75 106.4375 C-65.4757442 104.8544423 -63.48468206 101.93181596 -60.75 98.4375 C-61.70043374 97.09852417 -62.66059147 95.76644573 -63.625 94.4375 C-64.42550781 93.32375 -64.42550781 93.32375 -65.2421875 92.1875 C-65.73976563 91.61 -66.23734375 91.0325 -66.75 90.4375 C-69.52042109 90.4375 -70.33164956 91.6211885 -72.375 93.4375 Z M-51.75 90.4375 C-52.80016013 91.57784008 -53.81590196 92.75006404 -54.8125 93.9375 C-55.63427734 94.91203125 -55.63427734 94.91203125 -56.47265625 95.90625 C-56.89417969 96.4115625 -57.31570312 96.916875 -57.75 97.4375 C-57.09 98.7575 -56.43 100.0775 -55.75 101.4375 C-52.5046873 100.71040804 -52.5046873 100.71040804 -51 97.625 C-49.76410554 94.47346914 -49.46777811 93.46820628 -50.75 90.4375 C-51.08 90.4375 -51.41 90.4375 -51.75 90.4375 Z M-96.75 95.4375 C-96.75 99.0675 -96.75 102.6975 -96.75 106.4375 C-91.94560835 105.99887732 -91.94560835 105.99887732 -90.25 103.75 C-89.50283515 100.29436259 -91.00727275 98.38673072 -92.75 95.4375 C-94.07 95.4375 -95.39 95.4375 -96.75 95.4375 Z M-30.5625 113.25 C-40.02214073 124.4435871 -48.97322664 136.92438932 -56.1875 149.6875 C-58.31576346 153.15195476 -60.67376211 155.1838396 -64.1015625 157.33203125 C-65.81390675 158.38407306 -65.81390675 158.38407306 -67.13671875 159.96875 C-74.23286356 166.42916271 -87.78999161 164.74450536 -96.75 164.4375 C-98.84545224 171.74929078 -100.25507688 179.04772469 -101.375 186.5625 C-101.49786377 187.38459961 -101.62072754 188.20669922 -101.74731445 189.05371094 C-104.93077955 211.10759868 -106.13940308 238.10130662 -92.75 257.375 C-90.12943601 260.3640808 -87.59794817 262.2350162 -83.75 263.4375 C-78.84514087 263.3331413 -74.44505926 261.66404287 -70.75 258.4375 C-68.58732635 252.09270246 -68.48293605 246.02744042 -68.375 239.375 C-67.40122039 208.96257234 -59.20582112 184.35166316 -36.82421875 163.1875 C-12.81381526 141.28915804 14.07063717 131.01782223 46.25 132.4375 C72.65284995 134.4793813 96.38343915 141.27060316 115.25 160.4375 C116.10980469 161.23929687 116.96960938 162.04109375 117.85546875 162.8671875 C134.65544305 178.75553529 145.81715139 198.26942813 146.69287109 221.53198242 C146.89127088 231.62239182 146.11992487 238.92673473 140.25 247.4375 C139.63511719 248.4378125 139.02023437 249.438125 138.38671875 250.46875 C124.38681254 272.68904201 102.55826765 288.17695847 78.25 297.4375 C77.0235376 297.91380859 75.7970752 298.39011719 74.53344727 298.88085938 C64.44278659 302.69246459 54.68411665 304.95728499 44 306.3125 C43.23085266 306.4148999 42.46170532 306.5172998 41.66925049 306.62280273 C14.65161299 310.18227036 -10.59468506 309.01119612 -36.75 301.4375 C-38.05845931 301.06333164 -39.36705098 300.68962579 -40.67578125 300.31640625 C-41.69027344 300.02636719 -42.70476562 299.73632812 -43.75 299.4375 C-43.234375 300.530625 -42.71875 301.62375 -42.1875 302.75 C-40.22354295 308.09422927 -40.30446339 312.95067823 -41.75 318.4375 C-43.14752685 321.03952513 -44.67432063 323.32020426 -46.47265625 325.66015625 C-47.94453309 327.34339155 -47.94453309 327.34339155 -47.75 329.4375 C-24.39806752 331.07883594 -1.09423193 331.63799061 22.3125 331.625 C23.5742807 331.6257251 24.8360614 331.6264502 26.13607788 331.62719727 C40.32543688 331.62627574 54.50186879 331.43901766 68.68359375 330.98828125 C69.94011246 330.94978561 71.19663116 330.91128998 72.4912262 330.87162781 C78.14700373 330.6744174 83.67228608 330.41666786 89.25 329.4375 C89.21519531 328.75945312 89.18039062 328.08140625 89.14453125 327.3828125 C88.70589353 312.30202979 95.26857929 300.11321954 105.48046875 289.140625 C115.55645189 279.44276926 128.22102657 273.60928335 142.25 273.4375 C148.9888915 274.06275797 154.36801707 276.16973171 160.25 279.4375 C163.24031215 267.47466025 163.24031215 267.47466025 164.26953125 255.23828125 C164.26308594 253.98402344 164.25664062 252.72976563 164.25 251.4375 C161.49991865 252.08298853 158.74993244 252.72887766 156 253.375 C155.22269531 253.55740234 154.44539063 253.73980469 153.64453125 253.92773438 C152.89042969 254.10498047 152.13632812 254.28222656 151.359375 254.46484375 C150.66811523 254.62718506 149.97685547 254.78952637 149.26464844 254.95678711 C147.25600899 255.4360662 145.25243058 255.93296602 143.25 256.4375 C144.18974777 252.81007361 145.00274327 251.60355311 148.1640625 249.48046875 C149.39300026 248.84615116 150.63067021 248.22856458 151.875 247.625 C152.53290527 247.28879639 153.19081055 246.95259277 153.86865234 246.60620117 C157.430569 244.79581941 161.02786511 243.0593567 164.625 241.3203125 C165.33575684 240.97331299 166.04651367 240.62631348 166.77880859 240.26879883 C168.14108125 239.60670195 169.50841088 238.95487585 170.88134766 238.31518555 C177.86667022 234.94410142 181.60639232 230.84561683 184.49560547 223.76318359 C185.63579204 220.24816183 185.88533043 216.90721405 185.8125 213.25 C185.79932739 212.01721313 185.79932739 212.01721313 185.78588867 210.75952148 C184.67440658 170.46617511 184.67440658 170.46617511 174.25 132.4375 C171.19723644 132.07817069 168.18914477 131.82703752 165.125 131.625 C136.36721466 129.28105877 108.96924826 119.57423487 82.28515625 109.1015625 C50.18388514 96.72242342 -3.40823715 84.39859573 -30.5625 113.25 Z M-85.75 103.4375 C-85.30530671 108.47735731 -83.03656638 110.81384988 -79.75 114.4375 C-75.33110387 113.08728174 -73.40654657 111.17634332 -70.75 107.4375 C-71.86799986 106.09829162 -72.99461897 104.76627444 -74.125 103.4375 C-74.75148438 102.695 -75.37796875 101.9525 -76.0234375 101.1875 C-76.59320313 100.61 -77.16296875 100.0325 -77.75 99.4375 C-81.03158484 99.4375 -83.12881108 101.61406423 -85.75 103.4375 Z M-59.75 100.4375 C-62.06 102.7475 -64.37 105.0575 -66.75 107.4375 C-64.86656068 111.20437864 -64.05867531 112.23171646 -60.75 114.4375 C-59.85565843 113.03296357 -58.98506808 111.61328131 -58.125 110.1875 C-57.63773438 109.39859375 -57.15046875 108.6096875 -56.6484375 107.796875 C-55.48052756 105.47169545 -55.48052756 105.47169545 -56.4765625 103.203125 C-57.64348478 101.29749633 -57.64348478 101.29749633 -59.75 100.4375 Z M-88.75 105.4375 C-91.06 106.7575 -93.37 108.0775 -95.75 109.4375 C-95.09 112.4075 -94.43 115.3775 -93.75 118.4375 C-89.20194365 118.61585515 -85.8705746 118.43535435 -81.75 116.4375 C-83.90078722 112.58091602 -85.98455278 108.89430903 -88.75 105.4375 Z M-73.375 113.4375 C-74.48875 114.4275 -75.6025 115.4175 -76.75 116.4375 C-73.78 119.9025 -73.78 119.9025 -70.75 123.4375 C-67.18688534 121.65594267 -65.39354525 120.26986991 -62.75 117.4375 C-64.03519565 114.57052508 -65.32129254 112.46142288 -67.75 110.4375 C-70.52042109 110.4375 -71.33164956 111.6211885 -73.375 113.4375 Z M-80.75 117.4375 C-82.85087365 117.84708631 -82.85087365 117.84708631 -84.9375 118.8125 C-85.65292969 119.10898438 -86.36835937 119.40546875 -87.10546875 119.7109375 C-87.64816406 119.95070313 -88.19085938 120.19046875 -88.75 120.4375 C-87.73929671 123.1020814 -86.8100516 124.38945872 -84.5625 126.1875 C-81.09123295 127.73028536 -78.51193131 127.72141934 -74.75 127.4375 C-74.09 127.1075 -73.43 126.7775 -72.75 126.4375 C-72.52365267 124.11461095 -72.52365267 124.11461095 -75.0625 121.9375 C-77.68098108 119.3675464 -77.68098108 119.3675464 -80.75 117.4375 Z M103.37109375 298.6796875 C96.51279423 307.71546009 93.34219679 318.40591692 91.25 329.4375 C92.8754308 329.29654936 94.50034051 329.14957913 96.125 329 C97.02992188 328.91878906 97.93484375 328.83757812 98.8671875 328.75390625 C101.26110861 328.56760715 101.26110861 328.56760715 103.25 327.4375 C104.01121979 325.64656818 104.7088481 323.82842391 105.375 322 C110.07918072 310.45834731 119.51137558 299.4623602 131.1875 294.4375 C138.91833429 292.09916123 146.66048938 291.69235786 154.25 294.4375 C155.24 294.4375 156.23 294.4375 157.25 294.4375 C157.58 293.2 157.91 291.9625 158.25 290.6875 C158.435625 289.99140625 158.62125 289.2953125 158.8125 288.578125 C159.38349349 286.14848139 159.38349349 286.14848139 159.25 282.4375 C136.48382305 274.21230059 118.6906784 280.39810415 103.37109375 298.6796875 Z M-81.75 286.4375 C-81.75 286.7675 -81.75 287.0975 -81.75 287.4375 C-81.18152344 287.59605469 -80.61304687 287.75460937 -80.02734375 287.91796875 C-72.32692988 290.24480499 -66.97424313 292.86731695 -62.875 300 C-59.45611149 306.5321148 -58.43160106 313.66980153 -60.421875 320.8671875 C-61.13215351 322.75009563 -61.93267839 324.59852638 -62.75 326.4375 C-56.7803173 328.42875276 -56.7803173 328.42875276 -50.75 327.4375 C-48.89868654 325.50018768 -48.89868654 325.50018768 -47.5 323.0625 C-46.99984375 322.27101563 -46.4996875 321.47953125 -45.984375 320.6640625 C-42.96189117 315.21211381 -42.98992071 309.51021686 -43.75 303.4375 C-46.80977962 295.80276142 -57.68829047 290.81475689 -64.75 287.4375 C-70.6279825 285.34599564 -75.68750874 285.11956712 -81.75 286.4375 Z M-89.75 290.4375 C-89.75 294.0675 -89.75 297.6975 -89.75 301.4375 C-88.698125 301.52 -87.64625 301.6025 -86.5625 301.6875 C-82.26789001 302.53234131 -80.6638184 303.199924 -77.75 306.4375 C-74.98473537 311.97874734 -74.3469739 316.44275214 -75.75 322.4375 C-72.61501708 324.29526765 -70.37528568 324.63890476 -66.75 324.4375 C-62.97986555 318.78229833 -62.98202951 313.07869933 -63.75 306.4375 C-65.2438378 301.02233797 -68.03785527 297.46683442 -72.7578125 294.46875 C-78.24519493 291.62822263 -83.51702317 289.95804024 -89.75 290.4375 Z M122.64453125 308.18359375 C120.25 310.4375 120.25 310.4375 117.71875 312.36328125 C114.92086097 314.71403928 113.03494235 317.20131089 110.9375 320.1875 C110.24011719 321.17234375 109.54273438 322.1571875 108.82421875 323.171875 C108.30472656 323.91953125 107.78523437 324.6671875 107.25 325.4375 C111.34689705 327.08052642 115.14487534 325.82485282 119.25 324.8125 C120.00531006 324.62792236 120.76062012 324.44334473 121.53881836 324.25317383 C133.80228939 321.13428364 143.37852557 316.87340453 151.3125 306.75 C153.50691671 303.76197347 153.50691671 303.76197347 152.99609375 301.29296875 C152.40908435 299.24078914 152.40908435 299.24078914 150.25 298.4375 C137.88249563 297.44809965 131.55313937 299.67795983 122.64453125 308.18359375 Z M-88.75 305.4375 C-87.22549821 311.23804339 -86.09673609 315.11385324 -80.75 318.4375 C-80.14312014 312.46812724 -80.14312014 312.46812724 -83.0625 307.4375 C-85.59277939 305.13899462 -85.59277939 305.13899462 -88.75 305.4375 Z " fill="#000000" transform="translate(205.75,86.5625)"/>
<path d="M0 0 C17.08138939 0.63721188 31.95488183 9.89649671 43.55859375 21.99609375 C54.5043303 35.35287949 60.25701147 50.62591249 58.55859375 67.99609375 C55.64723839 83.03809644 46.27468812 96.28363009 34.55859375 105.99609375 C18.78840477 116.55605056 1.21875357 118.54221493 -17.17041016 115.46630859 C-33.38398223 112.10925207 -49.23976155 103.13369847 -58.87890625 89.49609375 C-66.87904518 76.38037302 -67.56085564 60.73670432 -64.44140625 45.99609375 C-60.76611968 31.07552738 -53.1015133 19.02246654 -40.37890625 10.37109375 C-26.85502714 2.24931511 -15.53888748 -0.01763778 0 0 Z M-41.44140625 26.99609375 C-49.6264966 37.35111059 -52.31125279 47.60198315 -50.9453125 60.671875 C-49.60617135 69.50605422 -46.78995307 75.85550804 -41.44140625 82.99609375 C-40.38953125 84.54296875 -40.38953125 84.54296875 -39.31640625 86.12109375 C-32.01922746 94.60287949 -20.18493054 98.17275824 -9.44140625 98.99609375 C0.87056436 99.6227881 10.40937232 97.81648078 19.55859375 92.99609375 C20.39519531 92.56296875 21.23179687 92.12984375 22.09375 91.68359375 C28.14359802 88.32560873 32.53644557 84.6311846 36.55859375 78.99609375 C37.06648438 78.32578125 37.574375 77.65546875 38.09765625 76.96484375 C43.28966638 68.72724108 42.68661281 58.35461644 41.55859375 48.99609375 C39.56884769 40.31834663 35.52289126 33.51838167 29.55859375 26.99609375 C28.92824219 26.29742187 28.29789062 25.59875 27.6484375 24.87890625 C19.20461215 15.98183382 10.40687124 10.62811357 -1.94140625 9.74609375 C-16.92456585 10.03203191 -31.35719567 15.8279757 -41.44140625 26.99609375 Z " fill="#000000" transform="translate(240.44140625,253.00390625)"/>
<path d="M0 0 C5.18184603 3.17377433 9.20875289 6.01705281 11 12 C11.71346787 16.26708671 11.95302822 20.2596876 9.83203125 24.1328125 C7.04986502 27.55151548 4.40731406 30.09850394 0 31 C-6.01386261 31.54579593 -10.86779486 31.54366545 -16 28 C-20.44571029 23.07367238 -21.35626128 20.04629143 -21.28125 13.5390625 C-20.73922594 8.64578974 -18.04854302 5.96788587 -14.5625 2.75 C-9.44670208 -0.74371565 -6.11205646 -1.73174933 0 0 Z M-11 12 C-12.23450072 14.98500142 -12.23450072 14.98500142 -12 18 C-10.41697356 20.70045687 -9.08265129 20.977139 -6.0625 21.8125 C-2.87653809 22.00755889 -1.57600582 21.81274484 1 20 C2.54163175 16.9167365 2.29747535 14.39121901 2 11 C0.30835778 8.95970404 0.30835778 8.95970404 -2 8 C-6.13351845 8 -7.84629002 9.39476132 -11 12 Z " fill="#000000" transform="translate(238,294)"/>
<path d="M0 0 C1.9375 1.1875 1.9375 1.1875 3 3 C2.6875 5.6875 2.6875 5.6875 2 8 C-10.16853933 11.41573034 -10.16853933 11.41573034 -15 9 C-15 7.68 -15 6.36 -15 5 C-5.33203125 -1.015625 -5.33203125 -1.015625 0 0 Z " fill="#000000" transform="translate(222,200)"/>
<path d="M0 0 C0.76183594 -0.00515625 1.52367187 -0.0103125 2.30859375 -0.015625 C4.77693018 0.2752708 6.420186 1.02024344 8.5625 2.25 C8.21807106 4.74710982 7.71546001 6.07154665 6.0625 8 C2.33394375 9.86427813 -1.33728765 9.66160433 -5.4375 9.25 C-6.0975 8.92 -6.7575 8.59 -7.4375 8.25 C-7.625 5.375 -7.625 5.375 -7.4375 2.25 C-4.32763793 0.17675862 -3.54641613 -0.02392186 0 0 Z " fill="#000000" transform="translate(249.4375,197.75)"/>
<path d="M0 0 C2.0625 1.5625 2.0625 1.5625 2.875 3.6875 C2.936875 4.30625 2.99875 4.925 3.0625 5.5625 C-1.62492546 9.38645235 -3.79368991 10.93865164 -9.9375 10.5625 C-10.9275 9.9025 -11.9175 9.2425 -12.9375 8.5625 C-10.7357785 3.30095016 -5.88470259 -0.87644507 0 0 Z " fill="#000000" transform="translate(191.9375,212.4375)"/>
<path d="M0 0 C0.8971875 0.309375 0.8971875 0.309375 1.8125 0.625 C2.625 2.6875 2.625 2.6875 2.8125 5.625 C0.88294002 9.82675211 -1.2485428 12.21752801 -5.5 14.0625 C-6.8303125 14.3409375 -6.8303125 14.3409375 -8.1875 14.625 C-9.22551177 10.29995094 -9.55311226 8.31705179 -7.4375 4.3125 C-3.34670976 -0.57372167 -3.34670976 -0.57372167 0 0 Z " fill="#000000" transform="translate(145.1875,250.375)"/>
<path d="M0 0 C1.32 0.33 2.64 0.66 4 1 C4.08142927 2.7492214 4.13938541 4.49954542 4.1875 6.25 C4.22230469 7.22453125 4.25710937 8.1990625 4.29296875 9.203125 C3.96075202 12.37468742 3.11327721 13.67040307 1 16 C-2.16115776 14.63016497 -2.9927092 14.0109362 -5 11 C-4.78762164 6.11529769 -3.25743085 3.5726661 0 0 Z " fill="#000000" transform="translate(129,276)"/>
<path d="M0 0 C1.1446875 0.3403125 1.1446875 0.3403125 2.3125 0.6875 C2.4924928 5.90729128 2.28344808 9.76012981 0.3125 14.6875 C-1.0075 14.6875 -2.3275 14.6875 -3.6875 14.6875 C-5.68334278 10.57107426 -6.10946743 7.24474828 -5.6875 2.6875 C-3.97907171 -0.18985291 -3.34260852 -0.38867541 0 0 Z " fill="#000000" transform="translate(127.6875,306.3125)"/>
<path d="M0 0 C2.9375 0.375 2.9375 0.375 6 1 C7.44430855 3.88861709 7.37688506 5.79647701 7 9 C4.5 11.875 4.5 11.875 2 14 C1.01 13.67 0.02 13.34 -1 13 C-2.5635348 9.87293041 -2.39958487 6.42017557 -2 3 C-1.34 2.01 -0.68 1.02 0 0 Z " fill="#000000" transform="translate(369,289)"/>
<path d="M0 0 C3.16616628 1.39683806 4.94642182 3.27479333 7.125 5.9375 C7.4375 8.75 7.4375 8.75 7.125 10.9375 C3.38630369 11.98085711 1.77069177 12.29621765 -1.6875 10.375 C-4.25304992 7.51624438 -4.61733354 5.71660801 -4.875 1.9375 C-1.875 -0.0625 -1.875 -0.0625 0 0 Z " fill="#000000" transform="translate(335.875,225.0625)"/>
<path d="M0 0 C5.59624191 0.26029032 8.05390648 2.3357703 12 6 C11.34 7.32 10.68 8.64 10 10 C8.56138706 9.91253716 7.12402492 9.80434652 5.6875 9.6875 C4.88699219 9.62949219 4.08648437 9.57148438 3.26171875 9.51171875 C0.59942213 8.90936839 -0.3938107 8.18547069 -2 6 C-1.57894737 1.57894737 -1.57894737 1.57894737 0 0 Z " fill="#000000" transform="translate(307,211)"/>
<path d="M0 0 C0.4375 2.6875 0.4375 2.6875 0 6 C-2.0444443 8.17961417 -4.28680653 9.75369568 -7 11 C-8.32 11 -9.64 11 -11 11 C-11.35671933 7.16526716 -11.29771416 5.44657125 -9.125 2.1875 C-5.79714368 -1.23823445 -4.49969689 -1.06571768 0 0 Z " fill="#000000" transform="translate(166,234)"/>
<path d="M0 0 C6.75 2.75 6.75 2.75 9 5 C8.625 7.125 8.625 7.125 8 9 C4.47078888 9.90282145 2.59289113 10.25033181 -0.8125 8.8125 C-3.16753715 6.86118351 -3.69108003 5.98622637 -4 3 C-2.68 2.01 -1.36 1.02 0 0 Z " fill="#000000" transform="translate(275,202)"/>
<path d="M0 0 C2.5 0.1875 2.5 0.1875 5 1 C7.56687367 4.8503105 6.83288724 6.58569763 6 11 C5.01 11.33 4.02 11.66 3 12 C-1.88135593 7.72881356 -1.88135593 7.72881356 -2.4375 4.3125 C-2 2 -2 2 0 0 Z " fill="#000000" transform="translate(361,266)"/>
<path d="M0 0 C2.5 0.1875 2.5 0.1875 5 1 C7.23551759 4.35327639 7.17283528 4.90743657 6.625 8.6875 C6.45871094 9.89986328 6.45871094 9.89986328 6.2890625 11.13671875 C6.19367188 11.75160156 6.09828125 12.36648438 6 13 C1.20645161 10.82111437 1.20645161 10.82111437 -1 9 C-2.0625 5.375 -2.0625 5.375 -2 2 C-1.34 1.34 -0.68 0.68 0 0 Z " fill="#000000" transform="translate(351,246)"/>
<path d="M0 0 C2.625 0.375 2.625 0.375 5 1 C5.6875 3.25 5.6875 3.25 6 6 C4.5625 8.3125 4.5625 8.3125 3 10 C0.03 9.505 0.03 9.505 -3 9 C-2.25 2.25 -2.25 2.25 0 0 Z " fill="#000000" transform="translate(365,314)"/>
<path d="M0 0 C1.65 0.33 3.3 0.66 5 1 C5.73080266 2.97746603 6.39421747 4.98072489 7 7 C6.67 7.66 6.34 8.32 6 9 C4.35 9 2.7 9 1 9 C-0.61949011 6.42786866 -1.04408751 5.32330841 -0.625 2.25 C-0.41875 1.5075 -0.2125 0.765 0 0 Z " fill="#000000" transform="translate(123,331)"/>
<path d="M0 0 C0.66 0.33 1.32 0.66 2 1 C0.35 2.32 -1.3 3.64 -3 5 C-1.125 1.125 -1.125 1.125 0 0 Z " fill="#000000" transform="translate(198,289)"/>
<path d="M0 0 C0.66 0.33 1.32 0.66 2 1 C1.01 1 0.02 1 -1 1 C-0.67 0.67 -0.34 0.34 0 0 Z " fill="#000000" transform="translate(112,365)"/>
<path d="M0 0 C0.66 0 1.32 0 2 0 C1.67 0.66 1.34 1.32 1 2 C0.67 1.34 0.34 0.68 0 0 Z " fill="#000000" transform="translate(156,312)"/>
<path d="" fill="#000000" transform="translate(0,0)"/>
<path d="M0 0 C2 1 2 1 2 1 Z " fill="#000000" transform="translate(224,252)"/>
<path d="" fill="#000000" transform="translate(0,0)"/>
<path d="" fill="#000000" transform="translate(0,0)"/>
<path d="" fill="#000000" transform="translate(0,0)"/>
<path d="" fill="#000000" transform="translate(0,0)"/>
<path d="" fill="#000000" transform="translate(0,0)"/>
<path d="" fill="#000000" transform="translate(0,0)"/>
<path d="" fill="#000000" transform="translate(0,0)"/>
</svg>
